G04 #@! TF.GenerationSoftware,KiCad,Pcbnew,9.0.3-9.0.3-0~ubuntu24.04.1*
G04 #@! TF.CreationDate,2025-07-13T11:29:56+02:00*
G04 #@! TF.ProjectId,PCBWatch,50434257-6174-4636-982e-6b696361645f,rev?*
G04 #@! TF.SameCoordinates,Original*
G04 #@! TF.FileFunction,Legend,Top*
G04 #@! TF.FilePolarity,Positive*
%FSLAX46Y46*%
G04 Gerber Fmt 4.6, Leading zero omitted, Abs format (unit mm)*
G04 Created by KiCad (PCBNEW 9.0.3-9.0.3-0~ubuntu24.04.1) date 2025-07-13 11:29:56*
%MOMM*%
%LPD*%
G01*
G04 APERTURE LIST*
G04 Aperture macros list*
%AMRoundRect*
0 Rectangle with rounded corners*
0 $1 Rounding radius*
0 $2 $3 $4 $5 $6 $7 $8 $9 X,Y pos of 4 corners*
0 Add a 4 corners polygon primitive as box body*
4,1,4,$2,$3,$4,$5,$6,$7,$8,$9,$2,$3,0*
0 Add four circle primitives for the rounded corners*
1,1,$1+$1,$2,$3*
1,1,$1+$1,$4,$5*
1,1,$1+$1,$6,$7*
1,1,$1+$1,$8,$9*
0 Add four rect primitives between the rounded corners*
20,1,$1+$1,$2,$3,$4,$5,0*
20,1,$1+$1,$4,$5,$6,$7,0*
20,1,$1+$1,$6,$7,$8,$9,0*
20,1,$1+$1,$8,$9,$2,$3,0*%
%AMRotRect*
0 Rectangle, with rotation*
0 The origin of the aperture is its center*
0 $1 length*
0 $2 width*
0 $3 Rotation angle, in degrees counterclockwise*
0 Add horizontal line*
21,1,$1,$2,0,0,$3*%
G04 Aperture macros list end*
%ADD10C,0.080000*%
%ADD11C,0.060000*%
%ADD12C,0.150000*%
%ADD13C,0.140000*%
%ADD14C,0.120000*%
%ADD15C,0.100000*%
%ADD16C,0.200000*%
%ADD17C,0.400000*%
%ADD18RoundRect,0.250000X-0.262500X-0.450000X0.262500X-0.450000X0.262500X0.450000X-0.262500X0.450000X0*%
%ADD19RoundRect,0.250000X0.475000X-0.250000X0.475000X0.250000X-0.475000X0.250000X-0.475000X-0.250000X0*%
%ADD20RoundRect,0.150000X-0.512500X-0.150000X0.512500X-0.150000X0.512500X0.150000X-0.512500X0.150000X0*%
%ADD21R,0.450000X1.750000*%
%ADD22RoundRect,0.250000X-0.450000X0.262500X-0.450000X-0.262500X0.450000X-0.262500X0.450000X0.262500X0*%
%ADD23RoundRect,0.250000X-0.250000X-0.475000X0.250000X-0.475000X0.250000X0.475000X-0.250000X0.475000X0*%
%ADD24RoundRect,0.330000X-0.318198X-0.629325X0.629325X0.318198X0.318198X0.629325X-0.629325X-0.318198X0*%
%ADD25R,1.000000X1.000000*%
%ADD26C,1.000000*%
%ADD27RoundRect,0.090000X0.509117X-0.212132X-0.212132X0.509117X-0.509117X0.212132X0.212132X-0.509117X0*%
%ADD28RoundRect,0.250000X-0.159099X0.512652X-0.512652X0.159099X0.159099X-0.512652X0.512652X-0.159099X0*%
%ADD29RoundRect,0.250000X0.503814X0.132583X0.132583X0.503814X-0.503814X-0.132583X-0.132583X-0.503814X0*%
%ADD30RoundRect,0.250000X-0.132583X0.503814X-0.503814X0.132583X0.132583X-0.503814X0.503814X-0.132583X0*%
%ADD31RoundRect,0.250000X-0.512652X-0.159099X-0.159099X-0.512652X0.512652X0.159099X0.159099X0.512652X0*%
%ADD32RoundRect,0.250000X0.512652X0.159099X0.159099X0.512652X-0.512652X-0.159099X-0.159099X-0.512652X0*%
%ADD33RoundRect,0.250000X0.159099X-0.512652X0.512652X-0.159099X-0.159099X0.512652X-0.512652X0.159099X0*%
%ADD34RotRect,1.000000X1.000000X315.000000*%
%ADD35RoundRect,0.102000X-1.166726X-0.459619X-0.459619X-1.166726X1.166726X0.459619X0.459619X1.166726X0*%
%ADD36RoundRect,0.075000X0.415425X0.521491X-0.521491X-0.415425X-0.415425X-0.521491X0.521491X0.415425X0*%
%ADD37RoundRect,0.075000X-0.415425X0.521491X-0.521491X0.415425X0.415425X-0.521491X0.521491X-0.415425X0*%
%ADD38RoundRect,0.250000X0.132583X-0.503814X0.503814X-0.132583X-0.132583X0.503814X-0.503814X0.132583X0*%
%ADD39RoundRect,0.250000X0.262500X0.450000X-0.262500X0.450000X-0.262500X-0.450000X0.262500X-0.450000X0*%
%ADD40R,1.950000X0.500000*%
%ADD41RoundRect,0.102000X0.459619X-1.166726X1.166726X-0.459619X-0.459619X1.166726X-1.166726X0.459619X0*%
G04 APERTURE END LIST*
D10*
X27161486Y-15982328D02*
X26994820Y-15744233D01*
X26875772Y-15982328D02*
X26875772Y-15482328D01*
X26875772Y-15482328D02*
X27066248Y-15482328D01*
X27066248Y-15482328D02*
X27113867Y-15506138D01*
X27113867Y-15506138D02*
X27137677Y-15529947D01*
X27137677Y-15529947D02*
X27161486Y-15577566D01*
X27161486Y-15577566D02*
X27161486Y-15648995D01*
X27161486Y-15648995D02*
X27137677Y-15696614D01*
X27137677Y-15696614D02*
X27113867Y-15720423D01*
X27113867Y-15720423D02*
X27066248Y-15744233D01*
X27066248Y-15744233D02*
X26875772Y-15744233D01*
X27637677Y-15982328D02*
X27351963Y-15982328D01*
X27494820Y-15982328D02*
X27494820Y-15482328D01*
X27494820Y-15482328D02*
X27447201Y-15553757D01*
X27447201Y-15553757D02*
X27399582Y-15601376D01*
X27399582Y-15601376D02*
X27351963Y-15625185D01*
X27168224Y-19982328D02*
X27001558Y-19744233D01*
X26882510Y-19982328D02*
X26882510Y-19482328D01*
X26882510Y-19482328D02*
X27072986Y-19482328D01*
X27072986Y-19482328D02*
X27120605Y-19506138D01*
X27120605Y-19506138D02*
X27144415Y-19529947D01*
X27144415Y-19529947D02*
X27168224Y-19577566D01*
X27168224Y-19577566D02*
X27168224Y-19648995D01*
X27168224Y-19648995D02*
X27144415Y-19696614D01*
X27144415Y-19696614D02*
X27120605Y-19720423D01*
X27120605Y-19720423D02*
X27072986Y-19744233D01*
X27072986Y-19744233D02*
X26882510Y-19744233D01*
X27334891Y-19482328D02*
X27668224Y-19482328D01*
X27668224Y-19482328D02*
X27453939Y-19982328D01*
X27168224Y-17982328D02*
X27001558Y-17744233D01*
X26882510Y-17982328D02*
X26882510Y-17482328D01*
X26882510Y-17482328D02*
X27072986Y-17482328D01*
X27072986Y-17482328D02*
X27120605Y-17506138D01*
X27120605Y-17506138D02*
X27144415Y-17529947D01*
X27144415Y-17529947D02*
X27168224Y-17577566D01*
X27168224Y-17577566D02*
X27168224Y-17648995D01*
X27168224Y-17648995D02*
X27144415Y-17696614D01*
X27144415Y-17696614D02*
X27120605Y-17720423D01*
X27120605Y-17720423D02*
X27072986Y-17744233D01*
X27072986Y-17744233D02*
X26882510Y-17744233D01*
X27596796Y-17482328D02*
X27501558Y-17482328D01*
X27501558Y-17482328D02*
X27453939Y-17506138D01*
X27453939Y-17506138D02*
X27430129Y-17529947D01*
X27430129Y-17529947D02*
X27382510Y-17601376D01*
X27382510Y-17601376D02*
X27358701Y-17696614D01*
X27358701Y-17696614D02*
X27358701Y-17887090D01*
X27358701Y-17887090D02*
X27382510Y-17934709D01*
X27382510Y-17934709D02*
X27406320Y-17958519D01*
X27406320Y-17958519D02*
X27453939Y-17982328D01*
X27453939Y-17982328D02*
X27549177Y-17982328D01*
X27549177Y-17982328D02*
X27596796Y-17958519D01*
X27596796Y-17958519D02*
X27620605Y-17934709D01*
X27620605Y-17934709D02*
X27644415Y-17887090D01*
X27644415Y-17887090D02*
X27644415Y-17768042D01*
X27644415Y-17768042D02*
X27620605Y-17720423D01*
X27620605Y-17720423D02*
X27596796Y-17696614D01*
X27596796Y-17696614D02*
X27549177Y-17672804D01*
X27549177Y-17672804D02*
X27453939Y-17672804D01*
X27453939Y-17672804D02*
X27406320Y-17696614D01*
X27406320Y-17696614D02*
X27382510Y-17720423D01*
X27382510Y-17720423D02*
X27358701Y-17768042D01*
X27161486Y-13982328D02*
X26994820Y-13744233D01*
X26875772Y-13982328D02*
X26875772Y-13482328D01*
X26875772Y-13482328D02*
X27066248Y-13482328D01*
X27066248Y-13482328D02*
X27113867Y-13506138D01*
X27113867Y-13506138D02*
X27137677Y-13529947D01*
X27137677Y-13529947D02*
X27161486Y-13577566D01*
X27161486Y-13577566D02*
X27161486Y-13648995D01*
X27161486Y-13648995D02*
X27137677Y-13696614D01*
X27137677Y-13696614D02*
X27113867Y-13720423D01*
X27113867Y-13720423D02*
X27066248Y-13744233D01*
X27066248Y-13744233D02*
X26875772Y-13744233D01*
X27351963Y-13529947D02*
X27375772Y-13506138D01*
X27375772Y-13506138D02*
X27423391Y-13482328D01*
X27423391Y-13482328D02*
X27542439Y-13482328D01*
X27542439Y-13482328D02*
X27590058Y-13506138D01*
X27590058Y-13506138D02*
X27613867Y-13529947D01*
X27613867Y-13529947D02*
X27637677Y-13577566D01*
X27637677Y-13577566D02*
X27637677Y-13625185D01*
X27637677Y-13625185D02*
X27613867Y-13696614D01*
X27613867Y-13696614D02*
X27328153Y-13982328D01*
X27328153Y-13982328D02*
X27637677Y-13982328D01*
X17191492Y-28736656D02*
X17215302Y-28760465D01*
X17215302Y-28760465D02*
X17239111Y-28831894D01*
X17239111Y-28831894D02*
X17239111Y-28879513D01*
X17239111Y-28879513D02*
X17215302Y-28950941D01*
X17215302Y-28950941D02*
X17167682Y-28998560D01*
X17167682Y-28998560D02*
X17120063Y-29022370D01*
X17120063Y-29022370D02*
X17024825Y-29046179D01*
X17024825Y-29046179D02*
X16953397Y-29046179D01*
X16953397Y-29046179D02*
X16858159Y-29022370D01*
X16858159Y-29022370D02*
X16810540Y-28998560D01*
X16810540Y-28998560D02*
X16762921Y-28950941D01*
X16762921Y-28950941D02*
X16739111Y-28879513D01*
X16739111Y-28879513D02*
X16739111Y-28831894D01*
X16739111Y-28831894D02*
X16762921Y-28760465D01*
X16762921Y-28760465D02*
X16786730Y-28736656D01*
X17239111Y-28569989D02*
X16905778Y-28308084D01*
X16905778Y-28569989D02*
X17239111Y-28308084D01*
X17239111Y-27855703D02*
X17239111Y-28141417D01*
X17239111Y-27998560D02*
X16739111Y-27998560D01*
X16739111Y-27998560D02*
X16810540Y-28046179D01*
X16810540Y-28046179D02*
X16858159Y-28093798D01*
X16858159Y-28093798D02*
X16881968Y-28141417D01*
X23250447Y-25271428D02*
X23274257Y-25295237D01*
X23274257Y-25295237D02*
X23298066Y-25366666D01*
X23298066Y-25366666D02*
X23298066Y-25414285D01*
X23298066Y-25414285D02*
X23274257Y-25485713D01*
X23274257Y-25485713D02*
X23226637Y-25533332D01*
X23226637Y-25533332D02*
X23179018Y-25557142D01*
X23179018Y-25557142D02*
X23083780Y-25580951D01*
X23083780Y-25580951D02*
X23012352Y-25580951D01*
X23012352Y-25580951D02*
X22917114Y-25557142D01*
X22917114Y-25557142D02*
X22869495Y-25533332D01*
X22869495Y-25533332D02*
X22821876Y-25485713D01*
X22821876Y-25485713D02*
X22798066Y-25414285D01*
X22798066Y-25414285D02*
X22798066Y-25366666D01*
X22798066Y-25366666D02*
X22821876Y-25295237D01*
X22821876Y-25295237D02*
X22845685Y-25271428D01*
X23298066Y-24795237D02*
X23298066Y-25080951D01*
X23298066Y-24938094D02*
X22798066Y-24938094D01*
X22798066Y-24938094D02*
X22869495Y-24985713D01*
X22869495Y-24985713D02*
X22917114Y-25033332D01*
X22917114Y-25033332D02*
X22940923Y-25080951D01*
X22798066Y-24485714D02*
X22798066Y-24438095D01*
X22798066Y-24438095D02*
X22821876Y-24390476D01*
X22821876Y-24390476D02*
X22845685Y-24366666D01*
X22845685Y-24366666D02*
X22893304Y-24342857D01*
X22893304Y-24342857D02*
X22988542Y-24319047D01*
X22988542Y-24319047D02*
X23107590Y-24319047D01*
X23107590Y-24319047D02*
X23202828Y-24342857D01*
X23202828Y-24342857D02*
X23250447Y-24366666D01*
X23250447Y-24366666D02*
X23274257Y-24390476D01*
X23274257Y-24390476D02*
X23298066Y-24438095D01*
X23298066Y-24438095D02*
X23298066Y-24485714D01*
X23298066Y-24485714D02*
X23274257Y-24533333D01*
X23274257Y-24533333D02*
X23250447Y-24557142D01*
X23250447Y-24557142D02*
X23202828Y-24580952D01*
X23202828Y-24580952D02*
X23107590Y-24604761D01*
X23107590Y-24604761D02*
X22988542Y-24604761D01*
X22988542Y-24604761D02*
X22893304Y-24580952D01*
X22893304Y-24580952D02*
X22845685Y-24557142D01*
X22845685Y-24557142D02*
X22821876Y-24533333D01*
X22821876Y-24533333D02*
X22798066Y-24485714D01*
D11*
X19695238Y-24731927D02*
X19695238Y-25055737D01*
X19695238Y-25055737D02*
X19714285Y-25093832D01*
X19714285Y-25093832D02*
X19733333Y-25112880D01*
X19733333Y-25112880D02*
X19771428Y-25131927D01*
X19771428Y-25131927D02*
X19847619Y-25131927D01*
X19847619Y-25131927D02*
X19885714Y-25112880D01*
X19885714Y-25112880D02*
X19904761Y-25093832D01*
X19904761Y-25093832D02*
X19923809Y-25055737D01*
X19923809Y-25055737D02*
X19923809Y-24731927D01*
X20076190Y-24731927D02*
X20323809Y-24731927D01*
X20323809Y-24731927D02*
X20190476Y-24884308D01*
X20190476Y-24884308D02*
X20247619Y-24884308D01*
X20247619Y-24884308D02*
X20285714Y-24903356D01*
X20285714Y-24903356D02*
X20304762Y-24922403D01*
X20304762Y-24922403D02*
X20323809Y-24960499D01*
X20323809Y-24960499D02*
X20323809Y-25055737D01*
X20323809Y-25055737D02*
X20304762Y-25093832D01*
X20304762Y-25093832D02*
X20285714Y-25112880D01*
X20285714Y-25112880D02*
X20247619Y-25131927D01*
X20247619Y-25131927D02*
X20133333Y-25131927D01*
X20133333Y-25131927D02*
X20095238Y-25112880D01*
X20095238Y-25112880D02*
X20076190Y-25093832D01*
D12*
X19562295Y-16209523D02*
X20209914Y-16209523D01*
X20209914Y-16209523D02*
X20286104Y-16171428D01*
X20286104Y-16171428D02*
X20324200Y-16133333D01*
X20324200Y-16133333D02*
X20362295Y-16057142D01*
X20362295Y-16057142D02*
X20362295Y-15904761D01*
X20362295Y-15904761D02*
X20324200Y-15828571D01*
X20324200Y-15828571D02*
X20286104Y-15790476D01*
X20286104Y-15790476D02*
X20209914Y-15752380D01*
X20209914Y-15752380D02*
X19562295Y-15752380D01*
X19638485Y-15409524D02*
X19600390Y-15371428D01*
X19600390Y-15371428D02*
X19562295Y-15295238D01*
X19562295Y-15295238D02*
X19562295Y-15104762D01*
X19562295Y-15104762D02*
X19600390Y-15028571D01*
X19600390Y-15028571D02*
X19638485Y-14990476D01*
X19638485Y-14990476D02*
X19714676Y-14952381D01*
X19714676Y-14952381D02*
X19790866Y-14952381D01*
X19790866Y-14952381D02*
X19905152Y-14990476D01*
X19905152Y-14990476D02*
X20362295Y-15447619D01*
X20362295Y-15447619D02*
X20362295Y-14952381D01*
D10*
X21179530Y-28735714D02*
X21203340Y-28759523D01*
X21203340Y-28759523D02*
X21227149Y-28830952D01*
X21227149Y-28830952D02*
X21227149Y-28878571D01*
X21227149Y-28878571D02*
X21203340Y-28949999D01*
X21203340Y-28949999D02*
X21155720Y-28997618D01*
X21155720Y-28997618D02*
X21108101Y-29021428D01*
X21108101Y-29021428D02*
X21012863Y-29045237D01*
X21012863Y-29045237D02*
X20941435Y-29045237D01*
X20941435Y-29045237D02*
X20846197Y-29021428D01*
X20846197Y-29021428D02*
X20798578Y-28997618D01*
X20798578Y-28997618D02*
X20750959Y-28949999D01*
X20750959Y-28949999D02*
X20727149Y-28878571D01*
X20727149Y-28878571D02*
X20727149Y-28830952D01*
X20727149Y-28830952D02*
X20750959Y-28759523D01*
X20750959Y-28759523D02*
X20774768Y-28735714D01*
X21203340Y-28545237D02*
X21227149Y-28497618D01*
X21227149Y-28497618D02*
X21227149Y-28402380D01*
X21227149Y-28402380D02*
X21203340Y-28354761D01*
X21203340Y-28354761D02*
X21155720Y-28330952D01*
X21155720Y-28330952D02*
X21131911Y-28330952D01*
X21131911Y-28330952D02*
X21084292Y-28354761D01*
X21084292Y-28354761D02*
X21060482Y-28402380D01*
X21060482Y-28402380D02*
X21060482Y-28473809D01*
X21060482Y-28473809D02*
X21036673Y-28521428D01*
X21036673Y-28521428D02*
X20989054Y-28545237D01*
X20989054Y-28545237D02*
X20965244Y-28545237D01*
X20965244Y-28545237D02*
X20917625Y-28521428D01*
X20917625Y-28521428D02*
X20893816Y-28473809D01*
X20893816Y-28473809D02*
X20893816Y-28402380D01*
X20893816Y-28402380D02*
X20917625Y-28354761D01*
X21227149Y-27854761D02*
X21227149Y-28140475D01*
X21227149Y-27997618D02*
X20727149Y-27997618D01*
X20727149Y-27997618D02*
X20798578Y-28045237D01*
X20798578Y-28045237D02*
X20846197Y-28092856D01*
X20846197Y-28092856D02*
X20870006Y-28140475D01*
X19227149Y-28735714D02*
X18989054Y-28902380D01*
X19227149Y-29021428D02*
X18727149Y-29021428D01*
X18727149Y-29021428D02*
X18727149Y-28830952D01*
X18727149Y-28830952D02*
X18750959Y-28783333D01*
X18750959Y-28783333D02*
X18774768Y-28759523D01*
X18774768Y-28759523D02*
X18822387Y-28735714D01*
X18822387Y-28735714D02*
X18893816Y-28735714D01*
X18893816Y-28735714D02*
X18941435Y-28759523D01*
X18941435Y-28759523D02*
X18965244Y-28783333D01*
X18965244Y-28783333D02*
X18989054Y-28830952D01*
X18989054Y-28830952D02*
X18989054Y-29021428D01*
X19203340Y-28545237D02*
X19227149Y-28497618D01*
X19227149Y-28497618D02*
X19227149Y-28402380D01*
X19227149Y-28402380D02*
X19203340Y-28354761D01*
X19203340Y-28354761D02*
X19155720Y-28330952D01*
X19155720Y-28330952D02*
X19131911Y-28330952D01*
X19131911Y-28330952D02*
X19084292Y-28354761D01*
X19084292Y-28354761D02*
X19060482Y-28402380D01*
X19060482Y-28402380D02*
X19060482Y-28473809D01*
X19060482Y-28473809D02*
X19036673Y-28521428D01*
X19036673Y-28521428D02*
X18989054Y-28545237D01*
X18989054Y-28545237D02*
X18965244Y-28545237D01*
X18965244Y-28545237D02*
X18917625Y-28521428D01*
X18917625Y-28521428D02*
X18893816Y-28473809D01*
X18893816Y-28473809D02*
X18893816Y-28402380D01*
X18893816Y-28402380D02*
X18917625Y-28354761D01*
X19227149Y-27854761D02*
X19227149Y-28140475D01*
X19227149Y-27997618D02*
X18727149Y-27997618D01*
X18727149Y-27997618D02*
X18798578Y-28045237D01*
X18798578Y-28045237D02*
X18846197Y-28092856D01*
X18846197Y-28092856D02*
X18870006Y-28140475D01*
D12*
X58649798Y-21378796D02*
X58144722Y-21883872D01*
X58144722Y-21883872D02*
X58010035Y-21951216D01*
X58010035Y-21951216D02*
X57875348Y-21951216D01*
X57875348Y-21951216D02*
X57740661Y-21883872D01*
X57740661Y-21883872D02*
X57673317Y-21816529D01*
X58649798Y-22793010D02*
X58245737Y-22388949D01*
X58447768Y-22590979D02*
X59154875Y-21883872D01*
X59154875Y-21883872D02*
X58986516Y-21917544D01*
X58986516Y-21917544D02*
X58851829Y-21917544D01*
X58851829Y-21917544D02*
X58750814Y-21883872D01*
X62396666Y-12259266D02*
X62396666Y-12973551D01*
X62396666Y-12973551D02*
X62349047Y-13116408D01*
X62349047Y-13116408D02*
X62253809Y-13211647D01*
X62253809Y-13211647D02*
X62110952Y-13259266D01*
X62110952Y-13259266D02*
X62015714Y-13259266D01*
X63301428Y-12592599D02*
X63301428Y-13259266D01*
X63063333Y-12211647D02*
X62825238Y-12925932D01*
X62825238Y-12925932D02*
X63444285Y-12925932D01*
D10*
X68534099Y-29399114D02*
X68534099Y-29432786D01*
X68534099Y-29432786D02*
X68500428Y-29500129D01*
X68500428Y-29500129D02*
X68466756Y-29533801D01*
X68466756Y-29533801D02*
X68399412Y-29567473D01*
X68399412Y-29567473D02*
X68332069Y-29567473D01*
X68332069Y-29567473D02*
X68281561Y-29550637D01*
X68281561Y-29550637D02*
X68197382Y-29500129D01*
X68197382Y-29500129D02*
X68146874Y-29449622D01*
X68146874Y-29449622D02*
X68096367Y-29365442D01*
X68096367Y-29365442D02*
X68079531Y-29314935D01*
X68079531Y-29314935D02*
X68079531Y-29247591D01*
X68079531Y-29247591D02*
X68113202Y-29180248D01*
X68113202Y-29180248D02*
X68146874Y-29146576D01*
X68146874Y-29146576D02*
X68214218Y-29112904D01*
X68214218Y-29112904D02*
X68247889Y-29112904D01*
X68382576Y-28978217D02*
X68382576Y-28944545D01*
X68382576Y-28944545D02*
X68399412Y-28894038D01*
X68399412Y-28894038D02*
X68483592Y-28809858D01*
X68483592Y-28809858D02*
X68534099Y-28793023D01*
X68534099Y-28793023D02*
X68567771Y-28793023D01*
X68567771Y-28793023D02*
X68618279Y-28809858D01*
X68618279Y-28809858D02*
X68651950Y-28843530D01*
X68651950Y-28843530D02*
X68685622Y-28910874D01*
X68685622Y-28910874D02*
X68685622Y-29314935D01*
X68685622Y-29314935D02*
X68904489Y-29096068D01*
X63730842Y-14816607D02*
X63781349Y-14530398D01*
X63528811Y-14614577D02*
X63882364Y-14261024D01*
X63882364Y-14261024D02*
X64017051Y-14395711D01*
X64017051Y-14395711D02*
X64033887Y-14446218D01*
X64033887Y-14446218D02*
X64033887Y-14479890D01*
X64033887Y-14479890D02*
X64017051Y-14530398D01*
X64017051Y-14530398D02*
X63966544Y-14580905D01*
X63966544Y-14580905D02*
X63916036Y-14597741D01*
X63916036Y-14597741D02*
X63882364Y-14597741D01*
X63882364Y-14597741D02*
X63831857Y-14580905D01*
X63831857Y-14580905D02*
X63697170Y-14446218D01*
X64067559Y-15153325D02*
X63865529Y-14951294D01*
X63966544Y-15052310D02*
X64320097Y-14698756D01*
X64320097Y-14698756D02*
X64235918Y-14715592D01*
X64235918Y-14715592D02*
X64168574Y-14715592D01*
X64168574Y-14715592D02*
X64118067Y-14698756D01*
X64404276Y-15490042D02*
X64202246Y-15288012D01*
X64303261Y-15389027D02*
X64656814Y-15035474D01*
X64656814Y-15035474D02*
X64572635Y-15052309D01*
X64572635Y-15052309D02*
X64505291Y-15052309D01*
X64505291Y-15052309D02*
X64454784Y-15035474D01*
X74941248Y-25864418D02*
X74941248Y-25898090D01*
X74941248Y-25898090D02*
X74907577Y-25965433D01*
X74907577Y-25965433D02*
X74873905Y-25999105D01*
X74873905Y-25999105D02*
X74806561Y-26032777D01*
X74806561Y-26032777D02*
X74739218Y-26032777D01*
X74739218Y-26032777D02*
X74688710Y-26015941D01*
X74688710Y-26015941D02*
X74604531Y-25965433D01*
X74604531Y-25965433D02*
X74554023Y-25914926D01*
X74554023Y-25914926D02*
X74503516Y-25830746D01*
X74503516Y-25830746D02*
X74486680Y-25780239D01*
X74486680Y-25780239D02*
X74486680Y-25712895D01*
X74486680Y-25712895D02*
X74520351Y-25645552D01*
X74520351Y-25645552D02*
X74554023Y-25611880D01*
X74554023Y-25611880D02*
X74621367Y-25578208D01*
X74621367Y-25578208D02*
X74655038Y-25578208D01*
X75311638Y-25561372D02*
X75109607Y-25763403D01*
X75210622Y-25662388D02*
X74857069Y-25308834D01*
X74857069Y-25308834D02*
X74873905Y-25393014D01*
X74873905Y-25393014D02*
X74873905Y-25460357D01*
X74873905Y-25460357D02*
X74857069Y-25510865D01*
X59913076Y-17591465D02*
X59626866Y-17540957D01*
X59711046Y-17793495D02*
X59357492Y-17439942D01*
X59357492Y-17439942D02*
X59492179Y-17305255D01*
X59492179Y-17305255D02*
X59542687Y-17288419D01*
X59542687Y-17288419D02*
X59576359Y-17288419D01*
X59576359Y-17288419D02*
X59626866Y-17305255D01*
X59626866Y-17305255D02*
X59677374Y-17355763D01*
X59677374Y-17355763D02*
X59694210Y-17406270D01*
X59694210Y-17406270D02*
X59694210Y-17439942D01*
X59694210Y-17439942D02*
X59677374Y-17490450D01*
X59677374Y-17490450D02*
X59542687Y-17625137D01*
X59778389Y-17019045D02*
X59812061Y-16985373D01*
X59812061Y-16985373D02*
X59862568Y-16968537D01*
X59862568Y-16968537D02*
X59896240Y-16968537D01*
X59896240Y-16968537D02*
X59946748Y-16985373D01*
X59946748Y-16985373D02*
X60030927Y-17035881D01*
X60030927Y-17035881D02*
X60115107Y-17120060D01*
X60115107Y-17120060D02*
X60165614Y-17204240D01*
X60165614Y-17204240D02*
X60182450Y-17254747D01*
X60182450Y-17254747D02*
X60182450Y-17288419D01*
X60182450Y-17288419D02*
X60165614Y-17338927D01*
X60165614Y-17338927D02*
X60131942Y-17372598D01*
X60131942Y-17372598D02*
X60081435Y-17389434D01*
X60081435Y-17389434D02*
X60047763Y-17389434D01*
X60047763Y-17389434D02*
X59997255Y-17372598D01*
X59997255Y-17372598D02*
X59913076Y-17322091D01*
X59913076Y-17322091D02*
X59828897Y-17237911D01*
X59828897Y-17237911D02*
X59778389Y-17153732D01*
X59778389Y-17153732D02*
X59761553Y-17103224D01*
X59761553Y-17103224D02*
X59761553Y-17069553D01*
X59761553Y-17069553D02*
X59778389Y-17019045D01*
X73815829Y-20239771D02*
X73782157Y-20239771D01*
X73782157Y-20239771D02*
X73714814Y-20206100D01*
X73714814Y-20206100D02*
X73681142Y-20172428D01*
X73681142Y-20172428D02*
X73647470Y-20105084D01*
X73647470Y-20105084D02*
X73647470Y-20037741D01*
X73647470Y-20037741D02*
X73664306Y-19987233D01*
X73664306Y-19987233D02*
X73714814Y-19903054D01*
X73714814Y-19903054D02*
X73765321Y-19852546D01*
X73765321Y-19852546D02*
X73849501Y-19802039D01*
X73849501Y-19802039D02*
X73900008Y-19785203D01*
X73900008Y-19785203D02*
X73967352Y-19785203D01*
X73967352Y-19785203D02*
X74034695Y-19818874D01*
X74034695Y-19818874D02*
X74068367Y-19852546D01*
X74068367Y-19852546D02*
X74102039Y-19919890D01*
X74102039Y-19919890D02*
X74102039Y-19953561D01*
X73950516Y-20441802D02*
X74017859Y-20509145D01*
X74017859Y-20509145D02*
X74068367Y-20525981D01*
X74068367Y-20525981D02*
X74102039Y-20525981D01*
X74102039Y-20525981D02*
X74186218Y-20509145D01*
X74186218Y-20509145D02*
X74270398Y-20458638D01*
X74270398Y-20458638D02*
X74405085Y-20323951D01*
X74405085Y-20323951D02*
X74421920Y-20273443D01*
X74421920Y-20273443D02*
X74421920Y-20239771D01*
X74421920Y-20239771D02*
X74405085Y-20189264D01*
X74405085Y-20189264D02*
X74337741Y-20121920D01*
X74337741Y-20121920D02*
X74287233Y-20105084D01*
X74287233Y-20105084D02*
X74253562Y-20105084D01*
X74253562Y-20105084D02*
X74203054Y-20121920D01*
X74203054Y-20121920D02*
X74118875Y-20206100D01*
X74118875Y-20206100D02*
X74102039Y-20256607D01*
X74102039Y-20256607D02*
X74102039Y-20290279D01*
X74102039Y-20290279D02*
X74118875Y-20340787D01*
X74118875Y-20340787D02*
X74186218Y-20408130D01*
X74186218Y-20408130D02*
X74236726Y-20424966D01*
X74236726Y-20424966D02*
X74270398Y-20424966D01*
X74270398Y-20424966D02*
X74320905Y-20408130D01*
X62475153Y-16379713D02*
X62441481Y-16379713D01*
X62441481Y-16379713D02*
X62374138Y-16346042D01*
X62374138Y-16346042D02*
X62340466Y-16312370D01*
X62340466Y-16312370D02*
X62306794Y-16245026D01*
X62306794Y-16245026D02*
X62306794Y-16177683D01*
X62306794Y-16177683D02*
X62323630Y-16127175D01*
X62323630Y-16127175D02*
X62374138Y-16042996D01*
X62374138Y-16042996D02*
X62424645Y-15992488D01*
X62424645Y-15992488D02*
X62508825Y-15941981D01*
X62508825Y-15941981D02*
X62559332Y-15925145D01*
X62559332Y-15925145D02*
X62626676Y-15925145D01*
X62626676Y-15925145D02*
X62694019Y-15958816D01*
X62694019Y-15958816D02*
X62727691Y-15992488D01*
X62727691Y-15992488D02*
X62761363Y-16059832D01*
X62761363Y-16059832D02*
X62761363Y-16093503D01*
X63098080Y-16362877D02*
X63030737Y-16295534D01*
X63030737Y-16295534D02*
X62980229Y-16278698D01*
X62980229Y-16278698D02*
X62946557Y-16278698D01*
X62946557Y-16278698D02*
X62862378Y-16295534D01*
X62862378Y-16295534D02*
X62778199Y-16346042D01*
X62778199Y-16346042D02*
X62643512Y-16480729D01*
X62643512Y-16480729D02*
X62626676Y-16531236D01*
X62626676Y-16531236D02*
X62626676Y-16564908D01*
X62626676Y-16564908D02*
X62643512Y-16615416D01*
X62643512Y-16615416D02*
X62710855Y-16682759D01*
X62710855Y-16682759D02*
X62761363Y-16699595D01*
X62761363Y-16699595D02*
X62795035Y-16699595D01*
X62795035Y-16699595D02*
X62845542Y-16682759D01*
X62845542Y-16682759D02*
X62929722Y-16598580D01*
X62929722Y-16598580D02*
X62946557Y-16548072D01*
X62946557Y-16548072D02*
X62946557Y-16514400D01*
X62946557Y-16514400D02*
X62929722Y-16463893D01*
X62929722Y-16463893D02*
X62862378Y-16396549D01*
X62862378Y-16396549D02*
X62811870Y-16379713D01*
X62811870Y-16379713D02*
X62778199Y-16379713D01*
X62778199Y-16379713D02*
X62727691Y-16396549D01*
X71315829Y-17739771D02*
X71282157Y-17739771D01*
X71282157Y-17739771D02*
X71214814Y-17706100D01*
X71214814Y-17706100D02*
X71181142Y-17672428D01*
X71181142Y-17672428D02*
X71147470Y-17605084D01*
X71147470Y-17605084D02*
X71147470Y-17537741D01*
X71147470Y-17537741D02*
X71164306Y-17487233D01*
X71164306Y-17487233D02*
X71214814Y-17403054D01*
X71214814Y-17403054D02*
X71265321Y-17352546D01*
X71265321Y-17352546D02*
X71349501Y-17302039D01*
X71349501Y-17302039D02*
X71400008Y-17285203D01*
X71400008Y-17285203D02*
X71467352Y-17285203D01*
X71467352Y-17285203D02*
X71534695Y-17318874D01*
X71534695Y-17318874D02*
X71568367Y-17352546D01*
X71568367Y-17352546D02*
X71602039Y-17419890D01*
X71602039Y-17419890D02*
X71602039Y-17453561D01*
X71686218Y-17773443D02*
X71669382Y-17722935D01*
X71669382Y-17722935D02*
X71669382Y-17689264D01*
X71669382Y-17689264D02*
X71686218Y-17638756D01*
X71686218Y-17638756D02*
X71703054Y-17621920D01*
X71703054Y-17621920D02*
X71753562Y-17605084D01*
X71753562Y-17605084D02*
X71787233Y-17605084D01*
X71787233Y-17605084D02*
X71837741Y-17621920D01*
X71837741Y-17621920D02*
X71905085Y-17689264D01*
X71905085Y-17689264D02*
X71921920Y-17739771D01*
X71921920Y-17739771D02*
X71921920Y-17773443D01*
X71921920Y-17773443D02*
X71905085Y-17823951D01*
X71905085Y-17823951D02*
X71888249Y-17840787D01*
X71888249Y-17840787D02*
X71837741Y-17857622D01*
X71837741Y-17857622D02*
X71804069Y-17857622D01*
X71804069Y-17857622D02*
X71753562Y-17840787D01*
X71753562Y-17840787D02*
X71686218Y-17773443D01*
X71686218Y-17773443D02*
X71635711Y-17756607D01*
X71635711Y-17756607D02*
X71602039Y-17756607D01*
X71602039Y-17756607D02*
X71551531Y-17773443D01*
X71551531Y-17773443D02*
X71484188Y-17840787D01*
X71484188Y-17840787D02*
X71467352Y-17891294D01*
X71467352Y-17891294D02*
X71467352Y-17924966D01*
X71467352Y-17924966D02*
X71484188Y-17975474D01*
X71484188Y-17975474D02*
X71551531Y-18042817D01*
X71551531Y-18042817D02*
X71602039Y-18059653D01*
X71602039Y-18059653D02*
X71635711Y-18059653D01*
X71635711Y-18059653D02*
X71686218Y-18042817D01*
X71686218Y-18042817D02*
X71753562Y-17975474D01*
X71753562Y-17975474D02*
X71770398Y-17924966D01*
X71770398Y-17924966D02*
X71770398Y-17891294D01*
X71770398Y-17891294D02*
X71753562Y-17840787D01*
X61239772Y-18925929D02*
X61239772Y-18959601D01*
X61239772Y-18959601D02*
X61206101Y-19026944D01*
X61206101Y-19026944D02*
X61172429Y-19060616D01*
X61172429Y-19060616D02*
X61105085Y-19094288D01*
X61105085Y-19094288D02*
X61037742Y-19094288D01*
X61037742Y-19094288D02*
X60987234Y-19077452D01*
X60987234Y-19077452D02*
X60903055Y-19026944D01*
X60903055Y-19026944D02*
X60852547Y-18976437D01*
X60852547Y-18976437D02*
X60802040Y-18892257D01*
X60802040Y-18892257D02*
X60785204Y-18841750D01*
X60785204Y-18841750D02*
X60785204Y-18774406D01*
X60785204Y-18774406D02*
X60818875Y-18707063D01*
X60818875Y-18707063D02*
X60852547Y-18673391D01*
X60852547Y-18673391D02*
X60919891Y-18639719D01*
X60919891Y-18639719D02*
X60953562Y-18639719D01*
X61340788Y-18420853D02*
X61576490Y-18656555D01*
X61121921Y-18370345D02*
X61290280Y-18707063D01*
X61290280Y-18707063D02*
X61509146Y-18488196D01*
X73527035Y-24450204D02*
X73527035Y-24483876D01*
X73527035Y-24483876D02*
X73493364Y-24551219D01*
X73493364Y-24551219D02*
X73459692Y-24584891D01*
X73459692Y-24584891D02*
X73392348Y-24618563D01*
X73392348Y-24618563D02*
X73325005Y-24618563D01*
X73325005Y-24618563D02*
X73274497Y-24601727D01*
X73274497Y-24601727D02*
X73190318Y-24551219D01*
X73190318Y-24551219D02*
X73139810Y-24500712D01*
X73139810Y-24500712D02*
X73089303Y-24416532D01*
X73089303Y-24416532D02*
X73072467Y-24366025D01*
X73072467Y-24366025D02*
X73072467Y-24298681D01*
X73072467Y-24298681D02*
X73106138Y-24231338D01*
X73106138Y-24231338D02*
X73139810Y-24197666D01*
X73139810Y-24197666D02*
X73207154Y-24163994D01*
X73207154Y-24163994D02*
X73240825Y-24163994D01*
X73325005Y-24012471D02*
X73543871Y-23793605D01*
X73543871Y-23793605D02*
X73560707Y-24046143D01*
X73560707Y-24046143D02*
X73611215Y-23995635D01*
X73611215Y-23995635D02*
X73661722Y-23978800D01*
X73661722Y-23978800D02*
X73695394Y-23978800D01*
X73695394Y-23978800D02*
X73745902Y-23995635D01*
X73745902Y-23995635D02*
X73830081Y-24079815D01*
X73830081Y-24079815D02*
X73846917Y-24130322D01*
X73846917Y-24130322D02*
X73846917Y-24163994D01*
X73846917Y-24163994D02*
X73830081Y-24214502D01*
X73830081Y-24214502D02*
X73729066Y-24315517D01*
X73729066Y-24315517D02*
X73678558Y-24332353D01*
X73678558Y-24332353D02*
X73644886Y-24332353D01*
X68815829Y-15239771D02*
X68782157Y-15239771D01*
X68782157Y-15239771D02*
X68714814Y-15206100D01*
X68714814Y-15206100D02*
X68681142Y-15172428D01*
X68681142Y-15172428D02*
X68647470Y-15105084D01*
X68647470Y-15105084D02*
X68647470Y-15037741D01*
X68647470Y-15037741D02*
X68664306Y-14987233D01*
X68664306Y-14987233D02*
X68714814Y-14903054D01*
X68714814Y-14903054D02*
X68765321Y-14852546D01*
X68765321Y-14852546D02*
X68849501Y-14802039D01*
X68849501Y-14802039D02*
X68900008Y-14785203D01*
X68900008Y-14785203D02*
X68967352Y-14785203D01*
X68967352Y-14785203D02*
X69034695Y-14818874D01*
X69034695Y-14818874D02*
X69068367Y-14852546D01*
X69068367Y-14852546D02*
X69102039Y-14919890D01*
X69102039Y-14919890D02*
X69102039Y-14953561D01*
X69455592Y-15239771D02*
X69287233Y-15071413D01*
X69287233Y-15071413D02*
X69102039Y-15222935D01*
X69102039Y-15222935D02*
X69135711Y-15222935D01*
X69135711Y-15222935D02*
X69186218Y-15239771D01*
X69186218Y-15239771D02*
X69270398Y-15323951D01*
X69270398Y-15323951D02*
X69287233Y-15374458D01*
X69287233Y-15374458D02*
X69287233Y-15408130D01*
X69287233Y-15408130D02*
X69270398Y-15458638D01*
X69270398Y-15458638D02*
X69186218Y-15542817D01*
X69186218Y-15542817D02*
X69135711Y-15559653D01*
X69135711Y-15559653D02*
X69102039Y-15559653D01*
X69102039Y-15559653D02*
X69051531Y-15542817D01*
X69051531Y-15542817D02*
X68967352Y-15458638D01*
X68967352Y-15458638D02*
X68950516Y-15408130D01*
X68950516Y-15408130D02*
X68950516Y-15374458D01*
D12*
X9878796Y-16350201D02*
X10383872Y-16855277D01*
X10383872Y-16855277D02*
X10451216Y-16989964D01*
X10451216Y-16989964D02*
X10451216Y-17124651D01*
X10451216Y-17124651D02*
X10383872Y-17259338D01*
X10383872Y-17259338D02*
X10316529Y-17326682D01*
X10148170Y-16080827D02*
X10585903Y-15643094D01*
X10585903Y-15643094D02*
X10619575Y-16148170D01*
X10619575Y-16148170D02*
X10720590Y-16047155D01*
X10720590Y-16047155D02*
X10821605Y-16013483D01*
X10821605Y-16013483D02*
X10888949Y-16013483D01*
X10888949Y-16013483D02*
X10989964Y-16047155D01*
X10989964Y-16047155D02*
X11158323Y-16215514D01*
X11158323Y-16215514D02*
X11191994Y-16316529D01*
X11191994Y-16316529D02*
X11191994Y-16383872D01*
X11191994Y-16383872D02*
X11158323Y-16484888D01*
X11158323Y-16484888D02*
X10956292Y-16686918D01*
X10956292Y-16686918D02*
X10855277Y-16720590D01*
X10855277Y-16720590D02*
X10787933Y-16720590D01*
X28878796Y-23350202D02*
X29383872Y-23855278D01*
X29383872Y-23855278D02*
X29451216Y-23989965D01*
X29451216Y-23989965D02*
X29451216Y-24124652D01*
X29451216Y-24124652D02*
X29383872Y-24259339D01*
X29383872Y-24259339D02*
X29316529Y-24326683D01*
X29552231Y-22676767D02*
X29215514Y-23013484D01*
X29215514Y-23013484D02*
X29518559Y-23383873D01*
X29518559Y-23383873D02*
X29518559Y-23316530D01*
X29518559Y-23316530D02*
X29552231Y-23215515D01*
X29552231Y-23215515D02*
X29720590Y-23047156D01*
X29720590Y-23047156D02*
X29821605Y-23013484D01*
X29821605Y-23013484D02*
X29888949Y-23013484D01*
X29888949Y-23013484D02*
X29989964Y-23047156D01*
X29989964Y-23047156D02*
X30158323Y-23215515D01*
X30158323Y-23215515D02*
X30191994Y-23316530D01*
X30191994Y-23316530D02*
X30191994Y-23383873D01*
X30191994Y-23383873D02*
X30158323Y-23484889D01*
X30158323Y-23484889D02*
X29989964Y-23653247D01*
X29989964Y-23653247D02*
X29888949Y-23686919D01*
X29888949Y-23686919D02*
X29821605Y-23686919D01*
X66075750Y-22153246D02*
X66648170Y-22725666D01*
X66648170Y-22725666D02*
X66749185Y-22759338D01*
X66749185Y-22759338D02*
X66816529Y-22759338D01*
X66816529Y-22759338D02*
X66917544Y-22725666D01*
X66917544Y-22725666D02*
X67052231Y-22590979D01*
X67052231Y-22590979D02*
X67085903Y-22489964D01*
X67085903Y-22489964D02*
X67085903Y-22422620D01*
X67085903Y-22422620D02*
X67052231Y-22321605D01*
X67052231Y-22321605D02*
X66479811Y-21749185D01*
X67894025Y-21749185D02*
X67489964Y-22153246D01*
X67691994Y-21951216D02*
X66984888Y-21244109D01*
X66984888Y-21244109D02*
X67018559Y-21412468D01*
X67018559Y-21412468D02*
X67018559Y-21547155D01*
X67018559Y-21547155D02*
X66984888Y-21648170D01*
D10*
X74993890Y-28642005D02*
X74707680Y-28591497D01*
X74791860Y-28844035D02*
X74438306Y-28490482D01*
X74438306Y-28490482D02*
X74572993Y-28355795D01*
X74572993Y-28355795D02*
X74623501Y-28338959D01*
X74623501Y-28338959D02*
X74657173Y-28338959D01*
X74657173Y-28338959D02*
X74707680Y-28355795D01*
X74707680Y-28355795D02*
X74758188Y-28406303D01*
X74758188Y-28406303D02*
X74775024Y-28456810D01*
X74775024Y-28456810D02*
X74775024Y-28490482D01*
X74775024Y-28490482D02*
X74758188Y-28540990D01*
X74758188Y-28540990D02*
X74623501Y-28675677D01*
X75162249Y-28473646D02*
X75229592Y-28406303D01*
X75229592Y-28406303D02*
X75246428Y-28355795D01*
X75246428Y-28355795D02*
X75246428Y-28322123D01*
X75246428Y-28322123D02*
X75229592Y-28237944D01*
X75229592Y-28237944D02*
X75179085Y-28153764D01*
X75179085Y-28153764D02*
X75044398Y-28019077D01*
X75044398Y-28019077D02*
X74993890Y-28002242D01*
X74993890Y-28002242D02*
X74960218Y-28002242D01*
X74960218Y-28002242D02*
X74909711Y-28019077D01*
X74909711Y-28019077D02*
X74842367Y-28086421D01*
X74842367Y-28086421D02*
X74825531Y-28136929D01*
X74825531Y-28136929D02*
X74825531Y-28170600D01*
X74825531Y-28170600D02*
X74842367Y-28221108D01*
X74842367Y-28221108D02*
X74926547Y-28305287D01*
X74926547Y-28305287D02*
X74977054Y-28322123D01*
X74977054Y-28322123D02*
X75010726Y-28322123D01*
X75010726Y-28322123D02*
X75061234Y-28305287D01*
X75061234Y-28305287D02*
X75128577Y-28237944D01*
X75128577Y-28237944D02*
X75145413Y-28187436D01*
X75145413Y-28187436D02*
X75145413Y-28153764D01*
X75145413Y-28153764D02*
X75128577Y-28103257D01*
X70495106Y-27755168D02*
X70545613Y-27468959D01*
X70293075Y-27553138D02*
X70646628Y-27199585D01*
X70646628Y-27199585D02*
X70781315Y-27334272D01*
X70781315Y-27334272D02*
X70798151Y-27384779D01*
X70798151Y-27384779D02*
X70798151Y-27418451D01*
X70798151Y-27418451D02*
X70781315Y-27468959D01*
X70781315Y-27468959D02*
X70730808Y-27519466D01*
X70730808Y-27519466D02*
X70680300Y-27536302D01*
X70680300Y-27536302D02*
X70646628Y-27536302D01*
X70646628Y-27536302D02*
X70596121Y-27519466D01*
X70596121Y-27519466D02*
X70461434Y-27384779D01*
X70831823Y-28091886D02*
X70629793Y-27889855D01*
X70730808Y-27990871D02*
X71084361Y-27637317D01*
X71084361Y-27637317D02*
X71000182Y-27654153D01*
X71000182Y-27654153D02*
X70932838Y-27654153D01*
X70932838Y-27654153D02*
X70882331Y-27637317D01*
X71404242Y-27957199D02*
X71437914Y-27990870D01*
X71437914Y-27990870D02*
X71454750Y-28041378D01*
X71454750Y-28041378D02*
X71454750Y-28075050D01*
X71454750Y-28075050D02*
X71437914Y-28125557D01*
X71437914Y-28125557D02*
X71387407Y-28209737D01*
X71387407Y-28209737D02*
X71303227Y-28293916D01*
X71303227Y-28293916D02*
X71219048Y-28344424D01*
X71219048Y-28344424D02*
X71168540Y-28361260D01*
X71168540Y-28361260D02*
X71134868Y-28361260D01*
X71134868Y-28361260D02*
X71084361Y-28344424D01*
X71084361Y-28344424D02*
X71050689Y-28310752D01*
X71050689Y-28310752D02*
X71033853Y-28260244D01*
X71033853Y-28260244D02*
X71033853Y-28226573D01*
X71033853Y-28226573D02*
X71050689Y-28176065D01*
X71050689Y-28176065D02*
X71101197Y-28091886D01*
X71101197Y-28091886D02*
X71185376Y-28007706D01*
X71185376Y-28007706D02*
X71269555Y-27957199D01*
X71269555Y-27957199D02*
X71320063Y-27940363D01*
X71320063Y-27940363D02*
X71353735Y-27940363D01*
X71353735Y-27940363D02*
X71404242Y-27957199D01*
X12677038Y-21273762D02*
X12510372Y-21035667D01*
X12391324Y-21273762D02*
X12391324Y-20773762D01*
X12391324Y-20773762D02*
X12581800Y-20773762D01*
X12581800Y-20773762D02*
X12629419Y-20797572D01*
X12629419Y-20797572D02*
X12653229Y-20821381D01*
X12653229Y-20821381D02*
X12677038Y-20869000D01*
X12677038Y-20869000D02*
X12677038Y-20940429D01*
X12677038Y-20940429D02*
X12653229Y-20988048D01*
X12653229Y-20988048D02*
X12629419Y-21011857D01*
X12629419Y-21011857D02*
X12581800Y-21035667D01*
X12581800Y-21035667D02*
X12391324Y-21035667D01*
X12843705Y-20773762D02*
X13153229Y-20773762D01*
X13153229Y-20773762D02*
X12986562Y-20964238D01*
X12986562Y-20964238D02*
X13057991Y-20964238D01*
X13057991Y-20964238D02*
X13105610Y-20988048D01*
X13105610Y-20988048D02*
X13129419Y-21011857D01*
X13129419Y-21011857D02*
X13153229Y-21059476D01*
X13153229Y-21059476D02*
X13153229Y-21178524D01*
X13153229Y-21178524D02*
X13129419Y-21226143D01*
X13129419Y-21226143D02*
X13105610Y-21249953D01*
X13105610Y-21249953D02*
X13057991Y-21273762D01*
X13057991Y-21273762D02*
X12915134Y-21273762D01*
X12915134Y-21273762D02*
X12867515Y-21249953D01*
X12867515Y-21249953D02*
X12843705Y-21226143D01*
D13*
X19034077Y-36299999D02*
X19676934Y-36299999D01*
X19676934Y-36299999D02*
X19805505Y-36342856D01*
X19805505Y-36342856D02*
X19891220Y-36428570D01*
X19891220Y-36428570D02*
X19934077Y-36557142D01*
X19934077Y-36557142D02*
X19934077Y-36642856D01*
X19119791Y-35914285D02*
X19076934Y-35871428D01*
X19076934Y-35871428D02*
X19034077Y-35785714D01*
X19034077Y-35785714D02*
X19034077Y-35571428D01*
X19034077Y-35571428D02*
X19076934Y-35485714D01*
X19076934Y-35485714D02*
X19119791Y-35442856D01*
X19119791Y-35442856D02*
X19205505Y-35399999D01*
X19205505Y-35399999D02*
X19291220Y-35399999D01*
X19291220Y-35399999D02*
X19419791Y-35442856D01*
X19419791Y-35442856D02*
X19934077Y-35957142D01*
X19934077Y-35957142D02*
X19934077Y-35399999D01*
D10*
X12677038Y-19273762D02*
X12510372Y-19035667D01*
X12391324Y-19273762D02*
X12391324Y-18773762D01*
X12391324Y-18773762D02*
X12581800Y-18773762D01*
X12581800Y-18773762D02*
X12629419Y-18797572D01*
X12629419Y-18797572D02*
X12653229Y-18821381D01*
X12653229Y-18821381D02*
X12677038Y-18869000D01*
X12677038Y-18869000D02*
X12677038Y-18940429D01*
X12677038Y-18940429D02*
X12653229Y-18988048D01*
X12653229Y-18988048D02*
X12629419Y-19011857D01*
X12629419Y-19011857D02*
X12581800Y-19035667D01*
X12581800Y-19035667D02*
X12391324Y-19035667D01*
X12962753Y-18988048D02*
X12915134Y-18964238D01*
X12915134Y-18964238D02*
X12891324Y-18940429D01*
X12891324Y-18940429D02*
X12867515Y-18892810D01*
X12867515Y-18892810D02*
X12867515Y-18869000D01*
X12867515Y-18869000D02*
X12891324Y-18821381D01*
X12891324Y-18821381D02*
X12915134Y-18797572D01*
X12915134Y-18797572D02*
X12962753Y-18773762D01*
X12962753Y-18773762D02*
X13057991Y-18773762D01*
X13057991Y-18773762D02*
X13105610Y-18797572D01*
X13105610Y-18797572D02*
X13129419Y-18821381D01*
X13129419Y-18821381D02*
X13153229Y-18869000D01*
X13153229Y-18869000D02*
X13153229Y-18892810D01*
X13153229Y-18892810D02*
X13129419Y-18940429D01*
X13129419Y-18940429D02*
X13105610Y-18964238D01*
X13105610Y-18964238D02*
X13057991Y-18988048D01*
X13057991Y-18988048D02*
X12962753Y-18988048D01*
X12962753Y-18988048D02*
X12915134Y-19011857D01*
X12915134Y-19011857D02*
X12891324Y-19035667D01*
X12891324Y-19035667D02*
X12867515Y-19083286D01*
X12867515Y-19083286D02*
X12867515Y-19178524D01*
X12867515Y-19178524D02*
X12891324Y-19226143D01*
X12891324Y-19226143D02*
X12915134Y-19249953D01*
X12915134Y-19249953D02*
X12962753Y-19273762D01*
X12962753Y-19273762D02*
X13057991Y-19273762D01*
X13057991Y-19273762D02*
X13105610Y-19249953D01*
X13105610Y-19249953D02*
X13129419Y-19226143D01*
X13129419Y-19226143D02*
X13153229Y-19178524D01*
X13153229Y-19178524D02*
X13153229Y-19083286D01*
X13153229Y-19083286D02*
X13129419Y-19035667D01*
X13129419Y-19035667D02*
X13105610Y-19011857D01*
X13105610Y-19011857D02*
X13057991Y-18988048D01*
X12677038Y-25273762D02*
X12510372Y-25035667D01*
X12391324Y-25273762D02*
X12391324Y-24773762D01*
X12391324Y-24773762D02*
X12581800Y-24773762D01*
X12581800Y-24773762D02*
X12629419Y-24797572D01*
X12629419Y-24797572D02*
X12653229Y-24821381D01*
X12653229Y-24821381D02*
X12677038Y-24869000D01*
X12677038Y-24869000D02*
X12677038Y-24940429D01*
X12677038Y-24940429D02*
X12653229Y-24988048D01*
X12653229Y-24988048D02*
X12629419Y-25011857D01*
X12629419Y-25011857D02*
X12581800Y-25035667D01*
X12581800Y-25035667D02*
X12391324Y-25035667D01*
X13129419Y-24773762D02*
X12891324Y-24773762D01*
X12891324Y-24773762D02*
X12867515Y-25011857D01*
X12867515Y-25011857D02*
X12891324Y-24988048D01*
X12891324Y-24988048D02*
X12938943Y-24964238D01*
X12938943Y-24964238D02*
X13057991Y-24964238D01*
X13057991Y-24964238D02*
X13105610Y-24988048D01*
X13105610Y-24988048D02*
X13129419Y-25011857D01*
X13129419Y-25011857D02*
X13153229Y-25059476D01*
X13153229Y-25059476D02*
X13153229Y-25178524D01*
X13153229Y-25178524D02*
X13129419Y-25226143D01*
X13129419Y-25226143D02*
X13105610Y-25249953D01*
X13105610Y-25249953D02*
X13057991Y-25273762D01*
X13057991Y-25273762D02*
X12938943Y-25273762D01*
X12938943Y-25273762D02*
X12891324Y-25249953D01*
X12891324Y-25249953D02*
X12867515Y-25226143D01*
X12677038Y-23273762D02*
X12510372Y-23035667D01*
X12391324Y-23273762D02*
X12391324Y-22773762D01*
X12391324Y-22773762D02*
X12581800Y-22773762D01*
X12581800Y-22773762D02*
X12629419Y-22797572D01*
X12629419Y-22797572D02*
X12653229Y-22821381D01*
X12653229Y-22821381D02*
X12677038Y-22869000D01*
X12677038Y-22869000D02*
X12677038Y-22940429D01*
X12677038Y-22940429D02*
X12653229Y-22988048D01*
X12653229Y-22988048D02*
X12629419Y-23011857D01*
X12629419Y-23011857D02*
X12581800Y-23035667D01*
X12581800Y-23035667D02*
X12391324Y-23035667D01*
X13105610Y-22940429D02*
X13105610Y-23273762D01*
X12986562Y-22749953D02*
X12867515Y-23107095D01*
X12867515Y-23107095D02*
X13177038Y-23107095D01*
D12*
X70896666Y-30648178D02*
X70896666Y-31362463D01*
X70896666Y-31362463D02*
X70849047Y-31505320D01*
X70849047Y-31505320D02*
X70753809Y-31600559D01*
X70753809Y-31600559D02*
X70610952Y-31648178D01*
X70610952Y-31648178D02*
X70515714Y-31648178D01*
X71801428Y-30648178D02*
X71610952Y-30648178D01*
X71610952Y-30648178D02*
X71515714Y-30695797D01*
X71515714Y-30695797D02*
X71468095Y-30743416D01*
X71468095Y-30743416D02*
X71372857Y-30886273D01*
X71372857Y-30886273D02*
X71325238Y-31076749D01*
X71325238Y-31076749D02*
X71325238Y-31457701D01*
X71325238Y-31457701D02*
X71372857Y-31552939D01*
X71372857Y-31552939D02*
X71420476Y-31600559D01*
X71420476Y-31600559D02*
X71515714Y-31648178D01*
X71515714Y-31648178D02*
X71706190Y-31648178D01*
X71706190Y-31648178D02*
X71801428Y-31600559D01*
X71801428Y-31600559D02*
X71849047Y-31552939D01*
X71849047Y-31552939D02*
X71896666Y-31457701D01*
X71896666Y-31457701D02*
X71896666Y-31219606D01*
X71896666Y-31219606D02*
X71849047Y-31124368D01*
X71849047Y-31124368D02*
X71801428Y-31076749D01*
X71801428Y-31076749D02*
X71706190Y-31029130D01*
X71706190Y-31029130D02*
X71515714Y-31029130D01*
X71515714Y-31029130D02*
X71420476Y-31076749D01*
X71420476Y-31076749D02*
X71372857Y-31124368D01*
X71372857Y-31124368D02*
X71325238Y-31219606D01*
D14*
G04 #@! TO.C,R1*
X27017756Y-16490179D02*
X27471884Y-16490179D01*
X27017756Y-15020179D02*
X27471884Y-15020179D01*
G04 #@! TO.C,R7*
X27024494Y-20490179D02*
X27478622Y-20490179D01*
X27024494Y-19020179D02*
X27478622Y-19020179D01*
G04 #@! TO.C,R6*
X27024494Y-18490179D02*
X27478622Y-18490179D01*
X27024494Y-17020179D02*
X27478622Y-17020179D01*
G04 #@! TO.C,R2*
X27017756Y-14490179D02*
X27471884Y-14490179D01*
X27017756Y-13020179D02*
X27471884Y-13020179D01*
G04 #@! TO.C,Cx1*
X17746962Y-28712194D02*
X17746962Y-28189690D01*
X16276962Y-28712194D02*
X16276962Y-28189690D01*
G04 #@! TO.C,C10*
X23805917Y-25211252D02*
X23805917Y-24688748D01*
X22335917Y-25211252D02*
X22335917Y-24688748D01*
G04 #@! TO.C,U3*
X18700000Y-23440000D02*
X18460000Y-23110000D01*
X18940000Y-23110000D01*
X18700000Y-23440000D01*
G36*
X18700000Y-23440000D02*
G01*
X18460000Y-23110000D01*
X18940000Y-23110000D01*
X18700000Y-23440000D01*
G37*
X20000000Y-26510000D02*
X20800000Y-26510000D01*
X20000000Y-26510000D02*
X19200000Y-26510000D01*
X20000000Y-23390000D02*
X20800000Y-23390000D01*
X20000000Y-23390000D02*
X19200000Y-23390000D01*
D12*
G04 #@! TO.C,U2*
X14675000Y-18475000D02*
X15250000Y-18475000D01*
X14675000Y-18475000D02*
X14675000Y-12725000D01*
X24750000Y-18475000D02*
X25325000Y-18475000D01*
X25325000Y-18475000D02*
X25325000Y-12725000D01*
X14675000Y-12725000D02*
X15250000Y-12725000D01*
X24750000Y-12725000D02*
X25325000Y-12725000D01*
D14*
X15250000Y-18975000D02*
X14920000Y-19215000D01*
X14920000Y-18735000D01*
X15250000Y-18975000D01*
G36*
X15250000Y-18975000D02*
G01*
X14920000Y-19215000D01*
X14920000Y-18735000D01*
X15250000Y-18975000D01*
G37*
G04 #@! TO.C,Cs1*
X21735000Y-28711252D02*
X21735000Y-28188748D01*
X20265000Y-28711252D02*
X20265000Y-28188748D01*
G04 #@! TO.C,Rs1*
X18265000Y-28222936D02*
X18265000Y-28677064D01*
X19735000Y-28222936D02*
X19735000Y-28677064D01*
G04 #@! TO.C,C11*
X20738748Y-20765000D02*
X21261252Y-20765000D01*
X20738748Y-22235000D02*
X21261252Y-22235000D01*
G04 #@! TO.C,J4*
X64810000Y-11644447D02*
X64810000Y-12804447D01*
X64000000Y-11644447D02*
X64810000Y-11644447D01*
X63190000Y-11644447D02*
X60715000Y-11644447D01*
X63190000Y-11644447D02*
X63190000Y-12137739D01*
X60715000Y-11644447D02*
X60715000Y-12486524D01*
X60715000Y-13122370D02*
X60715000Y-13964447D01*
X63190000Y-13471155D02*
X63190000Y-13964447D01*
X63190000Y-13964447D02*
X60715000Y-13964447D01*
D15*
G04 #@! TO.C,Y1*
X75121321Y-19464824D02*
X76464824Y-18121321D01*
X76464824Y-18121321D02*
X75616296Y-17272793D01*
X74272793Y-18616296D02*
X75121321Y-19464824D01*
X70383706Y-14727208D02*
X69535177Y-13878680D01*
X69535177Y-13878680D02*
X70878680Y-12535177D01*
X70878680Y-12535177D02*
X71656498Y-13312995D01*
D14*
G04 #@! TO.C,C2*
X69170535Y-29548232D02*
X68801068Y-29917699D01*
X68131088Y-28508785D02*
X67761621Y-28878252D01*
G04 #@! TO.C,R11*
X63759580Y-15563555D02*
X63438463Y-15242438D01*
X64799027Y-14524108D02*
X64477910Y-14202991D01*
G04 #@! TO.C,C1*
X75577684Y-26013536D02*
X75208217Y-26383003D01*
X74538237Y-24974089D02*
X74168770Y-25343556D01*
G04 #@! TO.C,R0*
X60491665Y-17731086D02*
X60170548Y-18052203D01*
X59452218Y-16691639D02*
X59131101Y-17012756D01*
G04 #@! TO.C,C9*
X74336692Y-19467293D02*
X74706159Y-19836760D01*
X73297245Y-20506740D02*
X73666712Y-20876207D01*
G04 #@! TO.C,C6*
X62326036Y-17016149D02*
X61956569Y-16646682D01*
X63365483Y-15976702D02*
X62996016Y-15607235D01*
G04 #@! TO.C,C8*
X71166712Y-18376207D02*
X70797245Y-18006740D01*
X72206159Y-17336760D02*
X71836692Y-16967293D01*
G04 #@! TO.C,C4*
X60467294Y-18405067D02*
X60836761Y-18035600D01*
X61506741Y-19444514D02*
X61876208Y-19075047D01*
G04 #@! TO.C,C3*
X74163471Y-24599322D02*
X73794004Y-24968789D01*
X73124024Y-23559875D02*
X72754557Y-23929342D01*
G04 #@! TO.C,C5*
X69336692Y-14467293D02*
X69706159Y-14836760D01*
X68297245Y-15506740D02*
X68666712Y-15876207D01*
G04 #@! TO.C,J3*
X11150539Y-14208974D02*
X11970782Y-15029218D01*
X10577782Y-14781730D02*
X11150539Y-14208974D01*
X10005026Y-15354487D02*
X8254936Y-17104576D01*
X10005026Y-15354487D02*
X10353836Y-15703297D01*
X8254936Y-17104576D02*
X8850375Y-17700014D01*
X9299986Y-18149625D02*
X9895424Y-18745064D01*
X11296703Y-16646164D02*
X11645513Y-16994974D01*
X11645513Y-16994974D02*
X9895424Y-18745064D01*
G04 #@! TO.C,J5*
X30150539Y-21208975D02*
X30970782Y-22029219D01*
X29577782Y-21781731D02*
X30150539Y-21208975D01*
X29005026Y-22354488D02*
X27254936Y-24104577D01*
X29005026Y-22354488D02*
X29353836Y-22703298D01*
X27254936Y-24104577D02*
X27850375Y-24700015D01*
X28299986Y-25149626D02*
X28895424Y-25745065D01*
X30296703Y-23646165D02*
X30645513Y-23994975D01*
X30645513Y-23994975D02*
X28895424Y-25745065D01*
D16*
G04 #@! TO.C,D4*
X30606066Y-25090633D02*
X25090633Y-30606066D01*
X35909367Y-30393934D02*
X30393934Y-35909367D01*
D17*
X22992535Y-31702082D02*
G75*
G02*
X22592537Y-31702082I-199999J0D01*
G01*
X22592537Y-31702082D02*
G75*
G02*
X22992535Y-31702082I199999J0D01*
G01*
D15*
X30667157Y-35025483D02*
G75*
G02*
X29767157Y-35025483I-450000J0D01*
G01*
X29767157Y-35025483D02*
G75*
G02*
X30667157Y-35025483I450000J0D01*
G01*
D14*
G04 #@! TO.C,U1*
X72105311Y-22000000D02*
X71787113Y-21681802D01*
X67000000Y-16894689D02*
X67318198Y-17212887D01*
X71787113Y-22318198D02*
X72105311Y-22000000D01*
X66681802Y-17212887D02*
X67000000Y-16894689D01*
X67318198Y-26787113D02*
X67000000Y-27105311D01*
X62212887Y-21681802D02*
X61894689Y-22000000D01*
X67000000Y-27105311D02*
X66681802Y-26787113D01*
X61894689Y-22000000D02*
X62212887Y-22318198D01*
X72777062Y-21356533D02*
X72296230Y-21837365D01*
X72204306Y-21264609D01*
X72777062Y-21356533D01*
G36*
X72777062Y-21356533D02*
G01*
X72296230Y-21837365D01*
X72204306Y-21264609D01*
X72777062Y-21356533D01*
G37*
G04 #@! TO.C,R9*
X74211915Y-28063296D02*
X74533032Y-27742179D01*
X75251362Y-29102743D02*
X75572479Y-28781626D01*
G04 #@! TO.C,R10*
X70523844Y-28502116D02*
X70202727Y-28180999D01*
X71563291Y-27462669D02*
X71242174Y-27141552D01*
G04 #@! TO.C,R3*
X12987436Y-21781613D02*
X12533308Y-21781613D01*
X12987436Y-20311613D02*
X12533308Y-20311613D01*
G04 #@! TO.C,J2*
X17635000Y-34990000D02*
X18715000Y-34990000D01*
X18715000Y-34690000D02*
X18715000Y-34990000D01*
X18715000Y-34690000D02*
X20335000Y-34690000D01*
X18715000Y-36010000D02*
X18715000Y-37310000D01*
X18715000Y-37310000D02*
X20335000Y-37310000D01*
X20335000Y-34690000D02*
X20335000Y-35990000D01*
X20335000Y-37010000D02*
X20335000Y-37310000D01*
G04 #@! TO.C,R8*
X12987436Y-19781613D02*
X12533308Y-19781613D01*
X12987436Y-18311613D02*
X12533308Y-18311613D01*
D16*
G04 #@! TO.C,D1*
X9606066Y-4090633D02*
X4090633Y-9606066D01*
X14909367Y-9393934D02*
X9393934Y-14909367D01*
D17*
X1992535Y-10702082D02*
G75*
G02*
X1592537Y-10702082I-199999J0D01*
G01*
X1592537Y-10702082D02*
G75*
G02*
X1992535Y-10702082I199999J0D01*
G01*
D15*
X9667157Y-14025483D02*
G75*
G02*
X8767157Y-14025483I-450000J0D01*
G01*
X8767157Y-14025483D02*
G75*
G02*
X9667157Y-14025483I450000J0D01*
G01*
D16*
G04 #@! TO.C,D3*
X4090633Y-30393934D02*
X9606066Y-35909367D01*
X9393934Y-25090633D02*
X14909367Y-30606066D01*
D17*
X10902081Y-38207464D02*
G75*
G02*
X10502083Y-38207464I-199999J0D01*
G01*
X10502083Y-38207464D02*
G75*
G02*
X10902081Y-38207464I199999J0D01*
G01*
D15*
X14475483Y-30782843D02*
G75*
G02*
X13575483Y-30782843I-450000J0D01*
G01*
X13575483Y-30782843D02*
G75*
G02*
X14475483Y-30782843I450000J0D01*
G01*
D14*
G04 #@! TO.C,R5*
X12987436Y-25781613D02*
X12533308Y-25781613D01*
X12987436Y-24311613D02*
X12533308Y-24311613D01*
G04 #@! TO.C,R4*
X12987436Y-23781613D02*
X12533308Y-23781613D01*
X12987436Y-22311613D02*
X12533308Y-22311613D01*
D16*
G04 #@! TO.C,D2*
X25090633Y-9393934D02*
X30606066Y-14909367D01*
X30393934Y-4090633D02*
X35909367Y-9606066D01*
D17*
X31902081Y-17207464D02*
G75*
G02*
X31502083Y-17207464I-199999J0D01*
G01*
X31502083Y-17207464D02*
G75*
G02*
X31902081Y-17207464I199999J0D01*
G01*
D15*
X35475483Y-9782843D02*
G75*
G02*
X34575483Y-9782843I-450000J0D01*
G01*
X34575483Y-9782843D02*
G75*
G02*
X35475483Y-9782843I450000J0D01*
G01*
D14*
G04 #@! TO.C,J6*
X73310000Y-30033359D02*
X73310000Y-31193359D01*
X72500000Y-30033359D02*
X73310000Y-30033359D01*
X71690000Y-30033359D02*
X69215000Y-30033359D01*
X71690000Y-30033359D02*
X71690000Y-30526651D01*
X69215000Y-30033359D02*
X69215000Y-30875436D01*
X69215000Y-31511282D02*
X69215000Y-32353359D01*
X71690000Y-31860067D02*
X71690000Y-32353359D01*
X71690000Y-32353359D02*
X69215000Y-32353359D01*
G04 #@! TD*
%LPC*%
D18*
G04 #@! TO.C,R1*
X28157320Y-15755179D03*
X26332320Y-15755179D03*
G04 #@! TD*
G04 #@! TO.C,R7*
X28164058Y-19755179D03*
X26339058Y-19755179D03*
G04 #@! TD*
G04 #@! TO.C,R6*
X28164058Y-17755179D03*
X26339058Y-17755179D03*
G04 #@! TD*
G04 #@! TO.C,R2*
X28157320Y-13755179D03*
X26332320Y-13755179D03*
G04 #@! TD*
D19*
G04 #@! TO.C,Cx1*
X17011962Y-27500942D03*
X17011962Y-29400942D03*
G04 #@! TD*
G04 #@! TO.C,C10*
X23070917Y-24000000D03*
X23070917Y-25900000D03*
G04 #@! TD*
D20*
G04 #@! TO.C,U3*
X21137500Y-24000000D03*
X21137500Y-24950000D03*
X21137500Y-25900000D03*
X18862500Y-25900000D03*
X18862500Y-24950000D03*
X18862500Y-24000000D03*
G04 #@! TD*
D21*
G04 #@! TO.C,U2*
X15775000Y-19200000D03*
X16425000Y-19200000D03*
X17075000Y-19200000D03*
X17725000Y-19200000D03*
X18375000Y-19200000D03*
X19025000Y-19200000D03*
X19675000Y-19200000D03*
X20325000Y-19200000D03*
X20975000Y-19200000D03*
X21625000Y-19200000D03*
X22275000Y-19200000D03*
X22925000Y-19200000D03*
X23575000Y-19200000D03*
X24225000Y-19200000D03*
X24225000Y-12000000D03*
X23575000Y-12000000D03*
X22925000Y-12000000D03*
X22275000Y-12000000D03*
X21625000Y-12000000D03*
X20975000Y-12000000D03*
X20325000Y-12000000D03*
X19675000Y-12000000D03*
X19025000Y-12000000D03*
X18375000Y-12000000D03*
X17725000Y-12000000D03*
X17075000Y-12000000D03*
X16425000Y-12000000D03*
X15775000Y-12000000D03*
G04 #@! TD*
D19*
G04 #@! TO.C,Cs1*
X21000000Y-27500000D03*
X21000000Y-29400000D03*
G04 #@! TD*
D22*
G04 #@! TO.C,Rs1*
X19000000Y-29362500D03*
X19000000Y-27537500D03*
G04 #@! TD*
D23*
G04 #@! TO.C,C11*
X20050000Y-21500000D03*
X21950000Y-21500000D03*
G04 #@! TD*
D24*
G04 #@! TO.C,J1*
X58318019Y-24318019D03*
X59378680Y-25378680D03*
X60439340Y-26439340D03*
X61500000Y-27500000D03*
X62560660Y-28560660D03*
X63621320Y-29621320D03*
X64681981Y-30681981D03*
G04 #@! TD*
D25*
G04 #@! TO.C,J4*
X64000000Y-12804447D03*
D26*
X62730000Y-12804447D03*
X61460000Y-12804447D03*
G04 #@! TD*
D27*
G04 #@! TO.C,Y1*
X75545585Y-17909189D03*
X71090812Y-13454416D03*
X70454416Y-14090812D03*
X74909189Y-18545585D03*
G04 #@! TD*
D28*
G04 #@! TO.C,C2*
X69137829Y-28541491D03*
X67794327Y-29884993D03*
G04 #@! TD*
D29*
G04 #@! TO.C,R11*
X64763980Y-15528508D03*
X63473510Y-14238038D03*
G04 #@! TD*
D28*
G04 #@! TO.C,C1*
X75544978Y-25006795D03*
X74201476Y-26350297D03*
G04 #@! TD*
D30*
G04 #@! TO.C,R0*
X60456618Y-16726686D03*
X59166148Y-18017156D03*
G04 #@! TD*
D31*
G04 #@! TO.C,C9*
X73329951Y-19499999D03*
X74673453Y-20843501D03*
G04 #@! TD*
D32*
G04 #@! TO.C,C6*
X63332777Y-16983443D03*
X61989275Y-15639941D03*
G04 #@! TD*
G04 #@! TO.C,C8*
X72173453Y-18343501D03*
X70829951Y-16999999D03*
G04 #@! TD*
D33*
G04 #@! TO.C,C4*
X60500000Y-19411808D03*
X61843502Y-18068306D03*
G04 #@! TD*
D28*
G04 #@! TO.C,C3*
X74130765Y-23592581D03*
X72787263Y-24936083D03*
G04 #@! TD*
D31*
G04 #@! TO.C,C5*
X68329951Y-14499999D03*
X69673453Y-15843501D03*
G04 #@! TD*
D34*
G04 #@! TO.C,J3*
X11398026Y-15601974D03*
D26*
X10500000Y-16500000D03*
X9601975Y-17398025D03*
G04 #@! TD*
D34*
G04 #@! TO.C,J5*
X30398026Y-22601975D03*
D26*
X29500000Y-23500001D03*
X28601975Y-24398026D03*
G04 #@! TD*
D35*
G04 #@! TO.C,D4*
X24524948Y-32232412D03*
X25585608Y-33293072D03*
X26646268Y-34353732D03*
X27706928Y-35414392D03*
X28767588Y-36475052D03*
X36475052Y-28767588D03*
X35414392Y-27706928D03*
X34353732Y-26646268D03*
X33293072Y-25585608D03*
X32232412Y-24524948D03*
G04 #@! TD*
D36*
G04 #@! TO.C,U1*
X71887876Y-21001212D03*
X71534322Y-20647658D03*
X71180769Y-20294105D03*
X70827215Y-19940551D03*
X70473662Y-19586998D03*
X70120109Y-19233445D03*
X69766555Y-18879891D03*
X69413002Y-18526338D03*
X69059449Y-18172785D03*
X68705895Y-17819231D03*
X68352342Y-17465678D03*
X67998788Y-17112124D03*
D37*
X66001212Y-17112124D03*
X65647658Y-17465678D03*
X65294105Y-17819231D03*
X64940551Y-18172785D03*
X64586998Y-18526338D03*
X64233445Y-18879891D03*
X63879891Y-19233445D03*
X63526338Y-19586998D03*
X63172785Y-19940551D03*
X62819231Y-20294105D03*
X62465678Y-20647658D03*
X62112124Y-21001212D03*
D36*
X62112124Y-22998788D03*
X62465678Y-23352342D03*
X62819231Y-23705895D03*
X63172785Y-24059449D03*
X63526338Y-24413002D03*
X63879891Y-24766555D03*
X64233445Y-25120109D03*
X64586998Y-25473662D03*
X64940551Y-25827215D03*
X65294105Y-26180769D03*
X65647658Y-26534322D03*
X66001212Y-26887876D03*
D37*
X67998788Y-26887876D03*
X68352342Y-26534322D03*
X68705895Y-26180769D03*
X69059449Y-25827215D03*
X69413002Y-25473662D03*
X69766555Y-25120109D03*
X70120109Y-24766555D03*
X70473662Y-24413002D03*
X70827215Y-24059449D03*
X71180769Y-23705895D03*
X71534322Y-23352342D03*
X71887876Y-22998788D03*
G04 #@! TD*
D38*
G04 #@! TO.C,R9*
X74246962Y-29067696D03*
X75537432Y-27777226D03*
G04 #@! TD*
D29*
G04 #@! TO.C,R10*
X71528244Y-28467069D03*
X70237774Y-27176599D03*
G04 #@! TD*
D39*
G04 #@! TO.C,R3*
X13672872Y-21046613D03*
X11847872Y-21046613D03*
G04 #@! TD*
D40*
G04 #@! TO.C,J2*
X18550000Y-35500000D03*
X20500000Y-36500000D03*
G04 #@! TD*
D39*
G04 #@! TO.C,R8*
X13672872Y-19046613D03*
X11847872Y-19046613D03*
G04 #@! TD*
D35*
G04 #@! TO.C,D1*
X3524948Y-11232412D03*
X4585608Y-12293072D03*
X5646268Y-13353732D03*
X6706928Y-14414392D03*
X7767588Y-15475052D03*
X15475052Y-7767588D03*
X14414392Y-6706928D03*
X13353732Y-5646268D03*
X12293072Y-4585608D03*
X11232412Y-3524948D03*
G04 #@! TD*
D41*
G04 #@! TO.C,D3*
X11232412Y-36475052D03*
X12293072Y-35414392D03*
X13353732Y-34353732D03*
X14414392Y-33293072D03*
X15475052Y-32232412D03*
X7767588Y-24524948D03*
X6706928Y-25585608D03*
X5646268Y-26646268D03*
X4585608Y-27706928D03*
X3524948Y-28767588D03*
G04 #@! TD*
D39*
G04 #@! TO.C,R5*
X13672872Y-25046613D03*
X11847872Y-25046613D03*
G04 #@! TD*
G04 #@! TO.C,R4*
X13672872Y-23046613D03*
X11847872Y-23046613D03*
G04 #@! TD*
D41*
G04 #@! TO.C,D2*
X32232412Y-15475052D03*
X33293072Y-14414392D03*
X34353732Y-13353732D03*
X35414392Y-12293072D03*
X36475052Y-11232412D03*
X28767588Y-3524948D03*
X27706928Y-4585608D03*
X26646268Y-5646268D03*
X25585608Y-6706928D03*
X24524948Y-7767588D03*
G04 #@! TD*
D25*
G04 #@! TO.C,J6*
X72500000Y-31193359D03*
D26*
X71230000Y-31193359D03*
X69960000Y-31193359D03*
G04 #@! TD*
%LPD*%
M02*
