G04 #@! TF.GenerationSoftware,KiCad,Pcbnew,9.0.3-9.0.3-0~ubuntu24.04.1*
G04 #@! TF.CreationDate,2025-07-13T16:36:45+02:00*
G04 #@! TF.ProjectId,PCBWatch,50434257-6174-4636-982e-6b696361645f,rev?*
G04 #@! TF.SameCoordinates,Original*
G04 #@! TF.FileFunction,Copper,L1,Top*
G04 #@! TF.FilePolarity,Positive*
%FSLAX46Y46*%
G04 Gerber Fmt 4.6, Leading zero omitted, Abs format (unit mm)*
G04 Created by KiCad (PCBNEW 9.0.3-9.0.3-0~ubuntu24.04.1) date 2025-07-13 16:36:45*
%MOMM*%
%LPD*%
G01*
G04 APERTURE LIST*
G04 Aperture macros list*
%AMRoundRect*
0 Rectangle with rounded corners*
0 $1 Rounding radius*
0 $2 $3 $4 $5 $6 $7 $8 $9 X,Y pos of 4 corners*
0 Add a 4 corners polygon primitive as box body*
4,1,4,$2,$3,$4,$5,$6,$7,$8,$9,$2,$3,0*
0 Add four circle primitives for the rounded corners*
1,1,$1+$1,$2,$3*
1,1,$1+$1,$4,$5*
1,1,$1+$1,$6,$7*
1,1,$1+$1,$8,$9*
0 Add four rect primitives between the rounded corners*
20,1,$1+$1,$2,$3,$4,$5,0*
20,1,$1+$1,$4,$5,$6,$7,0*
20,1,$1+$1,$6,$7,$8,$9,0*
20,1,$1+$1,$8,$9,$2,$3,0*%
%AMRotRect*
0 Rectangle, with rotation*
0 The origin of the aperture is its center*
0 $1 length*
0 $2 width*
0 $3 Rotation angle, in degrees counterclockwise*
0 Add horizontal line*
21,1,$1,$2,0,0,$3*%
G04 Aperture macros list end*
G04 #@! TA.AperFunction,SMDPad,CuDef*
%ADD10RoundRect,0.075000X0.415425X0.521491X-0.521491X-0.415425X-0.415425X-0.521491X0.521491X0.415425X0*%
G04 #@! TD*
G04 #@! TA.AperFunction,SMDPad,CuDef*
%ADD11RoundRect,0.075000X-0.415425X0.521491X-0.521491X0.415425X0.415425X-0.521491X0.521491X-0.415425X0*%
G04 #@! TD*
G04 #@! TA.AperFunction,SMDPad,CuDef*
%ADD12RoundRect,0.250000X0.132583X-0.503814X0.503814X-0.132583X-0.132583X0.503814X-0.503814X0.132583X0*%
G04 #@! TD*
G04 #@! TA.AperFunction,SMDPad,CuDef*
%ADD13RoundRect,0.250000X0.503814X0.132583X0.132583X0.503814X-0.503814X-0.132583X-0.132583X-0.503814X0*%
G04 #@! TD*
G04 #@! TA.AperFunction,SMDPad,CuDef*
%ADD14RoundRect,0.250000X-0.159099X0.512652X-0.512652X0.159099X0.159099X-0.512652X0.512652X-0.159099X0*%
G04 #@! TD*
G04 #@! TA.AperFunction,SMDPad,CuDef*
%ADD15RoundRect,0.250000X-0.262500X-0.450000X0.262500X-0.450000X0.262500X0.450000X-0.262500X0.450000X0*%
G04 #@! TD*
G04 #@! TA.AperFunction,SMDPad,CuDef*
%ADD16RoundRect,0.250000X-0.132583X0.503814X-0.503814X0.132583X0.132583X-0.503814X0.503814X-0.132583X0*%
G04 #@! TD*
G04 #@! TA.AperFunction,ComponentPad*
%ADD17RotRect,1.000000X1.000000X315.000000*%
G04 #@! TD*
G04 #@! TA.AperFunction,ComponentPad*
%ADD18C,1.000000*%
G04 #@! TD*
G04 #@! TA.AperFunction,SMDPad,CuDef*
%ADD19RoundRect,0.250000X-0.450000X0.262500X-0.450000X-0.262500X0.450000X-0.262500X0.450000X0.262500X0*%
G04 #@! TD*
G04 #@! TA.AperFunction,SMDPad,CuDef*
%ADD20RoundRect,0.330000X-0.318198X-0.629325X0.629325X0.318198X0.318198X0.629325X-0.629325X-0.318198X0*%
G04 #@! TD*
G04 #@! TA.AperFunction,SMDPad,CuDef*
%ADD21RoundRect,0.250000X0.512652X0.159099X0.159099X0.512652X-0.512652X-0.159099X-0.159099X-0.512652X0*%
G04 #@! TD*
G04 #@! TA.AperFunction,SMDPad,CuDef*
%ADD22RoundRect,0.250000X0.262500X0.450000X-0.262500X0.450000X-0.262500X-0.450000X0.262500X-0.450000X0*%
G04 #@! TD*
G04 #@! TA.AperFunction,SMDPad,CuDef*
%ADD23RoundRect,0.250000X0.159099X-0.512652X0.512652X-0.159099X-0.159099X0.512652X-0.512652X0.159099X0*%
G04 #@! TD*
G04 #@! TA.AperFunction,SMDPad,CuDef*
%ADD24RoundRect,0.250000X-0.250000X-0.475000X0.250000X-0.475000X0.250000X0.475000X-0.250000X0.475000X0*%
G04 #@! TD*
G04 #@! TA.AperFunction,SMDPad,CuDef*
%ADD25RotRect,1.000000X2.300000X315.000000*%
G04 #@! TD*
G04 #@! TA.AperFunction,ComponentPad*
%ADD26R,1.000000X1.000000*%
G04 #@! TD*
G04 #@! TA.AperFunction,SMDPad,CuDef*
%ADD27R,0.450000X1.750000*%
G04 #@! TD*
G04 #@! TA.AperFunction,SMDPad,CuDef*
%ADD28RoundRect,0.250000X-0.512652X-0.159099X-0.159099X-0.512652X0.512652X0.159099X0.159099X0.512652X0*%
G04 #@! TD*
G04 #@! TA.AperFunction,SMDPad,CuDef*
%ADD29RoundRect,0.090000X0.509117X-0.212132X-0.212132X0.509117X-0.509117X0.212132X0.212132X-0.509117X0*%
G04 #@! TD*
G04 #@! TA.AperFunction,SMDPad,CuDef*
%ADD30RoundRect,0.190500X0.809500X0.444500X-0.809500X0.444500X-0.809500X-0.444500X0.809500X-0.444500X0*%
G04 #@! TD*
G04 #@! TA.AperFunction,SMDPad,CuDef*
%ADD31RotRect,1.000000X2.300000X45.000000*%
G04 #@! TD*
G04 #@! TA.AperFunction,ViaPad*
%ADD32C,0.600000*%
G04 #@! TD*
G04 #@! TA.AperFunction,Conductor*
%ADD33C,0.200000*%
G04 #@! TD*
G04 APERTURE END LIST*
D10*
G04 #@! TO.P,U1,1,PC0*
G04 #@! TO.N,unconnected-(U1-PC0-Pad1)*
X57387876Y-13501212D03*
G04 #@! TO.P,U1,2,PC13*
G04 #@! TO.N,unconnected-(U1-PC13-Pad2)*
X57034322Y-13147658D03*
G04 #@! TO.P,U1,3,PC14*
G04 #@! TO.N,Net-(U1-PC14)*
X56680769Y-12794105D03*
G04 #@! TO.P,U1,4,PC15*
G04 #@! TO.N,Net-(U1-PC15)*
X56327215Y-12440551D03*
G04 #@! TO.P,U1,5,PH0*
G04 #@! TO.N,unconnected-(U1-PH0-Pad5)*
X55973662Y-12086998D03*
G04 #@! TO.P,U1,6,PH1*
G04 #@! TO.N,unconnected-(U1-PH1-Pad6)*
X55620109Y-11733445D03*
G04 #@! TO.P,U1,7,NRST*
G04 #@! TO.N,/NRST*
X55266555Y-11379891D03*
G04 #@! TO.P,U1,8,VSSA*
G04 #@! TO.N,GND-B*
X54913002Y-11026338D03*
G04 #@! TO.P,U1,9,VDDA*
G04 #@! TO.N,+3V0-B*
X54559449Y-10672785D03*
G04 #@! TO.P,U1,10,PA0*
G04 #@! TO.N,unconnected-(U1-PA0-Pad10)*
X54205895Y-10319231D03*
G04 #@! TO.P,U1,11,PA1*
G04 #@! TO.N,unconnected-(U1-PA1-Pad11)*
X53852342Y-9965678D03*
G04 #@! TO.P,U1,12,PA2*
G04 #@! TO.N,unconnected-(U1-PA2-Pad12)*
X53498788Y-9612124D03*
D11*
G04 #@! TO.P,U1,13,PA3*
G04 #@! TO.N,unconnected-(U1-PA3-Pad13)*
X51501212Y-9612124D03*
G04 #@! TO.P,U1,14,PA4*
G04 #@! TO.N,unconnected-(U1-PA4-Pad14)*
X51147658Y-9965678D03*
G04 #@! TO.P,U1,15,PA5*
G04 #@! TO.N,unconnected-(U1-PA5-Pad15)*
X50794105Y-10319231D03*
G04 #@! TO.P,U1,16,PA6*
G04 #@! TO.N,unconnected-(U1-PA6-Pad16)*
X50440551Y-10672785D03*
G04 #@! TO.P,U1,17,PA7*
G04 #@! TO.N,unconnected-(U1-PA7-Pad17)*
X50086998Y-11026338D03*
G04 #@! TO.P,U1,18,PB0*
G04 #@! TO.N,unconnected-(U1-PB0-Pad18)*
X49733445Y-11379891D03*
G04 #@! TO.P,U1,19,PB1*
G04 #@! TO.N,unconnected-(U1-PB1-Pad19)*
X49379891Y-11733445D03*
G04 #@! TO.P,U1,20,PB2*
G04 #@! TO.N,unconnected-(U1-PB2-Pad20)*
X49026338Y-12086998D03*
G04 #@! TO.P,U1,21,PB10*
G04 #@! TO.N,unconnected-(U1-PB10-Pad21)*
X48672785Y-12440551D03*
G04 #@! TO.P,U1,22,PB11*
G04 #@! TO.N,unconnected-(U1-PB11-Pad22)*
X48319231Y-12794105D03*
G04 #@! TO.P,U1,23,VSS*
G04 #@! TO.N,GND-B*
X47965678Y-13147658D03*
G04 #@! TO.P,U1,24,VDD*
G04 #@! TO.N,+3V0-B*
X47612124Y-13501212D03*
D10*
G04 #@! TO.P,U1,25,PB12*
G04 #@! TO.N,unconnected-(U1-PB12-Pad25)*
X47612124Y-15498788D03*
G04 #@! TO.P,U1,26,PB13*
G04 #@! TO.N,unconnected-(U1-PB13-Pad26)*
X47965678Y-15852342D03*
G04 #@! TO.P,U1,27,PB14*
G04 #@! TO.N,unconnected-(U1-PB14-Pad27)*
X48319231Y-16205895D03*
G04 #@! TO.P,U1,28,PB15*
G04 #@! TO.N,unconnected-(U1-PB15-Pad28)*
X48672785Y-16559449D03*
G04 #@! TO.P,U1,29,PA8*
G04 #@! TO.N,unconnected-(U1-PA8-Pad29)*
X49026338Y-16913002D03*
G04 #@! TO.P,U1,30,PA9*
G04 #@! TO.N,/TX*
X49379891Y-17266555D03*
G04 #@! TO.P,U1,31,PA10*
G04 #@! TO.N,/RX*
X49733445Y-17620109D03*
G04 #@! TO.P,U1,32,PA11*
G04 #@! TO.N,unconnected-(U1-PA11-Pad32)*
X50086998Y-17973662D03*
G04 #@! TO.P,U1,33,PA12*
G04 #@! TO.N,unconnected-(U1-PA12-Pad33)*
X50440551Y-18327215D03*
G04 #@! TO.P,U1,34,PA13*
G04 #@! TO.N,/SWDIO*
X50794105Y-18680769D03*
G04 #@! TO.P,U1,35,VSS*
G04 #@! TO.N,GND-B*
X51147658Y-19034322D03*
G04 #@! TO.P,U1,36,VDD*
G04 #@! TO.N,+3V0-B*
X51501212Y-19387876D03*
D11*
G04 #@! TO.P,U1,37,PA14*
G04 #@! TO.N,/SWCLK*
X53498788Y-19387876D03*
G04 #@! TO.P,U1,38,PA15*
G04 #@! TO.N,unconnected-(U1-PA15-Pad38)*
X53852342Y-19034322D03*
G04 #@! TO.P,U1,39,PB3*
G04 #@! TO.N,unconnected-(U1-PB3-Pad39)*
X54205895Y-18680769D03*
G04 #@! TO.P,U1,40,PB4*
G04 #@! TO.N,unconnected-(U1-PB4-Pad40)*
X54559449Y-18327215D03*
G04 #@! TO.P,U1,41,PB5*
G04 #@! TO.N,unconnected-(U1-PB5-Pad41)*
X54913002Y-17973662D03*
G04 #@! TO.P,U1,42,PB6*
G04 #@! TO.N,/sck-B*
X55266555Y-17620109D03*
G04 #@! TO.P,U1,43,PB7*
G04 #@! TO.N,/sda-B*
X55620109Y-17266555D03*
G04 #@! TO.P,U1,44,BOOT0*
G04 #@! TO.N,Net-(U1-BOOT0)*
X55973662Y-16913002D03*
G04 #@! TO.P,U1,45,PB8*
G04 #@! TO.N,/touch-B*
X56327215Y-16559449D03*
G04 #@! TO.P,U1,46,PB9*
G04 #@! TO.N,unconnected-(U1-PB9-Pad46)*
X56680769Y-16205895D03*
G04 #@! TO.P,U1,47,VSS*
G04 #@! TO.N,GND-B*
X57034322Y-15852342D03*
G04 #@! TO.P,U1,48,VDD*
G04 #@! TO.N,+3V0-B*
X57387876Y-15498788D03*
G04 #@! TD*
D12*
G04 #@! TO.P,R9,1*
G04 #@! TO.N,/sda-B*
X59746962Y-21567696D03*
G04 #@! TO.P,R9,2*
G04 #@! TO.N,+3V0-B*
X61037432Y-20277226D03*
G04 #@! TD*
D13*
G04 #@! TO.P,R10,1*
G04 #@! TO.N,/sck-B*
X57028244Y-20967069D03*
G04 #@! TO.P,R10,2*
G04 #@! TO.N,+3V0-B*
X55737774Y-19676599D03*
G04 #@! TD*
D14*
G04 #@! TO.P,C1,1*
G04 #@! TO.N,+3V0-B*
X61044978Y-17506795D03*
G04 #@! TO.P,C1,2*
G04 #@! TO.N,GND-B*
X59701476Y-18850297D03*
G04 #@! TD*
D15*
G04 #@! TO.P,R7,1*
G04 #@! TO.N,/row7-R*
X26330112Y-20492925D03*
G04 #@! TO.P,R7,2*
G04 #@! TO.N,/row7*
X28155112Y-20492925D03*
G04 #@! TD*
D16*
G04 #@! TO.P,R0,1*
G04 #@! TO.N,GND-B*
X45602242Y-9609891D03*
G04 #@! TO.P,R0,2*
G04 #@! TO.N,Net-(U1-BOOT0)*
X44311772Y-10900361D03*
G04 #@! TD*
D17*
G04 #@! TO.P,J5,1,Pin_1*
G04 #@! TO.N,/sda-A*
X30398026Y-22601975D03*
D18*
G04 #@! TO.P,J5,2,Pin_2*
G04 #@! TO.N,/sck-A*
X29500000Y-23500001D03*
G04 #@! TO.P,J5,3,Pin_3*
G04 #@! TO.N,/touch-A*
X28601975Y-24398026D03*
G04 #@! TD*
D19*
G04 #@! TO.P,R12,1*
G04 #@! TO.N,GND-A*
X22000000Y-23425000D03*
G04 #@! TO.P,R12,2*
G04 #@! TO.N,/touch-A*
X22000000Y-25250000D03*
G04 #@! TD*
D20*
G04 #@! TO.P,J1,1,Pin_1*
G04 #@! TO.N,+3V0-B*
X43818019Y-16818019D03*
G04 #@! TO.P,J1,2,Pin_2*
G04 #@! TO.N,/NRST*
X44878680Y-17878680D03*
G04 #@! TO.P,J1,3,Pin_3*
G04 #@! TO.N,/SWCLK*
X45939340Y-18939340D03*
G04 #@! TO.P,J1,4,Pin_4*
G04 #@! TO.N,/SWDIO*
X47000000Y-20000000D03*
G04 #@! TO.P,J1,5,Pin_5*
G04 #@! TO.N,/TX*
X48060660Y-21060660D03*
G04 #@! TO.P,J1,6,Pin_6*
G04 #@! TO.N,/RX*
X49121320Y-22121320D03*
G04 #@! TO.P,J1,7,Pin_7*
G04 #@! TO.N,GND-B*
X50181981Y-23181981D03*
G04 #@! TD*
D13*
G04 #@! TO.P,R11,1*
G04 #@! TO.N,/NRST*
X50045624Y-8583205D03*
G04 #@! TO.P,R11,2*
G04 #@! TO.N,+3V0-B*
X48755154Y-7292735D03*
G04 #@! TD*
D21*
G04 #@! TO.P,C6,1*
G04 #@! TO.N,/NRST*
X48614421Y-10038140D03*
G04 #@! TO.P,C6,2*
G04 #@! TO.N,GND-B*
X47270919Y-8694638D03*
G04 #@! TD*
G04 #@! TO.P,C8,1*
G04 #@! TO.N,Net-(U1-PC15)*
X57673453Y-10843501D03*
G04 #@! TO.P,C8,2*
G04 #@! TO.N,GND-B*
X56329951Y-9499999D03*
G04 #@! TD*
D22*
G04 #@! TO.P,R3,1*
G04 #@! TO.N,/row3-R*
X13672872Y-21046613D03*
G04 #@! TO.P,R3,2*
G04 #@! TO.N,/row3*
X11847872Y-21046613D03*
G04 #@! TD*
D23*
G04 #@! TO.P,C4,1*
G04 #@! TO.N,+3V0-B*
X45645624Y-12295013D03*
G04 #@! TO.P,C4,2*
G04 #@! TO.N,GND-B*
X46989126Y-10951511D03*
G04 #@! TD*
D24*
G04 #@! TO.P,C11,1*
G04 #@! TO.N,+3V0-A*
X20050000Y-21500000D03*
G04 #@! TO.P,C11,2*
G04 #@! TO.N,GND-A*
X21950000Y-21500000D03*
G04 #@! TD*
D14*
G04 #@! TO.P,C3,1*
G04 #@! TO.N,+3V0-B*
X59630765Y-16092581D03*
G04 #@! TO.P,C3,2*
G04 #@! TO.N,GND-B*
X58287263Y-17436083D03*
G04 #@! TD*
D15*
G04 #@! TO.P,R1,1*
G04 #@! TO.N,/row1-R*
X26323374Y-16492925D03*
G04 #@! TO.P,R1,2*
G04 #@! TO.N,/row1*
X28148374Y-16492925D03*
G04 #@! TD*
D22*
G04 #@! TO.P,R8,1*
G04 #@! TO.N,/row8-R*
X13672872Y-19046613D03*
G04 #@! TO.P,R8,2*
G04 #@! TO.N,/row8*
X11847872Y-19046613D03*
G04 #@! TD*
D25*
G04 #@! TO.P,D1,1*
G04 #@! TO.N,/row5*
X3524948Y-11232412D03*
G04 #@! TO.P,D1,2*
G04 #@! TO.N,/row4*
X4585608Y-12293072D03*
G04 #@! TO.P,D1,3*
G04 #@! TO.N,/column1*
X5646268Y-13353732D03*
G04 #@! TO.P,D1,4*
G04 #@! TO.N,/row3*
X6706928Y-14414392D03*
G04 #@! TO.P,D1,5*
G04 #@! TO.N,/row8*
X7767588Y-15475052D03*
G04 #@! TO.P,D1,6*
G04 #@! TO.N,/row2*
X15475052Y-7767588D03*
G04 #@! TO.P,D1,7*
G04 #@! TO.N,/row1*
X14414392Y-6706928D03*
G04 #@! TO.P,D1,8*
G04 #@! TO.N,/column1*
X13353732Y-5646268D03*
G04 #@! TO.P,D1,9*
G04 #@! TO.N,/row6*
X12293072Y-4585608D03*
G04 #@! TO.P,D1,10*
G04 #@! TO.N,/row7*
X11232412Y-3524948D03*
G04 #@! TD*
D26*
G04 #@! TO.P,J4,1,Pin_1*
G04 #@! TO.N,GND-B*
X49500000Y-5301589D03*
D18*
G04 #@! TO.P,J4,2,Pin_2*
G04 #@! TO.N,unconnected-(J4-Pin_2-Pad2)*
X48230000Y-5301589D03*
G04 #@! TO.P,J4,3,Pin_3*
G04 #@! TO.N,+3V0-B*
X46960000Y-5301589D03*
G04 #@! TD*
D27*
G04 #@! TO.P,U2,1,GPB0*
G04 #@! TO.N,/row8-R*
X15775000Y-19200000D03*
G04 #@! TO.P,U2,2,GPB1*
G04 #@! TO.N,/row3-R*
X16425000Y-19200000D03*
G04 #@! TO.P,U2,3,GPB2*
G04 #@! TO.N,/row4-R*
X17075000Y-19200000D03*
G04 #@! TO.P,U2,4,GPB3*
G04 #@! TO.N,/row5-R*
X17725000Y-19200000D03*
G04 #@! TO.P,U2,5,GPB4*
G04 #@! TO.N,/column3*
X18375000Y-19200000D03*
G04 #@! TO.P,U2,6,GPB5*
G04 #@! TO.N,unconnected-(U2-GPB5-Pad6)*
X19025000Y-19200000D03*
G04 #@! TO.P,U2,7,GPB6*
G04 #@! TO.N,unconnected-(U2-GPB6-Pad7)*
X19675000Y-19200000D03*
G04 #@! TO.P,U2,8,GPB7*
G04 #@! TO.N,unconnected-(U2-GPB7-Pad8)*
X20325000Y-19200000D03*
G04 #@! TO.P,U2,9,VDD*
G04 #@! TO.N,+3V0-A*
X20975000Y-19200000D03*
G04 #@! TO.P,U2,10,VSS*
G04 #@! TO.N,GND-A*
X21625000Y-19200000D03*
G04 #@! TO.P,U2,11,NC*
G04 #@! TO.N,unconnected-(U2-NC-Pad11)*
X22275000Y-19200000D03*
G04 #@! TO.P,U2,12,SCK*
G04 #@! TO.N,/sck-A*
X22925000Y-19200000D03*
G04 #@! TO.P,U2,13,SDA*
G04 #@! TO.N,/sda-A*
X23575000Y-19200000D03*
G04 #@! TO.P,U2,14,NC*
G04 #@! TO.N,unconnected-(U2-NC-Pad14)*
X24225000Y-19200000D03*
G04 #@! TO.P,U2,15,A0*
G04 #@! TO.N,GND-A*
X24225000Y-12000000D03*
G04 #@! TO.P,U2,16,A1*
X23575000Y-12000000D03*
G04 #@! TO.P,U2,17,A2*
X22925000Y-12000000D03*
G04 #@! TO.P,U2,18,~{RESET}*
G04 #@! TO.N,+3V0-A*
X22275000Y-12000000D03*
G04 #@! TO.P,U2,19,INTB*
G04 #@! TO.N,unconnected-(U2-INTB-Pad19)*
X21625000Y-12000000D03*
G04 #@! TO.P,U2,20,INTA*
G04 #@! TO.N,unconnected-(U2-INTA-Pad20)*
X20975000Y-12000000D03*
G04 #@! TO.P,U2,21,GPA0*
G04 #@! TO.N,/column4*
X20325000Y-12000000D03*
G04 #@! TO.P,U2,22,GPA1*
G04 #@! TO.N,unconnected-(U2-GPA1-Pad22)*
X19675000Y-12000000D03*
G04 #@! TO.P,U2,23,GPA2*
G04 #@! TO.N,/column2*
X19025000Y-12000000D03*
G04 #@! TO.P,U2,24,GPA3*
G04 #@! TO.N,/column1*
X18375000Y-12000000D03*
G04 #@! TO.P,U2,25,GPA4*
G04 #@! TO.N,/row2-R*
X17725000Y-12000000D03*
G04 #@! TO.P,U2,26,GPA5*
G04 #@! TO.N,/row1-R*
X17075000Y-12000000D03*
G04 #@! TO.P,U2,27,GPA6*
G04 #@! TO.N,/row6-R*
X16425000Y-12000000D03*
G04 #@! TO.P,U2,28,GPA7*
G04 #@! TO.N,/row7-R*
X15775000Y-12000000D03*
G04 #@! TD*
D28*
G04 #@! TO.P,C9,1*
G04 #@! TO.N,Net-(U1-PC14)*
X58829951Y-11999999D03*
G04 #@! TO.P,C9,2*
G04 #@! TO.N,GND-B*
X60173453Y-13343501D03*
G04 #@! TD*
D26*
G04 #@! TO.P,J6,1,Pin_1*
G04 #@! TO.N,/sda-B*
X58000000Y-23693359D03*
D18*
G04 #@! TO.P,J6,2,Pin_2*
G04 #@! TO.N,/sck-B*
X56730000Y-23693359D03*
G04 #@! TO.P,J6,3,Pin_3*
G04 #@! TO.N,/touch-B*
X55460000Y-23693359D03*
G04 #@! TD*
D17*
G04 #@! TO.P,J3,1,Pin_1*
G04 #@! TO.N,GND-A*
X11398026Y-15601974D03*
D18*
G04 #@! TO.P,J3,2,Pin_2*
G04 #@! TO.N,unconnected-(J3-Pin_2-Pad2)*
X10500000Y-16500000D03*
G04 #@! TO.P,J3,3,Pin_3*
G04 #@! TO.N,+3V0-A*
X9601975Y-17398025D03*
G04 #@! TD*
D29*
G04 #@! TO.P,Y1,1*
G04 #@! TO.N,Net-(U1-PC14)*
X61045585Y-10409189D03*
G04 #@! TO.P,Y1,2,NC*
G04 #@! TO.N,unconnected-(Y1-NC-Pad2)*
X56590812Y-5954416D03*
G04 #@! TO.P,Y1,3,NC*
G04 #@! TO.N,unconnected-(Y1-NC-Pad3)*
X55954416Y-6590812D03*
G04 #@! TO.P,Y1,4*
G04 #@! TO.N,Net-(U1-PC15)*
X60409189Y-11045585D03*
G04 #@! TD*
D30*
G04 #@! TO.P,SW1,1,A*
G04 #@! TO.N,/touch-A*
X23000000Y-37000000D03*
G04 #@! TO.P,SW1,2,B*
G04 #@! TO.N,+3V0-A*
X17000000Y-37000000D03*
G04 #@! TD*
D31*
G04 #@! TO.P,D3,1*
G04 #@! TO.N,/row7*
X11232412Y-36475052D03*
G04 #@! TO.P,D3,2*
G04 #@! TO.N,/row6*
X12293072Y-35414392D03*
G04 #@! TO.P,D3,3*
G04 #@! TO.N,/column3*
X13353732Y-34353732D03*
G04 #@! TO.P,D3,4*
G04 #@! TO.N,/row2*
X14414392Y-33293072D03*
G04 #@! TO.P,D3,5*
G04 #@! TO.N,/row1*
X15475052Y-32232412D03*
G04 #@! TO.P,D3,6*
G04 #@! TO.N,/row8*
X7767588Y-24524948D03*
G04 #@! TO.P,D3,7*
G04 #@! TO.N,/row3*
X6706928Y-25585608D03*
G04 #@! TO.P,D3,8*
G04 #@! TO.N,/column3*
X5646268Y-26646268D03*
G04 #@! TO.P,D3,9*
G04 #@! TO.N,/row4*
X4585608Y-27706928D03*
G04 #@! TO.P,D3,10*
G04 #@! TO.N,/row5*
X3524948Y-28767588D03*
G04 #@! TD*
D25*
G04 #@! TO.P,D4,1*
G04 #@! TO.N,/row1*
X24524948Y-32232412D03*
G04 #@! TO.P,D4,2*
G04 #@! TO.N,/row2*
X25585608Y-33293072D03*
G04 #@! TO.P,D4,3*
G04 #@! TO.N,/column4*
X26646268Y-34353732D03*
G04 #@! TO.P,D4,4*
G04 #@! TO.N,/row6*
X27706928Y-35414392D03*
G04 #@! TO.P,D4,5*
G04 #@! TO.N,/row7*
X28767588Y-36475052D03*
G04 #@! TO.P,D4,6*
G04 #@! TO.N,/row8*
X36475052Y-28767588D03*
G04 #@! TO.P,D4,7*
G04 #@! TO.N,/row3*
X35414392Y-27706928D03*
G04 #@! TO.P,D4,8*
G04 #@! TO.N,/column4*
X34353732Y-26646268D03*
G04 #@! TO.P,D4,9*
G04 #@! TO.N,/row4*
X33293072Y-25585608D03*
G04 #@! TO.P,D4,10*
G04 #@! TO.N,/row5*
X32232412Y-24524948D03*
G04 #@! TD*
D22*
G04 #@! TO.P,R5,1*
G04 #@! TO.N,/row5-R*
X13672872Y-25046613D03*
G04 #@! TO.P,R5,2*
G04 #@! TO.N,/row5*
X11847872Y-25046613D03*
G04 #@! TD*
D14*
G04 #@! TO.P,C2,1*
G04 #@! TO.N,+3V0-B*
X54637829Y-21041491D03*
G04 #@! TO.P,C2,2*
G04 #@! TO.N,GND-B*
X53294327Y-22384993D03*
G04 #@! TD*
D22*
G04 #@! TO.P,R4,1*
G04 #@! TO.N,/row4-R*
X13672872Y-23046613D03*
G04 #@! TO.P,R4,2*
G04 #@! TO.N,/row4*
X11847872Y-23046613D03*
G04 #@! TD*
D28*
G04 #@! TO.P,C5,1*
G04 #@! TO.N,+3V0-B*
X53829951Y-6999999D03*
G04 #@! TO.P,C5,2*
G04 #@! TO.N,GND-B*
X55173453Y-8343501D03*
G04 #@! TD*
D15*
G04 #@! TO.P,R6,1*
G04 #@! TO.N,/row6-R*
X26330112Y-18492925D03*
G04 #@! TO.P,R6,2*
G04 #@! TO.N,/row6*
X28155112Y-18492925D03*
G04 #@! TD*
D31*
G04 #@! TO.P,D2,1*
G04 #@! TO.N,/row5*
X32232412Y-15475052D03*
G04 #@! TO.P,D2,2*
G04 #@! TO.N,/row4*
X33293072Y-14414392D03*
G04 #@! TO.P,D2,3*
G04 #@! TO.N,/column2*
X34353732Y-13353732D03*
G04 #@! TO.P,D2,4*
G04 #@! TO.N,/row3*
X35414392Y-12293072D03*
G04 #@! TO.P,D2,5*
G04 #@! TO.N,/row8*
X36475052Y-11232412D03*
G04 #@! TO.P,D2,6*
G04 #@! TO.N,/row7*
X28767588Y-3524948D03*
G04 #@! TO.P,D2,7*
G04 #@! TO.N,/row6*
X27706928Y-4585608D03*
G04 #@! TO.P,D2,8*
G04 #@! TO.N,/column2*
X26646268Y-5646268D03*
G04 #@! TO.P,D2,9*
G04 #@! TO.N,/row1*
X25585608Y-6706928D03*
G04 #@! TO.P,D2,10*
G04 #@! TO.N,/row2*
X24524948Y-7767588D03*
G04 #@! TD*
D15*
G04 #@! TO.P,R2,1*
G04 #@! TO.N,/row2-R*
X26323374Y-14492925D03*
G04 #@! TO.P,R2,2*
G04 #@! TO.N,/row2*
X28148374Y-14492925D03*
G04 #@! TD*
D32*
G04 #@! TO.N,*
X41467698Y-14691680D03*
X40656189Y-11208415D03*
X41468234Y-10787535D03*
X41472189Y-12707388D03*
X41472189Y-13707388D03*
X40656189Y-14208415D03*
X40656189Y-13208415D03*
X41472189Y-11707388D03*
X40656189Y-12208415D03*
G04 #@! TO.N,/NRST*
X49500000Y-14000000D03*
X46745988Y-14745988D03*
G04 #@! TO.N,Net-(U1-BOOT0)*
X43375163Y-11783878D03*
X51674265Y-12674265D03*
G04 #@! TO.N,/SWDIO*
X49800000Y-19700000D03*
X47500000Y-17500000D03*
G04 #@! TO.N,/row7*
X29637293Y-34720421D03*
X13000000Y-37500000D03*
X27000000Y-37500000D03*
X26000000Y-29000000D03*
G04 #@! TO.N,/row5*
X11159580Y-26159580D03*
X31200000Y-14100000D03*
G04 #@! TO.N,/row2*
X16000000Y-34500000D03*
X28198452Y-12849922D03*
X29349532Y-30000000D03*
X24000000Y-34500000D03*
G04 #@! TO.N,/row3*
X10697823Y-21045191D03*
X31700000Y-11200000D03*
G04 #@! TO.N,/row8*
X14250000Y-11750000D03*
X31100000Y-11900000D03*
G04 #@! TO.N,/row4*
X32500000Y-12250000D03*
X10500000Y-24250000D03*
G04 #@! TO.N,/row1*
X16750000Y-33500000D03*
X29150000Y-16500000D03*
X29000000Y-28000000D03*
X23250000Y-33500000D03*
G04 #@! TO.N,/row6*
X14000000Y-36500000D03*
X30000000Y-26000000D03*
X26000000Y-36500000D03*
X29400000Y-18500000D03*
G04 #@! TO.N,/column2*
X31200000Y-13200000D03*
X27100000Y-7800000D03*
X23750000Y-8750000D03*
G04 #@! TO.N,/column3*
X7000000Y-27750000D03*
X14724696Y-27778957D03*
G04 #@! TO.N,/column4*
X31500000Y-26750000D03*
X25250000Y-10750000D03*
X29000000Y-31000000D03*
G04 #@! TO.N,/touch-B*
X57601042Y-18398958D03*
G04 #@! TO.N,+3V0-A*
X15000000Y-11000000D03*
X15500000Y-30000000D03*
X22250000Y-10250000D03*
G04 #@! TO.N,GND-A*
X38750000Y-27500000D03*
X32000000Y-38750000D03*
X38702513Y-33714509D03*
X14250000Y-38750000D03*
X17500000Y-29000000D03*
X11250000Y-1250000D03*
X30000000Y-1250000D03*
X38750000Y-21250000D03*
X1250000Y-8750000D03*
X8500000Y-20000000D03*
X7000000Y-30750000D03*
X21850000Y-17500000D03*
X38750000Y-15000000D03*
X1250000Y-25000000D03*
X8500000Y-31750000D03*
X3580467Y-37695417D03*
X38750000Y-30000000D03*
X5300000Y-9100000D03*
X38750000Y-16250000D03*
X6750000Y-38750000D03*
X38750000Y-31250000D03*
X1250000Y-31250000D03*
X4790714Y-1683174D03*
X13000000Y-38750000D03*
X10500000Y-13500000D03*
X1250000Y-26250000D03*
X6087270Y-1325959D03*
X1250000Y-21250000D03*
X27215383Y-25492309D03*
X16750000Y-10250000D03*
X8000000Y-38750000D03*
X13750000Y-1250000D03*
X3613230Y-2278531D03*
X1713427Y-35333039D03*
X1250000Y-18750000D03*
X30750000Y-20500000D03*
X20000000Y-6500000D03*
X1250000Y-15000000D03*
X38750000Y-18750000D03*
X23000000Y-17500000D03*
X10500000Y-38750000D03*
X4800000Y-8100000D03*
X23200000Y-22000000D03*
X1250000Y-11250000D03*
X2726809Y-3059110D03*
X9250000Y-32250000D03*
X17500000Y-1250000D03*
X26250000Y-1250000D03*
X5800000Y-10100000D03*
X1250000Y-28750000D03*
X28750000Y-1250000D03*
X6250000Y-20000000D03*
X38750000Y-17500000D03*
X26500000Y-13000000D03*
X38750000Y-10000000D03*
X16500000Y-29000000D03*
X2494536Y-36628537D03*
X27500000Y-1250000D03*
X21250000Y-1250000D03*
X23750000Y-1250000D03*
X23582213Y-10226439D03*
X1250000Y-10000000D03*
X38674738Y-6158064D03*
X22500000Y-1250000D03*
X27215383Y-26492309D03*
X34600000Y-38600000D03*
X38750000Y-23750000D03*
X38400000Y-35000000D03*
X38750000Y-28750000D03*
X34785070Y-1514277D03*
X15000000Y-1250000D03*
X11750000Y-38750000D03*
X1509634Y-5215627D03*
X9250000Y-38750000D03*
X10000000Y-1250000D03*
X35800000Y-38000000D03*
X7500000Y-1250000D03*
X1972690Y-4117523D03*
X38750000Y-20000000D03*
X1250000Y-7500000D03*
X32000000Y-19500000D03*
X18750000Y-1250000D03*
X38750000Y-8750000D03*
X1250000Y-12500000D03*
X38750000Y-25000000D03*
X15250000Y-17250000D03*
X38750000Y-12500000D03*
X7750000Y-31250000D03*
X1250000Y-20000000D03*
X38750000Y-22500000D03*
X6300000Y-11100000D03*
X25000000Y-1250000D03*
X27000000Y-38750000D03*
X36862206Y-2757912D03*
X16250000Y-1250000D03*
X29500000Y-38750000D03*
X38750000Y-7500000D03*
X20000000Y-1250000D03*
X37000000Y-37200000D03*
X35883174Y-2003793D03*
X1250000Y-16250000D03*
X13500000Y-27000000D03*
X25500000Y-12000000D03*
X30750000Y-38750000D03*
X1250000Y-23750000D03*
X33634046Y-1302594D03*
X8750000Y-1250000D03*
X25750000Y-38750000D03*
X37708936Y-3670793D03*
X32500000Y-1250000D03*
X33250000Y-38750000D03*
X1250000Y-13750000D03*
X28250000Y-38750000D03*
X38750000Y-13750000D03*
X1250000Y-22500000D03*
X1275244Y-33904182D03*
X5085531Y-38419371D03*
X38304293Y-4848277D03*
X38750000Y-11250000D03*
X25500000Y-13000000D03*
X1284721Y-6313730D03*
X31250000Y-1250000D03*
X12500000Y-27000000D03*
X1250000Y-27500000D03*
X38750000Y-26250000D03*
X12500000Y-1250000D03*
X26215383Y-26492309D03*
X1250000Y-30000000D03*
X38750000Y-32500000D03*
X1250000Y-32500000D03*
X1250000Y-17500000D03*
X37800000Y-36200000D03*
G04 #@! TO.N,GND-B*
X59099584Y-19877652D03*
X54537058Y-7707107D03*
X58369655Y-19147723D03*
X59000000Y-14500000D03*
X53500000Y-13500000D03*
X52000000Y-15000000D03*
X58000000Y-22000000D03*
X43353482Y-9191005D03*
X52101158Y-21898842D03*
X52250000Y-5500000D03*
X45913679Y-8163679D03*
X54500000Y-14500000D03*
X51000000Y-14000000D03*
X53000000Y-16000000D03*
G04 #@! TO.N,+3V0-B*
X53154827Y-21041491D03*
X60300000Y-15400000D03*
X52800000Y-8029950D03*
X44863793Y-15779654D03*
G04 #@! TD*
D33*
G04 #@! TO.N,/NRST*
X52400173Y-9982169D02*
X52400173Y-9448804D01*
X54343303Y-11925299D02*
X54651853Y-11925299D01*
X54651853Y-11925299D02*
X55197261Y-11379891D01*
X52120109Y-11379891D02*
X53797895Y-11379891D01*
X50263980Y-8052240D02*
X50263980Y-8028508D01*
X45900000Y-16850261D02*
X44878680Y-17871581D01*
X52400173Y-9448804D02*
X50979877Y-8028508D01*
X54721147Y-11925299D02*
X54343303Y-11925299D01*
X54343303Y-11925299D02*
X52400173Y-9982169D01*
X55266555Y-11379891D02*
X54721147Y-11925299D01*
X55197261Y-11379891D02*
X55266555Y-11379891D01*
X49500000Y-14000000D02*
X52120109Y-11379891D01*
X48478401Y-9866648D02*
X49909604Y-8435445D01*
X46745988Y-14745988D02*
X45900000Y-15591976D01*
X45900000Y-15591976D02*
X45900000Y-16850261D01*
X50979877Y-8028508D02*
X50263980Y-8028508D01*
X44878680Y-17871581D02*
X44878680Y-17878680D01*
G04 #@! TO.N,Net-(U1-PC15)*
X57673453Y-11094313D02*
X56327215Y-12440551D01*
X57673453Y-10843501D02*
X60207105Y-10843501D01*
X60207105Y-10843501D02*
X60409189Y-11045585D01*
X57673453Y-10843501D02*
X57673453Y-11094313D01*
G04 #@! TO.N,Net-(U1-PC14)*
X56680769Y-12794105D02*
X57474875Y-11999999D01*
X57474875Y-11999999D02*
X58829951Y-11999999D01*
X58829951Y-11999999D02*
X60728983Y-11999999D01*
X61469849Y-10833453D02*
X61045585Y-10409189D01*
X60728983Y-11999999D02*
X61469849Y-11259133D01*
X61469849Y-11259133D02*
X61469849Y-10833453D01*
G04 #@! TO.N,Net-(U1-BOOT0)*
X51674265Y-12674265D02*
X55913002Y-16913002D01*
X55913002Y-16913002D02*
X55973662Y-16913002D01*
X43428255Y-11783878D02*
X44311772Y-10900361D01*
G04 #@! TO.N,/SWDIO*
X50794105Y-18680769D02*
X50794105Y-18705895D01*
X47500000Y-17500000D02*
X47800000Y-17800000D01*
X47800000Y-17800000D02*
X47800000Y-19200000D01*
X50794105Y-18705895D02*
X49800000Y-19700000D01*
X47800000Y-19200000D02*
X47000000Y-20000000D01*
G04 #@! TO.N,/SWCLK*
X52953381Y-17953381D02*
X52953381Y-18773173D01*
X49601000Y-14601000D02*
X52953381Y-17953381D01*
X47873273Y-14599827D02*
X49249884Y-14599827D01*
X49249884Y-14599827D02*
X49251057Y-14601000D01*
X53498788Y-19318580D02*
X53498788Y-19387876D01*
X46713163Y-18165517D02*
X46713163Y-15759937D01*
X45939340Y-18939340D02*
X46713163Y-18165517D01*
X52953381Y-18773173D02*
X53498788Y-19318580D01*
X49251057Y-14601000D02*
X49601000Y-14601000D01*
X46713163Y-15759937D02*
X47873273Y-14599827D01*
X45939340Y-18939340D02*
X45942814Y-18939340D01*
G04 #@! TO.N,/row7*
X11232412Y-36475052D02*
X12257360Y-37500000D01*
X31406133Y-23593867D02*
X31406133Y-22477296D01*
X29421762Y-20492925D02*
X28155112Y-20492925D01*
X29637293Y-35605347D02*
X28767588Y-36475052D01*
X11232412Y-3524948D02*
X12257360Y-2500000D01*
X30500000Y-5257360D02*
X30500000Y-19414687D01*
X27742640Y-37500000D02*
X28767588Y-36475052D01*
X27000000Y-37500000D02*
X27742640Y-37500000D01*
X28767588Y-3524948D02*
X30500000Y-5257360D01*
X27742640Y-2500000D02*
X28767588Y-3524948D01*
X12257360Y-2500000D02*
X27742640Y-2500000D01*
X12257360Y-37500000D02*
X13000000Y-37500000D01*
X26000000Y-29000000D02*
X31406133Y-23593867D01*
X31406133Y-22477296D02*
X29421762Y-20492925D01*
X29637293Y-34720421D02*
X29637293Y-35605347D01*
X30500000Y-19414687D02*
X29421762Y-20492925D01*
G04 #@! TO.N,/row5*
X7738399Y-29580761D02*
X4338121Y-29580761D01*
X4338121Y-29580761D02*
X3524948Y-28767588D01*
X35250000Y-21507360D02*
X32232412Y-24524948D01*
X2536254Y-27778894D02*
X3524948Y-28767588D01*
X31200000Y-14100000D02*
X31500000Y-14400000D01*
X3524948Y-11232412D02*
X2536254Y-12221106D01*
X11159580Y-26159580D02*
X7738399Y-29580761D01*
X31500000Y-14742640D02*
X32232412Y-15475052D01*
X2536254Y-12221106D02*
X2536254Y-27778894D01*
X32232412Y-15475052D02*
X35250000Y-18492640D01*
X11847872Y-25471288D02*
X11159580Y-26159580D01*
X31500000Y-14400000D02*
X31500000Y-14742640D01*
X11847872Y-25046613D02*
X11847872Y-25471288D01*
X35250000Y-18492640D02*
X35250000Y-21507360D01*
G04 #@! TO.N,/row2*
X24378680Y-34500000D02*
X25585608Y-33293072D01*
X28198452Y-12849922D02*
X28148374Y-12799844D01*
X29349532Y-30000000D02*
X28878680Y-30000000D01*
X24000000Y-34500000D02*
X24378680Y-34500000D01*
X28148374Y-12900000D02*
X28148374Y-14492925D01*
X28878680Y-30000000D02*
X25585608Y-33293072D01*
X28148374Y-11391014D02*
X24524948Y-7767588D01*
X28198452Y-12849922D02*
X28148374Y-12900000D01*
X21507360Y-4750000D02*
X24524948Y-7767588D01*
X15621320Y-34500000D02*
X16000000Y-34500000D01*
X28148374Y-12799844D02*
X28148374Y-11391014D01*
X18492640Y-4750000D02*
X21507360Y-4750000D01*
X14414392Y-33293072D02*
X15621320Y-34500000D01*
X15475052Y-7767588D02*
X18492640Y-4750000D01*
G04 #@! TO.N,/row3*
X36750000Y-13628680D02*
X36750000Y-26371320D01*
X36750000Y-26371320D02*
X35414392Y-27706928D01*
X4000000Y-17121320D02*
X6706928Y-14414392D01*
X32300000Y-10800000D02*
X34050000Y-10800000D01*
X31900000Y-11200000D02*
X32300000Y-10800000D01*
X8351219Y-26398781D02*
X7520101Y-26398781D01*
X10697823Y-21045191D02*
X11846450Y-21045191D01*
X35414392Y-12164392D02*
X35414392Y-12293072D01*
X31700000Y-11200000D02*
X31900000Y-11200000D01*
X11846450Y-21045191D02*
X11847872Y-21046613D01*
X6706928Y-25585608D02*
X4000000Y-22878680D01*
X4000000Y-22878680D02*
X4000000Y-17121320D01*
X34050000Y-10800000D02*
X35414392Y-12164392D01*
X11847872Y-21046613D02*
X9500000Y-23394485D01*
X35414392Y-12293072D02*
X36750000Y-13628680D01*
X9500000Y-25250000D02*
X8351219Y-26398781D01*
X9500000Y-23394485D02*
X9500000Y-25250000D01*
X7520101Y-26398781D02*
X6706928Y-25585608D01*
G04 #@! TO.N,/row8*
X7767588Y-23126897D02*
X7767588Y-24524948D01*
X37500000Y-27742640D02*
X36475052Y-28767588D01*
X7767588Y-24524948D02*
X4750000Y-21507360D01*
X31100000Y-9650000D02*
X32175775Y-8574225D01*
X33816865Y-8574225D02*
X36475052Y-11232412D01*
X31100000Y-11900000D02*
X31100000Y-9650000D01*
X4750000Y-21507360D02*
X4750000Y-18492640D01*
X14250000Y-11750000D02*
X14250000Y-15500000D01*
X14250000Y-15500000D02*
X11847872Y-17902128D01*
X32175775Y-8574225D02*
X33816865Y-8574225D01*
X4750000Y-18492640D02*
X7767588Y-15475052D01*
X11847872Y-17902128D02*
X11847872Y-19046613D01*
X36475052Y-11232412D02*
X37500000Y-12257360D01*
X37500000Y-12257360D02*
X37500000Y-27742640D01*
X11847872Y-19046613D02*
X7767588Y-23126897D01*
G04 #@! TO.N,/row4*
X32500000Y-13621320D02*
X32500000Y-12250000D01*
X5398781Y-28520101D02*
X4585608Y-27706928D01*
X10500000Y-25500000D02*
X7479899Y-28520101D01*
X3250000Y-26371320D02*
X3250000Y-13628680D01*
X10500000Y-24250000D02*
X10500000Y-25500000D01*
X7479899Y-28520101D02*
X5398781Y-28520101D01*
X36000000Y-17121320D02*
X36000000Y-22878680D01*
X11847872Y-23046613D02*
X11703387Y-23046613D01*
X36000000Y-22878680D02*
X33293072Y-25585608D01*
X4585608Y-27706928D02*
X3250000Y-26371320D01*
X11703387Y-23046613D02*
X10500000Y-24250000D01*
X33293072Y-14414392D02*
X32500000Y-13621320D01*
X33293072Y-14414392D02*
X36000000Y-17121320D01*
X3250000Y-13628680D02*
X4585608Y-12293072D01*
G04 #@! TO.N,/row1*
X24767588Y-32232412D02*
X24524948Y-32232412D01*
X29000000Y-28000000D02*
X24767588Y-32232412D01*
X29000000Y-15641299D02*
X28148374Y-16492925D01*
X14414392Y-6706928D02*
X17121320Y-4000000D01*
X22878680Y-4000000D02*
X25585608Y-6706928D01*
X15482412Y-32232412D02*
X16750000Y-33500000D01*
X23257360Y-33500000D02*
X24524948Y-32232412D01*
X25585608Y-6706928D02*
X25585608Y-7285608D01*
X25585608Y-7285608D02*
X29000000Y-10700000D01*
X29000000Y-10700000D02*
X29000000Y-15641299D01*
X29150000Y-16500000D02*
X28155449Y-16500000D01*
X28155449Y-16500000D02*
X28148374Y-16492925D01*
X15475052Y-32232412D02*
X15482412Y-32232412D01*
X17121320Y-4000000D02*
X22878680Y-4000000D01*
X23250000Y-33500000D02*
X23257360Y-33500000D01*
G04 #@! TO.N,/column1*
X11991139Y-7008860D02*
X13353732Y-5646268D01*
X12444387Y-7462107D02*
X12444387Y-6555613D01*
X12444387Y-6555613D02*
X13353732Y-5646268D01*
X14482280Y-9500000D02*
X12444387Y-7462107D01*
X16950000Y-9500000D02*
X14482280Y-9500000D01*
X18375000Y-10925000D02*
X16950000Y-9500000D01*
X18375000Y-12000000D02*
X18375000Y-10925000D01*
X5646268Y-13353732D02*
X11991139Y-7008860D01*
G04 #@! TO.N,/row6*
X26000000Y-36500000D02*
X26621320Y-36500000D01*
X28162187Y-18500000D02*
X28155112Y-18492925D01*
X13628680Y-3250000D02*
X26371320Y-3250000D01*
X26621320Y-36500000D02*
X27706928Y-35414392D01*
X28169237Y-17750000D02*
X28164058Y-17755179D01*
X30000000Y-33121320D02*
X27706928Y-35414392D01*
X29750000Y-18150000D02*
X29400000Y-18500000D01*
X26371320Y-3250000D02*
X27706928Y-4585608D01*
X27706928Y-4585608D02*
X29750000Y-6628680D01*
X13378680Y-36500000D02*
X14000000Y-36500000D01*
X30000000Y-26000000D02*
X30000000Y-33121320D01*
X12293072Y-4585608D02*
X13628680Y-3250000D01*
X12293072Y-35414392D02*
X13378680Y-36500000D01*
X29750000Y-6628680D02*
X29750000Y-18150000D01*
X29400000Y-18500000D02*
X28162187Y-18500000D01*
G04 #@! TO.N,/column2*
X27100000Y-7800000D02*
X27100000Y-6100000D01*
X32300000Y-11600000D02*
X33000000Y-11600000D01*
X21200000Y-8750000D02*
X19025000Y-10925000D01*
X34353732Y-12953732D02*
X34353732Y-13353732D01*
X27100000Y-6100000D02*
X26646268Y-5646268D01*
X33000000Y-11600000D02*
X34353732Y-12953732D01*
X31200000Y-13200000D02*
X31200000Y-12700000D01*
X19025000Y-10925000D02*
X19025000Y-12000000D01*
X31200000Y-12700000D02*
X32300000Y-11600000D01*
X23750000Y-8750000D02*
X21200000Y-8750000D01*
G04 #@! TO.N,/column3*
X14750000Y-27753653D02*
X14750000Y-25000000D01*
X12540559Y-32209441D02*
X14724696Y-30025304D01*
X14750000Y-25000000D02*
X18375000Y-21375000D01*
X5896268Y-26646268D02*
X7000000Y-27750000D01*
X12540559Y-33540559D02*
X12540559Y-32209441D01*
X14724696Y-30025304D02*
X14724696Y-27778957D01*
X18375000Y-21375000D02*
X18375000Y-19200000D01*
X5646268Y-26646268D02*
X5896268Y-26646268D01*
X14724696Y-27778957D02*
X14750000Y-27753653D01*
X13353732Y-34353732D02*
X12540559Y-33540559D01*
G04 #@! TO.N,/column4*
X29000000Y-32000000D02*
X26646268Y-34353732D01*
X24000000Y-9500000D02*
X21750000Y-9500000D01*
X34353732Y-26646268D02*
X33708132Y-27291868D01*
X25250000Y-10750000D02*
X24000000Y-9500000D01*
X29000000Y-31000000D02*
X29000000Y-32000000D01*
X21750000Y-9500000D02*
X20325000Y-10925000D01*
X32041868Y-27291868D02*
X31500000Y-26750000D01*
X33708132Y-27291868D02*
X32041868Y-27291868D01*
X20325000Y-10925000D02*
X20325000Y-12000000D01*
G04 #@! TO.N,/row1-R*
X23700000Y-14750000D02*
X18000000Y-14750000D01*
X18000000Y-14750000D02*
X17075000Y-13825000D01*
X25442925Y-16492925D02*
X23700000Y-14750000D01*
X26323374Y-16492925D02*
X25442925Y-16492925D01*
X17075000Y-13825000D02*
X17075000Y-12000000D01*
G04 #@! TO.N,/row2-R*
X25585628Y-13755179D02*
X18405179Y-13755179D01*
X18405179Y-13755179D02*
X17725000Y-13075000D01*
X17725000Y-13075000D02*
X17725000Y-12000000D01*
X26323374Y-14492925D02*
X25585628Y-13755179D01*
G04 #@! TO.N,/row3-R*
X15678387Y-21046613D02*
X16425000Y-20300000D01*
X16425000Y-20300000D02*
X16425000Y-19200000D01*
X13672872Y-21046613D02*
X15678387Y-21046613D01*
G04 #@! TO.N,/row4-R*
X14703387Y-23046613D02*
X17075000Y-20675000D01*
X13672872Y-23046613D02*
X14703387Y-23046613D01*
X17075000Y-20675000D02*
X17075000Y-19200000D01*
G04 #@! TO.N,/row5-R*
X13703387Y-25046613D02*
X17725000Y-21025000D01*
X13672872Y-25046613D02*
X13703387Y-25046613D01*
X17725000Y-21025000D02*
X17725000Y-19200000D01*
G04 #@! TO.N,/row6-R*
X16425000Y-14425000D02*
X16425000Y-12000000D01*
X26330112Y-18492925D02*
X23600000Y-15762813D01*
X17750000Y-15750000D02*
X16425000Y-14425000D01*
X23600000Y-15762813D02*
X23600000Y-15750000D01*
X23600000Y-15750000D02*
X17750000Y-15750000D01*
G04 #@! TO.N,/row7-R*
X24751000Y-18913813D02*
X24751000Y-18024000D01*
X23477000Y-16750000D02*
X17500000Y-16750000D01*
X15775000Y-15025000D02*
X15775000Y-12000000D01*
X17500000Y-16750000D02*
X15775000Y-15025000D01*
X24751000Y-18024000D02*
X23477000Y-16750000D01*
X26330112Y-20492925D02*
X24751000Y-18913813D01*
G04 #@! TO.N,/row8-R*
X15621613Y-19046613D02*
X15775000Y-19200000D01*
X13672872Y-19046613D02*
X15621613Y-19046613D01*
G04 #@! TO.N,/TX*
X48060660Y-21060660D02*
X48400000Y-20721320D01*
X48066560Y-21060660D02*
X48060660Y-21060660D01*
X48400000Y-18246446D02*
X49379891Y-17266555D01*
X48400000Y-20721320D02*
X48400000Y-18246446D01*
G04 #@! TO.N,/RX*
X49000000Y-19900000D02*
X49000000Y-18353554D01*
X49000000Y-18353554D02*
X49733445Y-17620109D01*
X49500000Y-21742640D02*
X49500000Y-20400000D01*
X49121320Y-22121320D02*
X49121320Y-22108096D01*
X49500000Y-20400000D02*
X49000000Y-19900000D01*
X49121320Y-22121320D02*
X49500000Y-21742640D01*
G04 #@! TO.N,/touch-A*
X23000000Y-37000000D02*
X21750000Y-35750000D01*
X22000000Y-25250000D02*
X22851974Y-24398026D01*
X21750000Y-35750000D02*
X21750000Y-25500000D01*
X21750000Y-25500000D02*
X22000000Y-25250000D01*
X22851974Y-24398026D02*
X28601975Y-24398026D01*
G04 #@! TO.N,/sda-A*
X23575000Y-20475000D02*
X24900000Y-21800000D01*
X24900000Y-21800000D02*
X29596051Y-21800000D01*
X23575000Y-19200000D02*
X23575000Y-20475000D01*
X29596051Y-21800000D02*
X30398026Y-22601975D01*
G04 #@! TO.N,/sck-A*
X22925000Y-20675000D02*
X24650000Y-22400000D01*
X28399999Y-22400000D02*
X29500000Y-23500001D01*
X22925000Y-19200000D02*
X22925000Y-20675000D01*
X24650000Y-22400000D02*
X28399999Y-22400000D01*
G04 #@! TO.N,/sck-B*
X57028244Y-20967069D02*
X56730000Y-21265313D01*
X57028244Y-20967069D02*
X57028244Y-19381798D01*
X57028244Y-19381798D02*
X55266555Y-17620109D01*
X56730000Y-21265313D02*
X56730000Y-23693359D01*
G04 #@! TO.N,/sda-B*
X59746962Y-21567696D02*
X59746962Y-21393408D01*
X59746962Y-21393408D02*
X55620109Y-17266555D01*
X58000000Y-23314658D02*
X58000000Y-23693359D01*
X59746962Y-21567696D02*
X58000000Y-23314658D01*
G04 #@! TO.N,/touch-B*
X56872623Y-17104857D02*
X56872623Y-17670539D01*
X56872623Y-17670539D02*
X57601042Y-18398958D01*
X56327215Y-16559449D02*
X56872623Y-17104857D01*
X56327215Y-16628743D02*
X56327215Y-16559449D01*
G04 #@! TO.N,+3V0-A*
X15500000Y-30000000D02*
X15500000Y-25250000D01*
X12750000Y-10000000D02*
X9601975Y-13148025D01*
X20577000Y-17750000D02*
X20975000Y-18148000D01*
X17000000Y-37000000D02*
X18250000Y-35750000D01*
X18250000Y-35750000D02*
X18250000Y-32750000D01*
X20975000Y-19200000D02*
X20975000Y-20825000D01*
X20975000Y-18148000D02*
X20975000Y-19200000D01*
X14000000Y-10000000D02*
X12750000Y-10000000D01*
X15500000Y-25250000D02*
X19250000Y-21500000D01*
X15000000Y-11000000D02*
X14000000Y-10000000D01*
X22275000Y-10275000D02*
X22250000Y-10250000D01*
X15000000Y-11000000D02*
X15000000Y-15500000D01*
X19250000Y-21500000D02*
X20050000Y-21500000D01*
X20975000Y-20825000D02*
X20300000Y-21500000D01*
X9601975Y-13148025D02*
X9601975Y-17398025D01*
X17250000Y-17750000D02*
X20577000Y-17750000D01*
X18250000Y-32750000D02*
X15500000Y-30000000D01*
X15000000Y-15500000D02*
X17250000Y-17750000D01*
X22275000Y-12000000D02*
X22275000Y-10275000D01*
G04 #@! TO.N,GND-A*
X21625000Y-19200000D02*
X21625000Y-20925000D01*
X21625000Y-20925000D02*
X22200000Y-21500000D01*
G04 #@! TO.N,GND-B*
X53294327Y-22384993D02*
X52587309Y-22384993D01*
X52587309Y-22384993D02*
X52101158Y-21898842D01*
X57034322Y-15852342D02*
X58287263Y-17105283D01*
X54913002Y-11026338D02*
X56329951Y-9609389D01*
X56918004Y-14500000D02*
X59000000Y-14500000D01*
X50602251Y-20399936D02*
X50602251Y-19579729D01*
X52101158Y-21898842D02*
X50602251Y-20399936D01*
X58287263Y-17105283D02*
X58287263Y-17436083D01*
X50602251Y-19579729D02*
X51147658Y-19034322D01*
X59000000Y-14500000D02*
X59016954Y-14500000D01*
X57034322Y-15852342D02*
X56488915Y-15306935D01*
X55173453Y-8343501D02*
X54537058Y-7707107D01*
X59701476Y-18850297D02*
X58287263Y-17436083D01*
X56488915Y-15306935D02*
X56488915Y-14929089D01*
X56329951Y-9609389D02*
X56329951Y-9499999D01*
X46989126Y-10951511D02*
X46989126Y-12171106D01*
X59016954Y-14500000D02*
X60173453Y-13343501D01*
X45913679Y-8163679D02*
X45602242Y-8475117D01*
X56488915Y-14929089D02*
X56918004Y-14500000D01*
X45602242Y-8475117D02*
X45602242Y-9609891D01*
X46989126Y-12171106D02*
X47965678Y-13147658D01*
X46048154Y-9609891D02*
X47134899Y-8523146D01*
G04 #@! TO.N,+3V0-B*
X54637829Y-20776544D02*
X55737774Y-19676599D01*
X54637829Y-21041491D02*
X54637829Y-20776544D01*
X55104856Y-10127378D02*
X55104856Y-9725888D01*
X59630765Y-16069235D02*
X60300000Y-15400000D01*
X44856384Y-15779654D02*
X43818019Y-16818019D01*
X46405925Y-12295013D02*
X47612124Y-13501212D01*
X61037432Y-17514341D02*
X61044978Y-17506795D01*
X45570973Y-6690616D02*
X46960000Y-5301589D01*
X44863793Y-15779654D02*
X47377180Y-13266268D01*
X45645624Y-12295013D02*
X46405925Y-12295013D01*
X44542531Y-9700644D02*
X44542531Y-8321177D01*
X45645624Y-10803737D02*
X44542531Y-9700644D01*
X44863793Y-15779654D02*
X44856384Y-15779654D01*
X45570973Y-7292735D02*
X48755154Y-7292735D01*
X59630765Y-16092581D02*
X61044978Y-17506795D01*
X57387876Y-15498788D02*
X59036972Y-15498788D01*
X48973510Y-6738038D02*
X53567990Y-6738038D01*
X53567990Y-6738038D02*
X53829951Y-6999999D01*
X44542531Y-8321177D02*
X45570973Y-7292735D01*
X53154827Y-21041491D02*
X51501212Y-19387876D01*
X53829951Y-8450983D02*
X53829951Y-6999999D01*
X59036972Y-15498788D02*
X59630765Y-16092581D01*
X45645624Y-12295013D02*
X45645624Y-10803737D01*
X45570973Y-7292735D02*
X45570973Y-6690616D01*
X59630765Y-16092581D02*
X59630765Y-16069235D01*
X52800000Y-8029950D02*
X53829951Y-6999999D01*
X61037432Y-20277226D02*
X61037432Y-17514341D01*
X55104856Y-9725888D02*
X53829951Y-8450983D01*
X54637829Y-21041491D02*
X53154827Y-21041491D01*
X54637829Y-20729142D02*
X54637829Y-21041491D01*
X54559449Y-10672785D02*
X55104856Y-10127378D01*
G04 #@! TD*
G04 #@! TA.AperFunction,Conductor*
G04 #@! TO.N,GND-B*
G36*
X50684587Y-19471872D02*
G01*
X50721836Y-19520413D01*
X50723440Y-19581577D01*
X50707062Y-19613725D01*
X50702405Y-19619795D01*
X50693863Y-19629536D01*
X50580861Y-19742539D01*
X50638104Y-19834169D01*
X50645652Y-19853846D01*
X50647258Y-19853262D01*
X50689961Y-19970586D01*
X50689966Y-19970596D01*
X50694394Y-19976367D01*
X50719429Y-20008993D01*
X50880095Y-20169659D01*
X50918495Y-20199124D01*
X50966817Y-20216712D01*
X51027684Y-20238866D01*
X51027686Y-20238867D01*
X51027687Y-20238867D01*
X51143887Y-20238867D01*
X51143887Y-20238866D01*
X51253078Y-20199124D01*
X51291478Y-20169659D01*
X51466564Y-19994572D01*
X51521079Y-19966796D01*
X51581511Y-19976367D01*
X51606570Y-19994573D01*
X52571331Y-20959334D01*
X52599108Y-21013851D01*
X52600327Y-21029338D01*
X52600327Y-21114492D01*
X52638115Y-21255520D01*
X52711116Y-21381962D01*
X52780161Y-21451007D01*
X52807937Y-21505522D01*
X52798366Y-21565954D01*
X52780160Y-21591013D01*
X52710965Y-21660208D01*
X53294327Y-22243570D01*
X53718589Y-21819307D01*
X53509894Y-21610612D01*
X53502774Y-21596639D01*
X53491687Y-21585551D01*
X53489234Y-21570064D01*
X53482117Y-21556095D01*
X53484569Y-21540607D01*
X53482117Y-21525119D01*
X53489235Y-21511149D01*
X53491688Y-21495663D01*
X53509893Y-21470606D01*
X53532705Y-21447794D01*
X53555515Y-21424986D01*
X53610032Y-21397210D01*
X53625517Y-21395991D01*
X53884297Y-21395991D01*
X53942488Y-21414898D01*
X53954300Y-21424987D01*
X54348622Y-21819307D01*
X54474314Y-21944999D01*
X54521370Y-21982920D01*
X54653332Y-22043185D01*
X54653334Y-22043185D01*
X54653336Y-22043186D01*
X54796926Y-22063832D01*
X54796928Y-22063832D01*
X54796930Y-22063832D01*
X54940519Y-22043186D01*
X54940519Y-22043185D01*
X54940524Y-22043185D01*
X55072486Y-21982920D01*
X55119542Y-21945000D01*
X55541337Y-21523204D01*
X55579258Y-21476148D01*
X55639523Y-21344186D01*
X55647096Y-21291522D01*
X55660170Y-21200591D01*
X55660170Y-21200588D01*
X55639524Y-21056998D01*
X55639523Y-21056996D01*
X55639523Y-21056994D01*
X55579258Y-20925032D01*
X55541338Y-20877976D01*
X55521517Y-20858155D01*
X55493741Y-20803640D01*
X55503312Y-20743208D01*
X55546577Y-20699943D01*
X55598110Y-20691406D01*
X55598110Y-20690101D01*
X55605193Y-20690101D01*
X55748782Y-20669455D01*
X55748782Y-20669454D01*
X55748787Y-20669454D01*
X55880750Y-20609189D01*
X55927805Y-20571269D01*
X56504742Y-19994330D01*
X56525395Y-19983807D01*
X56544151Y-19970181D01*
X56552140Y-19970181D01*
X56559257Y-19966555D01*
X56582152Y-19970181D01*
X56605337Y-19970181D01*
X56611799Y-19974876D01*
X56619689Y-19976126D01*
X56636080Y-19992517D01*
X56654837Y-20006145D01*
X56657305Y-20013742D01*
X56662954Y-20019391D01*
X56673744Y-20064336D01*
X56673744Y-20195860D01*
X56654837Y-20254051D01*
X56644748Y-20265863D01*
X56133577Y-20777035D01*
X56095654Y-20824092D01*
X56035388Y-20956058D01*
X56035387Y-20956060D01*
X56014742Y-21099650D01*
X56014742Y-21099653D01*
X56035387Y-21243242D01*
X56035388Y-21243244D01*
X56035388Y-21243245D01*
X56035389Y-21243247D01*
X56040994Y-21255520D01*
X56095653Y-21375209D01*
X56095655Y-21375212D01*
X56101094Y-21381961D01*
X56133574Y-21422265D01*
X56251916Y-21540607D01*
X56346503Y-21635193D01*
X56374281Y-21689710D01*
X56375500Y-21705197D01*
X56375500Y-22969881D01*
X56356593Y-23028072D01*
X56331502Y-23052196D01*
X56249038Y-23107296D01*
X56249034Y-23107299D01*
X56249034Y-23107300D01*
X56165001Y-23191332D01*
X56110487Y-23219108D01*
X56050055Y-23209537D01*
X56024999Y-23191333D01*
X55940966Y-23107300D01*
X55940962Y-23107297D01*
X55817389Y-23024729D01*
X55680078Y-22967853D01*
X55534314Y-22938859D01*
X55534312Y-22938859D01*
X55385688Y-22938859D01*
X55385685Y-22938859D01*
X55239921Y-22967853D01*
X55102610Y-23024729D01*
X54979037Y-23107297D01*
X54873938Y-23212396D01*
X54791370Y-23335969D01*
X54734494Y-23473280D01*
X54705500Y-23619044D01*
X54705500Y-23767673D01*
X54734494Y-23913437D01*
X54791370Y-24050748D01*
X54791371Y-24050749D01*
X54873941Y-24174325D01*
X54979034Y-24279418D01*
X54979037Y-24279420D01*
X55037052Y-24318184D01*
X55074932Y-24366234D01*
X55077334Y-24427372D01*
X55043342Y-24478246D01*
X54985938Y-24499424D01*
X54982051Y-24499500D01*
X50086136Y-24499500D01*
X50027945Y-24480593D01*
X49991981Y-24431093D01*
X49991981Y-24369907D01*
X50027945Y-24320407D01*
X50046694Y-24309696D01*
X50141755Y-24268404D01*
X50209204Y-24215417D01*
X50641599Y-23783021D01*
X50181273Y-23322695D01*
X50174154Y-23308723D01*
X50163067Y-23297636D01*
X50160614Y-23282148D01*
X50153496Y-23268178D01*
X50155948Y-23252691D01*
X50153496Y-23237204D01*
X50160614Y-23223233D01*
X50163067Y-23207746D01*
X50181273Y-23182687D01*
X50181979Y-23181980D01*
X50323402Y-23181980D01*
X50783021Y-23641599D01*
X51215417Y-23209204D01*
X51268404Y-23141755D01*
X51326451Y-23008120D01*
X51334346Y-22950677D01*
X52870063Y-22950677D01*
X53173567Y-23254181D01*
X53197065Y-23273650D01*
X53319287Y-23332509D01*
X53453425Y-23352728D01*
X53453427Y-23352728D01*
X53587563Y-23332509D01*
X53587564Y-23332509D01*
X53709785Y-23273650D01*
X53733295Y-23254172D01*
X53877688Y-23109777D01*
X53294326Y-22526415D01*
X52870063Y-22950677D01*
X51334346Y-22950677D01*
X51341835Y-22896191D01*
X51346289Y-22863783D01*
X51346289Y-22863782D01*
X51326451Y-22719445D01*
X51268404Y-22585810D01*
X51215421Y-22518366D01*
X51101219Y-22404164D01*
X50323402Y-23181980D01*
X50181979Y-23181980D01*
X50181273Y-23181274D01*
X50153496Y-23126757D01*
X50163067Y-23066325D01*
X50181273Y-23041266D01*
X50959797Y-22262742D01*
X50922948Y-22225893D01*
X52326592Y-22225893D01*
X52326592Y-22225894D01*
X52346810Y-22360031D01*
X52346810Y-22360032D01*
X52405669Y-22482253D01*
X52425142Y-22505757D01*
X52425163Y-22505780D01*
X52728640Y-22809256D01*
X53152904Y-22384993D01*
X53152903Y-22384992D01*
X53435749Y-22384992D01*
X54019111Y-22968354D01*
X54163515Y-22823949D01*
X54182984Y-22800452D01*
X54241843Y-22678230D01*
X54241843Y-22678229D01*
X54262062Y-22544092D01*
X54262062Y-22544091D01*
X54241843Y-22409954D01*
X54241843Y-22409953D01*
X54182984Y-22287732D01*
X54163511Y-22264228D01*
X54163490Y-22264205D01*
X53860012Y-21960729D01*
X53435749Y-22384992D01*
X53152903Y-22384992D01*
X52569541Y-21801630D01*
X52425153Y-21946020D01*
X52425150Y-21946023D01*
X52405668Y-21969535D01*
X52346810Y-22091755D01*
X52346810Y-22091756D01*
X52326592Y-22225893D01*
X50922948Y-22225893D01*
X50845595Y-22148540D01*
X50778151Y-22095557D01*
X50644516Y-22037510D01*
X50500179Y-22017673D01*
X50500177Y-22017673D01*
X50437046Y-22026349D01*
X50376823Y-22015540D01*
X50334454Y-21971398D01*
X50325414Y-21915349D01*
X50340190Y-21803122D01*
X50320101Y-21650537D01*
X50261205Y-21508350D01*
X50205009Y-21435114D01*
X50191042Y-21416911D01*
X49883496Y-21109364D01*
X49855719Y-21054848D01*
X49854500Y-21039361D01*
X49854500Y-20353328D01*
X49853895Y-20348733D01*
X49865045Y-20288572D01*
X49909427Y-20246455D01*
X49926416Y-20240187D01*
X50014029Y-20216712D01*
X50140471Y-20143711D01*
X50243711Y-20040471D01*
X50316712Y-19914029D01*
X50354500Y-19773001D01*
X50354500Y-19725523D01*
X50355612Y-19722099D01*
X50354742Y-19718606D01*
X50364969Y-19693301D01*
X50373407Y-19667332D01*
X50376320Y-19665215D01*
X50377669Y-19661879D01*
X50386118Y-19656600D01*
X50385037Y-19655519D01*
X50552429Y-19488127D01*
X50562148Y-19479603D01*
X50568250Y-19474921D01*
X50625921Y-19454497D01*
X50684587Y-19471872D01*
G37*
G04 #@! TD.AperFunction*
G04 #@! TA.AperFunction,Conductor*
G36*
X62445445Y-10661706D02*
G01*
X62488710Y-10704971D01*
X62499500Y-10749916D01*
X62499500Y-20751678D01*
X62480593Y-20809869D01*
X62470504Y-20821682D01*
X58905997Y-24386188D01*
X58851480Y-24413965D01*
X58791048Y-24404394D01*
X58747783Y-24361129D01*
X58738212Y-24300697D01*
X58738896Y-24296868D01*
X58739732Y-24292661D01*
X58739734Y-24292660D01*
X58754500Y-24218426D01*
X58754499Y-23168293D01*
X58747104Y-23131113D01*
X58754296Y-23070353D01*
X58774195Y-23041800D01*
X59385279Y-22430716D01*
X59439794Y-22402941D01*
X59500226Y-22412512D01*
X59525281Y-22430715D01*
X59556931Y-22462365D01*
X59603986Y-22500286D01*
X59735949Y-22560551D01*
X59735951Y-22560551D01*
X59735953Y-22560552D01*
X59879543Y-22581198D01*
X59879545Y-22581198D01*
X59879547Y-22581198D01*
X60023135Y-22560552D01*
X60023135Y-22560551D01*
X60023140Y-22560551D01*
X60155103Y-22500286D01*
X60202158Y-22462366D01*
X60641631Y-22022892D01*
X60679552Y-21975837D01*
X60739817Y-21843874D01*
X60743350Y-21819307D01*
X60760464Y-21700280D01*
X60760464Y-21700277D01*
X60739818Y-21556687D01*
X60739817Y-21556685D01*
X60739817Y-21556683D01*
X60679552Y-21424720D01*
X60677578Y-21422271D01*
X60660034Y-21400500D01*
X60641632Y-21377665D01*
X59936993Y-20673027D01*
X59889938Y-20635106D01*
X59757975Y-20574841D01*
X59757973Y-20574840D01*
X59757972Y-20574840D01*
X59757970Y-20574839D01*
X59614381Y-20554194D01*
X59614377Y-20554194D01*
X59483946Y-20572948D01*
X59423656Y-20562515D01*
X59399852Y-20544960D01*
X57878084Y-19023191D01*
X57850307Y-18968674D01*
X57859878Y-18908242D01*
X57898586Y-18867452D01*
X57941513Y-18842669D01*
X58044753Y-18739429D01*
X58117754Y-18612987D01*
X58155542Y-18471959D01*
X58155542Y-18465703D01*
X58174449Y-18407512D01*
X58223949Y-18371548D01*
X58285135Y-18371548D01*
X58297498Y-18376508D01*
X58312221Y-18383598D01*
X58312224Y-18383599D01*
X58446361Y-18403818D01*
X58446363Y-18403818D01*
X58580499Y-18383599D01*
X58580502Y-18383598D01*
X58660180Y-18345227D01*
X58720812Y-18337013D01*
X58774692Y-18366006D01*
X58801240Y-18421132D01*
X58792332Y-18477376D01*
X58753960Y-18557056D01*
X58753959Y-18557060D01*
X58733741Y-18691197D01*
X58733741Y-18691198D01*
X58753959Y-18825335D01*
X58753959Y-18825336D01*
X58812818Y-18947557D01*
X58832291Y-18971061D01*
X58832312Y-18971084D01*
X59135789Y-19274560D01*
X59560053Y-18850297D01*
X58976690Y-18266934D01*
X58969625Y-18266934D01*
X58947576Y-18259770D01*
X58924681Y-18256144D01*
X58919032Y-18250495D01*
X58911434Y-18248027D01*
X58897805Y-18229269D01*
X58881416Y-18212880D01*
X58879203Y-18203666D01*
X58875470Y-18198527D01*
X58875470Y-18188114D01*
X58870625Y-18167934D01*
X58870625Y-18160867D01*
X58286555Y-17576797D01*
X58258778Y-17522280D01*
X58268349Y-17461848D01*
X58286580Y-17436765D01*
X58287262Y-17436082D01*
X58428685Y-17436082D01*
X59012048Y-18019445D01*
X59019113Y-18019445D01*
X59041161Y-18026608D01*
X59064057Y-18030235D01*
X59069705Y-18035883D01*
X59077304Y-18038352D01*
X59090932Y-18057109D01*
X59107322Y-18073499D01*
X59108571Y-18081387D01*
X59113268Y-18087852D01*
X59118113Y-18118445D01*
X59118113Y-18125511D01*
X59701476Y-18708874D01*
X60125739Y-18284611D01*
X59822245Y-17981118D01*
X59822235Y-17981108D01*
X59798737Y-17961639D01*
X59676515Y-17902780D01*
X59542378Y-17882562D01*
X59542376Y-17882562D01*
X59408239Y-17902780D01*
X59408235Y-17902781D01*
X59328556Y-17941153D01*
X59267925Y-17949366D01*
X59214045Y-17920372D01*
X59187498Y-17865246D01*
X59196406Y-17809002D01*
X59234779Y-17729320D01*
X59234779Y-17729319D01*
X59254998Y-17595182D01*
X59254998Y-17595181D01*
X59234779Y-17461044D01*
X59234779Y-17461043D01*
X59175920Y-17338822D01*
X59156447Y-17315318D01*
X59156426Y-17315295D01*
X58852948Y-17011819D01*
X58428685Y-17436082D01*
X58287262Y-17436082D01*
X58286580Y-17435400D01*
X58258783Y-17380894D01*
X58268333Y-17320458D01*
X58286555Y-17295369D01*
X58711526Y-16870397D01*
X58408032Y-16566904D01*
X58408022Y-16566894D01*
X58384524Y-16547425D01*
X58262302Y-16488566D01*
X58128165Y-16468348D01*
X58128162Y-16468348D01*
X58054829Y-16479401D01*
X57994470Y-16469378D01*
X57951531Y-16425791D01*
X57942411Y-16365289D01*
X57970596Y-16310982D01*
X57979796Y-16302973D01*
X58008993Y-16280571D01*
X58169659Y-16119905D01*
X58199124Y-16081505D01*
X58238867Y-15972313D01*
X58238867Y-15952288D01*
X58243712Y-15937376D01*
X58243712Y-15921695D01*
X58252928Y-15909009D01*
X58257774Y-15894097D01*
X58270459Y-15884880D01*
X58279676Y-15872195D01*
X58294588Y-15867349D01*
X58307274Y-15858133D01*
X58337867Y-15853288D01*
X58511110Y-15853288D01*
X58569301Y-15872195D01*
X58605265Y-15921695D01*
X58609102Y-15938199D01*
X58629069Y-16077072D01*
X58629070Y-16077075D01*
X58629070Y-16077076D01*
X58629071Y-16077078D01*
X58689336Y-16209040D01*
X58727256Y-16256096D01*
X59467250Y-16996089D01*
X59514306Y-17034010D01*
X59646268Y-17094275D01*
X59646270Y-17094275D01*
X59646272Y-17094276D01*
X59789862Y-17114922D01*
X59789864Y-17114922D01*
X59789865Y-17114922D01*
X59843778Y-17107170D01*
X59930822Y-17094654D01*
X59991111Y-17105087D01*
X60033754Y-17148964D01*
X60042904Y-17206735D01*
X60022637Y-17347693D01*
X60022637Y-17347697D01*
X60043282Y-17491287D01*
X60043283Y-17491289D01*
X60043283Y-17491290D01*
X60043284Y-17491292D01*
X60103549Y-17623254D01*
X60141469Y-17670310D01*
X60412313Y-17941153D01*
X60653936Y-18182776D01*
X60681713Y-18237293D01*
X60682932Y-18252780D01*
X60682932Y-18602795D01*
X60664025Y-18660986D01*
X60614525Y-18696950D01*
X60553339Y-18696950D01*
X60513929Y-18672799D01*
X60267161Y-18426033D01*
X59277212Y-19415982D01*
X59580706Y-19719475D01*
X59580716Y-19719485D01*
X59604214Y-19738954D01*
X59726436Y-19797813D01*
X59860574Y-19818032D01*
X59860575Y-19818032D01*
X59967198Y-19801960D01*
X60027557Y-19811983D01*
X60070497Y-19855569D01*
X60079617Y-19916071D01*
X60072008Y-19940978D01*
X60044578Y-20001044D01*
X60044575Y-20001052D01*
X60023930Y-20144641D01*
X60023930Y-20144644D01*
X60044575Y-20288234D01*
X60044576Y-20288236D01*
X60104841Y-20420201D01*
X60104843Y-20420204D01*
X60127377Y-20448165D01*
X60142762Y-20467257D01*
X60847401Y-21171895D01*
X60894456Y-21209816D01*
X61026419Y-21270081D01*
X61026421Y-21270081D01*
X61026423Y-21270082D01*
X61170013Y-21290728D01*
X61170015Y-21290728D01*
X61170017Y-21290728D01*
X61313605Y-21270082D01*
X61313605Y-21270081D01*
X61313610Y-21270081D01*
X61445573Y-21209816D01*
X61492628Y-21171896D01*
X61932101Y-20732422D01*
X61970022Y-20685367D01*
X62030287Y-20553404D01*
X62036259Y-20511875D01*
X62050934Y-20409810D01*
X62050934Y-20409807D01*
X62030288Y-20266217D01*
X62030287Y-20266215D01*
X62030287Y-20266213D01*
X61970022Y-20134250D01*
X61963574Y-20126249D01*
X61940436Y-20097537D01*
X61932102Y-20087195D01*
X61420928Y-19576021D01*
X61393151Y-19521504D01*
X61391932Y-19506017D01*
X61391932Y-18551899D01*
X61410839Y-18493708D01*
X61449807Y-18461845D01*
X61479635Y-18448224D01*
X61526691Y-18410304D01*
X61948486Y-17988508D01*
X61986407Y-17941452D01*
X62046672Y-17809490D01*
X62056017Y-17744501D01*
X62067319Y-17665895D01*
X62067319Y-17665892D01*
X62046673Y-17522302D01*
X62046672Y-17522300D01*
X62046672Y-17522298D01*
X61986407Y-17390336D01*
X61948487Y-17343280D01*
X61208493Y-16603287D01*
X61161437Y-16565366D01*
X61029475Y-16505101D01*
X61029473Y-16505100D01*
X61029472Y-16505100D01*
X61029470Y-16505099D01*
X60885881Y-16484454D01*
X60885876Y-16484454D01*
X60744919Y-16504721D01*
X60684630Y-16494288D01*
X60641988Y-16450410D01*
X60632838Y-16392639D01*
X60637009Y-16363635D01*
X60653106Y-16251680D01*
X60646975Y-16209040D01*
X60632460Y-16108088D01*
X60632458Y-16108080D01*
X60575973Y-15984397D01*
X60568998Y-15923611D01*
X60599084Y-15870334D01*
X60616528Y-15857534D01*
X60640471Y-15843711D01*
X60743711Y-15740471D01*
X60816712Y-15614029D01*
X60854500Y-15473001D01*
X60854500Y-15326999D01*
X60816712Y-15185971D01*
X60743711Y-15059529D01*
X60640471Y-14956289D01*
X60514029Y-14883288D01*
X60373001Y-14845500D01*
X60226999Y-14845500D01*
X60106934Y-14877671D01*
X60085971Y-14883288D01*
X59959529Y-14956289D01*
X59856287Y-15059531D01*
X59836669Y-15093511D01*
X59791199Y-15134451D01*
X59730349Y-15140846D01*
X59709807Y-15134064D01*
X59672978Y-15117245D01*
X59615262Y-15090887D01*
X59615260Y-15090886D01*
X59615259Y-15090886D01*
X59615257Y-15090885D01*
X59471668Y-15070240D01*
X59471664Y-15070240D01*
X59328074Y-15090885D01*
X59328072Y-15090886D01*
X59196366Y-15151034D01*
X59135579Y-15158008D01*
X59129617Y-15156607D01*
X59109259Y-15151152D01*
X59083643Y-15144288D01*
X59083642Y-15144288D01*
X57646433Y-15144288D01*
X57588242Y-15125381D01*
X57576430Y-15115292D01*
X57178145Y-14717008D01*
X57178142Y-14717005D01*
X57139742Y-14687540D01*
X57139738Y-14687538D01*
X57139735Y-14687537D01*
X57030552Y-14647797D01*
X57030550Y-14647797D01*
X56914351Y-14647797D01*
X56914348Y-14647797D01*
X56805165Y-14687537D01*
X56805155Y-14687542D01*
X56766762Y-14717002D01*
X56606090Y-14877674D01*
X56576630Y-14916067D01*
X56576625Y-14916077D01*
X56533922Y-15033402D01*
X56530412Y-15032124D01*
X56509435Y-15071391D01*
X56495807Y-15082356D01*
X56443593Y-15117245D01*
X56442120Y-15118717D01*
X56442119Y-15118718D01*
X56580526Y-15257125D01*
X56582812Y-15261612D01*
X56589063Y-15266860D01*
X56593720Y-15272929D01*
X56605437Y-15306017D01*
X56608303Y-15311641D01*
X56608032Y-15313345D01*
X56614145Y-15330605D01*
X56596768Y-15389270D01*
X56548227Y-15426518D01*
X56487062Y-15428120D01*
X56464181Y-15416463D01*
X56463341Y-15416322D01*
X56462776Y-15415747D01*
X56454915Y-15411742D01*
X56448831Y-15407074D01*
X56439092Y-15398533D01*
X56300698Y-15260139D01*
X56300697Y-15260140D01*
X56299225Y-15261613D01*
X56264336Y-15313827D01*
X56216285Y-15351705D01*
X56215297Y-15351972D01*
X56098058Y-15394644D01*
X56098048Y-15394649D01*
X56059655Y-15424109D01*
X55898983Y-15584781D01*
X55869521Y-15623176D01*
X55869519Y-15623181D01*
X55851947Y-15671459D01*
X55814277Y-15719673D01*
X55792779Y-15730627D01*
X55744501Y-15748199D01*
X55744496Y-15748201D01*
X55706099Y-15777665D01*
X55706094Y-15777669D01*
X55562554Y-15921209D01*
X55508038Y-15948986D01*
X55447606Y-15939414D01*
X55422547Y-15921209D01*
X53853541Y-14352203D01*
X52257761Y-12756422D01*
X52229984Y-12701905D01*
X52228765Y-12686418D01*
X52228765Y-12601265D01*
X52228408Y-12599933D01*
X52190977Y-12460236D01*
X52117976Y-12333794D01*
X52014736Y-12230554D01*
X51981550Y-12211394D01*
X51971809Y-12205770D01*
X51930869Y-12160300D01*
X51924474Y-12099450D01*
X51951305Y-12050032D01*
X52237952Y-11763387D01*
X52292468Y-11735610D01*
X52307955Y-11734391D01*
X53610048Y-11734391D01*
X53668239Y-11753298D01*
X53680052Y-11763387D01*
X54059632Y-12142967D01*
X54059631Y-12142967D01*
X54107801Y-12191136D01*
X54125635Y-12208970D01*
X54206471Y-12255640D01*
X54206473Y-12255640D01*
X54206474Y-12255641D01*
X54251551Y-12267719D01*
X54296629Y-12279798D01*
X54296631Y-12279799D01*
X54732137Y-12279799D01*
X54790328Y-12298706D01*
X54810678Y-12318530D01*
X54838326Y-12354562D01*
X54998992Y-12515228D01*
X55037392Y-12544693D01*
X55085671Y-12562264D01*
X55133885Y-12599933D01*
X55144840Y-12621433D01*
X55162412Y-12669710D01*
X55162416Y-12669718D01*
X55177951Y-12689964D01*
X55191879Y-12708115D01*
X55352545Y-12868781D01*
X55390945Y-12898246D01*
X55439224Y-12915817D01*
X55487438Y-12953486D01*
X55498393Y-12974986D01*
X55515965Y-13023263D01*
X55515969Y-13023271D01*
X55539931Y-13054499D01*
X55545432Y-13061668D01*
X55706098Y-13222334D01*
X55706101Y-13222336D01*
X55744496Y-13251798D01*
X55744497Y-13251798D01*
X55744498Y-13251799D01*
X55792779Y-13269372D01*
X55840993Y-13307041D01*
X55851947Y-13328540D01*
X55869519Y-13376819D01*
X55869521Y-13376823D01*
X55896543Y-13412038D01*
X55898986Y-13415222D01*
X56059652Y-13575888D01*
X56098052Y-13605353D01*
X56146331Y-13622924D01*
X56194545Y-13660593D01*
X56205500Y-13682093D01*
X56212930Y-13702506D01*
X56223074Y-13730375D01*
X56252539Y-13768775D01*
X56413205Y-13929441D01*
X56413208Y-13929443D01*
X56451603Y-13958905D01*
X56451604Y-13958905D01*
X56451605Y-13958906D01*
X56499886Y-13976479D01*
X56548100Y-14014148D01*
X56559054Y-14035647D01*
X56576626Y-14083926D01*
X56576628Y-14083930D01*
X56603650Y-14119145D01*
X56606093Y-14122329D01*
X56766759Y-14282995D01*
X56805159Y-14312460D01*
X56815314Y-14316156D01*
X56914348Y-14352202D01*
X56914350Y-14352203D01*
X56914351Y-14352203D01*
X57030551Y-14352203D01*
X57030551Y-14352202D01*
X57139742Y-14312460D01*
X57178142Y-14282995D01*
X57392852Y-14068285D01*
X59590090Y-14068285D01*
X59734480Y-14212674D01*
X59734483Y-14212677D01*
X59757995Y-14232159D01*
X59880215Y-14291017D01*
X60014353Y-14311236D01*
X60014355Y-14311236D01*
X60148491Y-14291017D01*
X60148492Y-14291017D01*
X60270713Y-14232158D01*
X60294217Y-14212685D01*
X60294240Y-14212664D01*
X60597715Y-13909186D01*
X60173452Y-13484923D01*
X59590090Y-14068285D01*
X57392852Y-14068285D01*
X57958538Y-13502599D01*
X59205718Y-13502599D01*
X59205718Y-13502600D01*
X59225936Y-13636737D01*
X59225936Y-13636738D01*
X59284795Y-13758959D01*
X59304268Y-13782463D01*
X59304289Y-13782486D01*
X59448667Y-13926862D01*
X60032029Y-13343500D01*
X60314875Y-13343500D01*
X60739138Y-13767763D01*
X61042641Y-13464259D01*
X61062110Y-13440762D01*
X61120969Y-13318540D01*
X61120969Y-13318539D01*
X61141188Y-13184402D01*
X61141188Y-13184401D01*
X61120969Y-13050264D01*
X61120969Y-13050263D01*
X61062110Y-12928042D01*
X61042637Y-12904538D01*
X61042616Y-12904515D01*
X60898237Y-12760138D01*
X60314875Y-13343500D01*
X60032029Y-13343500D01*
X59607766Y-12919237D01*
X59304279Y-13222726D01*
X59304276Y-13222729D01*
X59284794Y-13246241D01*
X59225936Y-13368461D01*
X59225936Y-13368462D01*
X59205718Y-13502599D01*
X57958538Y-13502599D01*
X58169659Y-13291478D01*
X58199124Y-13253078D01*
X58238867Y-13143886D01*
X58238867Y-13027687D01*
X58238867Y-13022295D01*
X58257774Y-12964104D01*
X58307274Y-12928140D01*
X58368460Y-12928140D01*
X58389264Y-12939407D01*
X58390027Y-12938174D01*
X58395290Y-12941425D01*
X58395294Y-12941428D01*
X58527256Y-13001693D01*
X58527258Y-13001693D01*
X58527260Y-13001694D01*
X58670850Y-13022340D01*
X58670852Y-13022340D01*
X58670854Y-13022340D01*
X58814443Y-13001694D01*
X58814443Y-13001693D01*
X58814448Y-13001693D01*
X58946410Y-12941428D01*
X58993466Y-12903508D01*
X59513478Y-12383494D01*
X59567995Y-12355718D01*
X59583482Y-12354499D01*
X59933498Y-12354499D01*
X59991689Y-12373406D01*
X60027653Y-12422906D01*
X60027653Y-12484092D01*
X60003502Y-12523503D01*
X59749190Y-12777815D01*
X60173452Y-13202077D01*
X60756814Y-12618715D01*
X60661601Y-12523503D01*
X60633823Y-12468986D01*
X60643394Y-12408554D01*
X60686659Y-12365290D01*
X60731604Y-12354499D01*
X60775655Y-12354499D01*
X60775655Y-12354498D01*
X60865815Y-12330340D01*
X60946651Y-12283670D01*
X61753520Y-11476801D01*
X61753523Y-11476796D01*
X61755847Y-11472772D01*
X61800189Y-11395966D01*
X61800190Y-11395965D01*
X61824349Y-11305804D01*
X61824349Y-11227067D01*
X61843256Y-11168876D01*
X61853339Y-11157069D01*
X62330498Y-10679910D01*
X62385013Y-10652135D01*
X62445445Y-10661706D01*
G37*
G04 #@! TD.AperFunction*
G04 #@! TA.AperFunction,Conductor*
G36*
X57551748Y-19699532D02*
G01*
X58839580Y-20987364D01*
X58867357Y-21041881D01*
X58857786Y-21102313D01*
X58846660Y-21119489D01*
X58814373Y-21159551D01*
X58754106Y-21291520D01*
X58754105Y-21291522D01*
X58733460Y-21435111D01*
X58733460Y-21435114D01*
X58754105Y-21578704D01*
X58754106Y-21578706D01*
X58754106Y-21578707D01*
X58754107Y-21578709D01*
X58778522Y-21632170D01*
X58814371Y-21710671D01*
X58814373Y-21710674D01*
X58836907Y-21738635D01*
X58852292Y-21757727D01*
X58883939Y-21789374D01*
X58911715Y-21843889D01*
X58902144Y-21904321D01*
X58883938Y-21929380D01*
X57903454Y-22909863D01*
X57848937Y-22937640D01*
X57833450Y-22938859D01*
X57474936Y-22938859D01*
X57474929Y-22938860D01*
X57400699Y-22953624D01*
X57400697Y-22953625D01*
X57316519Y-23009872D01*
X57316512Y-23009879D01*
X57293932Y-23043672D01*
X57281619Y-23053378D01*
X57272908Y-23066416D01*
X57258196Y-23071843D01*
X57245882Y-23081551D01*
X57230214Y-23082166D01*
X57215504Y-23087593D01*
X57200410Y-23083335D01*
X57184743Y-23083951D01*
X57156616Y-23070984D01*
X57128498Y-23052196D01*
X57090619Y-23004146D01*
X57084500Y-22969881D01*
X57084500Y-22002885D01*
X57103407Y-21944694D01*
X57142372Y-21912833D01*
X57171220Y-21899659D01*
X57218275Y-21861739D01*
X57922913Y-21157100D01*
X57960834Y-21110045D01*
X58021099Y-20978082D01*
X58024266Y-20956060D01*
X58041746Y-20834487D01*
X58041746Y-20834484D01*
X58021100Y-20690895D01*
X58021099Y-20690893D01*
X58021099Y-20690891D01*
X57960834Y-20558928D01*
X57956382Y-20553404D01*
X57933314Y-20524779D01*
X57922914Y-20511873D01*
X57483440Y-20072400D01*
X57436385Y-20034479D01*
X57436383Y-20034478D01*
X57436382Y-20034477D01*
X57431118Y-20031225D01*
X57432509Y-20028972D01*
X57395535Y-19995030D01*
X57382744Y-19946358D01*
X57382744Y-19769536D01*
X57401651Y-19711345D01*
X57451151Y-19675381D01*
X57512337Y-19675381D01*
X57551748Y-19699532D01*
G37*
G04 #@! TD.AperFunction*
G04 #@! TA.AperFunction,Conductor*
G36*
X49201912Y-14955174D02*
G01*
X49204384Y-14955499D01*
X49204386Y-14955500D01*
X49413153Y-14955500D01*
X49471344Y-14974407D01*
X49483157Y-14984496D01*
X52569885Y-18071224D01*
X52597662Y-18125741D01*
X52598881Y-18141228D01*
X52598881Y-18819846D01*
X52623038Y-18910001D01*
X52623039Y-18910003D01*
X52623040Y-18910005D01*
X52634534Y-18929914D01*
X52647797Y-18979412D01*
X52647797Y-19030552D01*
X52687537Y-19139735D01*
X52687540Y-19139742D01*
X52717005Y-19178142D01*
X53708522Y-20169659D01*
X53746922Y-20199124D01*
X53856072Y-20238851D01*
X53904285Y-20276520D01*
X53921150Y-20335335D01*
X53900223Y-20392830D01*
X53892214Y-20401883D01*
X53734327Y-20559771D01*
X53734319Y-20559780D01*
X53696401Y-20606832D01*
X53696397Y-20606838D01*
X53695421Y-20608976D01*
X53694368Y-20610122D01*
X53693146Y-20612102D01*
X53692766Y-20611867D01*
X53654046Y-20654052D01*
X53594079Y-20666199D01*
X53538424Y-20640778D01*
X53535389Y-20637871D01*
X53495298Y-20597780D01*
X53368856Y-20524779D01*
X53227828Y-20486991D01*
X53227826Y-20486991D01*
X53142674Y-20486991D01*
X53084483Y-20468084D01*
X53072670Y-20457995D01*
X52107909Y-19493234D01*
X52080132Y-19438717D01*
X52089703Y-19378285D01*
X52107907Y-19353229D01*
X52282995Y-19178142D01*
X52312460Y-19139742D01*
X52352203Y-19030550D01*
X52352203Y-18914351D01*
X52349979Y-18908242D01*
X52319804Y-18825336D01*
X52312460Y-18805159D01*
X52282995Y-18766759D01*
X52122329Y-18606093D01*
X52091996Y-18582818D01*
X52083932Y-18576630D01*
X52083930Y-18576629D01*
X52083929Y-18576628D01*
X52083925Y-18576626D01*
X52083922Y-18576625D01*
X51966598Y-18533922D01*
X51967885Y-18530383D01*
X51928765Y-18509599D01*
X51917642Y-18495805D01*
X51882762Y-18443602D01*
X51881280Y-18442120D01*
X51742872Y-18580527D01*
X51738375Y-18582818D01*
X51733131Y-18589069D01*
X51727061Y-18593726D01*
X51693979Y-18605438D01*
X51688355Y-18608304D01*
X51686648Y-18608033D01*
X51669384Y-18614146D01*
X51610719Y-18596765D01*
X51573475Y-18548220D01*
X51571878Y-18487056D01*
X51583501Y-18464246D01*
X51583642Y-18463405D01*
X51584219Y-18462837D01*
X51588255Y-18454917D01*
X51592939Y-18448812D01*
X51601463Y-18439093D01*
X51739858Y-18300698D01*
X51738379Y-18299219D01*
X51686174Y-18264337D01*
X51648294Y-18216287D01*
X51648026Y-18215292D01*
X51612921Y-18118846D01*
X51605353Y-18098052D01*
X51575888Y-18059652D01*
X51415222Y-17898986D01*
X51393406Y-17882246D01*
X51376823Y-17869521D01*
X51376819Y-17869519D01*
X51328540Y-17851947D01*
X51280326Y-17814278D01*
X51269372Y-17792779D01*
X51251799Y-17744498D01*
X51251798Y-17744497D01*
X51251798Y-17744496D01*
X51222336Y-17706101D01*
X51222334Y-17706098D01*
X51061668Y-17545432D01*
X51054499Y-17539931D01*
X51023271Y-17515969D01*
X51023269Y-17515968D01*
X51023268Y-17515967D01*
X51023263Y-17515965D01*
X50974986Y-17498393D01*
X50926772Y-17460723D01*
X50915817Y-17439223D01*
X50898246Y-17390945D01*
X50868781Y-17352545D01*
X50708115Y-17191879D01*
X50669715Y-17162414D01*
X50669710Y-17162412D01*
X50621433Y-17144840D01*
X50573219Y-17107170D01*
X50562264Y-17085670D01*
X50560892Y-17081900D01*
X50544693Y-17037392D01*
X50544216Y-17036771D01*
X50534104Y-17023592D01*
X50515228Y-16998992D01*
X50354562Y-16838326D01*
X50339817Y-16827012D01*
X50316163Y-16808861D01*
X50316159Y-16808859D01*
X50267880Y-16791287D01*
X50219666Y-16753618D01*
X50208712Y-16732119D01*
X50191139Y-16683838D01*
X50191138Y-16683837D01*
X50191138Y-16683836D01*
X50161676Y-16645441D01*
X50161674Y-16645438D01*
X50001008Y-16484772D01*
X49990963Y-16477064D01*
X49962611Y-16455309D01*
X49962609Y-16455308D01*
X49962608Y-16455307D01*
X49959097Y-16454029D01*
X49914326Y-16437733D01*
X49866112Y-16400063D01*
X49855157Y-16378563D01*
X49849724Y-16363635D01*
X49837586Y-16330285D01*
X49808121Y-16291885D01*
X49647455Y-16131219D01*
X49617305Y-16108084D01*
X49609058Y-16101756D01*
X49609056Y-16101755D01*
X49609055Y-16101754D01*
X49609050Y-16101752D01*
X49560773Y-16084180D01*
X49512559Y-16046510D01*
X49501604Y-16025010D01*
X49494145Y-16004516D01*
X49484033Y-15976732D01*
X49454568Y-15938332D01*
X49293902Y-15777666D01*
X49290718Y-15775223D01*
X49255503Y-15748201D01*
X49255499Y-15748199D01*
X49207220Y-15730627D01*
X49159006Y-15692958D01*
X49148052Y-15671459D01*
X49130479Y-15623178D01*
X49130478Y-15623177D01*
X49130478Y-15623176D01*
X49101016Y-15584781D01*
X49101014Y-15584778D01*
X48940348Y-15424112D01*
X48924227Y-15411742D01*
X48901951Y-15394649D01*
X48901949Y-15394648D01*
X48901948Y-15394647D01*
X48901940Y-15394644D01*
X48853666Y-15377073D01*
X48805452Y-15339403D01*
X48794497Y-15317903D01*
X48776926Y-15269625D01*
X48747461Y-15231225D01*
X48639564Y-15123328D01*
X48611789Y-15068814D01*
X48621360Y-15008382D01*
X48664625Y-14965117D01*
X48709570Y-14954327D01*
X49188989Y-14954327D01*
X49201912Y-14955174D01*
G37*
G04 #@! TD.AperFunction*
G04 #@! TA.AperFunction,Conductor*
G36*
X51164980Y-12933101D02*
G01*
X51205771Y-12971811D01*
X51223024Y-13001694D01*
X51230554Y-13014736D01*
X51333794Y-13117976D01*
X51460236Y-13190977D01*
X51601264Y-13228765D01*
X51686418Y-13228765D01*
X51744609Y-13247672D01*
X51756422Y-13257761D01*
X54921208Y-16422547D01*
X54948985Y-16477064D01*
X54939414Y-16537496D01*
X54921208Y-16562554D01*
X54838327Y-16645435D01*
X54808861Y-16683836D01*
X54808859Y-16683841D01*
X54791287Y-16732119D01*
X54753617Y-16780333D01*
X54732119Y-16791287D01*
X54683841Y-16808859D01*
X54683836Y-16808861D01*
X54645441Y-16838323D01*
X54484769Y-16998995D01*
X54455307Y-17037390D01*
X54455306Y-17037393D01*
X54437733Y-17085673D01*
X54400063Y-17133887D01*
X54378566Y-17144840D01*
X54330286Y-17162413D01*
X54330283Y-17162414D01*
X54291888Y-17191876D01*
X54131216Y-17352548D01*
X54101754Y-17390943D01*
X54101753Y-17390946D01*
X54084180Y-17439226D01*
X54046510Y-17487440D01*
X54025013Y-17498393D01*
X53976733Y-17515966D01*
X53976730Y-17515967D01*
X53938335Y-17545429D01*
X53777663Y-17706101D01*
X53748201Y-17744496D01*
X53748199Y-17744501D01*
X53730627Y-17792779D01*
X53692957Y-17840993D01*
X53671459Y-17851947D01*
X53623181Y-17869519D01*
X53623176Y-17869521D01*
X53584781Y-17898983D01*
X53584778Y-17898985D01*
X53584778Y-17898986D01*
X53476882Y-18006881D01*
X53422368Y-18034657D01*
X53361936Y-18025086D01*
X53318671Y-17981821D01*
X53307881Y-17936876D01*
X53307881Y-17906709D01*
X53307880Y-17906707D01*
X53305810Y-17898983D01*
X53283722Y-17816549D01*
X53237052Y-17735713D01*
X53207437Y-17706098D01*
X53171049Y-17669709D01*
X53171049Y-17669710D01*
X49960128Y-14458789D01*
X49932351Y-14404272D01*
X49941922Y-14343840D01*
X49944383Y-14339306D01*
X50016712Y-14214029D01*
X50054500Y-14073001D01*
X50054500Y-13987846D01*
X50073407Y-13929655D01*
X50083490Y-13917848D01*
X51050031Y-12951306D01*
X51104548Y-12923530D01*
X51164980Y-12933101D01*
G37*
G04 #@! TD.AperFunction*
G04 #@! TA.AperFunction,Conductor*
G36*
X46532681Y-4519407D02*
G01*
X46568645Y-4568907D01*
X46568645Y-4630093D01*
X46532681Y-4679593D01*
X46529491Y-4681816D01*
X46479037Y-4715527D01*
X46373938Y-4820626D01*
X46291370Y-4944199D01*
X46234494Y-5081510D01*
X46205500Y-5227274D01*
X46205500Y-5375903D01*
X46224849Y-5473175D01*
X46217657Y-5533936D01*
X46197755Y-5562492D01*
X45353305Y-6406944D01*
X45287304Y-6472945D01*
X45287302Y-6472947D01*
X45287302Y-6472948D01*
X45240632Y-6553784D01*
X45240631Y-6553786D01*
X45240630Y-6553787D01*
X45216473Y-6643942D01*
X45216473Y-7104888D01*
X45197566Y-7163079D01*
X45187477Y-7174892D01*
X44324863Y-8037506D01*
X44324862Y-8037505D01*
X44258862Y-8103506D01*
X44258860Y-8103508D01*
X44258860Y-8103509D01*
X44215670Y-8178317D01*
X44212189Y-8184347D01*
X44212188Y-8184348D01*
X44188031Y-8274503D01*
X44188031Y-9747317D01*
X44194837Y-9772719D01*
X44191634Y-9833820D01*
X44153128Y-9881369D01*
X44113300Y-9896332D01*
X44035598Y-9907504D01*
X44035596Y-9907505D01*
X43903631Y-9967770D01*
X43903628Y-9967772D01*
X43856578Y-10005689D01*
X43856569Y-10005697D01*
X43417105Y-10445162D01*
X43379182Y-10492219D01*
X43318916Y-10624185D01*
X43318915Y-10624187D01*
X43298270Y-10767776D01*
X43298270Y-10767779D01*
X43318915Y-10911369D01*
X43318916Y-10911371D01*
X43318916Y-10911372D01*
X43318917Y-10911374D01*
X43323859Y-10922195D01*
X43379181Y-11043336D01*
X43379183Y-11043338D01*
X43399265Y-11068258D01*
X43421056Y-11125431D01*
X43405080Y-11184494D01*
X43357439Y-11222886D01*
X43322180Y-11229378D01*
X43302162Y-11229378D01*
X43161134Y-11267166D01*
X43034692Y-11340167D01*
X42931452Y-11443407D01*
X42858451Y-11569849D01*
X42820663Y-11710877D01*
X42820663Y-11856879D01*
X42858451Y-11997907D01*
X42931452Y-12124349D01*
X43034692Y-12227589D01*
X43161134Y-12300590D01*
X43302162Y-12338378D01*
X43302164Y-12338378D01*
X43448162Y-12338378D01*
X43448164Y-12338378D01*
X43589192Y-12300590D01*
X43715634Y-12227589D01*
X43818874Y-12124349D01*
X43891875Y-11997907D01*
X43929663Y-11856879D01*
X43929663Y-11841959D01*
X43948570Y-11783768D01*
X43998070Y-11747804D01*
X44059256Y-11747804D01*
X44098664Y-11771953D01*
X44121741Y-11795030D01*
X44168796Y-11832951D01*
X44300759Y-11893216D01*
X44300761Y-11893216D01*
X44300763Y-11893217D01*
X44444353Y-11913863D01*
X44444355Y-11913863D01*
X44444356Y-11913863D01*
X44486374Y-11907821D01*
X44528757Y-11901727D01*
X44589046Y-11912160D01*
X44631689Y-11956037D01*
X44640839Y-12013808D01*
X44623283Y-12135911D01*
X44623283Y-12135915D01*
X44643928Y-12279505D01*
X44643929Y-12279507D01*
X44643929Y-12279508D01*
X44643930Y-12279510D01*
X44704195Y-12411472D01*
X44742115Y-12458528D01*
X45482109Y-13198521D01*
X45529165Y-13236442D01*
X45661127Y-13296707D01*
X45661129Y-13296707D01*
X45661131Y-13296708D01*
X45804721Y-13317354D01*
X45804723Y-13317354D01*
X45804725Y-13317354D01*
X45948314Y-13296708D01*
X45948314Y-13296707D01*
X45948319Y-13296707D01*
X46080281Y-13236442D01*
X46127337Y-13198522D01*
X46397712Y-12928144D01*
X46452226Y-12900368D01*
X46512659Y-12909939D01*
X46537718Y-12928145D01*
X46750005Y-13140432D01*
X46773030Y-13176575D01*
X46802827Y-13258439D01*
X46804963Y-13319587D01*
X46779802Y-13362304D01*
X44945950Y-15196158D01*
X44891433Y-15223935D01*
X44875946Y-15225154D01*
X44790792Y-15225154D01*
X44671474Y-15257125D01*
X44649764Y-15262942D01*
X44523322Y-15335943D01*
X44420081Y-15439184D01*
X44347271Y-15565294D01*
X44301801Y-15606234D01*
X44248613Y-15613946D01*
X44136218Y-15599149D01*
X44136217Y-15599149D01*
X44118466Y-15601486D01*
X43983632Y-15619237D01*
X43841446Y-15678133D01*
X43750008Y-15748296D01*
X42748293Y-16750012D01*
X42678041Y-16841565D01*
X42627616Y-16876220D01*
X42566452Y-16874618D01*
X42517911Y-16837370D01*
X42500500Y-16781297D01*
X42500500Y-16381903D01*
X42500305Y-16379424D01*
X42500000Y-16371661D01*
X42500000Y-9128330D01*
X42500306Y-9120555D01*
X42500500Y-9118092D01*
X42500500Y-8248321D01*
X42519407Y-8190130D01*
X42529496Y-8178317D01*
X46178317Y-4529496D01*
X46232834Y-4501719D01*
X46248321Y-4500500D01*
X46474490Y-4500500D01*
X46532681Y-4519407D01*
G37*
G04 #@! TD.AperFunction*
G04 #@! TA.AperFunction,Conductor*
G36*
X48535624Y-13583436D02*
G01*
X48536468Y-13583576D01*
X48537771Y-13584530D01*
X48545079Y-13588253D01*
X48551162Y-13592920D01*
X48553115Y-13595761D01*
X48560903Y-13601462D01*
X48699300Y-13739858D01*
X48700775Y-13738384D01*
X48700779Y-13738381D01*
X48735662Y-13686174D01*
X48783712Y-13648294D01*
X48784197Y-13648117D01*
X48792519Y-13645096D01*
X48792756Y-13645096D01*
X48881435Y-13612818D01*
X48912228Y-13611769D01*
X48942501Y-13610712D01*
X48942537Y-13610736D01*
X48942582Y-13610735D01*
X48968083Y-13627967D01*
X48993226Y-13644925D01*
X48993241Y-13644966D01*
X48993279Y-13644992D01*
X49003774Y-13673904D01*
X49014154Y-13702420D01*
X49014142Y-13702466D01*
X49014157Y-13702506D01*
X49013973Y-13703143D01*
X49000952Y-13755375D01*
X48983288Y-13785970D01*
X48967421Y-13845188D01*
X48945500Y-13926999D01*
X48945500Y-14073001D01*
X48954027Y-14104824D01*
X48958282Y-14120705D01*
X48955079Y-14181806D01*
X48916574Y-14229356D01*
X48862655Y-14245327D01*
X48500279Y-14245327D01*
X48442088Y-14226420D01*
X48406124Y-14176920D01*
X48406124Y-14115734D01*
X48408440Y-14109360D01*
X48413495Y-14096800D01*
X48423372Y-14083929D01*
X48463115Y-13974737D01*
X48463115Y-13973527D01*
X48467356Y-13962991D01*
X48480668Y-13947083D01*
X48490401Y-13928765D01*
X48504194Y-13917642D01*
X48556401Y-13882759D01*
X48556404Y-13882755D01*
X48557878Y-13881280D01*
X48419472Y-13742873D01*
X48410938Y-13733142D01*
X48406278Y-13727068D01*
X48403804Y-13720083D01*
X48400951Y-13717190D01*
X48399590Y-13708185D01*
X48385851Y-13669396D01*
X48403225Y-13610730D01*
X48451765Y-13573479D01*
X48512929Y-13571874D01*
X48535624Y-13583436D01*
G37*
G04 #@! TD.AperFunction*
G04 #@! TA.AperFunction,Conductor*
G36*
X52716974Y-7094071D02*
G01*
X52721818Y-7093001D01*
X52745684Y-7103399D01*
X52770447Y-7111445D01*
X52773362Y-7115458D01*
X52777911Y-7117440D01*
X52791105Y-7139879D01*
X52806411Y-7160945D01*
X52808319Y-7169153D01*
X52808925Y-7170183D01*
X52809723Y-7173798D01*
X52828257Y-7302694D01*
X52847512Y-7344857D01*
X52849774Y-7355095D01*
X52843864Y-7415994D01*
X52803288Y-7461789D01*
X52753105Y-7475450D01*
X52726999Y-7475450D01*
X52585971Y-7513238D01*
X52459529Y-7586239D01*
X52356289Y-7689479D01*
X52283288Y-7815921D01*
X52245500Y-7956949D01*
X52245500Y-8102951D01*
X52283288Y-8243979D01*
X52356289Y-8370421D01*
X52459529Y-8473661D01*
X52585971Y-8546662D01*
X52726999Y-8584450D01*
X52727001Y-8584450D01*
X52872999Y-8584450D01*
X52873001Y-8584450D01*
X53014029Y-8546662D01*
X53140471Y-8473661D01*
X53243711Y-8370421D01*
X53290716Y-8289004D01*
X53336184Y-8248066D01*
X53397034Y-8241670D01*
X53450022Y-8272263D01*
X53474909Y-8328158D01*
X53475451Y-8338507D01*
X53475451Y-8497656D01*
X53499608Y-8587811D01*
X53499609Y-8587812D01*
X53499610Y-8587815D01*
X53546280Y-8668651D01*
X53638243Y-8760614D01*
X53666019Y-8815129D01*
X53656448Y-8875561D01*
X53638242Y-8900620D01*
X52923677Y-9615186D01*
X52869160Y-9642963D01*
X52808728Y-9633392D01*
X52765463Y-9590127D01*
X52754673Y-9545182D01*
X52754673Y-9402132D01*
X52754672Y-9402130D01*
X52748535Y-9379228D01*
X52734332Y-9326220D01*
X52730515Y-9311975D01*
X52730514Y-9311974D01*
X52730514Y-9311972D01*
X52683844Y-9231136D01*
X52654355Y-9201647D01*
X52617841Y-9165132D01*
X52617841Y-9165133D01*
X51197545Y-7744837D01*
X51116709Y-7698167D01*
X51116706Y-7698166D01*
X51116705Y-7698165D01*
X51026550Y-7674008D01*
X51026548Y-7674008D01*
X50517719Y-7674008D01*
X50459528Y-7655101D01*
X50455598Y-7652092D01*
X50453767Y-7650616D01*
X50453764Y-7650614D01*
X50375263Y-7614765D01*
X50321802Y-7590350D01*
X50321800Y-7590349D01*
X50321799Y-7590349D01*
X50321797Y-7590348D01*
X50178209Y-7569703D01*
X50178205Y-7569703D01*
X50034615Y-7590348D01*
X50034613Y-7590349D01*
X49902648Y-7650614D01*
X49902645Y-7650616D01*
X49855595Y-7688533D01*
X49150953Y-8393176D01*
X49113034Y-8440228D01*
X49052768Y-8572194D01*
X49052767Y-8572196D01*
X49032122Y-8715786D01*
X49032122Y-8715791D01*
X49037111Y-8750492D01*
X49026678Y-8810782D01*
X49009123Y-8834585D01*
X48856113Y-8987595D01*
X48801596Y-9015372D01*
X48780600Y-9015522D01*
X48780600Y-9015799D01*
X48773518Y-9015799D01*
X48629928Y-9036444D01*
X48629926Y-9036445D01*
X48497960Y-9096712D01*
X48450911Y-9134626D01*
X47710908Y-9874630D01*
X47672993Y-9921679D01*
X47672991Y-9921682D01*
X47612726Y-10053645D01*
X47612725Y-10053647D01*
X47592080Y-10197237D01*
X47592080Y-10197240D01*
X47612725Y-10340830D01*
X47612727Y-10340835D01*
X47633273Y-10385825D01*
X47633865Y-10387120D01*
X47640840Y-10447907D01*
X47610754Y-10501184D01*
X47555757Y-10526301D01*
X47130548Y-10951510D01*
X47713910Y-11534872D01*
X47858314Y-11390467D01*
X47877783Y-11366970D01*
X47936642Y-11244748D01*
X47936642Y-11244747D01*
X47956861Y-11110610D01*
X47956861Y-11110609D01*
X47940505Y-11002102D01*
X47950528Y-10941743D01*
X47994114Y-10898803D01*
X48054616Y-10889683D01*
X48108400Y-10917340D01*
X48132708Y-10941648D01*
X48160672Y-10964183D01*
X48179761Y-10979567D01*
X48179762Y-10979567D01*
X48179764Y-10979569D01*
X48311726Y-11039834D01*
X48311728Y-11039834D01*
X48311730Y-11039835D01*
X48455320Y-11060481D01*
X48460104Y-11060481D01*
X48461835Y-11061043D01*
X48463586Y-11060542D01*
X48490768Y-11070444D01*
X48518295Y-11079388D01*
X48519365Y-11080862D01*
X48521076Y-11081485D01*
X48537239Y-11105462D01*
X48554259Y-11128888D01*
X48554259Y-11130710D01*
X48555276Y-11132219D01*
X48554259Y-11161116D01*
X48554259Y-11190074D01*
X48553124Y-11193366D01*
X48551060Y-11199032D01*
X48513378Y-11247237D01*
X48491902Y-11258176D01*
X48443622Y-11275749D01*
X48443619Y-11275750D01*
X48405224Y-11305212D01*
X48244552Y-11465884D01*
X48215090Y-11504279D01*
X48215089Y-11504282D01*
X48197516Y-11552562D01*
X48159846Y-11600776D01*
X48138349Y-11611729D01*
X48090069Y-11629302D01*
X48090066Y-11629303D01*
X48051671Y-11658765D01*
X47890999Y-11819437D01*
X47861537Y-11857832D01*
X47861535Y-11857837D01*
X47843963Y-11906115D01*
X47806293Y-11954329D01*
X47784795Y-11965283D01*
X47736517Y-11982855D01*
X47736512Y-11982857D01*
X47698117Y-12012319D01*
X47537445Y-12172991D01*
X47507985Y-12211384D01*
X47507980Y-12211394D01*
X47465277Y-12328719D01*
X47461746Y-12327434D01*
X47440905Y-12366597D01*
X47427163Y-12377672D01*
X47374949Y-12412561D01*
X47373476Y-12414033D01*
X47373475Y-12414034D01*
X47511869Y-12552428D01*
X47514241Y-12557084D01*
X47520410Y-12562167D01*
X47525078Y-12568251D01*
X47536799Y-12601357D01*
X47539646Y-12606944D01*
X47539377Y-12608638D01*
X47545499Y-12625928D01*
X47528119Y-12684593D01*
X47479576Y-12721838D01*
X47418411Y-12723437D01*
X47397139Y-12712597D01*
X47396332Y-12712477D01*
X47395715Y-12711871D01*
X47386265Y-12707056D01*
X47380196Y-12702399D01*
X47370461Y-12693862D01*
X47232053Y-12555455D01*
X47208733Y-12555459D01*
X47150540Y-12536561D01*
X47138714Y-12526463D01*
X46885260Y-12273009D01*
X46623593Y-12011342D01*
X46542757Y-11964672D01*
X46542754Y-11964671D01*
X46542753Y-11964670D01*
X46452598Y-11940513D01*
X46452596Y-11940513D01*
X46399156Y-11940513D01*
X46340965Y-11921606D01*
X46329152Y-11911517D01*
X46029120Y-11611485D01*
X46025493Y-11604367D01*
X46019031Y-11599672D01*
X46011867Y-11577623D01*
X46001343Y-11556968D01*
X46000124Y-11541481D01*
X46000124Y-11517195D01*
X46564862Y-11517195D01*
X46868366Y-11820699D01*
X46891864Y-11840168D01*
X47014086Y-11899027D01*
X47148224Y-11919246D01*
X47148226Y-11919246D01*
X47282362Y-11899027D01*
X47282363Y-11899027D01*
X47404584Y-11840168D01*
X47428094Y-11820690D01*
X47572487Y-11676295D01*
X46989125Y-11092933D01*
X46564862Y-11517195D01*
X46000124Y-11517195D01*
X46000124Y-11191466D01*
X46019031Y-11133275D01*
X46068531Y-11097311D01*
X46129717Y-11097311D01*
X46169127Y-11121462D01*
X46423439Y-11375774D01*
X46847703Y-10951511D01*
X46264527Y-10368335D01*
X46263376Y-10368612D01*
X46260549Y-10368612D01*
X46202358Y-10349705D01*
X46190545Y-10339616D01*
X45601534Y-9750605D01*
X45573757Y-9696088D01*
X45583328Y-9635656D01*
X45601559Y-9610573D01*
X45602241Y-9609890D01*
X45602240Y-9609889D01*
X45743662Y-9609889D01*
X46309159Y-10175388D01*
X46310312Y-10175112D01*
X46313142Y-10175112D01*
X46371333Y-10194019D01*
X46383146Y-10204108D01*
X46989126Y-10810088D01*
X47413389Y-10385825D01*
X47109895Y-10082332D01*
X47109885Y-10082322D01*
X47086387Y-10062853D01*
X46964165Y-10003994D01*
X46830028Y-9983776D01*
X46830026Y-9983776D01*
X46695889Y-10003994D01*
X46695882Y-10003996D01*
X46669170Y-10016860D01*
X46608539Y-10025073D01*
X46554659Y-9996078D01*
X46528113Y-9940952D01*
X46537023Y-9884705D01*
X46540921Y-9876611D01*
X46540922Y-9876606D01*
X46561138Y-9742477D01*
X46561138Y-9742470D01*
X46540922Y-9608340D01*
X46540919Y-9608331D01*
X46482062Y-9486117D01*
X46462582Y-9462605D01*
X46446981Y-9447004D01*
X46432928Y-9419422D01*
X46687556Y-9419422D01*
X46831946Y-9563811D01*
X46831949Y-9563814D01*
X46855461Y-9583296D01*
X46977681Y-9642154D01*
X47111819Y-9662373D01*
X47111821Y-9662373D01*
X47245957Y-9642154D01*
X47245958Y-9642154D01*
X47368179Y-9583295D01*
X47391683Y-9563822D01*
X47391706Y-9563801D01*
X47695181Y-9260323D01*
X47270918Y-8836060D01*
X46687556Y-9419422D01*
X46432928Y-9419422D01*
X46419204Y-9392487D01*
X46428775Y-9332055D01*
X46472040Y-9288790D01*
X46516985Y-9278000D01*
X46546133Y-9278000D01*
X47129495Y-8694637D01*
X46705232Y-8270374D01*
X46401745Y-8573863D01*
X46401742Y-8573866D01*
X46382260Y-8597378D01*
X46323402Y-8719598D01*
X46323402Y-8719599D01*
X46303184Y-8853736D01*
X46303184Y-8853737D01*
X46323402Y-8987874D01*
X46323402Y-8987875D01*
X46382289Y-9110154D01*
X46390502Y-9170786D01*
X46361508Y-9224666D01*
X46306382Y-9251213D01*
X46246180Y-9240288D01*
X46223089Y-9223113D01*
X46176764Y-9176788D01*
X45743662Y-9609889D01*
X45602240Y-9609889D01*
X45601559Y-9609208D01*
X45573762Y-9554702D01*
X45583312Y-9494266D01*
X45601534Y-9469176D01*
X46035343Y-9035367D01*
X45749527Y-8749551D01*
X45726014Y-8730069D01*
X45603798Y-8671212D01*
X45603792Y-8671210D01*
X45469662Y-8650995D01*
X45469656Y-8650995D01*
X45335526Y-8671210D01*
X45335517Y-8671213D01*
X45213303Y-8730070D01*
X45189785Y-8749555D01*
X45066034Y-8873306D01*
X45011518Y-8901083D01*
X44951086Y-8891511D01*
X44907821Y-8848247D01*
X44897031Y-8803302D01*
X44897031Y-8509024D01*
X44915938Y-8450833D01*
X44926027Y-8439020D01*
X45688816Y-7676231D01*
X45743333Y-7648454D01*
X45758820Y-7647235D01*
X47090596Y-7647235D01*
X47148787Y-7666142D01*
X47184751Y-7715642D01*
X47184751Y-7776828D01*
X47153754Y-7822472D01*
X47150151Y-7825456D01*
X46846655Y-8128952D01*
X47836603Y-9118900D01*
X48140107Y-8815396D01*
X48159576Y-8791899D01*
X48218435Y-8669677D01*
X48218435Y-8669676D01*
X48238654Y-8535539D01*
X48238654Y-8535538D01*
X48218435Y-8401401D01*
X48218435Y-8401400D01*
X48188756Y-8339772D01*
X48180543Y-8279141D01*
X48209536Y-8225261D01*
X48264662Y-8198713D01*
X48324864Y-8209638D01*
X48340074Y-8219733D01*
X48347013Y-8225325D01*
X48478976Y-8285590D01*
X48478978Y-8285590D01*
X48478980Y-8285591D01*
X48622569Y-8306237D01*
X48622571Y-8306237D01*
X48622573Y-8306237D01*
X48766162Y-8285591D01*
X48766162Y-8285590D01*
X48766167Y-8285590D01*
X48898130Y-8225325D01*
X48945185Y-8187405D01*
X49649823Y-7482766D01*
X49687744Y-7435711D01*
X49748009Y-7303748D01*
X49766169Y-7177449D01*
X49793165Y-7122541D01*
X49847279Y-7093988D01*
X49864161Y-7092538D01*
X52712256Y-7092538D01*
X52716974Y-7094071D01*
G37*
G04 #@! TD.AperFunction*
G04 #@! TA.AperFunction,Conductor*
G36*
X54993579Y-6768830D02*
G01*
X55019898Y-6787665D01*
X55444147Y-7211914D01*
X55471923Y-7266429D01*
X55462352Y-7326861D01*
X55419087Y-7370126D01*
X55359388Y-7379810D01*
X55332555Y-7375766D01*
X55332551Y-7375766D01*
X55198414Y-7395984D01*
X55198413Y-7395984D01*
X55076192Y-7454843D01*
X55052688Y-7474316D01*
X54749189Y-7777815D01*
X55739137Y-8767763D01*
X56042641Y-8464259D01*
X56062110Y-8440762D01*
X56120969Y-8318540D01*
X56120969Y-8318539D01*
X56141188Y-8184402D01*
X56141188Y-8184401D01*
X56137143Y-8157567D01*
X56147165Y-8097208D01*
X56190752Y-8054268D01*
X56251254Y-8045148D01*
X56305038Y-8072805D01*
X56600645Y-8368412D01*
X56628421Y-8422927D01*
X56618850Y-8483359D01*
X56575585Y-8526624D01*
X56515886Y-8536308D01*
X56489053Y-8532264D01*
X56489049Y-8532264D01*
X56354912Y-8552482D01*
X56354911Y-8552482D01*
X56232690Y-8611341D01*
X56209186Y-8630814D01*
X55905687Y-8934313D01*
X56895635Y-9924261D01*
X57199139Y-9620757D01*
X57218608Y-9597260D01*
X57277467Y-9475038D01*
X57277467Y-9475037D01*
X57297686Y-9340900D01*
X57293641Y-9314067D01*
X57303663Y-9253708D01*
X57347250Y-9210767D01*
X57407751Y-9201647D01*
X57461539Y-9229306D01*
X57885782Y-9653549D01*
X57913559Y-9708066D01*
X57903988Y-9768498D01*
X57860723Y-9811763D01*
X57829868Y-9821545D01*
X57688960Y-9841805D01*
X57688958Y-9841806D01*
X57645758Y-9861535D01*
X57595023Y-9884705D01*
X57556992Y-9902073D01*
X57509943Y-9939987D01*
X56769940Y-10679991D01*
X56732025Y-10727040D01*
X56732023Y-10727043D01*
X56671758Y-10859006D01*
X56671757Y-10859008D01*
X56651112Y-11002598D01*
X56651112Y-11002601D01*
X56671758Y-11146194D01*
X56672985Y-11150373D01*
X56672528Y-11166351D01*
X56676935Y-11181721D01*
X56671676Y-11196168D01*
X56671237Y-11211534D01*
X56661475Y-11224192D01*
X56656007Y-11239216D01*
X56643261Y-11247812D01*
X56633874Y-11259986D01*
X56618535Y-11264489D01*
X56605282Y-11273429D01*
X56589919Y-11272892D01*
X56575167Y-11277224D01*
X56544134Y-11271293D01*
X56508097Y-11258176D01*
X56459882Y-11220506D01*
X56448928Y-11199006D01*
X56431357Y-11150728D01*
X56401892Y-11112328D01*
X56241226Y-10951662D01*
X56228177Y-10941649D01*
X56202827Y-10922197D01*
X56202823Y-10922195D01*
X56154544Y-10904623D01*
X56106330Y-10866954D01*
X56095377Y-10845459D01*
X56077803Y-10797174D01*
X56077802Y-10797173D01*
X56077802Y-10797172D01*
X56048340Y-10758777D01*
X56048338Y-10758774D01*
X55887672Y-10598108D01*
X55881518Y-10593386D01*
X55877055Y-10589961D01*
X55877053Y-10589960D01*
X55849272Y-10568643D01*
X55809227Y-10554068D01*
X55809226Y-10554067D01*
X55757611Y-10535281D01*
X55740080Y-10528900D01*
X55740079Y-10528900D01*
X55731941Y-10525938D01*
X55733227Y-10522403D01*
X55694086Y-10501589D01*
X55682986Y-10487821D01*
X55648104Y-10435616D01*
X55646624Y-10434136D01*
X55508228Y-10572531D01*
X55503655Y-10574860D01*
X55498492Y-10581069D01*
X55492415Y-10585732D01*
X55459311Y-10597454D01*
X55453711Y-10600308D01*
X55452012Y-10600039D01*
X55434739Y-10606156D01*
X55376073Y-10588778D01*
X55338826Y-10540236D01*
X55337225Y-10479072D01*
X55348468Y-10457006D01*
X55348601Y-10456168D01*
X55349201Y-10455567D01*
X55353603Y-10446928D01*
X55358279Y-10440834D01*
X55366807Y-10431109D01*
X55505202Y-10292713D01*
X55503729Y-10291240D01*
X55503724Y-10291236D01*
X55498444Y-10287708D01*
X55482607Y-10267617D01*
X55464730Y-10249325D01*
X55464231Y-10244305D01*
X55460567Y-10239657D01*
X55459188Y-10224783D01*
X55746588Y-10224783D01*
X55890978Y-10369172D01*
X55890979Y-10369173D01*
X55904812Y-10380635D01*
X55975362Y-10417969D01*
X56036713Y-10447515D01*
X56170851Y-10467734D01*
X56170853Y-10467734D01*
X56304989Y-10447515D01*
X56304990Y-10447515D01*
X56427211Y-10388656D01*
X56450715Y-10369183D01*
X56450738Y-10369162D01*
X56754213Y-10065684D01*
X56329950Y-9641421D01*
X55746588Y-10224783D01*
X55459188Y-10224783D01*
X55455852Y-10188788D01*
X55456626Y-10184233D01*
X55459356Y-10174049D01*
X55459356Y-10168196D01*
X55460759Y-10159951D01*
X55471266Y-10139900D01*
X55478263Y-10118367D01*
X55485187Y-10113335D01*
X55489160Y-10105756D01*
X55509445Y-10095711D01*
X55527763Y-10082403D01*
X55536323Y-10082403D01*
X55543991Y-10078606D01*
X55566305Y-10082403D01*
X55588949Y-10082403D01*
X55590512Y-10083361D01*
X55605165Y-10083361D01*
X56188527Y-9499998D01*
X55764264Y-9075735D01*
X55460777Y-9379224D01*
X55460774Y-9379228D01*
X55438949Y-9405568D01*
X55421919Y-9416356D01*
X55407663Y-9430613D01*
X55396666Y-9432354D01*
X55387263Y-9438312D01*
X55367143Y-9437030D01*
X55347231Y-9440184D01*
X55337311Y-9435129D01*
X55326201Y-9434422D01*
X55292714Y-9412407D01*
X55261044Y-9380737D01*
X55233267Y-9326220D01*
X55242838Y-9265788D01*
X55267890Y-9234496D01*
X55294222Y-9212680D01*
X55294240Y-9212664D01*
X55597716Y-8909186D01*
X55102742Y-8414212D01*
X54607766Y-7919237D01*
X54353455Y-8173550D01*
X54298938Y-8201328D01*
X54238506Y-8191757D01*
X54195241Y-8148492D01*
X54184451Y-8103547D01*
X54184451Y-7753529D01*
X54203358Y-7695338D01*
X54213441Y-7683531D01*
X54733459Y-7163514D01*
X54771380Y-7116458D01*
X54831645Y-6984496D01*
X54851906Y-6843582D01*
X54878902Y-6788675D01*
X54933016Y-6760122D01*
X54993579Y-6768830D01*
G37*
G04 #@! TD.AperFunction*
G04 #@! TA.AperFunction,Conductor*
G36*
X56308277Y-4519407D02*
G01*
X56344241Y-4568907D01*
X56344241Y-4630093D01*
X56320091Y-4669501D01*
X55488450Y-5501143D01*
X54672387Y-6317206D01*
X54617870Y-6344983D01*
X54557438Y-6335412D01*
X54532380Y-6317206D01*
X54311670Y-6096497D01*
X54311664Y-6096491D01*
X54292572Y-6081105D01*
X54264610Y-6058571D01*
X54264606Y-6058569D01*
X54193064Y-6025897D01*
X54132646Y-5998305D01*
X54132644Y-5998304D01*
X54132643Y-5998304D01*
X54132641Y-5998303D01*
X53989052Y-5977658D01*
X53989048Y-5977658D01*
X53845458Y-5998303D01*
X53845456Y-5998304D01*
X53713490Y-6058571D01*
X53666436Y-6096489D01*
X53408383Y-6354542D01*
X53353867Y-6382319D01*
X53338380Y-6383538D01*
X49227249Y-6383538D01*
X49169058Y-6364631D01*
X49165128Y-6361622D01*
X49163297Y-6360146D01*
X49163294Y-6360144D01*
X49069271Y-6317206D01*
X49031332Y-6299880D01*
X49031330Y-6299879D01*
X49031329Y-6299879D01*
X49031327Y-6299878D01*
X48887739Y-6279233D01*
X48887735Y-6279233D01*
X48744145Y-6299878D01*
X48744143Y-6299879D01*
X48612178Y-6360144D01*
X48612175Y-6360146D01*
X48565125Y-6398063D01*
X48053950Y-6909239D01*
X47999433Y-6937016D01*
X47983946Y-6938235D01*
X46063701Y-6938235D01*
X46005510Y-6919328D01*
X45969546Y-6869828D01*
X45969546Y-6808642D01*
X45993697Y-6769232D01*
X46699093Y-6063834D01*
X46753610Y-6036056D01*
X46788408Y-6036738D01*
X46885688Y-6056089D01*
X46885689Y-6056089D01*
X47034311Y-6056089D01*
X47034312Y-6056089D01*
X47180080Y-6027094D01*
X47317390Y-5970218D01*
X47440966Y-5887648D01*
X47524998Y-5803615D01*
X47579513Y-5775840D01*
X47639945Y-5785411D01*
X47665000Y-5803614D01*
X47749034Y-5887648D01*
X47872610Y-5970218D01*
X48009920Y-6027094D01*
X48155688Y-6056089D01*
X48155689Y-6056089D01*
X48304311Y-6056089D01*
X48304312Y-6056089D01*
X48450080Y-6027094D01*
X48587390Y-5970218D01*
X48701932Y-5893683D01*
X48760820Y-5877076D01*
X48818224Y-5898254D01*
X48839248Y-5920998D01*
X48855805Y-5945777D01*
X48855810Y-5945782D01*
X48921963Y-5989985D01*
X48980299Y-6001588D01*
X48980303Y-6001589D01*
X49399999Y-6001589D01*
X49400000Y-6001588D01*
X49400000Y-5611258D01*
X49457213Y-5626589D01*
X49542787Y-5626589D01*
X49600000Y-5611258D01*
X49600000Y-6001588D01*
X49600001Y-6001589D01*
X50019697Y-6001589D01*
X50019700Y-6001588D01*
X50078036Y-5989985D01*
X50144189Y-5945782D01*
X50144193Y-5945778D01*
X50188396Y-5879625D01*
X50199999Y-5821289D01*
X50200000Y-5821286D01*
X50200000Y-5401590D01*
X50199999Y-5401589D01*
X49809669Y-5401589D01*
X49825000Y-5344376D01*
X49825000Y-5258802D01*
X49809669Y-5201589D01*
X50199999Y-5201589D01*
X50200000Y-5201588D01*
X50200000Y-4781891D01*
X50199999Y-4781888D01*
X50188396Y-4723552D01*
X50188395Y-4723549D01*
X50142258Y-4654501D01*
X50125649Y-4595613D01*
X50146827Y-4538210D01*
X50197700Y-4504217D01*
X50224573Y-4500500D01*
X56250086Y-4500500D01*
X56308277Y-4519407D01*
G37*
G04 #@! TD.AperFunction*
G04 #@! TD*
G04 #@! TA.AperFunction,Conductor*
G04 #@! TO.N,GND-A*
G36*
X31023499Y-15333163D02*
G01*
X32529798Y-16839460D01*
X32556631Y-16857390D01*
X32592728Y-16881511D01*
X32592730Y-16881512D01*
X32692031Y-16901264D01*
X32791333Y-16881512D01*
X32854265Y-16839462D01*
X32904869Y-16788856D01*
X32959385Y-16761079D01*
X33019817Y-16770650D01*
X33044877Y-16788856D01*
X34866504Y-18610483D01*
X34894281Y-18665000D01*
X34895500Y-18680487D01*
X34895500Y-21319512D01*
X34876593Y-21377703D01*
X34866504Y-21389516D01*
X33044876Y-23211143D01*
X32990359Y-23238920D01*
X32929927Y-23229349D01*
X32904869Y-23211143D01*
X32854266Y-23160541D01*
X32854260Y-23160537D01*
X32807620Y-23129371D01*
X32791334Y-23118488D01*
X32740053Y-23108288D01*
X32692031Y-23098736D01*
X32692030Y-23098736D01*
X32692029Y-23098736D01*
X32592730Y-23118487D01*
X32529798Y-23160537D01*
X32529794Y-23160541D01*
X31916048Y-23774288D01*
X31861531Y-23802065D01*
X31801099Y-23792494D01*
X31757834Y-23749229D01*
X31748263Y-23688797D01*
X31750418Y-23678659D01*
X31753676Y-23666503D01*
X31760633Y-23640538D01*
X31760633Y-22430625D01*
X31746356Y-22377345D01*
X31736475Y-22340467D01*
X31736474Y-22340466D01*
X31736474Y-22340464D01*
X31689804Y-22259628D01*
X31623801Y-22193625D01*
X31623798Y-22193623D01*
X29993104Y-20562929D01*
X29965327Y-20508412D01*
X29974898Y-20447980D01*
X29993104Y-20422921D01*
X30346007Y-20070018D01*
X30783671Y-19632355D01*
X30804901Y-19595583D01*
X30830341Y-19551519D01*
X30854500Y-19461358D01*
X30854500Y-15403170D01*
X30873407Y-15344979D01*
X30922907Y-15309015D01*
X30984093Y-15309015D01*
X31023499Y-15333163D01*
G37*
G04 #@! TD.AperFunction*
G04 #@! TA.AperFunction,Conductor*
G36*
X13870344Y-10373407D02*
G01*
X13882157Y-10383496D01*
X14416504Y-10917843D01*
X14419358Y-10923444D01*
X14424566Y-10926964D01*
X14433025Y-10950269D01*
X14444281Y-10972360D01*
X14445177Y-10983745D01*
X14445443Y-10984478D01*
X14445500Y-10986152D01*
X14445500Y-11073001D01*
X14448887Y-11085644D01*
X14449273Y-11096961D01*
X14432357Y-11155761D01*
X14384109Y-11193389D01*
X14329511Y-11195751D01*
X14329433Y-11196347D01*
X14326047Y-11195901D01*
X14324714Y-11195959D01*
X14323001Y-11195500D01*
X14176999Y-11195500D01*
X14035971Y-11233288D01*
X13909529Y-11306289D01*
X13806289Y-11409529D01*
X13733288Y-11535971D01*
X13695500Y-11676999D01*
X13695500Y-11823001D01*
X13733288Y-11964029D01*
X13806289Y-12090471D01*
X13866505Y-12150687D01*
X13894281Y-12205202D01*
X13895500Y-12220689D01*
X13895500Y-15312153D01*
X13876593Y-15370344D01*
X13866504Y-15382157D01*
X11630204Y-17618457D01*
X11630203Y-17618456D01*
X11564203Y-17684457D01*
X11564201Y-17684459D01*
X11564201Y-17684460D01*
X11523236Y-17755414D01*
X11517530Y-17765298D01*
X11517529Y-17765299D01*
X11493372Y-17855454D01*
X11493372Y-18023740D01*
X11474465Y-18081931D01*
X11428970Y-18116498D01*
X11341104Y-18149270D01*
X11224970Y-18236206D01*
X11224965Y-18236211D01*
X11138029Y-18352346D01*
X11087332Y-18488270D01*
X11087331Y-18488271D01*
X11080872Y-18548361D01*
X11080872Y-19271265D01*
X11061965Y-19329456D01*
X11051876Y-19341269D01*
X7549920Y-22843226D01*
X7549919Y-22843225D01*
X7483919Y-22909226D01*
X7437246Y-22990067D01*
X7427058Y-23028088D01*
X7393733Y-23079401D01*
X7336612Y-23101327D01*
X7312121Y-23099561D01*
X7307973Y-23098736D01*
X7307970Y-23098736D01*
X7307969Y-23098736D01*
X7294943Y-23101327D01*
X7208667Y-23118487D01*
X7145735Y-23160537D01*
X7145731Y-23160541D01*
X7095130Y-23211143D01*
X7040613Y-23238920D01*
X6980181Y-23229349D01*
X6955122Y-23211143D01*
X5133496Y-21389517D01*
X5105719Y-21335000D01*
X5104500Y-21319513D01*
X5104500Y-18680486D01*
X5123407Y-18622295D01*
X5133490Y-18610488D01*
X6955124Y-16788853D01*
X7009639Y-16761078D01*
X7070071Y-16770649D01*
X7095129Y-16788855D01*
X7127693Y-16821418D01*
X7145735Y-16839460D01*
X7172568Y-16857390D01*
X7208665Y-16881511D01*
X7208667Y-16881512D01*
X7307969Y-16901264D01*
X7407270Y-16881512D01*
X7470202Y-16839462D01*
X9078473Y-15231188D01*
X9132988Y-15203413D01*
X9193420Y-15212984D01*
X9236685Y-15256249D01*
X9247475Y-15301194D01*
X9247475Y-16674547D01*
X9228568Y-16732738D01*
X9203477Y-16756862D01*
X9121013Y-16811962D01*
X9015913Y-16917062D01*
X8933345Y-17040635D01*
X8876469Y-17177946D01*
X8847475Y-17323710D01*
X8847475Y-17472339D01*
X8876469Y-17618103D01*
X8933345Y-17755414D01*
X8967367Y-17806332D01*
X9015916Y-17878991D01*
X9121009Y-17984084D01*
X9244585Y-18066654D01*
X9381895Y-18123530D01*
X9527663Y-18152525D01*
X9527664Y-18152525D01*
X9676286Y-18152525D01*
X9676287Y-18152525D01*
X9822055Y-18123530D01*
X9959365Y-18066654D01*
X10082941Y-17984084D01*
X10188034Y-17878991D01*
X10270604Y-17755415D01*
X10327480Y-17618105D01*
X10356475Y-17472337D01*
X10356475Y-17353500D01*
X10375382Y-17295309D01*
X10424882Y-17259345D01*
X10455475Y-17254500D01*
X10574311Y-17254500D01*
X10574312Y-17254500D01*
X10720080Y-17225505D01*
X10857390Y-17168629D01*
X10980966Y-17086059D01*
X11086059Y-16980966D01*
X11168629Y-16857390D01*
X11225505Y-16720080D01*
X11252380Y-16584966D01*
X11282277Y-16531584D01*
X11337842Y-16505968D01*
X11368791Y-16507184D01*
X11398025Y-16512998D01*
X11476061Y-16497477D01*
X11525515Y-16464433D01*
X11822289Y-16167659D01*
X11546283Y-15891653D01*
X11597580Y-15862038D01*
X11658090Y-15801528D01*
X11687706Y-15750231D01*
X11963712Y-16026237D01*
X12260485Y-15729463D01*
X12293529Y-15680009D01*
X12309050Y-15601974D01*
X12293529Y-15523938D01*
X12260485Y-15474484D01*
X11963712Y-15177711D01*
X11687706Y-15453716D01*
X11658090Y-15402420D01*
X11597580Y-15341910D01*
X11546283Y-15312293D01*
X11822289Y-15036288D01*
X11525515Y-14739514D01*
X11476061Y-14706470D01*
X11398026Y-14690949D01*
X11319990Y-14706470D01*
X11270536Y-14739514D01*
X10973763Y-15036288D01*
X11249768Y-15312293D01*
X11198472Y-15341910D01*
X11137962Y-15402420D01*
X11108346Y-15453715D01*
X10832340Y-15177710D01*
X10535566Y-15474484D01*
X10502522Y-15523938D01*
X10487001Y-15601974D01*
X10487001Y-15601976D01*
X10492815Y-15631210D01*
X10485622Y-15691971D01*
X10444088Y-15736900D01*
X10415032Y-15747619D01*
X10279920Y-15774495D01*
X10142610Y-15831370D01*
X10110476Y-15852842D01*
X10051588Y-15869450D01*
X9994184Y-15848272D01*
X9960192Y-15797398D01*
X9956475Y-15770526D01*
X9956475Y-13335872D01*
X9975382Y-13277681D01*
X9985471Y-13265868D01*
X12867843Y-10383496D01*
X12922360Y-10355719D01*
X12937847Y-10354500D01*
X13812153Y-10354500D01*
X13870344Y-10373407D01*
G37*
G04 #@! TD.AperFunction*
G04 #@! TA.AperFunction,Conductor*
G36*
X24453797Y-8766519D02*
G01*
X24469881Y-8779544D01*
X24648059Y-8957721D01*
X24822334Y-9131996D01*
X24856989Y-9155153D01*
X24885264Y-9174047D01*
X24885266Y-9174048D01*
X24984567Y-9193800D01*
X25083869Y-9174048D01*
X25146801Y-9131998D01*
X25197405Y-9081392D01*
X25251921Y-9053615D01*
X25312353Y-9063186D01*
X25337413Y-9081392D01*
X27764878Y-11508857D01*
X27792655Y-11563374D01*
X27793874Y-11578861D01*
X27793874Y-12429310D01*
X27774967Y-12487501D01*
X27764880Y-12499311D01*
X27754743Y-12509448D01*
X27754741Y-12509450D01*
X27754741Y-12509451D01*
X27681740Y-12635893D01*
X27643952Y-12776921D01*
X27643952Y-12922923D01*
X27681740Y-13063951D01*
X27754741Y-13190393D01*
X27764879Y-13200531D01*
X27768504Y-13207646D01*
X27774967Y-13212342D01*
X27782130Y-13234390D01*
X27792655Y-13255046D01*
X27793874Y-13270533D01*
X27793874Y-13470052D01*
X27774967Y-13528243D01*
X27729472Y-13562810D01*
X27641606Y-13595582D01*
X27525472Y-13682518D01*
X27525467Y-13682523D01*
X27438531Y-13798658D01*
X27387834Y-13934582D01*
X27387833Y-13934583D01*
X27381374Y-13994673D01*
X27381374Y-14991173D01*
X27381375Y-14991179D01*
X27387833Y-15051264D01*
X27387833Y-15051265D01*
X27387834Y-15051267D01*
X27395498Y-15071814D01*
X27438531Y-15187191D01*
X27525467Y-15303326D01*
X27525472Y-15303331D01*
X27641606Y-15390267D01*
X27668149Y-15400167D01*
X27716063Y-15438219D01*
X27732460Y-15497166D01*
X27711077Y-15554493D01*
X27668149Y-15585683D01*
X27641606Y-15595582D01*
X27525472Y-15682518D01*
X27525467Y-15682523D01*
X27438531Y-15798658D01*
X27387834Y-15934582D01*
X27387833Y-15934583D01*
X27381374Y-15994673D01*
X27381374Y-16991173D01*
X27381375Y-16991179D01*
X27387833Y-17051264D01*
X27387833Y-17051265D01*
X27387834Y-17051267D01*
X27394574Y-17069338D01*
X27438531Y-17187191D01*
X27525467Y-17303326D01*
X27525472Y-17303331D01*
X27641608Y-17390268D01*
X27671516Y-17401423D01*
X27719431Y-17439473D01*
X27735829Y-17498420D01*
X27714447Y-17555748D01*
X27671520Y-17586938D01*
X27648345Y-17595582D01*
X27532210Y-17682518D01*
X27532205Y-17682523D01*
X27445269Y-17798658D01*
X27394572Y-17934582D01*
X27394571Y-17934583D01*
X27392864Y-17950468D01*
X27388158Y-17994248D01*
X27388112Y-17994673D01*
X27388112Y-18991173D01*
X27388113Y-18991179D01*
X27394571Y-19051264D01*
X27394571Y-19051265D01*
X27394572Y-19051267D01*
X27413481Y-19101964D01*
X27445269Y-19187191D01*
X27532205Y-19303326D01*
X27532210Y-19303331D01*
X27648344Y-19390267D01*
X27674887Y-19400167D01*
X27722801Y-19438219D01*
X27739198Y-19497166D01*
X27717815Y-19554493D01*
X27674887Y-19585683D01*
X27648344Y-19595582D01*
X27532210Y-19682518D01*
X27532205Y-19682523D01*
X27445269Y-19798658D01*
X27394572Y-19934582D01*
X27394571Y-19934583D01*
X27388112Y-19994673D01*
X27388112Y-20991173D01*
X27388113Y-20991179D01*
X27394571Y-21051264D01*
X27394571Y-21051265D01*
X27394572Y-21051267D01*
X27413481Y-21101964D01*
X27445269Y-21187191D01*
X27520113Y-21287172D01*
X27539849Y-21345087D01*
X27521774Y-21403542D01*
X27472792Y-21440208D01*
X27440859Y-21445500D01*
X27044365Y-21445500D01*
X26986174Y-21426593D01*
X26950210Y-21377093D01*
X26950210Y-21315907D01*
X26965111Y-21287172D01*
X26996380Y-21245401D01*
X27039954Y-21187192D01*
X27090652Y-21051267D01*
X27097112Y-20991180D01*
X27097111Y-19994671D01*
X27090652Y-19934583D01*
X27039954Y-19798658D01*
X26953018Y-19682523D01*
X26953013Y-19682518D01*
X26836877Y-19595581D01*
X26810335Y-19585681D01*
X26762421Y-19547629D01*
X26746025Y-19488682D01*
X26767409Y-19431355D01*
X26810338Y-19400166D01*
X26836879Y-19390267D01*
X26953016Y-19303329D01*
X27039954Y-19187192D01*
X27090652Y-19051267D01*
X27097112Y-18991180D01*
X27097111Y-17994671D01*
X27090652Y-17934583D01*
X27039954Y-17798658D01*
X27007583Y-17755415D01*
X26953018Y-17682523D01*
X26953013Y-17682518D01*
X26836879Y-17595582D01*
X26806967Y-17584426D01*
X26759053Y-17546374D01*
X26742656Y-17487427D01*
X26764039Y-17430100D01*
X26806969Y-17398910D01*
X26830139Y-17390268D01*
X26830139Y-17390267D01*
X26830141Y-17390267D01*
X26946278Y-17303329D01*
X27033216Y-17187192D01*
X27083914Y-17051267D01*
X27090374Y-16991180D01*
X27090373Y-15994671D01*
X27083914Y-15934583D01*
X27033216Y-15798658D01*
X26981418Y-15729463D01*
X26946280Y-15682523D01*
X26946275Y-15682518D01*
X26830139Y-15595581D01*
X26803597Y-15585681D01*
X26755683Y-15547629D01*
X26739287Y-15488682D01*
X26760671Y-15431355D01*
X26803600Y-15400166D01*
X26830141Y-15390267D01*
X26946278Y-15303329D01*
X27033216Y-15187192D01*
X27083914Y-15051267D01*
X27090374Y-14991180D01*
X27090373Y-13994671D01*
X27083914Y-13934583D01*
X27033216Y-13798658D01*
X26959392Y-13700039D01*
X26946280Y-13682523D01*
X26946275Y-13682518D01*
X26830140Y-13595582D01*
X26694216Y-13544885D01*
X26694215Y-13544884D01*
X26653150Y-13540470D01*
X26634129Y-13538425D01*
X26634125Y-13538425D01*
X26012625Y-13538425D01*
X26012621Y-13538425D01*
X26012620Y-13538426D01*
X25982576Y-13541655D01*
X25952531Y-13544885D01*
X25946501Y-13546310D01*
X25945892Y-13543736D01*
X25895729Y-13545869D01*
X25852293Y-13520505D01*
X25803296Y-13471508D01*
X25722460Y-13424838D01*
X25722457Y-13424837D01*
X25722456Y-13424836D01*
X25632301Y-13400679D01*
X25632299Y-13400679D01*
X18593024Y-13400679D01*
X18585426Y-13398210D01*
X18577537Y-13399460D01*
X18556881Y-13388935D01*
X18534833Y-13381772D01*
X18523027Y-13371689D01*
X18449838Y-13298500D01*
X18422063Y-13243986D01*
X18431634Y-13183554D01*
X18474899Y-13140289D01*
X18519844Y-13129499D01*
X18625064Y-13129499D01*
X18625066Y-13129499D01*
X18680688Y-13118436D01*
X18719310Y-13118436D01*
X18774933Y-13129500D01*
X19275066Y-13129499D01*
X19330688Y-13118436D01*
X19369310Y-13118436D01*
X19424933Y-13129500D01*
X19925066Y-13129499D01*
X19980688Y-13118436D01*
X20019310Y-13118436D01*
X20074933Y-13129500D01*
X20575066Y-13129499D01*
X20630688Y-13118436D01*
X20669310Y-13118436D01*
X20724933Y-13129500D01*
X21225066Y-13129499D01*
X21280688Y-13118436D01*
X21319310Y-13118436D01*
X21374933Y-13129500D01*
X21875066Y-13129499D01*
X21930688Y-13118436D01*
X21969310Y-13118436D01*
X22024933Y-13129500D01*
X22525066Y-13129499D01*
X22599301Y-13114734D01*
X22633796Y-13091685D01*
X22688798Y-13075000D01*
X22824999Y-13075000D01*
X22825000Y-13074999D01*
X22825000Y-12100001D01*
X23025000Y-12100001D01*
X23025000Y-13074999D01*
X23025001Y-13075000D01*
X23169697Y-13075000D01*
X23169700Y-13074999D01*
X23230686Y-13062869D01*
X23269314Y-13062869D01*
X23330299Y-13074999D01*
X23330303Y-13075000D01*
X23474999Y-13075000D01*
X23475000Y-13074999D01*
X23475000Y-12100001D01*
X23675000Y-12100001D01*
X23675000Y-13074999D01*
X23675001Y-13075000D01*
X23819697Y-13075000D01*
X23819700Y-13074999D01*
X23880686Y-13062869D01*
X23919314Y-13062869D01*
X23980299Y-13074999D01*
X23980303Y-13075000D01*
X24124999Y-13075000D01*
X24125000Y-13074999D01*
X24125000Y-12100001D01*
X24325000Y-12100001D01*
X24325000Y-13074999D01*
X24325001Y-13075000D01*
X24469697Y-13075000D01*
X24469700Y-13074999D01*
X24528036Y-13063396D01*
X24594189Y-13019193D01*
X24594193Y-13019189D01*
X24638396Y-12953036D01*
X24649999Y-12894700D01*
X24650000Y-12894697D01*
X24650000Y-12100001D01*
X24649999Y-12100000D01*
X24325001Y-12100000D01*
X24325000Y-12100001D01*
X24125000Y-12100001D01*
X24124999Y-12100000D01*
X23675001Y-12100000D01*
X23675000Y-12100001D01*
X23475000Y-12100001D01*
X23474999Y-12100000D01*
X23025001Y-12100000D01*
X23025000Y-12100001D01*
X22825000Y-12100001D01*
X22825000Y-10925001D01*
X23025000Y-10925001D01*
X23025000Y-11899999D01*
X23025001Y-11900000D01*
X23474999Y-11900000D01*
X23475000Y-11899999D01*
X23475000Y-10925001D01*
X23675000Y-10925001D01*
X23675000Y-11899999D01*
X23675001Y-11900000D01*
X24124999Y-11900000D01*
X24125000Y-11899999D01*
X24125000Y-10925001D01*
X24124999Y-10925000D01*
X23980299Y-10925000D01*
X23919314Y-10937131D01*
X23880686Y-10937131D01*
X23819700Y-10925000D01*
X23675001Y-10925000D01*
X23675000Y-10925001D01*
X23475000Y-10925001D01*
X23474999Y-10925000D01*
X23330299Y-10925000D01*
X23269314Y-10937131D01*
X23230686Y-10937131D01*
X23169700Y-10925000D01*
X23025001Y-10925000D01*
X23025000Y-10925001D01*
X22825000Y-10925001D01*
X22824999Y-10925000D01*
X22728500Y-10925000D01*
X22670309Y-10906093D01*
X22634345Y-10856593D01*
X22629500Y-10826000D01*
X22629500Y-10695689D01*
X22648407Y-10637498D01*
X22658490Y-10625691D01*
X22693711Y-10590471D01*
X22766712Y-10464029D01*
X22804500Y-10323001D01*
X22804500Y-10176999D01*
X22766712Y-10035971D01*
X22747676Y-10002999D01*
X22734955Y-9943151D01*
X22759842Y-9887255D01*
X22812831Y-9856663D01*
X22833413Y-9854500D01*
X23812153Y-9854500D01*
X23870344Y-9873407D01*
X23882157Y-9883496D01*
X24666504Y-10667843D01*
X24668590Y-10671937D01*
X24672480Y-10674380D01*
X24679015Y-10692399D01*
X24694281Y-10722360D01*
X24695274Y-10731161D01*
X24695500Y-10734499D01*
X24695500Y-10823001D01*
X24703515Y-10852915D01*
X24704167Y-10862540D01*
X24698937Y-10883317D01*
X24697816Y-10904707D01*
X24691632Y-10912343D01*
X24689233Y-10921875D01*
X24672790Y-10935610D01*
X24659310Y-10952256D01*
X24649818Y-10954798D01*
X24642275Y-10961100D01*
X24620898Y-10962546D01*
X24600209Y-10968090D01*
X24589849Y-10964648D01*
X24581229Y-10965232D01*
X24569575Y-10957913D01*
X24550391Y-10951541D01*
X24528036Y-10936603D01*
X24469700Y-10925000D01*
X24325001Y-10925000D01*
X24325000Y-10925001D01*
X24325000Y-11899999D01*
X24325001Y-11900000D01*
X24649999Y-11900000D01*
X24650000Y-11899999D01*
X24650000Y-11173189D01*
X24668907Y-11114998D01*
X24718407Y-11079034D01*
X24779593Y-11079034D01*
X24819001Y-11103183D01*
X24909529Y-11193711D01*
X25035971Y-11266712D01*
X25176999Y-11304500D01*
X25177001Y-11304500D01*
X25322999Y-11304500D01*
X25323001Y-11304500D01*
X25464029Y-11266712D01*
X25590471Y-11193711D01*
X25693711Y-11090471D01*
X25766712Y-10964029D01*
X25804500Y-10823001D01*
X25804500Y-10676999D01*
X25766712Y-10535971D01*
X25693711Y-10409529D01*
X25590471Y-10306289D01*
X25464029Y-10233288D01*
X25323001Y-10195500D01*
X25322999Y-10195500D01*
X25237847Y-10195500D01*
X25179656Y-10176593D01*
X25167843Y-10166504D01*
X24717668Y-9716329D01*
X24217668Y-9216329D01*
X24217665Y-9216327D01*
X24213079Y-9211741D01*
X24214468Y-9210351D01*
X24184934Y-9167382D01*
X24186533Y-9106217D01*
X24194116Y-9089768D01*
X24266712Y-8964029D01*
X24304252Y-8823922D01*
X24337575Y-8772611D01*
X24394696Y-8750684D01*
X24453797Y-8766519D01*
G37*
G04 #@! TD.AperFunction*
G04 #@! TA.AperFunction,Conductor*
G36*
X16820344Y-9873407D02*
G01*
X16832157Y-9883496D01*
X17650157Y-10701496D01*
X17659132Y-10719111D01*
X17671869Y-10734228D01*
X17672697Y-10745734D01*
X17677934Y-10756013D01*
X17674841Y-10775536D01*
X17676261Y-10795255D01*
X17670167Y-10805050D01*
X17668363Y-10816445D01*
X17654384Y-10830423D01*
X17643943Y-10847209D01*
X17633950Y-10850857D01*
X17625098Y-10859710D01*
X17587259Y-10870245D01*
X17583706Y-10870500D01*
X17474934Y-10870501D01*
X17413263Y-10882766D01*
X17407107Y-10883210D01*
X17400444Y-10881563D01*
X17380688Y-10881563D01*
X17325069Y-10870500D01*
X16824936Y-10870500D01*
X16824927Y-10870501D01*
X16769313Y-10881563D01*
X16730688Y-10881563D01*
X16675069Y-10870500D01*
X16174936Y-10870500D01*
X16174927Y-10870501D01*
X16119313Y-10881563D01*
X16080688Y-10881563D01*
X16025072Y-10870500D01*
X16025067Y-10870500D01*
X15615326Y-10870500D01*
X15557135Y-10851593D01*
X15521171Y-10802093D01*
X15519700Y-10797123D01*
X15516712Y-10785971D01*
X15443711Y-10659529D01*
X15340471Y-10556289D01*
X15214029Y-10483288D01*
X15073001Y-10445500D01*
X15072999Y-10445500D01*
X14987847Y-10445500D01*
X14929656Y-10426593D01*
X14917843Y-10416504D01*
X14524843Y-10023504D01*
X14497066Y-9968987D01*
X14506637Y-9908555D01*
X14549902Y-9865290D01*
X14594847Y-9854500D01*
X16762153Y-9854500D01*
X16820344Y-9873407D01*
G37*
G04 #@! TD.AperFunction*
G04 #@! TA.AperFunction,Conductor*
G36*
X21377704Y-5123407D02*
G01*
X21389517Y-5133496D01*
X23211144Y-6955123D01*
X23238921Y-7009640D01*
X23229350Y-7070072D01*
X23211144Y-7095130D01*
X23160541Y-7145733D01*
X23118488Y-7208665D01*
X23098736Y-7307970D01*
X23118487Y-7407269D01*
X23160537Y-7470201D01*
X23160541Y-7470205D01*
X23720454Y-8030117D01*
X23748231Y-8084634D01*
X23738660Y-8145066D01*
X23695395Y-8188331D01*
X23676071Y-8195748D01*
X23535971Y-8233288D01*
X23414830Y-8303229D01*
X23409526Y-8306291D01*
X23349313Y-8366504D01*
X23294796Y-8394281D01*
X23279310Y-8395500D01*
X21246671Y-8395500D01*
X21153328Y-8395500D01*
X21127150Y-8402514D01*
X21100972Y-8409529D01*
X21100971Y-8409528D01*
X21063170Y-8419658D01*
X21063168Y-8419658D01*
X21063168Y-8419659D01*
X21055021Y-8424363D01*
X20982329Y-8466331D01*
X20916328Y-8532331D01*
X20916329Y-8532332D01*
X20916327Y-8532334D01*
X18807332Y-10641328D01*
X18807332Y-10641329D01*
X18770004Y-10678657D01*
X18715487Y-10706434D01*
X18655055Y-10696863D01*
X18629996Y-10678657D01*
X18592668Y-10641329D01*
X17888151Y-9936812D01*
X17167668Y-9216329D01*
X17086832Y-9169659D01*
X17086829Y-9169658D01*
X17086828Y-9169657D01*
X16996673Y-9145500D01*
X16996671Y-9145500D01*
X15403172Y-9145500D01*
X15344981Y-9126593D01*
X15309017Y-9077093D01*
X15309017Y-9015907D01*
X15333168Y-8976496D01*
X15486663Y-8823001D01*
X16839460Y-7470202D01*
X16881512Y-7407270D01*
X16901264Y-7307969D01*
X16881512Y-7208667D01*
X16881512Y-7208666D01*
X16839462Y-7145735D01*
X16839460Y-7145733D01*
X16788855Y-7095128D01*
X16761078Y-7040614D01*
X16770649Y-6980182D01*
X16788852Y-6955125D01*
X18610483Y-5133496D01*
X18665000Y-5105719D01*
X18680487Y-5104500D01*
X21319513Y-5104500D01*
X21377704Y-5123407D01*
G37*
G04 #@! TD.AperFunction*
G04 #@! TA.AperFunction,Conductor*
G36*
X33001844Y-500569D02*
G01*
X33482012Y-518535D01*
X33489375Y-519087D01*
X33965026Y-572680D01*
X33972346Y-573784D01*
X34207487Y-618275D01*
X34442632Y-662766D01*
X34449844Y-664412D01*
X34912193Y-788299D01*
X34919264Y-790481D01*
X35371030Y-948560D01*
X35377918Y-951262D01*
X35816635Y-1142673D01*
X35823306Y-1145886D01*
X36246471Y-1369535D01*
X36252882Y-1373236D01*
X36658167Y-1627893D01*
X36664283Y-1632063D01*
X37049399Y-1916292D01*
X37055175Y-1920898D01*
X37344241Y-2169659D01*
X37417964Y-2233103D01*
X37423392Y-2238138D01*
X37761861Y-2576607D01*
X37766896Y-2582035D01*
X38055743Y-2917682D01*
X38079096Y-2944818D01*
X38083712Y-2950606D01*
X38367935Y-3335715D01*
X38372106Y-3341832D01*
X38626763Y-3747117D01*
X38630464Y-3753528D01*
X38854113Y-4176693D01*
X38857326Y-4183364D01*
X39048735Y-4622077D01*
X39051439Y-4628969D01*
X39209518Y-5080735D01*
X39211701Y-5087809D01*
X39335586Y-5550152D01*
X39337233Y-5557370D01*
X39426215Y-6027653D01*
X39427319Y-6034973D01*
X39480911Y-6510613D01*
X39481464Y-6517996D01*
X39499431Y-6998155D01*
X39499500Y-7001857D01*
X39499500Y-9118092D01*
X39499694Y-9120555D01*
X39500000Y-9128330D01*
X39500000Y-16371661D01*
X39499695Y-16379424D01*
X39499500Y-16381903D01*
X39499500Y-32998142D01*
X39499431Y-33001844D01*
X39481464Y-33482003D01*
X39480911Y-33489386D01*
X39427319Y-33965026D01*
X39426215Y-33972346D01*
X39337233Y-34442629D01*
X39335586Y-34449847D01*
X39211701Y-34912190D01*
X39209518Y-34919264D01*
X39051439Y-35371030D01*
X39048735Y-35377922D01*
X38857326Y-35816635D01*
X38854113Y-35823306D01*
X38630464Y-36246471D01*
X38626763Y-36252882D01*
X38372106Y-36658167D01*
X38367935Y-36664284D01*
X38083712Y-37049393D01*
X38079096Y-37055181D01*
X37766896Y-37417964D01*
X37761861Y-37423392D01*
X37423392Y-37761861D01*
X37417964Y-37766896D01*
X37055181Y-38079096D01*
X37049393Y-38083712D01*
X36664284Y-38367935D01*
X36658167Y-38372106D01*
X36252882Y-38626763D01*
X36246471Y-38630464D01*
X35823306Y-38854113D01*
X35816635Y-38857326D01*
X35377922Y-39048735D01*
X35371030Y-39051439D01*
X34919264Y-39209518D01*
X34912190Y-39211701D01*
X34449847Y-39335586D01*
X34442629Y-39337233D01*
X33972346Y-39426215D01*
X33965026Y-39427319D01*
X33489386Y-39480911D01*
X33482003Y-39481464D01*
X33001844Y-39499431D01*
X32998142Y-39499500D01*
X7001858Y-39499500D01*
X6998156Y-39499431D01*
X6517996Y-39481464D01*
X6510613Y-39480911D01*
X6034973Y-39427319D01*
X6027653Y-39426215D01*
X5557370Y-39337233D01*
X5550152Y-39335586D01*
X5087809Y-39211701D01*
X5080735Y-39209518D01*
X4628969Y-39051439D01*
X4622077Y-39048735D01*
X4183364Y-38857326D01*
X4176693Y-38854113D01*
X3753528Y-38630464D01*
X3747117Y-38626763D01*
X3341832Y-38372106D01*
X3335715Y-38367935D01*
X2950606Y-38083712D01*
X2944818Y-38079096D01*
X2872326Y-38016712D01*
X2601524Y-37783668D01*
X2582035Y-37766896D01*
X2576607Y-37761861D01*
X2238138Y-37423392D01*
X2233103Y-37417964D01*
X1973296Y-37116063D01*
X1920898Y-37055175D01*
X1916287Y-37049393D01*
X1908792Y-37039238D01*
X1632063Y-36664283D01*
X1627893Y-36658167D01*
X1574378Y-36572999D01*
X1373236Y-36252882D01*
X1369535Y-36246471D01*
X1145886Y-35823306D01*
X1142673Y-35816635D01*
X951264Y-35377922D01*
X948560Y-35371030D01*
X790481Y-34919264D01*
X788298Y-34912190D01*
X759251Y-34803787D01*
X664412Y-34449844D01*
X662766Y-34442629D01*
X573784Y-33972346D01*
X572680Y-33965026D01*
X569058Y-33932877D01*
X519087Y-33489375D01*
X518535Y-33482003D01*
X500569Y-33001844D01*
X500500Y-32998142D01*
X500500Y-11692031D01*
X2098736Y-11692031D01*
X2118487Y-11791332D01*
X2118487Y-11791333D01*
X2154718Y-11845555D01*
X2160538Y-11854265D01*
X2219777Y-11913504D01*
X2247555Y-11968019D01*
X2237984Y-12028451D01*
X2235512Y-12033005D01*
X2205912Y-12084275D01*
X2205911Y-12084277D01*
X2181754Y-12174432D01*
X2181754Y-27825567D01*
X2205911Y-27915722D01*
X2205913Y-27915727D01*
X2235511Y-27966993D01*
X2248232Y-28026842D01*
X2223344Y-28082737D01*
X2219779Y-28086494D01*
X2160541Y-28145733D01*
X2118488Y-28208665D01*
X2098736Y-28307970D01*
X2118487Y-28407269D01*
X2160537Y-28470200D01*
X2160538Y-28470202D01*
X3822334Y-30131996D01*
X3864190Y-30159965D01*
X3885264Y-30174047D01*
X3885266Y-30174048D01*
X3984567Y-30193800D01*
X4083869Y-30174048D01*
X4146801Y-30131998D01*
X4314540Y-29964257D01*
X4369057Y-29936480D01*
X4384544Y-29935261D01*
X7785071Y-29935261D01*
X7785071Y-29935260D01*
X7875231Y-29911102D01*
X7956067Y-29864432D01*
X11077423Y-26743076D01*
X11131940Y-26715299D01*
X11147427Y-26714080D01*
X11232579Y-26714080D01*
X11232581Y-26714080D01*
X11373609Y-26676292D01*
X11500051Y-26603291D01*
X11603291Y-26500051D01*
X11676292Y-26373609D01*
X11714080Y-26232581D01*
X11714080Y-26147425D01*
X11716548Y-26139827D01*
X11715299Y-26131938D01*
X11725823Y-26111282D01*
X11732987Y-26089234D01*
X11743065Y-26077432D01*
X11790391Y-26030106D01*
X11844906Y-26002331D01*
X11860393Y-26001112D01*
X12158621Y-26001112D01*
X12158626Y-26001112D01*
X12218714Y-25994653D01*
X12354639Y-25943955D01*
X12470776Y-25857017D01*
X12557714Y-25740880D01*
X12608412Y-25604955D01*
X12614872Y-25544868D01*
X12614871Y-24548359D01*
X12608412Y-24488271D01*
X12557714Y-24352346D01*
X12523397Y-24306503D01*
X12470778Y-24236211D01*
X12470773Y-24236206D01*
X12354637Y-24149269D01*
X12328095Y-24139369D01*
X12280181Y-24101317D01*
X12263785Y-24042370D01*
X12285169Y-23985043D01*
X12328098Y-23953854D01*
X12354639Y-23943955D01*
X12470776Y-23857017D01*
X12557714Y-23740880D01*
X12608412Y-23604955D01*
X12614872Y-23544868D01*
X12614871Y-22548359D01*
X12608412Y-22488271D01*
X12557714Y-22352346D01*
X12545029Y-22335401D01*
X12470778Y-22236211D01*
X12470773Y-22236206D01*
X12354637Y-22149269D01*
X12328095Y-22139369D01*
X12280181Y-22101317D01*
X12263785Y-22042370D01*
X12285169Y-21985043D01*
X12328098Y-21953854D01*
X12354639Y-21943955D01*
X12470776Y-21857017D01*
X12557714Y-21740880D01*
X12608412Y-21604955D01*
X12614872Y-21544868D01*
X12614871Y-20548359D01*
X12608412Y-20488271D01*
X12557714Y-20352346D01*
X12540611Y-20329499D01*
X12470778Y-20236211D01*
X12470773Y-20236206D01*
X12354637Y-20149269D01*
X12328095Y-20139369D01*
X12280181Y-20101317D01*
X12263785Y-20042370D01*
X12285169Y-19985043D01*
X12328098Y-19953854D01*
X12354639Y-19943955D01*
X12470776Y-19857017D01*
X12557714Y-19740880D01*
X12608412Y-19604955D01*
X12614872Y-19544868D01*
X12614871Y-18548359D01*
X12608412Y-18488271D01*
X12557714Y-18352346D01*
X12551368Y-18343869D01*
X12470778Y-18236211D01*
X12470773Y-18236206D01*
X12354637Y-18149269D01*
X12315014Y-18134490D01*
X12267101Y-18096439D01*
X12250704Y-18037491D01*
X12272087Y-17980164D01*
X12279600Y-17971738D01*
X14533671Y-15717668D01*
X14539264Y-15707979D01*
X14584731Y-15667040D01*
X14645581Y-15660643D01*
X14698570Y-15691234D01*
X14710732Y-15707974D01*
X14716329Y-15717668D01*
X16900159Y-17901498D01*
X16927935Y-17956013D01*
X16918364Y-18016445D01*
X16875099Y-18059710D01*
X16845962Y-18069230D01*
X16838104Y-18070500D01*
X16824934Y-18070501D01*
X16767577Y-18081908D01*
X16765809Y-18082195D01*
X16761732Y-18081563D01*
X16730688Y-18081563D01*
X16675069Y-18070500D01*
X16174936Y-18070500D01*
X16174927Y-18070501D01*
X16119313Y-18081563D01*
X16080688Y-18081563D01*
X16025069Y-18070500D01*
X15524936Y-18070500D01*
X15524929Y-18070501D01*
X15450699Y-18085265D01*
X15450697Y-18085266D01*
X15366519Y-18141513D01*
X15366514Y-18141518D01*
X15332290Y-18192738D01*
X15310266Y-18225699D01*
X15301798Y-18268271D01*
X15295500Y-18299932D01*
X15295500Y-18593113D01*
X15276593Y-18651304D01*
X15227093Y-18687268D01*
X15196500Y-18692113D01*
X14538871Y-18692113D01*
X14480680Y-18673206D01*
X14444716Y-18623706D01*
X14439871Y-18593113D01*
X14439871Y-18548364D01*
X14439871Y-18548361D01*
X14439871Y-18548359D01*
X14433412Y-18488271D01*
X14382714Y-18352346D01*
X14376368Y-18343869D01*
X14295778Y-18236211D01*
X14295773Y-18236206D01*
X14179638Y-18149270D01*
X14043714Y-18098573D01*
X14043713Y-18098572D01*
X14003162Y-18094213D01*
X13983627Y-18092113D01*
X13983623Y-18092113D01*
X13362123Y-18092113D01*
X13362117Y-18092114D01*
X13302032Y-18098572D01*
X13302030Y-18098573D01*
X13166105Y-18149270D01*
X13049970Y-18236206D01*
X13049965Y-18236211D01*
X12963029Y-18352346D01*
X12912332Y-18488270D01*
X12912331Y-18488271D01*
X12905872Y-18548361D01*
X12905872Y-19544861D01*
X12905873Y-19544867D01*
X12912331Y-19604952D01*
X12912331Y-19604953D01*
X12912332Y-19604955D01*
X12922552Y-19632355D01*
X12963029Y-19740879D01*
X13049965Y-19857014D01*
X13049970Y-19857019D01*
X13166104Y-19943955D01*
X13192647Y-19953855D01*
X13240561Y-19991907D01*
X13256958Y-20050854D01*
X13235575Y-20108181D01*
X13192647Y-20139371D01*
X13166104Y-20149270D01*
X13049970Y-20236206D01*
X13049965Y-20236211D01*
X12963029Y-20352346D01*
X12912332Y-20488270D01*
X12912331Y-20488271D01*
X12905872Y-20548361D01*
X12905872Y-21544861D01*
X12905873Y-21544867D01*
X12912331Y-21604952D01*
X12912332Y-21604954D01*
X12963029Y-21740879D01*
X13049965Y-21857014D01*
X13049970Y-21857019D01*
X13166104Y-21943955D01*
X13192647Y-21953855D01*
X13240561Y-21991907D01*
X13256958Y-22050854D01*
X13235575Y-22108181D01*
X13192647Y-22139371D01*
X13166104Y-22149270D01*
X13049970Y-22236206D01*
X13049965Y-22236211D01*
X12963029Y-22352346D01*
X12912332Y-22488270D01*
X12912331Y-22488271D01*
X12905872Y-22548361D01*
X12905872Y-23544861D01*
X12905873Y-23544867D01*
X12912331Y-23604952D01*
X12912332Y-23604954D01*
X12963029Y-23740879D01*
X13049965Y-23857014D01*
X13049970Y-23857019D01*
X13166104Y-23943955D01*
X13192647Y-23953855D01*
X13240561Y-23991907D01*
X13256958Y-24050854D01*
X13235575Y-24108181D01*
X13192647Y-24139371D01*
X13166104Y-24149270D01*
X13049970Y-24236206D01*
X13049965Y-24236211D01*
X12963029Y-24352346D01*
X12912332Y-24488270D01*
X12912331Y-24488271D01*
X12905872Y-24548361D01*
X12905872Y-25544861D01*
X12905873Y-25544867D01*
X12912331Y-25604952D01*
X12912331Y-25604953D01*
X12912332Y-25604955D01*
X12918257Y-25620841D01*
X12963029Y-25740879D01*
X13049965Y-25857014D01*
X13049970Y-25857019D01*
X13093168Y-25889356D01*
X13166105Y-25943955D01*
X13302030Y-25994653D01*
X13362117Y-26001113D01*
X13983626Y-26001112D01*
X14043714Y-25994653D01*
X14179639Y-25943955D01*
X14237172Y-25900887D01*
X14295087Y-25881151D01*
X14353542Y-25899226D01*
X14390208Y-25948208D01*
X14395500Y-25980141D01*
X14395500Y-27282964D01*
X14376593Y-27341155D01*
X14366509Y-27352961D01*
X14280985Y-27438486D01*
X14207984Y-27564928D01*
X14170196Y-27705956D01*
X14170196Y-27851958D01*
X14207984Y-27992986D01*
X14280985Y-28119428D01*
X14341201Y-28179644D01*
X14368977Y-28234159D01*
X14370196Y-28249646D01*
X14370196Y-29837457D01*
X14351289Y-29895648D01*
X14341200Y-29907461D01*
X12322891Y-31925770D01*
X12322890Y-31925769D01*
X12256890Y-31991770D01*
X12256888Y-31991772D01*
X12256888Y-31991773D01*
X12225193Y-32046671D01*
X12210217Y-32072611D01*
X12210216Y-32072612D01*
X12186059Y-32162767D01*
X12186059Y-33494136D01*
X12167152Y-33552327D01*
X12157063Y-33564139D01*
X11989325Y-33731877D01*
X11947272Y-33794809D01*
X11947272Y-33794811D01*
X11928034Y-33891532D01*
X11925618Y-33903677D01*
X11922980Y-33903152D01*
X11908613Y-33947371D01*
X11859113Y-33983335D01*
X11842940Y-33985896D01*
X11843016Y-33986278D01*
X11734151Y-34007931D01*
X11671219Y-34049981D01*
X11671210Y-34049989D01*
X10928665Y-34792537D01*
X10886612Y-34855469D01*
X10883389Y-34871672D01*
X10869061Y-34943711D01*
X10864958Y-34964337D01*
X10862320Y-34963812D01*
X10847953Y-35008031D01*
X10798453Y-35043995D01*
X10782280Y-35046556D01*
X10782356Y-35046938D01*
X10673491Y-35068591D01*
X10610559Y-35110641D01*
X10610550Y-35110649D01*
X9868005Y-35853197D01*
X9825952Y-35916129D01*
X9806200Y-36015434D01*
X9825951Y-36114733D01*
X9868001Y-36177664D01*
X9868002Y-36177666D01*
X11529798Y-37839460D01*
X11552306Y-37854500D01*
X11592728Y-37881511D01*
X11592730Y-37881512D01*
X11692031Y-37901264D01*
X11791333Y-37881512D01*
X11854265Y-37839462D01*
X11904948Y-37788777D01*
X11959464Y-37761000D01*
X12019896Y-37770571D01*
X12035217Y-37780237D01*
X12039689Y-37783668D01*
X12039692Y-37783671D01*
X12120528Y-37830341D01*
X12120530Y-37830341D01*
X12120531Y-37830342D01*
X12154552Y-37839458D01*
X12210686Y-37854499D01*
X12210688Y-37854500D01*
X12210689Y-37854500D01*
X12529310Y-37854500D01*
X12587501Y-37873407D01*
X12599313Y-37883496D01*
X12648049Y-37932231D01*
X12659529Y-37943711D01*
X12785971Y-38016712D01*
X12926999Y-38054500D01*
X12927001Y-38054500D01*
X13072999Y-38054500D01*
X13073001Y-38054500D01*
X13214029Y-38016712D01*
X13340471Y-37943711D01*
X13443711Y-37840471D01*
X13516712Y-37714029D01*
X13554500Y-37573001D01*
X13554500Y-37426999D01*
X13516712Y-37285971D01*
X13443711Y-37159529D01*
X13340471Y-37056289D01*
X13310934Y-37039235D01*
X13307347Y-37035252D01*
X13302246Y-37033595D01*
X13287163Y-37012835D01*
X13269995Y-36993768D01*
X13269434Y-36988433D01*
X13266282Y-36984095D01*
X13266281Y-36958439D01*
X13263599Y-36932918D01*
X13266281Y-36928272D01*
X13266281Y-36922910D01*
X13281362Y-36902151D01*
X13294192Y-36879930D01*
X13299091Y-36877748D01*
X13302244Y-36873409D01*
X13326644Y-36865480D01*
X13350087Y-36855043D01*
X13360435Y-36854501D01*
X13425351Y-36854501D01*
X13425354Y-36854500D01*
X13431429Y-36854500D01*
X13529310Y-36854500D01*
X13587501Y-36873407D01*
X13599313Y-36883496D01*
X13638725Y-36922907D01*
X13659529Y-36943711D01*
X13785971Y-37016712D01*
X13926999Y-37054500D01*
X13927001Y-37054500D01*
X14072999Y-37054500D01*
X14073001Y-37054500D01*
X14214029Y-37016712D01*
X14340471Y-36943711D01*
X14443711Y-36840471D01*
X14516712Y-36714029D01*
X14554500Y-36573001D01*
X14554500Y-36426999D01*
X14516712Y-36285971D01*
X14443711Y-36159529D01*
X14340471Y-36056289D01*
X14214029Y-35983288D01*
X14073001Y-35945500D01*
X13961680Y-35945500D01*
X13903489Y-35926593D01*
X13867525Y-35877093D01*
X13867525Y-35815907D01*
X13903489Y-35766407D01*
X13906677Y-35764185D01*
X13912653Y-35760192D01*
X13975585Y-35718142D01*
X14718140Y-34975585D01*
X14760192Y-34912653D01*
X14779944Y-34813351D01*
X14779943Y-34813349D01*
X14781846Y-34803787D01*
X14784483Y-34804311D01*
X14798851Y-34760093D01*
X14848351Y-34724129D01*
X14864523Y-34721567D01*
X14864448Y-34721186D01*
X14874010Y-34719283D01*
X14874011Y-34719284D01*
X14973313Y-34699532D01*
X15036245Y-34657482D01*
X15086849Y-34606876D01*
X15141365Y-34579099D01*
X15201797Y-34588670D01*
X15226857Y-34606876D01*
X15337649Y-34717668D01*
X15337648Y-34717668D01*
X15380074Y-34760093D01*
X15403652Y-34783671D01*
X15484488Y-34830341D01*
X15543110Y-34846048D01*
X15587488Y-34871671D01*
X15628008Y-34912190D01*
X15659529Y-34943711D01*
X15785971Y-35016712D01*
X15926999Y-35054500D01*
X15927001Y-35054500D01*
X16072999Y-35054500D01*
X16073001Y-35054500D01*
X16214029Y-35016712D01*
X16340471Y-34943711D01*
X16443711Y-34840471D01*
X16516712Y-34714029D01*
X16554500Y-34573001D01*
X16554500Y-34426999D01*
X16516712Y-34285971D01*
X16448782Y-34168313D01*
X16436061Y-34108467D01*
X16460947Y-34052571D01*
X16513935Y-34021978D01*
X16560139Y-34023187D01*
X16676999Y-34054500D01*
X16677001Y-34054500D01*
X16822999Y-34054500D01*
X16823001Y-34054500D01*
X16964029Y-34016712D01*
X17090471Y-33943711D01*
X17193711Y-33840471D01*
X17266712Y-33714029D01*
X17304500Y-33573001D01*
X17304500Y-33426999D01*
X17266712Y-33285971D01*
X17193711Y-33159529D01*
X17090471Y-33056289D01*
X16964029Y-32983288D01*
X16964028Y-32983287D01*
X16964025Y-32983286D01*
X16918703Y-32971142D01*
X16867389Y-32937818D01*
X16845463Y-32880696D01*
X16861299Y-32821596D01*
X16861951Y-32820605D01*
X16881512Y-32791333D01*
X16901264Y-32692031D01*
X16881512Y-32592730D01*
X16839462Y-32529798D01*
X15177666Y-30868004D01*
X15156590Y-30853921D01*
X15114735Y-30825952D01*
X15065083Y-30816076D01*
X15015433Y-30806200D01*
X15015432Y-30806200D01*
X14916131Y-30825951D01*
X14853199Y-30868001D01*
X14853190Y-30868009D01*
X14110645Y-31610557D01*
X14068592Y-31673489D01*
X14046938Y-31782357D01*
X14044300Y-31781832D01*
X14029933Y-31826051D01*
X13980433Y-31862015D01*
X13964260Y-31864576D01*
X13964336Y-31864958D01*
X13855471Y-31886611D01*
X13792539Y-31928661D01*
X13792530Y-31928669D01*
X13064063Y-32657139D01*
X13043410Y-32667661D01*
X13024652Y-32681291D01*
X13016662Y-32681291D01*
X13009546Y-32684917D01*
X12986651Y-32681291D01*
X12963466Y-32681291D01*
X12957003Y-32676595D01*
X12949114Y-32675346D01*
X12932722Y-32658954D01*
X12913966Y-32645327D01*
X12911497Y-32637729D01*
X12905849Y-32632081D01*
X12895059Y-32587136D01*
X12895059Y-32397287D01*
X12913966Y-32339096D01*
X12924049Y-32327289D01*
X14913576Y-30337761D01*
X14968091Y-30309986D01*
X15028523Y-30319557D01*
X15053582Y-30337763D01*
X15056287Y-30340468D01*
X15056289Y-30340471D01*
X15159529Y-30443711D01*
X15285971Y-30516712D01*
X15426999Y-30554500D01*
X15512153Y-30554500D01*
X15570344Y-30573407D01*
X15582157Y-30583496D01*
X17866504Y-32867843D01*
X17894281Y-32922360D01*
X17895500Y-32937847D01*
X17895500Y-35562153D01*
X17876593Y-35620344D01*
X17866504Y-35632157D01*
X17417157Y-36081504D01*
X17362640Y-36109281D01*
X17347153Y-36110500D01*
X16136897Y-36110500D01*
X16106838Y-36113319D01*
X15980215Y-36157625D01*
X15872285Y-36237283D01*
X15872283Y-36237285D01*
X15792625Y-36345215D01*
X15748319Y-36471838D01*
X15745500Y-36501897D01*
X15745500Y-37498102D01*
X15748319Y-37528161D01*
X15748319Y-37528163D01*
X15748320Y-37528165D01*
X15764008Y-37572999D01*
X15792625Y-37654784D01*
X15836350Y-37714028D01*
X15872284Y-37762716D01*
X15937893Y-37811138D01*
X15980215Y-37842374D01*
X15980216Y-37842374D01*
X15980217Y-37842375D01*
X16106835Y-37886680D01*
X16136897Y-37889499D01*
X16136899Y-37889500D01*
X16136906Y-37889500D01*
X17863101Y-37889500D01*
X17863101Y-37889499D01*
X17893165Y-37886680D01*
X18019783Y-37842375D01*
X18127716Y-37762716D01*
X18207375Y-37654783D01*
X18251680Y-37528165D01*
X18254499Y-37498101D01*
X18254500Y-37498101D01*
X18254500Y-36501899D01*
X18254499Y-36501897D01*
X18251680Y-36471838D01*
X18251680Y-36471835D01*
X18214633Y-36365962D01*
X18213262Y-36304793D01*
X18238076Y-36263262D01*
X18533669Y-35967670D01*
X18533669Y-35967669D01*
X18533671Y-35967668D01*
X18538185Y-35959849D01*
X18538186Y-35959848D01*
X18563426Y-35916129D01*
X18580341Y-35886832D01*
X18604500Y-35796671D01*
X18604500Y-32703329D01*
X18580341Y-32613168D01*
X18533671Y-32532332D01*
X18507005Y-32505666D01*
X18467668Y-32466328D01*
X18467668Y-32466329D01*
X16083496Y-30082157D01*
X16055719Y-30027640D01*
X16054500Y-30012153D01*
X16054500Y-29927000D01*
X16054500Y-29926999D01*
X16016712Y-29785971D01*
X15943711Y-29659529D01*
X15920804Y-29636622D01*
X15883496Y-29599313D01*
X15855719Y-29544796D01*
X15854500Y-29529310D01*
X15854500Y-25437846D01*
X15873407Y-25379655D01*
X15883490Y-25367848D01*
X17726336Y-23525001D01*
X21100001Y-23525001D01*
X21100001Y-23741703D01*
X21102850Y-23772100D01*
X21102850Y-23772102D01*
X21147654Y-23900147D01*
X21228207Y-24009290D01*
X21228209Y-24009292D01*
X21337352Y-24089845D01*
X21465398Y-24134649D01*
X21495789Y-24137499D01*
X21899998Y-24137499D01*
X21900000Y-24137498D01*
X21900000Y-23525001D01*
X21899999Y-23525000D01*
X21100002Y-23525000D01*
X21100001Y-23525001D01*
X17726336Y-23525001D01*
X18143049Y-23108288D01*
X21100000Y-23108288D01*
X21100000Y-23324999D01*
X21100001Y-23325000D01*
X21899999Y-23325000D01*
X21900000Y-23324999D01*
X21900000Y-22712501D01*
X22100000Y-22712501D01*
X22100000Y-23324999D01*
X22100001Y-23325000D01*
X22899998Y-23325000D01*
X22899999Y-23324999D01*
X22899999Y-23108296D01*
X22897149Y-23077899D01*
X22897149Y-23077897D01*
X22852345Y-22949852D01*
X22771792Y-22840709D01*
X22771790Y-22840707D01*
X22662647Y-22760154D01*
X22534601Y-22715350D01*
X22504211Y-22712500D01*
X22100001Y-22712500D01*
X22100000Y-22712501D01*
X21900000Y-22712501D01*
X21899999Y-22712500D01*
X21495796Y-22712500D01*
X21465399Y-22715350D01*
X21465397Y-22715350D01*
X21337352Y-22760154D01*
X21228209Y-22840707D01*
X21228207Y-22840709D01*
X21147654Y-22949852D01*
X21102850Y-23077898D01*
X21100000Y-23108288D01*
X18143049Y-23108288D01*
X19156642Y-22094695D01*
X19211157Y-22066920D01*
X19271589Y-22076491D01*
X19314854Y-22119756D01*
X19319398Y-22130096D01*
X19332525Y-22165290D01*
X19352657Y-22219266D01*
X19439593Y-22335401D01*
X19439598Y-22335406D01*
X19446359Y-22340467D01*
X19555733Y-22422342D01*
X19691658Y-22473040D01*
X19751745Y-22479500D01*
X20348254Y-22479499D01*
X20408342Y-22473040D01*
X20544267Y-22422342D01*
X20660404Y-22335404D01*
X20747342Y-22219267D01*
X20798040Y-22083342D01*
X20804500Y-22023255D01*
X20804499Y-21600001D01*
X21250001Y-21600001D01*
X21250001Y-22029203D01*
X21252850Y-22059600D01*
X21252850Y-22059602D01*
X21297654Y-22187647D01*
X21378207Y-22296790D01*
X21378209Y-22296792D01*
X21487352Y-22377345D01*
X21615398Y-22422149D01*
X21645789Y-22424999D01*
X21849998Y-22424999D01*
X21850000Y-22424998D01*
X21850000Y-21600001D01*
X22050000Y-21600001D01*
X22050000Y-22424998D01*
X22050001Y-22424999D01*
X22254203Y-22424999D01*
X22284600Y-22422149D01*
X22284602Y-22422149D01*
X22412647Y-22377345D01*
X22521790Y-22296792D01*
X22521792Y-22296790D01*
X22602345Y-22187647D01*
X22647149Y-22059601D01*
X22649999Y-22029211D01*
X22650000Y-22029210D01*
X22650000Y-21600001D01*
X22649999Y-21600000D01*
X22050001Y-21600000D01*
X22050000Y-21600001D01*
X21850000Y-21600001D01*
X21849999Y-21600000D01*
X21250002Y-21600000D01*
X21250001Y-21600001D01*
X20804499Y-21600001D01*
X20804499Y-21537845D01*
X20823406Y-21479655D01*
X20833496Y-21467842D01*
X21080997Y-21220342D01*
X21135513Y-21192565D01*
X21195945Y-21202136D01*
X21239210Y-21245401D01*
X21250000Y-21290346D01*
X21250000Y-21399999D01*
X21250001Y-21400000D01*
X21849999Y-21400000D01*
X21850000Y-21399999D01*
X21850000Y-20575001D01*
X21849999Y-20575000D01*
X21645796Y-20575000D01*
X21615399Y-20577850D01*
X21615397Y-20577850D01*
X21487350Y-20622655D01*
X21487288Y-20622702D01*
X21487219Y-20622724D01*
X21480791Y-20626122D01*
X21480227Y-20625054D01*
X21472072Y-20627772D01*
X21459093Y-20637202D01*
X21443772Y-20637202D01*
X21429240Y-20642044D01*
X21413949Y-20637202D01*
X21397907Y-20637202D01*
X21385513Y-20628197D01*
X21370910Y-20623573D01*
X21361385Y-20610667D01*
X21348407Y-20601238D01*
X21343672Y-20586667D01*
X21334577Y-20574343D01*
X21329500Y-20543047D01*
X21329500Y-20374000D01*
X21348407Y-20315809D01*
X21397907Y-20279845D01*
X21428500Y-20275000D01*
X21524999Y-20275000D01*
X21525000Y-20274999D01*
X21525000Y-18125001D01*
X21524999Y-18125000D01*
X21411808Y-18125000D01*
X21353617Y-18106093D01*
X21317653Y-18056593D01*
X21316182Y-18051624D01*
X21305342Y-18011171D01*
X21305341Y-18011170D01*
X21305341Y-18011168D01*
X21258671Y-17930332D01*
X21229835Y-17901496D01*
X21192669Y-17864329D01*
X20794670Y-17466331D01*
X20794668Y-17466329D01*
X20713832Y-17419659D01*
X20713829Y-17419658D01*
X20713828Y-17419657D01*
X20623673Y-17395500D01*
X20623671Y-17395500D01*
X17437847Y-17395500D01*
X17379656Y-17376593D01*
X17367843Y-17366504D01*
X17228891Y-17227552D01*
X17201114Y-17173035D01*
X17210685Y-17112603D01*
X17253950Y-17069338D01*
X17314382Y-17059767D01*
X17348397Y-17071813D01*
X17353309Y-17074649D01*
X17363168Y-17080341D01*
X17363170Y-17080341D01*
X17363171Y-17080342D01*
X17384507Y-17086059D01*
X17453326Y-17104499D01*
X17453328Y-17104500D01*
X17453329Y-17104500D01*
X17546671Y-17104500D01*
X23289153Y-17104500D01*
X23347344Y-17123407D01*
X23359157Y-17133496D01*
X24127157Y-17901496D01*
X24135905Y-17918666D01*
X24148473Y-17933269D01*
X24149463Y-17945276D01*
X24154934Y-17956013D01*
X24151919Y-17975045D01*
X24153504Y-17994248D01*
X24147247Y-18004544D01*
X24145363Y-18016445D01*
X24131737Y-18030070D01*
X24121732Y-18046537D01*
X24111458Y-18050349D01*
X24102098Y-18059710D01*
X24065293Y-18070165D01*
X24061223Y-18070500D01*
X23974934Y-18070501D01*
X23913775Y-18082665D01*
X23908141Y-18083130D01*
X23901504Y-18081563D01*
X23880688Y-18081563D01*
X23825069Y-18070500D01*
X23324936Y-18070500D01*
X23324927Y-18070501D01*
X23269313Y-18081563D01*
X23230688Y-18081563D01*
X23175069Y-18070500D01*
X22674936Y-18070500D01*
X22674927Y-18070501D01*
X22619313Y-18081563D01*
X22580688Y-18081563D01*
X22525069Y-18070500D01*
X22024936Y-18070500D01*
X22024929Y-18070501D01*
X21950699Y-18085265D01*
X21950697Y-18085266D01*
X21916201Y-18108316D01*
X21861201Y-18125000D01*
X21725001Y-18125000D01*
X21725000Y-18125001D01*
X21725000Y-20274999D01*
X21725001Y-20275000D01*
X21861202Y-20275000D01*
X21916204Y-20291685D01*
X21950699Y-20314734D01*
X22024933Y-20329500D01*
X22471500Y-20329499D01*
X22529691Y-20348406D01*
X22565655Y-20397906D01*
X22570500Y-20428499D01*
X22570500Y-20543047D01*
X22551593Y-20601238D01*
X22502093Y-20637202D01*
X22440907Y-20637202D01*
X22419241Y-20626060D01*
X22419209Y-20626122D01*
X22413660Y-20623190D01*
X22412712Y-20622702D01*
X22412649Y-20622655D01*
X22284601Y-20577850D01*
X22254211Y-20575000D01*
X22050001Y-20575000D01*
X22050000Y-20575001D01*
X22050000Y-21399999D01*
X22050001Y-21400000D01*
X22649998Y-21400000D01*
X22649999Y-21399999D01*
X22649999Y-21140345D01*
X22668906Y-21082154D01*
X22718406Y-21046190D01*
X22779592Y-21046190D01*
X22819000Y-21070339D01*
X24366327Y-22617665D01*
X24366329Y-22617668D01*
X24432332Y-22683671D01*
X24513168Y-22730341D01*
X24513170Y-22730341D01*
X24513171Y-22730342D01*
X24558248Y-22742420D01*
X24603326Y-22754499D01*
X24603328Y-22754500D01*
X24603329Y-22754500D01*
X28212152Y-22754500D01*
X28270343Y-22773407D01*
X28282156Y-22783496D01*
X28737755Y-23239095D01*
X28765532Y-23293612D01*
X28764849Y-23328413D01*
X28745500Y-23425685D01*
X28745500Y-23544526D01*
X28726593Y-23602717D01*
X28677093Y-23638681D01*
X28646500Y-23643526D01*
X28527660Y-23643526D01*
X28381896Y-23672520D01*
X28244585Y-23729396D01*
X28121012Y-23811964D01*
X28015913Y-23917063D01*
X27960814Y-23999527D01*
X27912764Y-24037407D01*
X27878498Y-24043526D01*
X22940867Y-24043526D01*
X22882676Y-24024619D01*
X22846712Y-23975119D01*
X22846712Y-23913933D01*
X22851395Y-23902859D01*
X22897149Y-23772101D01*
X22899999Y-23741711D01*
X22900000Y-23741710D01*
X22900000Y-23525001D01*
X22899999Y-23525000D01*
X22100001Y-23525000D01*
X22100000Y-23525001D01*
X22100000Y-24137498D01*
X22100001Y-24137499D01*
X22372154Y-24137499D01*
X22430345Y-24156406D01*
X22466309Y-24205906D01*
X22466309Y-24267092D01*
X22442158Y-24306501D01*
X22294655Y-24454004D01*
X22240140Y-24481781D01*
X22224653Y-24483000D01*
X21501751Y-24483000D01*
X21501745Y-24483001D01*
X21441660Y-24489459D01*
X21441658Y-24489460D01*
X21305733Y-24540157D01*
X21189598Y-24627093D01*
X21189593Y-24627098D01*
X21102657Y-24743233D01*
X21051960Y-24879157D01*
X21051959Y-24879158D01*
X21045500Y-24939248D01*
X21045500Y-25560748D01*
X21045501Y-25560754D01*
X21051959Y-25620839D01*
X21051959Y-25620840D01*
X21051960Y-25620842D01*
X21066390Y-25659529D01*
X21102657Y-25756766D01*
X21189593Y-25872901D01*
X21189598Y-25872906D01*
X21261859Y-25926999D01*
X21305733Y-25959842D01*
X21331096Y-25969301D01*
X21379010Y-26007351D01*
X21395500Y-26062060D01*
X21395500Y-35796673D01*
X21419657Y-35886828D01*
X21419658Y-35886829D01*
X21419659Y-35886832D01*
X21466329Y-35967668D01*
X21466331Y-35967670D01*
X21761924Y-36263264D01*
X21789701Y-36317780D01*
X21785365Y-36365964D01*
X21748319Y-36471838D01*
X21745500Y-36501897D01*
X21745500Y-37498102D01*
X21748319Y-37528161D01*
X21748319Y-37528163D01*
X21748320Y-37528165D01*
X21764008Y-37572999D01*
X21792625Y-37654784D01*
X21836350Y-37714028D01*
X21872284Y-37762716D01*
X21937893Y-37811138D01*
X21980215Y-37842374D01*
X21980216Y-37842374D01*
X21980217Y-37842375D01*
X22106835Y-37886680D01*
X22136897Y-37889499D01*
X22136899Y-37889500D01*
X22136906Y-37889500D01*
X23863101Y-37889500D01*
X23863101Y-37889499D01*
X23893165Y-37886680D01*
X24019783Y-37842375D01*
X24127716Y-37762716D01*
X24207375Y-37654783D01*
X24251680Y-37528165D01*
X24254499Y-37498101D01*
X24254500Y-37498101D01*
X24254500Y-36501899D01*
X24254499Y-36501897D01*
X24251680Y-36471838D01*
X24251680Y-36471835D01*
X24207375Y-36345217D01*
X24187125Y-36317780D01*
X24146890Y-36263264D01*
X24127716Y-36237284D01*
X24085392Y-36206047D01*
X24019784Y-36157625D01*
X23960673Y-36136941D01*
X23893165Y-36113320D01*
X23893163Y-36113319D01*
X23893161Y-36113319D01*
X23863102Y-36110500D01*
X23863094Y-36110500D01*
X22652847Y-36110500D01*
X22594656Y-36091593D01*
X22582843Y-36081504D01*
X22133496Y-35632157D01*
X22105719Y-35577640D01*
X22104500Y-35562153D01*
X22104500Y-26115999D01*
X22123407Y-26057808D01*
X22172907Y-26021844D01*
X22203500Y-26016999D01*
X22498249Y-26016999D01*
X22498254Y-26016999D01*
X22558342Y-26010540D01*
X22694267Y-25959842D01*
X22810404Y-25872904D01*
X22897342Y-25756767D01*
X22948040Y-25620842D01*
X22954500Y-25560755D01*
X22954499Y-24939246D01*
X22948040Y-24879158D01*
X22948038Y-24879152D01*
X22946890Y-24874293D01*
X22951909Y-24813313D01*
X22991812Y-24766930D01*
X23043237Y-24752526D01*
X27878498Y-24752526D01*
X27936689Y-24771433D01*
X27960813Y-24796524D01*
X28015916Y-24878992D01*
X28121009Y-24984085D01*
X28244585Y-25066655D01*
X28381895Y-25123531D01*
X28527663Y-25152526D01*
X28527664Y-25152526D01*
X28676286Y-25152526D01*
X28676287Y-25152526D01*
X28822055Y-25123531D01*
X28959365Y-25066655D01*
X29082941Y-24984085D01*
X29188034Y-24878992D01*
X29270604Y-24755416D01*
X29327480Y-24618106D01*
X29356475Y-24472338D01*
X29356475Y-24353501D01*
X29375382Y-24295310D01*
X29424882Y-24259346D01*
X29455475Y-24254501D01*
X29574311Y-24254501D01*
X29574312Y-24254501D01*
X29720080Y-24225506D01*
X29857390Y-24168630D01*
X29980966Y-24086060D01*
X30086059Y-23980967D01*
X30168629Y-23857391D01*
X30225505Y-23720081D01*
X30241748Y-23638420D01*
X30271645Y-23585037D01*
X30327210Y-23559421D01*
X30358156Y-23560636D01*
X30398026Y-23568567D01*
X30497327Y-23548816D01*
X30560260Y-23506766D01*
X30665913Y-23401113D01*
X30882629Y-23184396D01*
X30903281Y-23173873D01*
X30922040Y-23160244D01*
X30930030Y-23160244D01*
X30937146Y-23156618D01*
X30960041Y-23160244D01*
X30983226Y-23160244D01*
X30989688Y-23164939D01*
X30997578Y-23166189D01*
X31013969Y-23182580D01*
X31032726Y-23196208D01*
X31035194Y-23203805D01*
X31040843Y-23209454D01*
X31051633Y-23254399D01*
X31051633Y-23406020D01*
X31032726Y-23464211D01*
X31022637Y-23476024D01*
X26082157Y-28416504D01*
X26027640Y-28444281D01*
X26012153Y-28445500D01*
X25926999Y-28445500D01*
X25785971Y-28483288D01*
X25659529Y-28556289D01*
X25556289Y-28659529D01*
X25483288Y-28785971D01*
X25445500Y-28926999D01*
X25445500Y-29073001D01*
X25483288Y-29214029D01*
X25556289Y-29340471D01*
X25659529Y-29443711D01*
X25785971Y-29516712D01*
X25926999Y-29554500D01*
X25927001Y-29554500D01*
X26072999Y-29554500D01*
X26073001Y-29554500D01*
X26214029Y-29516712D01*
X26340471Y-29443711D01*
X26443711Y-29340471D01*
X26516712Y-29214029D01*
X26554500Y-29073001D01*
X26554500Y-28987847D01*
X26573407Y-28929656D01*
X26583496Y-28917843D01*
X27945050Y-27556289D01*
X29321121Y-26180217D01*
X29375636Y-26152442D01*
X29436068Y-26162013D01*
X29479333Y-26205278D01*
X29482586Y-26212334D01*
X29483286Y-26214025D01*
X29483287Y-26214028D01*
X29483288Y-26214029D01*
X29556289Y-26340471D01*
X29616505Y-26400687D01*
X29644281Y-26455202D01*
X29645500Y-26470689D01*
X29645500Y-27639565D01*
X29626593Y-27697756D01*
X29577093Y-27733720D01*
X29515907Y-27733720D01*
X29466407Y-27697756D01*
X29460764Y-27689065D01*
X29443712Y-27659531D01*
X29443711Y-27659529D01*
X29340471Y-27556289D01*
X29214029Y-27483288D01*
X29073001Y-27445500D01*
X28926999Y-27445500D01*
X28785971Y-27483288D01*
X28659529Y-27556289D01*
X28556289Y-27659529D01*
X28483288Y-27785971D01*
X28448521Y-27915727D01*
X28445500Y-27927000D01*
X28445500Y-28012152D01*
X28426593Y-28070343D01*
X28416504Y-28082156D01*
X25458732Y-31039927D01*
X25404215Y-31067704D01*
X25343783Y-31058133D01*
X25318725Y-31039927D01*
X25146802Y-30868005D01*
X25146799Y-30868003D01*
X25125922Y-30854052D01*
X25083870Y-30825952D01*
X25050768Y-30819368D01*
X24984567Y-30806200D01*
X24984566Y-30806200D01*
X24984565Y-30806200D01*
X24885266Y-30825951D01*
X24822334Y-30868001D01*
X24822330Y-30868005D01*
X23160539Y-32529799D01*
X23118488Y-32592728D01*
X23098736Y-32692031D01*
X23118487Y-32791332D01*
X23137987Y-32820515D01*
X23154596Y-32879403D01*
X23133419Y-32936806D01*
X23082546Y-32970800D01*
X23081354Y-32971127D01*
X23035971Y-32983288D01*
X22909529Y-33056289D01*
X22806289Y-33159529D01*
X22733288Y-33285971D01*
X22695500Y-33426999D01*
X22695500Y-33573001D01*
X22733288Y-33714029D01*
X22806289Y-33840471D01*
X22909529Y-33943711D01*
X23035971Y-34016712D01*
X23176999Y-34054500D01*
X23177001Y-34054500D01*
X23322999Y-34054500D01*
X23323001Y-34054500D01*
X23439859Y-34023188D01*
X23500958Y-34026391D01*
X23548508Y-34064896D01*
X23564344Y-34123996D01*
X23551217Y-34168312D01*
X23483288Y-34285971D01*
X23445500Y-34426999D01*
X23445500Y-34573001D01*
X23483288Y-34714029D01*
X23556289Y-34840471D01*
X23659529Y-34943711D01*
X23785971Y-35016712D01*
X23926999Y-35054500D01*
X23927001Y-35054500D01*
X24072999Y-35054500D01*
X24073001Y-35054500D01*
X24214029Y-35016712D01*
X24340471Y-34943711D01*
X24412509Y-34871671D01*
X24456888Y-34846048D01*
X24515512Y-34830341D01*
X24596348Y-34783671D01*
X24773144Y-34606873D01*
X24827658Y-34579097D01*
X24888091Y-34588668D01*
X24913144Y-34606870D01*
X24963755Y-34657480D01*
X24985380Y-34671930D01*
X25026685Y-34699531D01*
X25026687Y-34699532D01*
X25125989Y-34719284D01*
X25125989Y-34719283D01*
X25135553Y-34721186D01*
X25135028Y-34723823D01*
X25179247Y-34738191D01*
X25215211Y-34787691D01*
X25217772Y-34803863D01*
X25218154Y-34803788D01*
X25239807Y-34912652D01*
X25281857Y-34975584D01*
X25281865Y-34975593D01*
X25909436Y-35603161D01*
X26024415Y-35718140D01*
X26076876Y-35753195D01*
X26093324Y-35764186D01*
X26131202Y-35812237D01*
X26133602Y-35873375D01*
X26099608Y-35924248D01*
X26042204Y-35945424D01*
X26038320Y-35945500D01*
X25926999Y-35945500D01*
X25785971Y-35983288D01*
X25659529Y-36056289D01*
X25556289Y-36159529D01*
X25483288Y-36285971D01*
X25445500Y-36426999D01*
X25445500Y-36573001D01*
X25483288Y-36714029D01*
X25556289Y-36840471D01*
X25659529Y-36943711D01*
X25785971Y-37016712D01*
X25926999Y-37054500D01*
X25927001Y-37054500D01*
X26072999Y-37054500D01*
X26073001Y-37054500D01*
X26214029Y-37016712D01*
X26340471Y-36943711D01*
X26382031Y-36902151D01*
X26400687Y-36883496D01*
X26407803Y-36879870D01*
X26412499Y-36873407D01*
X26434550Y-36866242D01*
X26455204Y-36855719D01*
X26470690Y-36854500D01*
X26639566Y-36854500D01*
X26697757Y-36873407D01*
X26733721Y-36922907D01*
X26733721Y-36984093D01*
X26697757Y-37033593D01*
X26689072Y-37039232D01*
X26672468Y-37048818D01*
X26659530Y-37056288D01*
X26659529Y-37056289D01*
X26556289Y-37159529D01*
X26483288Y-37285971D01*
X26445500Y-37426999D01*
X26445500Y-37573001D01*
X26483288Y-37714029D01*
X26556289Y-37840471D01*
X26659529Y-37943711D01*
X26785971Y-38016712D01*
X26926999Y-38054500D01*
X26927001Y-38054500D01*
X27072999Y-38054500D01*
X27073001Y-38054500D01*
X27214029Y-38016712D01*
X27340471Y-37943711D01*
X27382919Y-37901263D01*
X27400687Y-37883496D01*
X27455204Y-37855719D01*
X27470690Y-37854500D01*
X27789312Y-37854500D01*
X27789312Y-37854499D01*
X27879472Y-37830341D01*
X27960308Y-37783671D01*
X27960314Y-37783664D01*
X27964783Y-37780237D01*
X28022459Y-37759815D01*
X28081125Y-37777194D01*
X28095051Y-37788777D01*
X28136616Y-37830341D01*
X28145735Y-37839460D01*
X28168243Y-37854500D01*
X28208665Y-37881511D01*
X28208667Y-37881512D01*
X28307969Y-37901264D01*
X28407270Y-37881512D01*
X28470202Y-37839462D01*
X30131996Y-36177666D01*
X30174048Y-36114734D01*
X30193800Y-36015433D01*
X30174048Y-35916131D01*
X30174048Y-35916130D01*
X30131998Y-35853199D01*
X30091036Y-35812237D01*
X30019220Y-35740422D01*
X29991443Y-35685906D01*
X29991072Y-35657491D01*
X29991793Y-35652017D01*
X29991793Y-35191110D01*
X30010700Y-35132919D01*
X30020783Y-35121112D01*
X30081004Y-35060892D01*
X30154005Y-34934450D01*
X30191793Y-34793422D01*
X30191793Y-34647420D01*
X30154005Y-34506392D01*
X30081004Y-34379950D01*
X29977764Y-34276710D01*
X29851322Y-34203709D01*
X29710294Y-34165921D01*
X29695745Y-34165921D01*
X29637554Y-34147014D01*
X29601590Y-34097514D01*
X29601590Y-34036328D01*
X29625741Y-33996917D01*
X29827849Y-33794809D01*
X30283671Y-33338988D01*
X30330342Y-33258151D01*
X30354501Y-33167991D01*
X30354501Y-33074648D01*
X30354501Y-33068586D01*
X30354500Y-33068568D01*
X30354500Y-26470689D01*
X30373407Y-26412498D01*
X30383490Y-26400691D01*
X30443711Y-26340471D01*
X30516712Y-26214029D01*
X30554500Y-26073001D01*
X30554500Y-25926999D01*
X30516712Y-25785971D01*
X30443711Y-25659529D01*
X30340471Y-25556289D01*
X30214029Y-25483288D01*
X30214028Y-25483287D01*
X30214025Y-25483286D01*
X30212334Y-25482586D01*
X30211337Y-25481734D01*
X30208409Y-25480044D01*
X30208722Y-25479501D01*
X30165810Y-25442847D01*
X30151528Y-25383352D01*
X30174945Y-25326825D01*
X30180206Y-25321132D01*
X30647296Y-24854042D01*
X30701811Y-24826267D01*
X30762243Y-24835838D01*
X30805508Y-24879103D01*
X30815079Y-24939535D01*
X30814396Y-24943361D01*
X30806200Y-24984566D01*
X30825951Y-25083868D01*
X30868001Y-25146800D01*
X30868009Y-25146809D01*
X31507174Y-25785971D01*
X31610559Y-25889356D01*
X31652317Y-25917259D01*
X31673489Y-25931407D01*
X31673491Y-25931408D01*
X31772793Y-25951160D01*
X31772793Y-25951159D01*
X31782357Y-25953062D01*
X31781832Y-25955699D01*
X31826051Y-25970067D01*
X31862015Y-26019567D01*
X31865113Y-26031646D01*
X31867288Y-26043073D01*
X31866860Y-26045227D01*
X31886380Y-26143366D01*
X31886477Y-26143872D01*
X31882685Y-26173797D01*
X31879130Y-26203834D01*
X31878839Y-26204148D01*
X31878786Y-26204572D01*
X31858100Y-26226583D01*
X31837597Y-26248764D01*
X31837177Y-26248847D01*
X31836885Y-26249159D01*
X31807202Y-26254809D01*
X31777587Y-26260700D01*
X31777103Y-26260539D01*
X31776779Y-26260601D01*
X31775558Y-26260026D01*
X31739725Y-26248123D01*
X31714030Y-26233288D01*
X31662993Y-26219613D01*
X31573001Y-26195500D01*
X31426999Y-26195500D01*
X31285971Y-26233288D01*
X31159529Y-26306289D01*
X31056289Y-26409529D01*
X30983288Y-26535971D01*
X30945500Y-26676999D01*
X30945500Y-26823001D01*
X30983288Y-26964029D01*
X31056289Y-27090471D01*
X31159529Y-27193711D01*
X31285971Y-27266712D01*
X31426999Y-27304500D01*
X31512153Y-27304500D01*
X31570344Y-27323407D01*
X31582157Y-27333496D01*
X31758197Y-27509536D01*
X31758196Y-27509536D01*
X31804950Y-27556289D01*
X31824200Y-27575539D01*
X31905036Y-27622209D01*
X31905038Y-27622209D01*
X31905039Y-27622210D01*
X31950116Y-27634288D01*
X31995194Y-27646367D01*
X31995196Y-27646368D01*
X31995197Y-27646368D01*
X33326563Y-27646368D01*
X33384754Y-27665275D01*
X33396566Y-27675364D01*
X33573159Y-27851956D01*
X33731879Y-28010676D01*
X33753504Y-28025126D01*
X33794809Y-28052727D01*
X33794811Y-28052728D01*
X33894113Y-28072480D01*
X33894113Y-28072479D01*
X33903677Y-28074382D01*
X33903152Y-28077019D01*
X33947371Y-28091387D01*
X33983335Y-28140887D01*
X33985896Y-28157059D01*
X33986278Y-28156984D01*
X34007931Y-28265848D01*
X34049981Y-28328780D01*
X34049989Y-28328789D01*
X34709050Y-28987847D01*
X34792539Y-29071336D01*
X34830449Y-29096668D01*
X34855469Y-29113387D01*
X34855471Y-29113388D01*
X34954773Y-29133140D01*
X34954773Y-29133139D01*
X34964337Y-29135042D01*
X34963812Y-29137679D01*
X35008031Y-29152047D01*
X35043995Y-29201547D01*
X35046556Y-29217719D01*
X35046938Y-29217644D01*
X35068591Y-29326508D01*
X35110641Y-29389440D01*
X35110649Y-29389449D01*
X35733356Y-30012153D01*
X35853199Y-30131996D01*
X35894957Y-30159899D01*
X35916129Y-30174047D01*
X35916131Y-30174048D01*
X36015433Y-30193800D01*
X36114734Y-30174048D01*
X36177666Y-30131998D01*
X37839460Y-28470202D01*
X37881512Y-28407270D01*
X37901264Y-28307969D01*
X37881512Y-28208667D01*
X37881512Y-28208666D01*
X37839462Y-28145735D01*
X37834614Y-28140887D01*
X37788777Y-28095050D01*
X37761000Y-28040536D01*
X37770571Y-27980104D01*
X37780237Y-27964783D01*
X37783664Y-27960314D01*
X37783671Y-27960308D01*
X37830341Y-27879472D01*
X37854500Y-27789311D01*
X37854500Y-12210689D01*
X37837727Y-12148093D01*
X37830342Y-12120531D01*
X37830341Y-12120530D01*
X37830341Y-12120528D01*
X37783671Y-12039692D01*
X37783669Y-12039690D01*
X37783668Y-12039688D01*
X37780237Y-12035217D01*
X37759814Y-11977541D01*
X37777192Y-11918876D01*
X37788772Y-11904952D01*
X37839460Y-11854265D01*
X37881512Y-11791333D01*
X37901264Y-11692031D01*
X37881512Y-11592730D01*
X37839462Y-11529798D01*
X36177666Y-9868004D01*
X36156590Y-9853921D01*
X36114735Y-9825952D01*
X36042249Y-9811534D01*
X36015433Y-9806200D01*
X36015432Y-9806200D01*
X35916131Y-9825951D01*
X35853199Y-9868001D01*
X35853189Y-9868010D01*
X35802592Y-9918607D01*
X35748075Y-9946384D01*
X35687643Y-9936812D01*
X35662588Y-9918609D01*
X34034533Y-8290554D01*
X33953697Y-8243884D01*
X33953694Y-8243883D01*
X33953693Y-8243882D01*
X33863538Y-8219725D01*
X33863536Y-8219725D01*
X32129104Y-8219725D01*
X32129101Y-8219725D01*
X32038946Y-8243882D01*
X32038945Y-8243883D01*
X31958107Y-8290554D01*
X31023504Y-9225157D01*
X30968987Y-9252934D01*
X30908555Y-9243363D01*
X30865290Y-9200098D01*
X30854500Y-9155153D01*
X30854500Y-5312018D01*
X30854501Y-5312005D01*
X30854501Y-5210688D01*
X30854500Y-5210686D01*
X30830342Y-5120529D01*
X30830340Y-5120525D01*
X30799228Y-5066637D01*
X30783671Y-5039692D01*
X30081391Y-4337412D01*
X30053614Y-4282895D01*
X30063185Y-4222463D01*
X30081389Y-4197407D01*
X30131996Y-4146801D01*
X30174048Y-4083869D01*
X30193800Y-3984567D01*
X30174048Y-3885266D01*
X30131998Y-3822334D01*
X28470202Y-2160540D01*
X28447694Y-2145500D01*
X28407271Y-2118488D01*
X28357619Y-2108612D01*
X28307969Y-2098736D01*
X28307968Y-2098736D01*
X28208667Y-2118487D01*
X28145735Y-2160537D01*
X28145725Y-2160546D01*
X28095049Y-2211222D01*
X28040532Y-2238999D01*
X27980100Y-2229427D01*
X27964778Y-2219760D01*
X27960311Y-2216332D01*
X27960308Y-2216329D01*
X27879472Y-2169659D01*
X27879469Y-2169658D01*
X27879468Y-2169657D01*
X27789313Y-2145500D01*
X27789311Y-2145500D01*
X12210689Y-2145500D01*
X12210686Y-2145500D01*
X12120531Y-2169657D01*
X12120530Y-2169658D01*
X12039686Y-2216332D01*
X12035212Y-2219766D01*
X11977535Y-2240185D01*
X11918870Y-2222803D01*
X11904955Y-2211230D01*
X11854265Y-2160540D01*
X11831757Y-2145500D01*
X11791334Y-2118488D01*
X11758232Y-2111904D01*
X11692031Y-2098736D01*
X11692030Y-2098736D01*
X11692029Y-2098736D01*
X11592730Y-2118487D01*
X11529798Y-2160537D01*
X11529794Y-2160541D01*
X9868003Y-3822335D01*
X9825952Y-3885264D01*
X9806200Y-3984567D01*
X9825951Y-4083868D01*
X9868001Y-4146800D01*
X9868009Y-4146809D01*
X10489951Y-4768748D01*
X10610559Y-4889356D01*
X10652317Y-4917259D01*
X10673489Y-4931407D01*
X10673491Y-4931408D01*
X10772793Y-4951160D01*
X10772793Y-4951159D01*
X10782357Y-4953062D01*
X10781832Y-4955699D01*
X10826051Y-4970067D01*
X10862015Y-5019567D01*
X10864576Y-5035739D01*
X10864958Y-5035664D01*
X10886611Y-5144528D01*
X10928661Y-5207460D01*
X10928669Y-5207469D01*
X11446046Y-5724844D01*
X11671219Y-5950016D01*
X11692844Y-5964466D01*
X11734149Y-5992067D01*
X11734151Y-5992068D01*
X11833453Y-6011820D01*
X11833453Y-6011819D01*
X11843017Y-6013722D01*
X11842492Y-6016359D01*
X11886711Y-6030727D01*
X11922675Y-6080227D01*
X11925236Y-6096399D01*
X11925618Y-6096324D01*
X11947271Y-6205188D01*
X11989321Y-6268120D01*
X12039926Y-6318725D01*
X12067703Y-6373242D01*
X12058132Y-6433674D01*
X12039926Y-6458732D01*
X11707469Y-6791189D01*
X11707468Y-6791192D01*
X11707466Y-6791194D01*
X6458732Y-12039927D01*
X6404215Y-12067704D01*
X6343783Y-12058133D01*
X6318725Y-12039927D01*
X6268122Y-11989325D01*
X6205190Y-11947272D01*
X6160314Y-11938346D01*
X6105887Y-11927520D01*
X6105886Y-11927520D01*
X6096323Y-11925618D01*
X6096847Y-11922980D01*
X6052629Y-11908613D01*
X6016665Y-11859113D01*
X6014103Y-11842940D01*
X6013722Y-11843016D01*
X6009740Y-11822999D01*
X5992068Y-11734151D01*
X5950018Y-11671219D01*
X5950016Y-11671217D01*
X5950010Y-11671210D01*
X5207462Y-10928665D01*
X5207363Y-10928599D01*
X5171609Y-10904707D01*
X5144530Y-10886612D01*
X5102887Y-10878329D01*
X5045227Y-10866860D01*
X5045226Y-10866860D01*
X5035663Y-10864958D01*
X5036187Y-10862320D01*
X4991969Y-10847953D01*
X4956005Y-10798453D01*
X4953443Y-10782280D01*
X4953062Y-10782356D01*
X4931408Y-10673491D01*
X4889358Y-10610559D01*
X4889350Y-10610550D01*
X4146802Y-9868005D01*
X4146799Y-9868003D01*
X4125922Y-9854052D01*
X4083870Y-9825952D01*
X4050768Y-9819368D01*
X3984567Y-9806200D01*
X3984566Y-9806200D01*
X3984565Y-9806200D01*
X3885266Y-9825951D01*
X3822334Y-9868001D01*
X3822330Y-9868005D01*
X2160539Y-11529799D01*
X2118488Y-11592728D01*
X2098736Y-11692031D01*
X500500Y-11692031D01*
X500500Y-7001857D01*
X500569Y-6998155D01*
X518535Y-6517985D01*
X519086Y-6510626D01*
X572680Y-6034968D01*
X573784Y-6027653D01*
X588670Y-5948980D01*
X662767Y-5557361D01*
X664413Y-5550152D01*
X788301Y-5087798D01*
X790481Y-5080735D01*
X804842Y-5039694D01*
X948562Y-4628963D01*
X951258Y-4622090D01*
X1142678Y-4183352D01*
X1145880Y-4176704D01*
X1369541Y-3753517D01*
X1373229Y-3747128D01*
X1627901Y-3341819D01*
X1632054Y-3335728D01*
X1916302Y-2950586D01*
X1920887Y-2944837D01*
X2233115Y-2582021D01*
X2238125Y-2576620D01*
X2576620Y-2238125D01*
X2582021Y-2233115D01*
X2944837Y-1920887D01*
X2950586Y-1916302D01*
X3335728Y-1632054D01*
X3341819Y-1627901D01*
X3747128Y-1373229D01*
X3753517Y-1369541D01*
X4176704Y-1145880D01*
X4183352Y-1142678D01*
X4622090Y-951258D01*
X4628963Y-948562D01*
X5080737Y-790480D01*
X5087798Y-788301D01*
X5550161Y-664410D01*
X5557361Y-662767D01*
X6027654Y-573783D01*
X6034968Y-572680D01*
X6510626Y-519086D01*
X6517985Y-518535D01*
X6998156Y-500569D01*
X7001858Y-500500D01*
X7065892Y-500500D01*
X32934108Y-500500D01*
X32998142Y-500500D01*
X33001844Y-500569D01*
G37*
G04 #@! TD.AperFunction*
G04 #@! TD*
M02*
