%TF.GenerationSoftware,KiCad,Pcbnew,9.0.3-9.0.3-0~ubuntu24.04.1*%
%TF.CreationDate,2025-07-13T11:29:56+02:00*%
%TF.ProjectId,PCBWatch,50434257-6174-4636-982e-6b696361645f,rev?*%
%TF.SameCoordinates,Original*%
%TF.FileFunction,Drillmap*%
%TF.FilePolarity,Positive*%
%FSLAX45Y45*%
G04 Gerber Fmt 4.5, Leading zero omitted, Abs format (unit mm)*
G04 Created by KiCad (PCBNEW 9.0.3-9.0.3-0~ubuntu24.04.1) date 2025-07-13 11:29:56*
%MOMM*%
%LPD*%
G01*
G04 APERTURE LIST*
%ADD10C,0.050000*%
%ADD11C,0.200000*%
%ADD12C,0.100000*%
G04 APERTURE END LIST*
D10*
X4000000Y0D02*
X4000000Y-4000000D01*
X6050000Y-1150000D02*
X5650000Y-1550000D01*
X7350000Y-3250000D02*
X7750000Y-2850000D01*
X7750000Y-1550000D02*
X7350000Y-1150000D01*
X7750000Y-2850000D02*
X7750000Y-1550000D01*
X7350000Y-1150000D02*
X6050000Y-1150000D01*
X6400000Y-3250000D02*
X7350000Y-3250000D01*
X6400000Y-3250000D02*
X5650000Y-2500000D01*
X5650000Y-1550000D02*
X5650000Y-2500000D01*
X4000000Y0D02*
X0Y0D01*
X0Y-4000000D02*
X4000000Y-4000000D01*
X0Y0D02*
X0Y-4000000D01*
D11*
D12*
X685000Y-2760000D02*
X715000Y-2790000D01*
X715000Y-2760000D02*
X685000Y-2790000D01*
X1035000Y-2410000D02*
X1065000Y-2440000D01*
X1065000Y-2410000D02*
X1035000Y-2440000D01*
X1054782Y-2089519D02*
X1084782Y-2119519D01*
X1084782Y-2089519D02*
X1054782Y-2119519D01*
X1100958Y-2600958D02*
X1130958Y-2630958D01*
X1130958Y-2600958D02*
X1100958Y-2630958D01*
X1273992Y-1375966D02*
X1303992Y-1405966D01*
X1303992Y-1375966D02*
X1273992Y-1405966D01*
X1285000Y-3735000D02*
X1315000Y-3765000D01*
X1315000Y-3735000D02*
X1285000Y-3765000D01*
X1385000Y-3635000D02*
X1415000Y-3665000D01*
X1415000Y-3635000D02*
X1385000Y-3665000D01*
X1457470Y-2762896D02*
X1487470Y-2792896D01*
X1487470Y-2762896D02*
X1457470Y-2792896D01*
X1460000Y-1060000D02*
X1490000Y-1090000D01*
X1490000Y-1060000D02*
X1460000Y-1090000D01*
X1535000Y-2985000D02*
X1565000Y-3015000D01*
X1565000Y-2985000D02*
X1535000Y-3015000D01*
X1585000Y-3435000D02*
X1615000Y-3465000D01*
X1615000Y-3435000D02*
X1585000Y-3465000D01*
X1660000Y-3335000D02*
X1690000Y-3365000D01*
X1690000Y-3335000D02*
X1660000Y-3365000D01*
X2210000Y-1010000D02*
X2240000Y-1040000D01*
X2240000Y-1010000D02*
X2210000Y-1040000D01*
X2285000Y-2885000D02*
X2315000Y-2915000D01*
X2315000Y-2885000D02*
X2285000Y-2915000D01*
X2310000Y-3335000D02*
X2340000Y-3365000D01*
X2340000Y-3335000D02*
X2310000Y-3365000D01*
X2360000Y-860000D02*
X2390000Y-890000D01*
X2390000Y-860000D02*
X2360000Y-890000D01*
X2385000Y-3435000D02*
X2415000Y-3465000D01*
X2415000Y-3435000D02*
X2385000Y-3465000D01*
X2585000Y-3635000D02*
X2615000Y-3665000D01*
X2615000Y-3635000D02*
X2585000Y-3665000D01*
X2685000Y-1235000D02*
X2715000Y-1265000D01*
X2715000Y-1235000D02*
X2685000Y-1265000D01*
X2685000Y-3735000D02*
X2715000Y-3765000D01*
X2715000Y-3735000D02*
X2685000Y-3765000D01*
X2810000Y-710000D02*
X2840000Y-740000D01*
X2840000Y-710000D02*
X2810000Y-740000D01*
X2810000Y-1134264D02*
X2840000Y-1164264D01*
X2840000Y-1134264D02*
X2810000Y-1164264D01*
X2835000Y-2635000D02*
X2865000Y-2665000D01*
X2865000Y-2635000D02*
X2835000Y-2665000D01*
X2900000Y-1560000D02*
X2930000Y-1590000D01*
X2930000Y-1560000D02*
X2900000Y-1590000D01*
X2910000Y-1760000D02*
X2940000Y-1790000D01*
X2940000Y-1760000D02*
X2910000Y-1790000D01*
X2935000Y-2985000D02*
X2965000Y-3015000D01*
X2965000Y-2985000D02*
X2935000Y-3015000D01*
X2985000Y-3460000D02*
X3015000Y-3490000D01*
X3015000Y-3460000D02*
X2985000Y-3490000D01*
X3010000Y-3060000D02*
X3040000Y-3090000D01*
X3040000Y-3060000D02*
X3010000Y-3090000D01*
X3035000Y-2835000D02*
X3065000Y-2865000D01*
X3065000Y-2835000D02*
X3035000Y-2865000D01*
X3042573Y-2742574D02*
X3072573Y-2772574D01*
X3072573Y-2742574D02*
X3042573Y-2772574D01*
X3135000Y-985000D02*
X3165000Y-1015000D01*
X3165000Y-985000D02*
X3135000Y-1015000D01*
X3135000Y-1335000D02*
X3165000Y-1365000D01*
X3165000Y-1335000D02*
X3135000Y-1365000D01*
X3160000Y-785000D02*
X3190000Y-815000D01*
X3190000Y-785000D02*
X3160000Y-815000D01*
X3235000Y-1210000D02*
X3265000Y-1240000D01*
X3265000Y-1210000D02*
X3235000Y-1240000D01*
X3260000Y-935000D02*
X3290000Y-965000D01*
X3290000Y-935000D02*
X3260000Y-965000D01*
X3285000Y-2785000D02*
X3315000Y-2815000D01*
X3315000Y-2785000D02*
X3285000Y-2815000D01*
X5807954Y-1875067D02*
X5837954Y-1905067D01*
X5837954Y-1875067D02*
X5807954Y-1905067D01*
X5921379Y-2312965D02*
X5951379Y-2342965D01*
X5951379Y-2312965D02*
X5921379Y-2342965D01*
X6087426Y-1487426D02*
X6117426Y-1517426D01*
X6117426Y-1487426D02*
X6087426Y-1517426D01*
X6109599Y-2209599D02*
X6139599Y-2239599D01*
X6139599Y-2209599D02*
X6109599Y-2239599D01*
X6185000Y-2485000D02*
X6215000Y-2515000D01*
X6215000Y-2485000D02*
X6185000Y-2515000D01*
X6385000Y-2135000D02*
X6415000Y-2165000D01*
X6415000Y-2135000D02*
X6385000Y-2165000D01*
X6415000Y-2705000D02*
X6445000Y-2735000D01*
X6445000Y-2705000D02*
X6415000Y-2735000D01*
X6602426Y-2002426D02*
X6632426Y-2032426D01*
X6632426Y-2002426D02*
X6602426Y-2032426D01*
X6645116Y-2924884D02*
X6675116Y-2954884D01*
X6675116Y-2924884D02*
X6645116Y-2954884D01*
X6715000Y-1537995D02*
X6745000Y-1567995D01*
X6745000Y-1537995D02*
X6715000Y-1567995D01*
X6750483Y-2839149D02*
X6780483Y-2869149D01*
X6780483Y-2839149D02*
X6750483Y-2869149D01*
X6888706Y-1505711D02*
X6918706Y-1535711D01*
X6918706Y-1505711D02*
X6888706Y-1535711D01*
X7195104Y-2574896D02*
X7225104Y-2604896D01*
X7225104Y-2574896D02*
X7195104Y-2604896D01*
X7271965Y-2649772D02*
X7301965Y-2679772D01*
X7301965Y-2649772D02*
X7271965Y-2679772D01*
X7335000Y-2185000D02*
X7365000Y-2215000D01*
X7365000Y-2185000D02*
X7335000Y-2215000D01*
X7344958Y-2722765D02*
X7374958Y-2752765D01*
X7374958Y-2722765D02*
X7344958Y-2752765D01*
X7465000Y-2275000D02*
X7495000Y-2305000D01*
X7495000Y-2275000D02*
X7465000Y-2305000D01*
X992697Y-1739802D02*
G75*
G02*
X927697Y-1739802I-32500J0D01*
G01*
X927697Y-1739802D02*
G75*
G02*
X992697Y-1739802I32500J0D01*
G01*
X1082500Y-1650000D02*
G75*
G02*
X1017500Y-1650000I-32500J0D01*
G01*
X1017500Y-1650000D02*
G75*
G02*
X1082500Y-1650000I32500J0D01*
G01*
X1172303Y-1560197D02*
G75*
G02*
X1107303Y-1560197I-32500J0D01*
G01*
X1107303Y-1560197D02*
G75*
G02*
X1172303Y-1560197I32500J0D01*
G01*
X2892697Y-2439803D02*
G75*
G02*
X2827697Y-2439803I-32500J0D01*
G01*
X2827697Y-2439803D02*
G75*
G02*
X2892697Y-2439803I32500J0D01*
G01*
X2982500Y-2350000D02*
G75*
G02*
X2917500Y-2350000I-32500J0D01*
G01*
X2917500Y-2350000D02*
G75*
G02*
X2982500Y-2350000I32500J0D01*
G01*
X3072303Y-2260198D02*
G75*
G02*
X3007303Y-2260198I-32500J0D01*
G01*
X3007303Y-2260198D02*
G75*
G02*
X3072303Y-2260198I32500J0D01*
G01*
X6178500Y-1280445D02*
G75*
G02*
X6113500Y-1280445I-32500J0D01*
G01*
X6113500Y-1280445D02*
G75*
G02*
X6178500Y-1280445I32500J0D01*
G01*
X6305500Y-1280445D02*
G75*
G02*
X6240500Y-1280445I-32500J0D01*
G01*
X6240500Y-1280445D02*
G75*
G02*
X6305500Y-1280445I32500J0D01*
G01*
X6432500Y-1280445D02*
G75*
G02*
X6367500Y-1280445I-32500J0D01*
G01*
X6367500Y-1280445D02*
G75*
G02*
X6432500Y-1280445I32500J0D01*
G01*
X7028500Y-3119336D02*
G75*
G02*
X6963500Y-3119336I-32500J0D01*
G01*
X6963500Y-3119336D02*
G75*
G02*
X7028500Y-3119336I32500J0D01*
G01*
X7155500Y-3119336D02*
G75*
G02*
X7090500Y-3119336I-32500J0D01*
G01*
X7090500Y-3119336D02*
G75*
G02*
X7155500Y-3119336I32500J0D01*
G01*
X7282500Y-3119336D02*
G75*
G02*
X7217500Y-3119336I-32500J0D01*
G01*
X7217500Y-3119336D02*
G75*
G02*
X7282500Y-3119336I32500J0D01*
G01*
D11*
X258277Y-4313984D02*
X258277Y-4113984D01*
X258277Y-4113984D02*
X305896Y-4113984D01*
X305896Y-4113984D02*
X334467Y-4123508D01*
X334467Y-4123508D02*
X353515Y-4142555D01*
X353515Y-4142555D02*
X363039Y-4161603D01*
X363039Y-4161603D02*
X372562Y-4199698D01*
X372562Y-4199698D02*
X372562Y-4228270D01*
X372562Y-4228270D02*
X363039Y-4266365D01*
X363039Y-4266365D02*
X353515Y-4285412D01*
X353515Y-4285412D02*
X334467Y-4304460D01*
X334467Y-4304460D02*
X305896Y-4313984D01*
X305896Y-4313984D02*
X258277Y-4313984D01*
X458277Y-4313984D02*
X458277Y-4180650D01*
X458277Y-4218746D02*
X467801Y-4199698D01*
X467801Y-4199698D02*
X477324Y-4190174D01*
X477324Y-4190174D02*
X496372Y-4180650D01*
X496372Y-4180650D02*
X515420Y-4180650D01*
X582086Y-4313984D02*
X582086Y-4180650D01*
X582086Y-4113984D02*
X572563Y-4123508D01*
X572563Y-4123508D02*
X582086Y-4133031D01*
X582086Y-4133031D02*
X591610Y-4123508D01*
X591610Y-4123508D02*
X582086Y-4113984D01*
X582086Y-4113984D02*
X582086Y-4133031D01*
X705896Y-4313984D02*
X686848Y-4304460D01*
X686848Y-4304460D02*
X677324Y-4285412D01*
X677324Y-4285412D02*
X677324Y-4113984D01*
X810658Y-4313984D02*
X791610Y-4304460D01*
X791610Y-4304460D02*
X782086Y-4285412D01*
X782086Y-4285412D02*
X782086Y-4113984D01*
X1039229Y-4313984D02*
X1039229Y-4113984D01*
X1039229Y-4113984D02*
X1105896Y-4256841D01*
X1105896Y-4256841D02*
X1172563Y-4113984D01*
X1172563Y-4113984D02*
X1172563Y-4313984D01*
X1353515Y-4313984D02*
X1353515Y-4209222D01*
X1353515Y-4209222D02*
X1343991Y-4190174D01*
X1343991Y-4190174D02*
X1324944Y-4180650D01*
X1324944Y-4180650D02*
X1286848Y-4180650D01*
X1286848Y-4180650D02*
X1267801Y-4190174D01*
X1353515Y-4304460D02*
X1334467Y-4313984D01*
X1334467Y-4313984D02*
X1286848Y-4313984D01*
X1286848Y-4313984D02*
X1267801Y-4304460D01*
X1267801Y-4304460D02*
X1258277Y-4285412D01*
X1258277Y-4285412D02*
X1258277Y-4266365D01*
X1258277Y-4266365D02*
X1267801Y-4247317D01*
X1267801Y-4247317D02*
X1286848Y-4237793D01*
X1286848Y-4237793D02*
X1334467Y-4237793D01*
X1334467Y-4237793D02*
X1353515Y-4228270D01*
X1448753Y-4180650D02*
X1448753Y-4380650D01*
X1448753Y-4190174D02*
X1467801Y-4180650D01*
X1467801Y-4180650D02*
X1505896Y-4180650D01*
X1505896Y-4180650D02*
X1524943Y-4190174D01*
X1524943Y-4190174D02*
X1534467Y-4199698D01*
X1534467Y-4199698D02*
X1543991Y-4218746D01*
X1543991Y-4218746D02*
X1543991Y-4275889D01*
X1543991Y-4275889D02*
X1534467Y-4294936D01*
X1534467Y-4294936D02*
X1524943Y-4304460D01*
X1524943Y-4304460D02*
X1505896Y-4313984D01*
X1505896Y-4313984D02*
X1467801Y-4313984D01*
X1467801Y-4313984D02*
X1448753Y-4304460D01*
X1629705Y-4294936D02*
X1639229Y-4304460D01*
X1639229Y-4304460D02*
X1629705Y-4313984D01*
X1629705Y-4313984D02*
X1620182Y-4304460D01*
X1620182Y-4304460D02*
X1629705Y-4294936D01*
X1629705Y-4294936D02*
X1629705Y-4313984D01*
X1629705Y-4190174D02*
X1639229Y-4199698D01*
X1639229Y-4199698D02*
X1629705Y-4209222D01*
X1629705Y-4209222D02*
X1620182Y-4199698D01*
X1620182Y-4199698D02*
X1629705Y-4190174D01*
X1629705Y-4190174D02*
X1629705Y-4209222D01*
D12*
X-32500Y-4627500D02*
X-2500Y-4657500D01*
X-2500Y-4627500D02*
X-32500Y-4657500D01*
D11*
X296372Y-4533984D02*
X315420Y-4533984D01*
X315420Y-4533984D02*
X334467Y-4543508D01*
X334467Y-4543508D02*
X343991Y-4553031D01*
X343991Y-4553031D02*
X353515Y-4572079D01*
X353515Y-4572079D02*
X363039Y-4610174D01*
X363039Y-4610174D02*
X363039Y-4657793D01*
X363039Y-4657793D02*
X353515Y-4695889D01*
X353515Y-4695889D02*
X343991Y-4714936D01*
X343991Y-4714936D02*
X334467Y-4724460D01*
X334467Y-4724460D02*
X315420Y-4733984D01*
X315420Y-4733984D02*
X296372Y-4733984D01*
X296372Y-4733984D02*
X277324Y-4724460D01*
X277324Y-4724460D02*
X267801Y-4714936D01*
X267801Y-4714936D02*
X258277Y-4695889D01*
X258277Y-4695889D02*
X248753Y-4657793D01*
X248753Y-4657793D02*
X248753Y-4610174D01*
X248753Y-4610174D02*
X258277Y-4572079D01*
X258277Y-4572079D02*
X267801Y-4553031D01*
X267801Y-4553031D02*
X277324Y-4543508D01*
X277324Y-4543508D02*
X296372Y-4533984D01*
X448753Y-4714936D02*
X458277Y-4724460D01*
X458277Y-4724460D02*
X448753Y-4733984D01*
X448753Y-4733984D02*
X439229Y-4724460D01*
X439229Y-4724460D02*
X448753Y-4714936D01*
X448753Y-4714936D02*
X448753Y-4733984D01*
X524944Y-4533984D02*
X648753Y-4533984D01*
X648753Y-4533984D02*
X582086Y-4610174D01*
X582086Y-4610174D02*
X610658Y-4610174D01*
X610658Y-4610174D02*
X629705Y-4619698D01*
X629705Y-4619698D02*
X639229Y-4629222D01*
X639229Y-4629222D02*
X648753Y-4648270D01*
X648753Y-4648270D02*
X648753Y-4695889D01*
X648753Y-4695889D02*
X639229Y-4714936D01*
X639229Y-4714936D02*
X629705Y-4724460D01*
X629705Y-4724460D02*
X610658Y-4733984D01*
X610658Y-4733984D02*
X553515Y-4733984D01*
X553515Y-4733984D02*
X534467Y-4724460D01*
X534467Y-4724460D02*
X524944Y-4714936D01*
X772562Y-4533984D02*
X791610Y-4533984D01*
X791610Y-4533984D02*
X810658Y-4543508D01*
X810658Y-4543508D02*
X820182Y-4553031D01*
X820182Y-4553031D02*
X829705Y-4572079D01*
X829705Y-4572079D02*
X839229Y-4610174D01*
X839229Y-4610174D02*
X839229Y-4657793D01*
X839229Y-4657793D02*
X829705Y-4695889D01*
X829705Y-4695889D02*
X820182Y-4714936D01*
X820182Y-4714936D02*
X810658Y-4724460D01*
X810658Y-4724460D02*
X791610Y-4733984D01*
X791610Y-4733984D02*
X772562Y-4733984D01*
X772562Y-4733984D02*
X753515Y-4724460D01*
X753515Y-4724460D02*
X743991Y-4714936D01*
X743991Y-4714936D02*
X734467Y-4695889D01*
X734467Y-4695889D02*
X724943Y-4657793D01*
X724943Y-4657793D02*
X724943Y-4610174D01*
X724943Y-4610174D02*
X734467Y-4572079D01*
X734467Y-4572079D02*
X743991Y-4553031D01*
X743991Y-4553031D02*
X753515Y-4543508D01*
X753515Y-4543508D02*
X772562Y-4533984D01*
X963039Y-4533984D02*
X982086Y-4533984D01*
X982086Y-4533984D02*
X1001134Y-4543508D01*
X1001134Y-4543508D02*
X1010658Y-4553031D01*
X1010658Y-4553031D02*
X1020182Y-4572079D01*
X1020182Y-4572079D02*
X1029705Y-4610174D01*
X1029705Y-4610174D02*
X1029705Y-4657793D01*
X1029705Y-4657793D02*
X1020182Y-4695889D01*
X1020182Y-4695889D02*
X1010658Y-4714936D01*
X1010658Y-4714936D02*
X1001134Y-4724460D01*
X1001134Y-4724460D02*
X982086Y-4733984D01*
X982086Y-4733984D02*
X963039Y-4733984D01*
X963039Y-4733984D02*
X943991Y-4724460D01*
X943991Y-4724460D02*
X934467Y-4714936D01*
X934467Y-4714936D02*
X924943Y-4695889D01*
X924943Y-4695889D02*
X915420Y-4657793D01*
X915420Y-4657793D02*
X915420Y-4610174D01*
X915420Y-4610174D02*
X924943Y-4572079D01*
X924943Y-4572079D02*
X934467Y-4553031D01*
X934467Y-4553031D02*
X943991Y-4543508D01*
X943991Y-4543508D02*
X963039Y-4533984D01*
X1115420Y-4733984D02*
X1115420Y-4600650D01*
X1115420Y-4619698D02*
X1124944Y-4610174D01*
X1124944Y-4610174D02*
X1143991Y-4600650D01*
X1143991Y-4600650D02*
X1172563Y-4600650D01*
X1172563Y-4600650D02*
X1191610Y-4610174D01*
X1191610Y-4610174D02*
X1201134Y-4629222D01*
X1201134Y-4629222D02*
X1201134Y-4733984D01*
X1201134Y-4629222D02*
X1210658Y-4610174D01*
X1210658Y-4610174D02*
X1229705Y-4600650D01*
X1229705Y-4600650D02*
X1258277Y-4600650D01*
X1258277Y-4600650D02*
X1277325Y-4610174D01*
X1277325Y-4610174D02*
X1286848Y-4629222D01*
X1286848Y-4629222D02*
X1286848Y-4733984D01*
X1382086Y-4733984D02*
X1382086Y-4600650D01*
X1382086Y-4619698D02*
X1391610Y-4610174D01*
X1391610Y-4610174D02*
X1410658Y-4600650D01*
X1410658Y-4600650D02*
X1439229Y-4600650D01*
X1439229Y-4600650D02*
X1458277Y-4610174D01*
X1458277Y-4610174D02*
X1467801Y-4629222D01*
X1467801Y-4629222D02*
X1467801Y-4733984D01*
X1467801Y-4629222D02*
X1477324Y-4610174D01*
X1477324Y-4610174D02*
X1496372Y-4600650D01*
X1496372Y-4600650D02*
X1524943Y-4600650D01*
X1524943Y-4600650D02*
X1543991Y-4610174D01*
X1543991Y-4610174D02*
X1553515Y-4629222D01*
X1553515Y-4629222D02*
X1553515Y-4733984D01*
X1943991Y-4524460D02*
X1772563Y-4781603D01*
X2201134Y-4533984D02*
X2220182Y-4533984D01*
X2220182Y-4533984D02*
X2239229Y-4543508D01*
X2239229Y-4543508D02*
X2248753Y-4553031D01*
X2248753Y-4553031D02*
X2258277Y-4572079D01*
X2258277Y-4572079D02*
X2267801Y-4610174D01*
X2267801Y-4610174D02*
X2267801Y-4657793D01*
X2267801Y-4657793D02*
X2258277Y-4695889D01*
X2258277Y-4695889D02*
X2248753Y-4714936D01*
X2248753Y-4714936D02*
X2239229Y-4724460D01*
X2239229Y-4724460D02*
X2220182Y-4733984D01*
X2220182Y-4733984D02*
X2201134Y-4733984D01*
X2201134Y-4733984D02*
X2182087Y-4724460D01*
X2182087Y-4724460D02*
X2172563Y-4714936D01*
X2172563Y-4714936D02*
X2163039Y-4695889D01*
X2163039Y-4695889D02*
X2153515Y-4657793D01*
X2153515Y-4657793D02*
X2153515Y-4610174D01*
X2153515Y-4610174D02*
X2163039Y-4572079D01*
X2163039Y-4572079D02*
X2172563Y-4553031D01*
X2172563Y-4553031D02*
X2182087Y-4543508D01*
X2182087Y-4543508D02*
X2201134Y-4533984D01*
X2353515Y-4714936D02*
X2363039Y-4724460D01*
X2363039Y-4724460D02*
X2353515Y-4733984D01*
X2353515Y-4733984D02*
X2343991Y-4724460D01*
X2343991Y-4724460D02*
X2353515Y-4714936D01*
X2353515Y-4714936D02*
X2353515Y-4733984D01*
X2486848Y-4533984D02*
X2505896Y-4533984D01*
X2505896Y-4533984D02*
X2524944Y-4543508D01*
X2524944Y-4543508D02*
X2534468Y-4553031D01*
X2534468Y-4553031D02*
X2543991Y-4572079D01*
X2543991Y-4572079D02*
X2553515Y-4610174D01*
X2553515Y-4610174D02*
X2553515Y-4657793D01*
X2553515Y-4657793D02*
X2543991Y-4695889D01*
X2543991Y-4695889D02*
X2534468Y-4714936D01*
X2534468Y-4714936D02*
X2524944Y-4724460D01*
X2524944Y-4724460D02*
X2505896Y-4733984D01*
X2505896Y-4733984D02*
X2486848Y-4733984D01*
X2486848Y-4733984D02*
X2467801Y-4724460D01*
X2467801Y-4724460D02*
X2458277Y-4714936D01*
X2458277Y-4714936D02*
X2448753Y-4695889D01*
X2448753Y-4695889D02*
X2439229Y-4657793D01*
X2439229Y-4657793D02*
X2439229Y-4610174D01*
X2439229Y-4610174D02*
X2448753Y-4572079D01*
X2448753Y-4572079D02*
X2458277Y-4553031D01*
X2458277Y-4553031D02*
X2467801Y-4543508D01*
X2467801Y-4543508D02*
X2486848Y-4533984D01*
X2743991Y-4733984D02*
X2629706Y-4733984D01*
X2686848Y-4733984D02*
X2686848Y-4533984D01*
X2686848Y-4533984D02*
X2667801Y-4562555D01*
X2667801Y-4562555D02*
X2648753Y-4581603D01*
X2648753Y-4581603D02*
X2629706Y-4591127D01*
X2934467Y-4733984D02*
X2820182Y-4733984D01*
X2877325Y-4733984D02*
X2877325Y-4533984D01*
X2877325Y-4533984D02*
X2858277Y-4562555D01*
X2858277Y-4562555D02*
X2839229Y-4581603D01*
X2839229Y-4581603D02*
X2820182Y-4591127D01*
X3048753Y-4619698D02*
X3029706Y-4610174D01*
X3029706Y-4610174D02*
X3020182Y-4600650D01*
X3020182Y-4600650D02*
X3010658Y-4581603D01*
X3010658Y-4581603D02*
X3010658Y-4572079D01*
X3010658Y-4572079D02*
X3020182Y-4553031D01*
X3020182Y-4553031D02*
X3029706Y-4543508D01*
X3029706Y-4543508D02*
X3048753Y-4533984D01*
X3048753Y-4533984D02*
X3086848Y-4533984D01*
X3086848Y-4533984D02*
X3105896Y-4543508D01*
X3105896Y-4543508D02*
X3115420Y-4553031D01*
X3115420Y-4553031D02*
X3124944Y-4572079D01*
X3124944Y-4572079D02*
X3124944Y-4581603D01*
X3124944Y-4581603D02*
X3115420Y-4600650D01*
X3115420Y-4600650D02*
X3105896Y-4610174D01*
X3105896Y-4610174D02*
X3086848Y-4619698D01*
X3086848Y-4619698D02*
X3048753Y-4619698D01*
X3048753Y-4619698D02*
X3029706Y-4629222D01*
X3029706Y-4629222D02*
X3020182Y-4638746D01*
X3020182Y-4638746D02*
X3010658Y-4657793D01*
X3010658Y-4657793D02*
X3010658Y-4695889D01*
X3010658Y-4695889D02*
X3020182Y-4714936D01*
X3020182Y-4714936D02*
X3029706Y-4724460D01*
X3029706Y-4724460D02*
X3048753Y-4733984D01*
X3048753Y-4733984D02*
X3086848Y-4733984D01*
X3086848Y-4733984D02*
X3105896Y-4724460D01*
X3105896Y-4724460D02*
X3115420Y-4714936D01*
X3115420Y-4714936D02*
X3124944Y-4695889D01*
X3124944Y-4695889D02*
X3124944Y-4657793D01*
X3124944Y-4657793D02*
X3115420Y-4638746D01*
X3115420Y-4638746D02*
X3105896Y-4629222D01*
X3105896Y-4629222D02*
X3086848Y-4619698D01*
X3201134Y-4533984D02*
X3201134Y-4572079D01*
X3277325Y-4533984D02*
X3277325Y-4572079D01*
X3572563Y-4810174D02*
X3563039Y-4800650D01*
X3563039Y-4800650D02*
X3543991Y-4772079D01*
X3543991Y-4772079D02*
X3534468Y-4753031D01*
X3534468Y-4753031D02*
X3524944Y-4724460D01*
X3524944Y-4724460D02*
X3515420Y-4676841D01*
X3515420Y-4676841D02*
X3515420Y-4638746D01*
X3515420Y-4638746D02*
X3524944Y-4591127D01*
X3524944Y-4591127D02*
X3534468Y-4562555D01*
X3534468Y-4562555D02*
X3543991Y-4543508D01*
X3543991Y-4543508D02*
X3563039Y-4514936D01*
X3563039Y-4514936D02*
X3572563Y-4505412D01*
X3743991Y-4533984D02*
X3648753Y-4533984D01*
X3648753Y-4533984D02*
X3639229Y-4629222D01*
X3639229Y-4629222D02*
X3648753Y-4619698D01*
X3648753Y-4619698D02*
X3667801Y-4610174D01*
X3667801Y-4610174D02*
X3715420Y-4610174D01*
X3715420Y-4610174D02*
X3734468Y-4619698D01*
X3734468Y-4619698D02*
X3743991Y-4629222D01*
X3743991Y-4629222D02*
X3753515Y-4648270D01*
X3753515Y-4648270D02*
X3753515Y-4695889D01*
X3753515Y-4695889D02*
X3743991Y-4714936D01*
X3743991Y-4714936D02*
X3734468Y-4724460D01*
X3734468Y-4724460D02*
X3715420Y-4733984D01*
X3715420Y-4733984D02*
X3667801Y-4733984D01*
X3667801Y-4733984D02*
X3648753Y-4724460D01*
X3648753Y-4724460D02*
X3639229Y-4714936D01*
X3820182Y-4533984D02*
X3943991Y-4533984D01*
X3943991Y-4533984D02*
X3877325Y-4610174D01*
X3877325Y-4610174D02*
X3905896Y-4610174D01*
X3905896Y-4610174D02*
X3924944Y-4619698D01*
X3924944Y-4619698D02*
X3934468Y-4629222D01*
X3934468Y-4629222D02*
X3943991Y-4648270D01*
X3943991Y-4648270D02*
X3943991Y-4695889D01*
X3943991Y-4695889D02*
X3934468Y-4714936D01*
X3934468Y-4714936D02*
X3924944Y-4724460D01*
X3924944Y-4724460D02*
X3905896Y-4733984D01*
X3905896Y-4733984D02*
X3848753Y-4733984D01*
X3848753Y-4733984D02*
X3829706Y-4724460D01*
X3829706Y-4724460D02*
X3820182Y-4714936D01*
X4182087Y-4733984D02*
X4182087Y-4533984D01*
X4267801Y-4733984D02*
X4267801Y-4629222D01*
X4267801Y-4629222D02*
X4258277Y-4610174D01*
X4258277Y-4610174D02*
X4239230Y-4600650D01*
X4239230Y-4600650D02*
X4210658Y-4600650D01*
X4210658Y-4600650D02*
X4191610Y-4610174D01*
X4191610Y-4610174D02*
X4182087Y-4619698D01*
X4391611Y-4733984D02*
X4372563Y-4724460D01*
X4372563Y-4724460D02*
X4363039Y-4714936D01*
X4363039Y-4714936D02*
X4353515Y-4695889D01*
X4353515Y-4695889D02*
X4353515Y-4638746D01*
X4353515Y-4638746D02*
X4363039Y-4619698D01*
X4363039Y-4619698D02*
X4372563Y-4610174D01*
X4372563Y-4610174D02*
X4391611Y-4600650D01*
X4391611Y-4600650D02*
X4420182Y-4600650D01*
X4420182Y-4600650D02*
X4439230Y-4610174D01*
X4439230Y-4610174D02*
X4448753Y-4619698D01*
X4448753Y-4619698D02*
X4458277Y-4638746D01*
X4458277Y-4638746D02*
X4458277Y-4695889D01*
X4458277Y-4695889D02*
X4448753Y-4714936D01*
X4448753Y-4714936D02*
X4439230Y-4724460D01*
X4439230Y-4724460D02*
X4420182Y-4733984D01*
X4420182Y-4733984D02*
X4391611Y-4733984D01*
X4572563Y-4733984D02*
X4553515Y-4724460D01*
X4553515Y-4724460D02*
X4543992Y-4705412D01*
X4543992Y-4705412D02*
X4543992Y-4533984D01*
X4724944Y-4724460D02*
X4705896Y-4733984D01*
X4705896Y-4733984D02*
X4667801Y-4733984D01*
X4667801Y-4733984D02*
X4648753Y-4724460D01*
X4648753Y-4724460D02*
X4639230Y-4705412D01*
X4639230Y-4705412D02*
X4639230Y-4629222D01*
X4639230Y-4629222D02*
X4648753Y-4610174D01*
X4648753Y-4610174D02*
X4667801Y-4600650D01*
X4667801Y-4600650D02*
X4705896Y-4600650D01*
X4705896Y-4600650D02*
X4724944Y-4610174D01*
X4724944Y-4610174D02*
X4734468Y-4629222D01*
X4734468Y-4629222D02*
X4734468Y-4648270D01*
X4734468Y-4648270D02*
X4639230Y-4667317D01*
X4810658Y-4724460D02*
X4829706Y-4733984D01*
X4829706Y-4733984D02*
X4867801Y-4733984D01*
X4867801Y-4733984D02*
X4886849Y-4724460D01*
X4886849Y-4724460D02*
X4896373Y-4705412D01*
X4896373Y-4705412D02*
X4896373Y-4695889D01*
X4896373Y-4695889D02*
X4886849Y-4676841D01*
X4886849Y-4676841D02*
X4867801Y-4667317D01*
X4867801Y-4667317D02*
X4839230Y-4667317D01*
X4839230Y-4667317D02*
X4820182Y-4657793D01*
X4820182Y-4657793D02*
X4810658Y-4638746D01*
X4810658Y-4638746D02*
X4810658Y-4629222D01*
X4810658Y-4629222D02*
X4820182Y-4610174D01*
X4820182Y-4610174D02*
X4839230Y-4600650D01*
X4839230Y-4600650D02*
X4867801Y-4600650D01*
X4867801Y-4600650D02*
X4886849Y-4610174D01*
X4963039Y-4810174D02*
X4972563Y-4800650D01*
X4972563Y-4800650D02*
X4991611Y-4772079D01*
X4991611Y-4772079D02*
X5001134Y-4753031D01*
X5001134Y-4753031D02*
X5010658Y-4724460D01*
X5010658Y-4724460D02*
X5020182Y-4676841D01*
X5020182Y-4676841D02*
X5020182Y-4638746D01*
X5020182Y-4638746D02*
X5010658Y-4591127D01*
X5010658Y-4591127D02*
X5001134Y-4562555D01*
X5001134Y-4562555D02*
X4991611Y-4543508D01*
X4991611Y-4543508D02*
X4972563Y-4514936D01*
X4972563Y-4514936D02*
X4963039Y-4505412D01*
D12*
X-2500Y-4906500D02*
G75*
G02*
X-67500Y-4906500I-32500J0D01*
G01*
X-67500Y-4906500D02*
G75*
G02*
X-2500Y-4906500I32500J0D01*
G01*
D11*
X296372Y-4797984D02*
X315420Y-4797984D01*
X315420Y-4797984D02*
X334467Y-4807508D01*
X334467Y-4807508D02*
X343991Y-4817031D01*
X343991Y-4817031D02*
X353515Y-4836079D01*
X353515Y-4836079D02*
X363039Y-4874174D01*
X363039Y-4874174D02*
X363039Y-4921793D01*
X363039Y-4921793D02*
X353515Y-4959889D01*
X353515Y-4959889D02*
X343991Y-4978936D01*
X343991Y-4978936D02*
X334467Y-4988460D01*
X334467Y-4988460D02*
X315420Y-4997984D01*
X315420Y-4997984D02*
X296372Y-4997984D01*
X296372Y-4997984D02*
X277324Y-4988460D01*
X277324Y-4988460D02*
X267801Y-4978936D01*
X267801Y-4978936D02*
X258277Y-4959889D01*
X258277Y-4959889D02*
X248753Y-4921793D01*
X248753Y-4921793D02*
X248753Y-4874174D01*
X248753Y-4874174D02*
X258277Y-4836079D01*
X258277Y-4836079D02*
X267801Y-4817031D01*
X267801Y-4817031D02*
X277324Y-4807508D01*
X277324Y-4807508D02*
X296372Y-4797984D01*
X448753Y-4978936D02*
X458277Y-4988460D01*
X458277Y-4988460D02*
X448753Y-4997984D01*
X448753Y-4997984D02*
X439229Y-4988460D01*
X439229Y-4988460D02*
X448753Y-4978936D01*
X448753Y-4978936D02*
X448753Y-4997984D01*
X629705Y-4797984D02*
X591610Y-4797984D01*
X591610Y-4797984D02*
X572563Y-4807508D01*
X572563Y-4807508D02*
X563039Y-4817031D01*
X563039Y-4817031D02*
X543991Y-4845603D01*
X543991Y-4845603D02*
X534467Y-4883698D01*
X534467Y-4883698D02*
X534467Y-4959889D01*
X534467Y-4959889D02*
X543991Y-4978936D01*
X543991Y-4978936D02*
X553515Y-4988460D01*
X553515Y-4988460D02*
X572563Y-4997984D01*
X572563Y-4997984D02*
X610658Y-4997984D01*
X610658Y-4997984D02*
X629705Y-4988460D01*
X629705Y-4988460D02*
X639229Y-4978936D01*
X639229Y-4978936D02*
X648753Y-4959889D01*
X648753Y-4959889D02*
X648753Y-4912270D01*
X648753Y-4912270D02*
X639229Y-4893222D01*
X639229Y-4893222D02*
X629705Y-4883698D01*
X629705Y-4883698D02*
X610658Y-4874174D01*
X610658Y-4874174D02*
X572563Y-4874174D01*
X572563Y-4874174D02*
X553515Y-4883698D01*
X553515Y-4883698D02*
X543991Y-4893222D01*
X543991Y-4893222D02*
X534467Y-4912270D01*
X829705Y-4797984D02*
X734467Y-4797984D01*
X734467Y-4797984D02*
X724943Y-4893222D01*
X724943Y-4893222D02*
X734467Y-4883698D01*
X734467Y-4883698D02*
X753515Y-4874174D01*
X753515Y-4874174D02*
X801134Y-4874174D01*
X801134Y-4874174D02*
X820182Y-4883698D01*
X820182Y-4883698D02*
X829705Y-4893222D01*
X829705Y-4893222D02*
X839229Y-4912270D01*
X839229Y-4912270D02*
X839229Y-4959889D01*
X839229Y-4959889D02*
X829705Y-4978936D01*
X829705Y-4978936D02*
X820182Y-4988460D01*
X820182Y-4988460D02*
X801134Y-4997984D01*
X801134Y-4997984D02*
X753515Y-4997984D01*
X753515Y-4997984D02*
X734467Y-4988460D01*
X734467Y-4988460D02*
X724943Y-4978936D01*
X963039Y-4797984D02*
X982086Y-4797984D01*
X982086Y-4797984D02*
X1001134Y-4807508D01*
X1001134Y-4807508D02*
X1010658Y-4817031D01*
X1010658Y-4817031D02*
X1020182Y-4836079D01*
X1020182Y-4836079D02*
X1029705Y-4874174D01*
X1029705Y-4874174D02*
X1029705Y-4921793D01*
X1029705Y-4921793D02*
X1020182Y-4959889D01*
X1020182Y-4959889D02*
X1010658Y-4978936D01*
X1010658Y-4978936D02*
X1001134Y-4988460D01*
X1001134Y-4988460D02*
X982086Y-4997984D01*
X982086Y-4997984D02*
X963039Y-4997984D01*
X963039Y-4997984D02*
X943991Y-4988460D01*
X943991Y-4988460D02*
X934467Y-4978936D01*
X934467Y-4978936D02*
X924943Y-4959889D01*
X924943Y-4959889D02*
X915420Y-4921793D01*
X915420Y-4921793D02*
X915420Y-4874174D01*
X915420Y-4874174D02*
X924943Y-4836079D01*
X924943Y-4836079D02*
X934467Y-4817031D01*
X934467Y-4817031D02*
X943991Y-4807508D01*
X943991Y-4807508D02*
X963039Y-4797984D01*
X1115420Y-4997984D02*
X1115420Y-4864650D01*
X1115420Y-4883698D02*
X1124944Y-4874174D01*
X1124944Y-4874174D02*
X1143991Y-4864650D01*
X1143991Y-4864650D02*
X1172563Y-4864650D01*
X1172563Y-4864650D02*
X1191610Y-4874174D01*
X1191610Y-4874174D02*
X1201134Y-4893222D01*
X1201134Y-4893222D02*
X1201134Y-4997984D01*
X1201134Y-4893222D02*
X1210658Y-4874174D01*
X1210658Y-4874174D02*
X1229705Y-4864650D01*
X1229705Y-4864650D02*
X1258277Y-4864650D01*
X1258277Y-4864650D02*
X1277325Y-4874174D01*
X1277325Y-4874174D02*
X1286848Y-4893222D01*
X1286848Y-4893222D02*
X1286848Y-4997984D01*
X1382086Y-4997984D02*
X1382086Y-4864650D01*
X1382086Y-4883698D02*
X1391610Y-4874174D01*
X1391610Y-4874174D02*
X1410658Y-4864650D01*
X1410658Y-4864650D02*
X1439229Y-4864650D01*
X1439229Y-4864650D02*
X1458277Y-4874174D01*
X1458277Y-4874174D02*
X1467801Y-4893222D01*
X1467801Y-4893222D02*
X1467801Y-4997984D01*
X1467801Y-4893222D02*
X1477324Y-4874174D01*
X1477324Y-4874174D02*
X1496372Y-4864650D01*
X1496372Y-4864650D02*
X1524943Y-4864650D01*
X1524943Y-4864650D02*
X1543991Y-4874174D01*
X1543991Y-4874174D02*
X1553515Y-4893222D01*
X1553515Y-4893222D02*
X1553515Y-4997984D01*
X1943991Y-4788460D02*
X1772563Y-5045603D01*
X2201134Y-4797984D02*
X2220182Y-4797984D01*
X2220182Y-4797984D02*
X2239229Y-4807508D01*
X2239229Y-4807508D02*
X2248753Y-4817031D01*
X2248753Y-4817031D02*
X2258277Y-4836079D01*
X2258277Y-4836079D02*
X2267801Y-4874174D01*
X2267801Y-4874174D02*
X2267801Y-4921793D01*
X2267801Y-4921793D02*
X2258277Y-4959889D01*
X2258277Y-4959889D02*
X2248753Y-4978936D01*
X2248753Y-4978936D02*
X2239229Y-4988460D01*
X2239229Y-4988460D02*
X2220182Y-4997984D01*
X2220182Y-4997984D02*
X2201134Y-4997984D01*
X2201134Y-4997984D02*
X2182087Y-4988460D01*
X2182087Y-4988460D02*
X2172563Y-4978936D01*
X2172563Y-4978936D02*
X2163039Y-4959889D01*
X2163039Y-4959889D02*
X2153515Y-4921793D01*
X2153515Y-4921793D02*
X2153515Y-4874174D01*
X2153515Y-4874174D02*
X2163039Y-4836079D01*
X2163039Y-4836079D02*
X2172563Y-4817031D01*
X2172563Y-4817031D02*
X2182087Y-4807508D01*
X2182087Y-4807508D02*
X2201134Y-4797984D01*
X2353515Y-4978936D02*
X2363039Y-4988460D01*
X2363039Y-4988460D02*
X2353515Y-4997984D01*
X2353515Y-4997984D02*
X2343991Y-4988460D01*
X2343991Y-4988460D02*
X2353515Y-4978936D01*
X2353515Y-4978936D02*
X2353515Y-4997984D01*
X2486848Y-4797984D02*
X2505896Y-4797984D01*
X2505896Y-4797984D02*
X2524944Y-4807508D01*
X2524944Y-4807508D02*
X2534468Y-4817031D01*
X2534468Y-4817031D02*
X2543991Y-4836079D01*
X2543991Y-4836079D02*
X2553515Y-4874174D01*
X2553515Y-4874174D02*
X2553515Y-4921793D01*
X2553515Y-4921793D02*
X2543991Y-4959889D01*
X2543991Y-4959889D02*
X2534468Y-4978936D01*
X2534468Y-4978936D02*
X2524944Y-4988460D01*
X2524944Y-4988460D02*
X2505896Y-4997984D01*
X2505896Y-4997984D02*
X2486848Y-4997984D01*
X2486848Y-4997984D02*
X2467801Y-4988460D01*
X2467801Y-4988460D02*
X2458277Y-4978936D01*
X2458277Y-4978936D02*
X2448753Y-4959889D01*
X2448753Y-4959889D02*
X2439229Y-4921793D01*
X2439229Y-4921793D02*
X2439229Y-4874174D01*
X2439229Y-4874174D02*
X2448753Y-4836079D01*
X2448753Y-4836079D02*
X2458277Y-4817031D01*
X2458277Y-4817031D02*
X2467801Y-4807508D01*
X2467801Y-4807508D02*
X2486848Y-4797984D01*
X2629706Y-4817031D02*
X2639229Y-4807508D01*
X2639229Y-4807508D02*
X2658277Y-4797984D01*
X2658277Y-4797984D02*
X2705896Y-4797984D01*
X2705896Y-4797984D02*
X2724944Y-4807508D01*
X2724944Y-4807508D02*
X2734468Y-4817031D01*
X2734468Y-4817031D02*
X2743991Y-4836079D01*
X2743991Y-4836079D02*
X2743991Y-4855127D01*
X2743991Y-4855127D02*
X2734468Y-4883698D01*
X2734468Y-4883698D02*
X2620182Y-4997984D01*
X2620182Y-4997984D02*
X2743991Y-4997984D01*
X2924944Y-4797984D02*
X2829706Y-4797984D01*
X2829706Y-4797984D02*
X2820182Y-4893222D01*
X2820182Y-4893222D02*
X2829706Y-4883698D01*
X2829706Y-4883698D02*
X2848753Y-4874174D01*
X2848753Y-4874174D02*
X2896372Y-4874174D01*
X2896372Y-4874174D02*
X2915420Y-4883698D01*
X2915420Y-4883698D02*
X2924944Y-4893222D01*
X2924944Y-4893222D02*
X2934467Y-4912270D01*
X2934467Y-4912270D02*
X2934467Y-4959889D01*
X2934467Y-4959889D02*
X2924944Y-4978936D01*
X2924944Y-4978936D02*
X2915420Y-4988460D01*
X2915420Y-4988460D02*
X2896372Y-4997984D01*
X2896372Y-4997984D02*
X2848753Y-4997984D01*
X2848753Y-4997984D02*
X2829706Y-4988460D01*
X2829706Y-4988460D02*
X2820182Y-4978936D01*
X3105896Y-4797984D02*
X3067801Y-4797984D01*
X3067801Y-4797984D02*
X3048753Y-4807508D01*
X3048753Y-4807508D02*
X3039229Y-4817031D01*
X3039229Y-4817031D02*
X3020182Y-4845603D01*
X3020182Y-4845603D02*
X3010658Y-4883698D01*
X3010658Y-4883698D02*
X3010658Y-4959889D01*
X3010658Y-4959889D02*
X3020182Y-4978936D01*
X3020182Y-4978936D02*
X3029706Y-4988460D01*
X3029706Y-4988460D02*
X3048753Y-4997984D01*
X3048753Y-4997984D02*
X3086848Y-4997984D01*
X3086848Y-4997984D02*
X3105896Y-4988460D01*
X3105896Y-4988460D02*
X3115420Y-4978936D01*
X3115420Y-4978936D02*
X3124944Y-4959889D01*
X3124944Y-4959889D02*
X3124944Y-4912270D01*
X3124944Y-4912270D02*
X3115420Y-4893222D01*
X3115420Y-4893222D02*
X3105896Y-4883698D01*
X3105896Y-4883698D02*
X3086848Y-4874174D01*
X3086848Y-4874174D02*
X3048753Y-4874174D01*
X3048753Y-4874174D02*
X3029706Y-4883698D01*
X3029706Y-4883698D02*
X3020182Y-4893222D01*
X3020182Y-4893222D02*
X3010658Y-4912270D01*
X3201134Y-4797984D02*
X3201134Y-4836079D01*
X3277325Y-4797984D02*
X3277325Y-4836079D01*
X3572563Y-5074174D02*
X3563039Y-5064650D01*
X3563039Y-5064650D02*
X3543991Y-5036079D01*
X3543991Y-5036079D02*
X3534468Y-5017031D01*
X3534468Y-5017031D02*
X3524944Y-4988460D01*
X3524944Y-4988460D02*
X3515420Y-4940841D01*
X3515420Y-4940841D02*
X3515420Y-4902746D01*
X3515420Y-4902746D02*
X3524944Y-4855127D01*
X3524944Y-4855127D02*
X3534468Y-4826555D01*
X3534468Y-4826555D02*
X3543991Y-4807508D01*
X3543991Y-4807508D02*
X3563039Y-4778936D01*
X3563039Y-4778936D02*
X3572563Y-4769412D01*
X3753515Y-4997984D02*
X3639229Y-4997984D01*
X3696372Y-4997984D02*
X3696372Y-4797984D01*
X3696372Y-4797984D02*
X3677325Y-4826555D01*
X3677325Y-4826555D02*
X3658277Y-4845603D01*
X3658277Y-4845603D02*
X3639229Y-4855127D01*
X3829706Y-4817031D02*
X3839229Y-4807508D01*
X3839229Y-4807508D02*
X3858277Y-4797984D01*
X3858277Y-4797984D02*
X3905896Y-4797984D01*
X3905896Y-4797984D02*
X3924944Y-4807508D01*
X3924944Y-4807508D02*
X3934468Y-4817031D01*
X3934468Y-4817031D02*
X3943991Y-4836079D01*
X3943991Y-4836079D02*
X3943991Y-4855127D01*
X3943991Y-4855127D02*
X3934468Y-4883698D01*
X3934468Y-4883698D02*
X3820182Y-4997984D01*
X3820182Y-4997984D02*
X3943991Y-4997984D01*
X4182087Y-4997984D02*
X4182087Y-4797984D01*
X4267801Y-4997984D02*
X4267801Y-4893222D01*
X4267801Y-4893222D02*
X4258277Y-4874174D01*
X4258277Y-4874174D02*
X4239230Y-4864650D01*
X4239230Y-4864650D02*
X4210658Y-4864650D01*
X4210658Y-4864650D02*
X4191610Y-4874174D01*
X4191610Y-4874174D02*
X4182087Y-4883698D01*
X4391611Y-4997984D02*
X4372563Y-4988460D01*
X4372563Y-4988460D02*
X4363039Y-4978936D01*
X4363039Y-4978936D02*
X4353515Y-4959889D01*
X4353515Y-4959889D02*
X4353515Y-4902746D01*
X4353515Y-4902746D02*
X4363039Y-4883698D01*
X4363039Y-4883698D02*
X4372563Y-4874174D01*
X4372563Y-4874174D02*
X4391611Y-4864650D01*
X4391611Y-4864650D02*
X4420182Y-4864650D01*
X4420182Y-4864650D02*
X4439230Y-4874174D01*
X4439230Y-4874174D02*
X4448753Y-4883698D01*
X4448753Y-4883698D02*
X4458277Y-4902746D01*
X4458277Y-4902746D02*
X4458277Y-4959889D01*
X4458277Y-4959889D02*
X4448753Y-4978936D01*
X4448753Y-4978936D02*
X4439230Y-4988460D01*
X4439230Y-4988460D02*
X4420182Y-4997984D01*
X4420182Y-4997984D02*
X4391611Y-4997984D01*
X4572563Y-4997984D02*
X4553515Y-4988460D01*
X4553515Y-4988460D02*
X4543992Y-4969412D01*
X4543992Y-4969412D02*
X4543992Y-4797984D01*
X4724944Y-4988460D02*
X4705896Y-4997984D01*
X4705896Y-4997984D02*
X4667801Y-4997984D01*
X4667801Y-4997984D02*
X4648753Y-4988460D01*
X4648753Y-4988460D02*
X4639230Y-4969412D01*
X4639230Y-4969412D02*
X4639230Y-4893222D01*
X4639230Y-4893222D02*
X4648753Y-4874174D01*
X4648753Y-4874174D02*
X4667801Y-4864650D01*
X4667801Y-4864650D02*
X4705896Y-4864650D01*
X4705896Y-4864650D02*
X4724944Y-4874174D01*
X4724944Y-4874174D02*
X4734468Y-4893222D01*
X4734468Y-4893222D02*
X4734468Y-4912270D01*
X4734468Y-4912270D02*
X4639230Y-4931317D01*
X4810658Y-4988460D02*
X4829706Y-4997984D01*
X4829706Y-4997984D02*
X4867801Y-4997984D01*
X4867801Y-4997984D02*
X4886849Y-4988460D01*
X4886849Y-4988460D02*
X4896373Y-4969412D01*
X4896373Y-4969412D02*
X4896373Y-4959889D01*
X4896373Y-4959889D02*
X4886849Y-4940841D01*
X4886849Y-4940841D02*
X4867801Y-4931317D01*
X4867801Y-4931317D02*
X4839230Y-4931317D01*
X4839230Y-4931317D02*
X4820182Y-4921793D01*
X4820182Y-4921793D02*
X4810658Y-4902746D01*
X4810658Y-4902746D02*
X4810658Y-4893222D01*
X4810658Y-4893222D02*
X4820182Y-4874174D01*
X4820182Y-4874174D02*
X4839230Y-4864650D01*
X4839230Y-4864650D02*
X4867801Y-4864650D01*
X4867801Y-4864650D02*
X4886849Y-4874174D01*
X4963039Y-5074174D02*
X4972563Y-5064650D01*
X4972563Y-5064650D02*
X4991611Y-5036079D01*
X4991611Y-5036079D02*
X5001134Y-5017031D01*
X5001134Y-5017031D02*
X5010658Y-4988460D01*
X5010658Y-4988460D02*
X5020182Y-4940841D01*
X5020182Y-4940841D02*
X5020182Y-4902746D01*
X5020182Y-4902746D02*
X5010658Y-4855127D01*
X5010658Y-4855127D02*
X5001134Y-4826555D01*
X5001134Y-4826555D02*
X4991611Y-4807508D01*
X4991611Y-4807508D02*
X4972563Y-4778936D01*
X4972563Y-4778936D02*
X4963039Y-4769412D01*
M02*
