%TF.GenerationSoftware,KiCad,Pcbnew,9.0.3-9.0.3-0~ubuntu24.04.1*%
%TF.CreationDate,2025-07-13T11:29:56+02:00*%
%TF.ProjectId,PCBWatch,50434257-6174-4636-982e-6b696361645f,rev?*%
%TF.SameCoordinates,Original*%
%TF.FileFunction,Drillmap*%
%TF.FilePolarity,Positive*%
%FSLAX45Y45*%
G04 Gerber Fmt 4.5, Leading zero omitted, Abs format (unit mm)*
G04 Created by KiCad (PCBNEW 9.0.3-9.0.3-0~ubuntu24.04.1) date 2025-07-13 11:29:56*
%MOMM*%
%LPD*%
G01*
G04 APERTURE LIST*
%ADD10C,0.050000*%
%ADD11C,0.200000*%
G04 APERTURE END LIST*
D10*
X4000000Y0D02*
X4000000Y-4000000D01*
X6050000Y-1150000D02*
X5650000Y-1550000D01*
X7350000Y-3250000D02*
X7750000Y-2850000D01*
X7750000Y-1550000D02*
X7350000Y-1150000D01*
X7750000Y-2850000D02*
X7750000Y-1550000D01*
X7350000Y-1150000D02*
X6050000Y-1150000D01*
X6400000Y-3250000D02*
X7350000Y-3250000D01*
X6400000Y-3250000D02*
X5650000Y-2500000D01*
X5650000Y-1550000D02*
X5650000Y-2500000D01*
X4000000Y0D02*
X0Y0D01*
X0Y-4000000D02*
X4000000Y-4000000D01*
X0Y0D02*
X0Y-4000000D01*
D11*
X258277Y-4313984D02*
X258277Y-4113984D01*
X258277Y-4113984D02*
X305896Y-4113984D01*
X305896Y-4113984D02*
X334467Y-4123508D01*
X334467Y-4123508D02*
X353515Y-4142555D01*
X353515Y-4142555D02*
X363039Y-4161603D01*
X363039Y-4161603D02*
X372562Y-4199698D01*
X372562Y-4199698D02*
X372562Y-4228270D01*
X372562Y-4228270D02*
X363039Y-4266365D01*
X363039Y-4266365D02*
X353515Y-4285412D01*
X353515Y-4285412D02*
X334467Y-4304460D01*
X334467Y-4304460D02*
X305896Y-4313984D01*
X305896Y-4313984D02*
X258277Y-4313984D01*
X458277Y-4313984D02*
X458277Y-4180650D01*
X458277Y-4218746D02*
X467801Y-4199698D01*
X467801Y-4199698D02*
X477324Y-4190174D01*
X477324Y-4190174D02*
X496372Y-4180650D01*
X496372Y-4180650D02*
X515420Y-4180650D01*
X582086Y-4313984D02*
X582086Y-4180650D01*
X582086Y-4113984D02*
X572563Y-4123508D01*
X572563Y-4123508D02*
X582086Y-4133031D01*
X582086Y-4133031D02*
X591610Y-4123508D01*
X591610Y-4123508D02*
X582086Y-4113984D01*
X582086Y-4113984D02*
X582086Y-4133031D01*
X705896Y-4313984D02*
X686848Y-4304460D01*
X686848Y-4304460D02*
X677324Y-4285412D01*
X677324Y-4285412D02*
X677324Y-4113984D01*
X810658Y-4313984D02*
X791610Y-4304460D01*
X791610Y-4304460D02*
X782086Y-4285412D01*
X782086Y-4285412D02*
X782086Y-4113984D01*
X1039229Y-4313984D02*
X1039229Y-4113984D01*
X1039229Y-4113984D02*
X1105896Y-4256841D01*
X1105896Y-4256841D02*
X1172563Y-4113984D01*
X1172563Y-4113984D02*
X1172563Y-4313984D01*
X1353515Y-4313984D02*
X1353515Y-4209222D01*
X1353515Y-4209222D02*
X1343991Y-4190174D01*
X1343991Y-4190174D02*
X1324944Y-4180650D01*
X1324944Y-4180650D02*
X1286848Y-4180650D01*
X1286848Y-4180650D02*
X1267801Y-4190174D01*
X1353515Y-4304460D02*
X1334467Y-4313984D01*
X1334467Y-4313984D02*
X1286848Y-4313984D01*
X1286848Y-4313984D02*
X1267801Y-4304460D01*
X1267801Y-4304460D02*
X1258277Y-4285412D01*
X1258277Y-4285412D02*
X1258277Y-4266365D01*
X1258277Y-4266365D02*
X1267801Y-4247317D01*
X1267801Y-4247317D02*
X1286848Y-4237793D01*
X1286848Y-4237793D02*
X1334467Y-4237793D01*
X1334467Y-4237793D02*
X1353515Y-4228270D01*
X1448753Y-4180650D02*
X1448753Y-4380650D01*
X1448753Y-4190174D02*
X1467801Y-4180650D01*
X1467801Y-4180650D02*
X1505896Y-4180650D01*
X1505896Y-4180650D02*
X1524943Y-4190174D01*
X1524943Y-4190174D02*
X1534467Y-4199698D01*
X1534467Y-4199698D02*
X1543991Y-4218746D01*
X1543991Y-4218746D02*
X1543991Y-4275889D01*
X1543991Y-4275889D02*
X1534467Y-4294936D01*
X1534467Y-4294936D02*
X1524943Y-4304460D01*
X1524943Y-4304460D02*
X1505896Y-4313984D01*
X1505896Y-4313984D02*
X1467801Y-4313984D01*
X1467801Y-4313984D02*
X1448753Y-4304460D01*
X1629705Y-4294936D02*
X1639229Y-4304460D01*
X1639229Y-4304460D02*
X1629705Y-4313984D01*
X1629705Y-4313984D02*
X1620182Y-4304460D01*
X1620182Y-4304460D02*
X1629705Y-4294936D01*
X1629705Y-4294936D02*
X1629705Y-4313984D01*
X1629705Y-4190174D02*
X1639229Y-4199698D01*
X1639229Y-4199698D02*
X1629705Y-4209222D01*
X1629705Y-4209222D02*
X1620182Y-4199698D01*
X1620182Y-4199698D02*
X1629705Y-4190174D01*
X1629705Y-4190174D02*
X1629705Y-4209222D01*
M02*
