M48
; DRILL file {KiCad 9.0.3-9.0.3-0~ubuntu24.04.1} date 2025-07-13T16:36:45+0200
; FORMAT={-:-/ absolute / metric / decimal}
; #@! TF.CreationDate,2025-07-13T16:36:45+02:00
; #@! TF.GenerationSoftware,Kicad,Pcbnew,9.0.3-9.0.3-0~ubuntu24.04.1
; #@! TF.FileFunction,Plated,1,2,PTH
FMAT,2
METRIC
; #@! TA.AperFunction,Plated,PTH,ViaDrill
T1C0.300
; #@! TA.AperFunction,Plated,PTH,ComponentDrill
T2C0.650
%
G90
G05
T1
X1.25Y-7.5
X1.25Y-8.75
X1.25Y-10.0
X1.25Y-11.25
X1.25Y-12.5
X1.25Y-13.75
X1.25Y-15.0
X1.25Y-16.25
X1.25Y-17.5
X1.25Y-18.75
X1.25Y-20.0
X1.25Y-21.25
X1.25Y-22.5
X1.25Y-23.75
X1.25Y-25.0
X1.25Y-26.25
X1.25Y-27.5
X1.25Y-28.75
X1.25Y-30.0
X1.25Y-31.25
X1.25Y-32.5
X1.275Y-33.904
X1.285Y-6.314
X1.51Y-5.216
X1.713Y-35.333
X1.973Y-4.118
X2.495Y-36.629
X2.727Y-3.059
X3.58Y-37.695
X3.613Y-2.279
X4.791Y-1.683
X4.8Y-8.1
X5.086Y-38.419
X5.3Y-9.1
X5.8Y-10.1
X6.087Y-1.326
X6.25Y-20.0
X6.3Y-11.1
X6.75Y-38.75
X7.0Y-27.75
X7.0Y-30.75
X7.5Y-1.25
X7.75Y-31.25
X8.0Y-38.75
X8.5Y-20.0
X8.5Y-31.75
X8.75Y-1.25
X9.25Y-32.25
X9.25Y-38.75
X10.0Y-1.25
X10.5Y-13.5
X10.5Y-24.25
X10.5Y-38.75
X10.698Y-21.045
X11.16Y-26.16
X11.25Y-1.25
X11.75Y-38.75
X12.5Y-1.25
X12.5Y-27.0
X13.0Y-37.5
X13.0Y-38.75
X13.5Y-27.0
X13.75Y-1.25
X14.0Y-36.5
X14.25Y-11.75
X14.25Y-38.75
X14.725Y-27.779
X15.0Y-1.25
X15.0Y-11.0
X15.25Y-17.25
X15.5Y-30.0
X16.0Y-34.5
X16.25Y-1.25
X16.5Y-29.0
X16.75Y-10.25
X16.75Y-33.5
X17.5Y-1.25
X17.5Y-29.0
X18.75Y-1.25
X20.0Y-1.25
X20.0Y-6.5
X21.25Y-1.25
X21.85Y-17.5
X22.25Y-10.25
X22.5Y-1.25
X23.0Y-17.5
X23.2Y-22.0
X23.25Y-33.5
X23.582Y-10.226
X23.75Y-1.25
X23.75Y-8.75
X24.0Y-34.5
X25.0Y-1.25
X25.25Y-10.75
X25.5Y-12.0
X25.5Y-13.0
X25.75Y-38.75
X26.0Y-29.0
X26.0Y-36.5
X26.215Y-26.492
X26.25Y-1.25
X26.5Y-13.0
X27.0Y-37.5
X27.0Y-38.75
X27.1Y-7.8
X27.215Y-25.492
X27.215Y-26.492
X27.5Y-1.25
X28.198Y-12.85
X28.25Y-38.75
X28.75Y-1.25
X29.0Y-28.0
X29.0Y-31.0
X29.15Y-16.5
X29.35Y-30.0
X29.4Y-18.5
X29.5Y-38.75
X29.637Y-34.72
X30.0Y-1.25
X30.0Y-26.0
X30.75Y-20.5
X30.75Y-38.75
X31.1Y-11.9
X31.2Y-13.2
X31.2Y-14.1
X31.25Y-1.25
X31.5Y-26.75
X31.7Y-11.2
X32.0Y-19.5
X32.0Y-38.75
X32.5Y-1.25
X32.5Y-12.25
X33.25Y-38.75
X33.634Y-1.303
X34.6Y-38.6
X34.785Y-1.514
X35.8Y-38.0
X35.883Y-2.004
X36.862Y-2.758
X37.0Y-37.2
X37.709Y-3.671
X37.8Y-36.2
X38.304Y-4.848
X38.4Y-35.0
X38.675Y-6.158
X38.703Y-33.715
X38.75Y-7.5
X38.75Y-8.75
X38.75Y-10.0
X38.75Y-11.25
X38.75Y-12.5
X38.75Y-13.75
X38.75Y-15.0
X38.75Y-16.25
X38.75Y-17.5
X38.75Y-18.75
X38.75Y-20.0
X38.75Y-21.25
X38.75Y-22.5
X38.75Y-23.75
X38.75Y-25.0
X38.75Y-26.25
X38.75Y-27.5
X38.75Y-28.75
X38.75Y-30.0
X38.75Y-31.25
X38.75Y-32.5
X40.656Y-11.208
X40.656Y-12.208
X40.656Y-13.208
X40.656Y-14.208
X41.468Y-14.692
X41.468Y-10.788
X41.472Y-11.707
X41.472Y-12.707
X41.472Y-13.707
X43.353Y-9.191
X43.375Y-11.784
X44.864Y-15.78
X45.914Y-8.164
X46.746Y-14.746
X47.5Y-17.5
X49.5Y-14.0
X49.8Y-19.7
X51.0Y-14.0
X51.674Y-12.674
X52.0Y-15.0
X52.101Y-21.899
X52.25Y-5.5
X52.8Y-8.03
X53.0Y-16.0
X53.155Y-21.041
X53.5Y-13.5
X54.5Y-14.5
X54.537Y-7.707
X57.601Y-18.399
X58.0Y-22.0
X58.37Y-19.148
X59.0Y-14.5
X59.1Y-19.878
X60.3Y-15.4
T2
X9.602Y-17.398
X10.5Y-16.5
X11.398Y-15.602
X28.602Y-24.398
X29.5Y-23.5
X30.398Y-22.602
X46.96Y-5.302
X48.23Y-5.302
X49.5Y-5.302
X55.46Y-23.693
X56.73Y-23.693
X58.0Y-23.693
M30
