G04 #@! TF.GenerationSoftware,KiCad,Pcbnew,9.0.3-9.0.3-0~ubuntu24.04.1*
G04 #@! TF.CreationDate,2025-07-13T11:29:56+02:00*
G04 #@! TF.ProjectId,PCBWatch,50434257-6174-4636-982e-6b696361645f,rev?*
G04 #@! TF.SameCoordinates,Original*
G04 #@! TF.FileFunction,Copper,L2,Bot*
G04 #@! TF.FilePolarity,Positive*
%FSLAX46Y46*%
G04 Gerber Fmt 4.6, Leading zero omitted, Abs format (unit mm)*
G04 Created by KiCad (PCBNEW 9.0.3-9.0.3-0~ubuntu24.04.1) date 2025-07-13 11:29:56*
%MOMM*%
%LPD*%
G01*
G04 APERTURE LIST*
G04 Aperture macros list*
%AMRotRect*
0 Rectangle, with rotation*
0 The origin of the aperture is its center*
0 $1 length*
0 $2 width*
0 $3 Rotation angle, in degrees counterclockwise*
0 Add horizontal line*
21,1,$1,$2,0,0,$3*%
G04 Aperture macros list end*
G04 #@! TA.AperFunction,EtchedComponent*
%ADD10C,0.000000*%
G04 #@! TD*
G04 #@! TA.AperFunction,SMDPad,CuDef*
%ADD11R,5.105400X2.489200*%
G04 #@! TD*
G04 #@! TA.AperFunction,SMDPad,CuDef*
%ADD12C,5.080000*%
G04 #@! TD*
G04 #@! TA.AperFunction,ComponentPad*
%ADD13R,1.000000X1.000000*%
G04 #@! TD*
G04 #@! TA.AperFunction,ComponentPad*
%ADD14C,1.000000*%
G04 #@! TD*
G04 #@! TA.AperFunction,ComponentPad*
%ADD15RotRect,1.000000X1.000000X315.000000*%
G04 #@! TD*
G04 #@! TA.AperFunction,ViaPad*
%ADD16C,0.600000*%
G04 #@! TD*
G04 #@! TA.AperFunction,Conductor*
%ADD17C,0.200000*%
G04 #@! TD*
G04 APERTURE END LIST*
D10*
G04 #@! TA.AperFunction,EtchedComponent*
G04 #@! TO.C,B1*
G36*
X21736831Y-11268363D02*
G01*
X23406916Y-11774978D01*
X24946075Y-12597675D01*
X26295160Y-13704840D01*
X27402325Y-15053925D01*
X28225022Y-16593084D01*
X28731637Y-18263169D01*
X28902700Y-20000000D01*
X28731637Y-21736831D01*
X28225022Y-23406916D01*
X27402325Y-24946075D01*
X26295160Y-26295160D01*
X24946075Y-27402325D01*
X23406916Y-28225022D01*
X21736831Y-28731637D01*
X20000000Y-28902700D01*
X18263169Y-28731637D01*
X16593084Y-28225022D01*
X15053925Y-27402325D01*
X13704840Y-26295160D01*
X12597675Y-24946075D01*
X11774978Y-23406916D01*
X11268363Y-21736831D01*
X11097300Y-20000000D01*
X11268363Y-18263169D01*
X11774978Y-16593084D01*
X12597675Y-15053925D01*
X13704840Y-13704840D01*
X15053925Y-12597675D01*
X16593084Y-11774978D01*
X18263169Y-11268363D01*
X20000000Y-11097300D01*
X21736831Y-11268363D01*
G37*
G04 #@! TD.AperFunction*
G04 #@! TD*
D11*
G04 #@! TO.P,B1,1,1*
G04 #@! TO.N,+3V0-A*
X20000000Y-31450000D03*
X20000000Y-8550000D03*
D12*
G04 #@! TO.P,B1,2,2*
G04 #@! TO.N,GND-A*
X20000000Y-20000000D03*
G04 #@! TD*
D13*
G04 #@! TO.P,J4,1,Pin_1*
G04 #@! TO.N,+3V0-B*
X64000000Y-12804447D03*
D14*
G04 #@! TO.P,J4,2,Pin_2*
G04 #@! TO.N,unconnected-(J4-Pin_2-Pad2)*
X62730000Y-12804447D03*
G04 #@! TO.P,J4,3,Pin_3*
G04 #@! TO.N,GND-B*
X61460000Y-12804447D03*
G04 #@! TD*
D15*
G04 #@! TO.P,J3,1,Pin_1*
G04 #@! TO.N,+3V0-A*
X11398026Y-15601974D03*
D14*
G04 #@! TO.P,J3,2,Pin_2*
G04 #@! TO.N,unconnected-(J3-Pin_2-Pad2)*
X10500000Y-16500000D03*
G04 #@! TO.P,J3,3,Pin_3*
G04 #@! TO.N,GND-A*
X9601975Y-17398025D03*
G04 #@! TD*
D15*
G04 #@! TO.P,J5,1,Pin_1*
G04 #@! TO.N,/sda-A*
X30398026Y-22601975D03*
D14*
G04 #@! TO.P,J5,2,Pin_2*
G04 #@! TO.N,/sck-A*
X29500000Y-23500001D03*
G04 #@! TO.P,J5,3,Pin_3*
G04 #@! TO.N,/touch-A*
X28601975Y-24398026D03*
G04 #@! TD*
D13*
G04 #@! TO.P,J6,1,Pin_1*
G04 #@! TO.N,/sda-B*
X72500000Y-31193359D03*
D14*
G04 #@! TO.P,J6,2,Pin_2*
G04 #@! TO.N,/sck-B*
X71230000Y-31193359D03*
G04 #@! TO.P,J6,3,Pin_3*
G04 #@! TO.N,/touch-B*
X69960000Y-31193359D03*
G04 #@! TD*
D16*
G04 #@! TO.N,+3V0-A*
X15500000Y-30000000D03*
X14750000Y-10750000D03*
X22250000Y-10250000D03*
G04 #@! TO.N,/row7*
X27000000Y-37500000D03*
X13000000Y-37500000D03*
G04 #@! TO.N,/row6*
X26000000Y-36500000D03*
X14000000Y-36500000D03*
G04 #@! TO.N,/row2*
X24000000Y-34500000D03*
X16000000Y-34500000D03*
G04 #@! TO.N,/row1*
X23250000Y-33500000D03*
X16750000Y-33500000D03*
G04 #@! TO.N,/column2*
X31500000Y-10000000D03*
G04 #@! TO.N,/row5*
X31500000Y-13500000D03*
X11159580Y-26159580D03*
G04 #@! TO.N,/row4*
X10500000Y-24250000D03*
X32500000Y-12250000D03*
G04 #@! TO.N,/row3*
X32750000Y-9500000D03*
X10697823Y-21045191D03*
G04 #@! TO.N,/row8*
X12889924Y-13909663D03*
X31750000Y-8000000D03*
G04 #@! TO.N,/column4*
X30250000Y-30750000D03*
G04 #@! TO.N,/row7*
X28500000Y-26500000D03*
X30000000Y-34750000D03*
G04 #@! TO.N,/row6*
X29250000Y-17750000D03*
X30575735Y-27575735D03*
G04 #@! TO.N,/row2*
X29500000Y-30000000D03*
X28250000Y-11492640D03*
G04 #@! TO.N,/row1*
X29150000Y-15750000D03*
X30500000Y-28500000D03*
G04 #@! TO.N,/column4*
X33000000Y-28000000D03*
X27000000Y-12500000D03*
G04 #@! TO.N,/column3*
X14724696Y-27778957D03*
X7000000Y-27750000D03*
G04 #@! TO.N,/column2*
X28250000Y-7250000D03*
X23750000Y-8750000D03*
G04 #@! TO.N,+3V0-A*
X23000000Y-29000000D03*
G04 #@! TO.N,GND-B*
X73599584Y-27377652D03*
X72869655Y-26647723D03*
G04 #@! TO.N,/touch-B*
X72101042Y-25898958D03*
G04 #@! TO.N,GND-B*
X73500000Y-22000000D03*
X69037058Y-15207107D03*
X61024265Y-15024265D03*
G04 #@! TO.N,+3V0-B*
X67300000Y-15529950D03*
X74800000Y-22900000D03*
X59363793Y-23279654D03*
X67654827Y-28541491D03*
G04 #@! TO.N,/SWDIO*
X64300000Y-27200000D03*
X62000000Y-25000000D03*
G04 #@! TO.N,Net-(U1-BOOT0)*
X58229539Y-18900673D03*
G04 #@! TO.N,/NRST*
X64000000Y-21500000D03*
X61245988Y-22245988D03*
G04 #@! TO.N,GND-B*
X66601158Y-29398842D03*
G04 #@! TO.N,Net-(U1-BOOT0)*
X66174265Y-20174265D03*
G04 #@! TD*
D17*
G04 #@! TO.N,+3V0-A*
X15500000Y-30000000D02*
X16950000Y-31450000D01*
X16950000Y-31450000D02*
X20000000Y-31450000D01*
X14750000Y-10750000D02*
X16950000Y-8550000D01*
X16950000Y-8550000D02*
X20000000Y-8550000D01*
X22250000Y-10250000D02*
X21700000Y-10250000D01*
X21700000Y-10250000D02*
X20000000Y-8550000D01*
G04 #@! TO.N,/column2*
X23750000Y-8750000D02*
X26750000Y-8750000D01*
X26750000Y-8750000D02*
X28250000Y-7250000D01*
G04 #@! TO.N,/row7*
X13000000Y-37500000D02*
X27000000Y-37500000D01*
G04 #@! TO.N,/row6*
X14000000Y-36500000D02*
X26000000Y-36500000D01*
G04 #@! TO.N,/row2*
X16000000Y-34500000D02*
X24000000Y-34500000D01*
G04 #@! TO.N,/row1*
X16750000Y-33500000D02*
X23250000Y-33500000D01*
G04 #@! TO.N,/column2*
X31500000Y-10000000D02*
X28750000Y-7250000D01*
X28750000Y-7250000D02*
X28250000Y-7250000D01*
G04 #@! TO.N,/row5*
X31500000Y-13500000D02*
X32099943Y-13500000D01*
X32099943Y-13500000D02*
X34500000Y-11099943D01*
X34500000Y-11099943D02*
X34500000Y-7018069D01*
X34500000Y-7018069D02*
X31731931Y-4250000D01*
X31731931Y-4250000D02*
X16500000Y-4250000D01*
X16500000Y-4250000D02*
X7000000Y-13750000D01*
X7000000Y-13750000D02*
X7000000Y-22000000D01*
X7000000Y-22000000D02*
X11159580Y-26159580D01*
G04 #@! TO.N,/row4*
X32500000Y-12250000D02*
X32500000Y-10750000D01*
X32500000Y-10750000D02*
X33750000Y-9500000D01*
X33750000Y-9500000D02*
X33750000Y-7500000D01*
X33750000Y-7500000D02*
X31250000Y-5000000D01*
X7750000Y-21500000D02*
X10500000Y-24250000D01*
X31250000Y-5000000D02*
X16973071Y-5000000D01*
X16973071Y-5000000D02*
X7750000Y-14223071D01*
X7750000Y-14223071D02*
X7750000Y-21500000D01*
G04 #@! TO.N,/row8*
X31750000Y-8000000D02*
X30250000Y-6500000D01*
X30250000Y-6500000D02*
X17650700Y-6500000D01*
X17650700Y-6500000D02*
X12889924Y-11260776D01*
X12889924Y-11260776D02*
X12889924Y-13909663D01*
G04 #@! TO.N,/row3*
X32750000Y-9500000D02*
X32750000Y-7750000D01*
X32750000Y-7750000D02*
X30750000Y-5750000D01*
X30750000Y-5750000D02*
X17250000Y-5750000D01*
X17250000Y-5750000D02*
X8500000Y-14500000D01*
X8500000Y-18847368D02*
X10697823Y-21045191D01*
X8500000Y-14500000D02*
X8500000Y-18847368D01*
G04 #@! TO.N,/column4*
X30250000Y-30750000D02*
X28650057Y-30750000D01*
X28778737Y-29250000D02*
X31750000Y-29250000D01*
X28650057Y-30750000D02*
X28250000Y-30349943D01*
X28250000Y-30349943D02*
X28250000Y-29778737D01*
X28250000Y-29778737D02*
X28778737Y-29250000D01*
X31750000Y-29250000D02*
X33000000Y-28000000D01*
G04 #@! TO.N,/row2*
X34750000Y-27099943D02*
X34750000Y-17992640D01*
X29500000Y-30000000D02*
X31849943Y-30000000D01*
X31849943Y-30000000D02*
X34750000Y-27099943D01*
X34750000Y-17992640D02*
X28250000Y-11492640D01*
G04 #@! TO.N,/row7*
X27750000Y-27250000D02*
X28500000Y-26500000D01*
X27750000Y-32500000D02*
X27750000Y-27250000D01*
X30000000Y-34750000D02*
X27750000Y-32500000D01*
G04 #@! TO.N,/row6*
X30575735Y-27575735D02*
X32500000Y-25651470D01*
X32500000Y-25651470D02*
X32500000Y-21000000D01*
X32500000Y-21000000D02*
X29250000Y-17750000D01*
G04 #@! TO.N,/row1*
X30500000Y-28500000D02*
X33250000Y-25750000D01*
X33250000Y-25750000D02*
X33250000Y-19850000D01*
X33250000Y-19850000D02*
X29150000Y-15750000D01*
G04 #@! TO.N,/column4*
X33000000Y-28000000D02*
X34000000Y-27000000D01*
X34000000Y-27000000D02*
X34000000Y-19500000D01*
X34000000Y-19500000D02*
X27000000Y-12500000D01*
G04 #@! TO.N,/column3*
X14695739Y-27750000D02*
X7000000Y-27750000D01*
X14724696Y-27778957D02*
X14695739Y-27750000D01*
G04 #@! TO.N,+3V0-A*
X23000000Y-29000000D02*
X20550000Y-31450000D01*
X20550000Y-31450000D02*
X20000000Y-31450000D01*
X21050000Y-31450000D02*
X20000000Y-31450000D01*
G04 #@! TO.N,/touch-B*
X72101042Y-25898958D02*
X69960000Y-28040000D01*
X69960000Y-28040000D02*
X69960000Y-31193359D01*
G04 #@! TO.N,/NRST*
X63254012Y-22245988D02*
X64000000Y-21500000D01*
X61245988Y-22245988D02*
X63254012Y-22245988D01*
G04 #@! TO.N,+3V0-B*
X67300000Y-15529950D02*
X67300000Y-18900000D01*
X67300000Y-18900000D02*
X71300000Y-22900000D01*
X71300000Y-22900000D02*
X74800000Y-22900000D01*
X63752545Y-28541491D02*
X59363793Y-24152739D01*
X59363793Y-24152739D02*
X59363793Y-23279654D01*
X67654827Y-28541491D02*
X63752545Y-28541491D01*
G04 #@! TO.N,/SWDIO*
X64300000Y-27200000D02*
X62100000Y-25000000D01*
X62100000Y-25000000D02*
X62000000Y-25000000D01*
G04 #@! TO.N,Net-(U1-BOOT0)*
X66174265Y-20174265D02*
X64900673Y-18900673D01*
X64900673Y-18900673D02*
X58229539Y-18900673D01*
G04 #@! TD*
G04 #@! TA.AperFunction,Conductor*
G04 #@! TO.N,GND-B*
G36*
X61135057Y-12019407D02*
G01*
X61171021Y-12068907D01*
X61171021Y-12130093D01*
X61135057Y-12179593D01*
X61131867Y-12181816D01*
X61040104Y-12243128D01*
X61311742Y-12514766D01*
X61260446Y-12544383D01*
X61199936Y-12604893D01*
X61170319Y-12656189D01*
X60898681Y-12384551D01*
X60839666Y-12472875D01*
X60786901Y-12600263D01*
X60760000Y-12735502D01*
X60760000Y-12873391D01*
X60786901Y-13008630D01*
X60839666Y-13136018D01*
X60898681Y-13224341D01*
X61170319Y-12952703D01*
X61199936Y-13004001D01*
X61260446Y-13064511D01*
X61311741Y-13094126D01*
X61040103Y-13365764D01*
X61128418Y-13424775D01*
X61128430Y-13424781D01*
X61255816Y-13477545D01*
X61391055Y-13504446D01*
X61391057Y-13504447D01*
X61528943Y-13504447D01*
X61528944Y-13504446D01*
X61664183Y-13477545D01*
X61791571Y-13424780D01*
X61879894Y-13365764D01*
X61608257Y-13094127D01*
X61659554Y-13064511D01*
X61720064Y-13004001D01*
X61749680Y-12952704D01*
X62021317Y-13224341D01*
X62039028Y-13222597D01*
X62098792Y-13235709D01*
X62131048Y-13266118D01*
X62143937Y-13285408D01*
X62143938Y-13285409D01*
X62143941Y-13285413D01*
X62249034Y-13390506D01*
X62372610Y-13473076D01*
X62509920Y-13529952D01*
X62655688Y-13558947D01*
X62655689Y-13558947D01*
X62804311Y-13558947D01*
X62804312Y-13558947D01*
X62950080Y-13529952D01*
X63087390Y-13473076D01*
X63156618Y-13426819D01*
X63215504Y-13410211D01*
X63272908Y-13431388D01*
X63293931Y-13454131D01*
X63316516Y-13487931D01*
X63400699Y-13544181D01*
X63474933Y-13558947D01*
X64525066Y-13558946D01*
X64599301Y-13544181D01*
X64683484Y-13487931D01*
X64739734Y-13403748D01*
X64754500Y-13329514D01*
X64754499Y-12279381D01*
X64739734Y-12205146D01*
X64705893Y-12154500D01*
X64689285Y-12095615D01*
X64710462Y-12038211D01*
X64761335Y-12004217D01*
X64788209Y-12000500D01*
X70750086Y-12000500D01*
X70808277Y-12019407D01*
X70844241Y-12068907D01*
X70844241Y-12130093D01*
X70820091Y-12169501D01*
X69110913Y-13878680D01*
X75121321Y-19889088D01*
X76830498Y-18179910D01*
X76885013Y-18152135D01*
X76945445Y-18161706D01*
X76988710Y-18204971D01*
X76999500Y-18249916D01*
X76999500Y-28251678D01*
X76980593Y-28309869D01*
X76970504Y-28321682D01*
X73405997Y-31886188D01*
X73351480Y-31913965D01*
X73291048Y-31904394D01*
X73247783Y-31861129D01*
X73238212Y-31800697D01*
X73238896Y-31796868D01*
X73239732Y-31792661D01*
X73239734Y-31792660D01*
X73254500Y-31718426D01*
X73254499Y-30668293D01*
X73239734Y-30594058D01*
X73211762Y-30552196D01*
X73183486Y-30509878D01*
X73183484Y-30509875D01*
X73099301Y-30453625D01*
X73025067Y-30438859D01*
X73025066Y-30438859D01*
X71974936Y-30438859D01*
X71974929Y-30438860D01*
X71900699Y-30453624D01*
X71900697Y-30453625D01*
X71816519Y-30509872D01*
X71816512Y-30509879D01*
X71793932Y-30543672D01*
X71745882Y-30581551D01*
X71684743Y-30583951D01*
X71656617Y-30570985D01*
X71587389Y-30524729D01*
X71450078Y-30467853D01*
X71304314Y-30438859D01*
X71304312Y-30438859D01*
X71155688Y-30438859D01*
X71155685Y-30438859D01*
X71009921Y-30467853D01*
X70872610Y-30524729D01*
X70749037Y-30607297D01*
X70749034Y-30607299D01*
X70749034Y-30607300D01*
X70665001Y-30691332D01*
X70610487Y-30719108D01*
X70550055Y-30709537D01*
X70524999Y-30691333D01*
X70440966Y-30607300D01*
X70440962Y-30607297D01*
X70440961Y-30607296D01*
X70358498Y-30552196D01*
X70320619Y-30504146D01*
X70314500Y-30469881D01*
X70314500Y-28227847D01*
X70333407Y-28169656D01*
X70343496Y-28157843D01*
X72018885Y-26482454D01*
X72073402Y-26454677D01*
X72088889Y-26453458D01*
X72174041Y-26453458D01*
X72174043Y-26453458D01*
X72315071Y-26415670D01*
X72441513Y-26342669D01*
X72544753Y-26239429D01*
X72617754Y-26112987D01*
X72655542Y-25971959D01*
X72655542Y-25825957D01*
X72617754Y-25684929D01*
X72544753Y-25558487D01*
X72441513Y-25455247D01*
X72315071Y-25382246D01*
X72174043Y-25344458D01*
X72028041Y-25344458D01*
X71887013Y-25382246D01*
X71760571Y-25455247D01*
X71657331Y-25558487D01*
X71584330Y-25684929D01*
X71546542Y-25825958D01*
X71546542Y-25911111D01*
X71527635Y-25969302D01*
X71517546Y-25981115D01*
X69742332Y-27756329D01*
X69742331Y-27756328D01*
X69676331Y-27822329D01*
X69629658Y-27903170D01*
X69629657Y-27903171D01*
X69605500Y-27993326D01*
X69605500Y-30469881D01*
X69586593Y-30528072D01*
X69561502Y-30552196D01*
X69479038Y-30607296D01*
X69373938Y-30712396D01*
X69291370Y-30835969D01*
X69234494Y-30973280D01*
X69205500Y-31119044D01*
X69205500Y-31267673D01*
X69234494Y-31413437D01*
X69291370Y-31550748D01*
X69291371Y-31550749D01*
X69373941Y-31674325D01*
X69479034Y-31779418D01*
X69479037Y-31779420D01*
X69537052Y-31818184D01*
X69574932Y-31866234D01*
X69577334Y-31927372D01*
X69543342Y-31978246D01*
X69485938Y-31999424D01*
X69482051Y-31999500D01*
X64248322Y-31999500D01*
X64190131Y-31980593D01*
X64178318Y-31970504D01*
X57029496Y-24821682D01*
X57001719Y-24767165D01*
X57000500Y-24751678D01*
X57000500Y-23206653D01*
X58809293Y-23206653D01*
X58809293Y-23352655D01*
X58847081Y-23493683D01*
X58920082Y-23620125D01*
X58980298Y-23680341D01*
X59008074Y-23734856D01*
X59009293Y-23750343D01*
X59009293Y-24199412D01*
X59033450Y-24289567D01*
X59033451Y-24289568D01*
X59033452Y-24289571D01*
X59080122Y-24370407D01*
X63468874Y-28759159D01*
X63468873Y-28759159D01*
X63517029Y-28807314D01*
X63534877Y-28825162D01*
X63615713Y-28871832D01*
X63615715Y-28871832D01*
X63615716Y-28871833D01*
X63653514Y-28881961D01*
X63705871Y-28895990D01*
X63705873Y-28895991D01*
X63705874Y-28895991D01*
X67184137Y-28895991D01*
X67242328Y-28914898D01*
X67254140Y-28924987D01*
X67314353Y-28985199D01*
X67314356Y-28985202D01*
X67440798Y-29058203D01*
X67581826Y-29095991D01*
X67581828Y-29095991D01*
X67727826Y-29095991D01*
X67727828Y-29095991D01*
X67868856Y-29058203D01*
X67995298Y-28985202D01*
X68098538Y-28881962D01*
X68171539Y-28755520D01*
X68209327Y-28614492D01*
X68209327Y-28468490D01*
X68171539Y-28327462D01*
X68098538Y-28201020D01*
X67995298Y-28097780D01*
X67868856Y-28024779D01*
X67727828Y-27986991D01*
X67581826Y-27986991D01*
X67440798Y-28024779D01*
X67314353Y-28097782D01*
X67254140Y-28157995D01*
X67199623Y-28185772D01*
X67184137Y-28186991D01*
X63940392Y-28186991D01*
X63882201Y-28168084D01*
X63870388Y-28157995D01*
X60639392Y-24926999D01*
X61445500Y-24926999D01*
X61445500Y-25073001D01*
X61483288Y-25214029D01*
X61556289Y-25340471D01*
X61659529Y-25443711D01*
X61785971Y-25516712D01*
X61926999Y-25554500D01*
X61927001Y-25554500D01*
X62073001Y-25554500D01*
X62081005Y-25552355D01*
X62142107Y-25555554D01*
X62176637Y-25577976D01*
X63716504Y-27117843D01*
X63744281Y-27172360D01*
X63745500Y-27187847D01*
X63745500Y-27273001D01*
X63783288Y-27414029D01*
X63856289Y-27540471D01*
X63959529Y-27643711D01*
X64085971Y-27716712D01*
X64226999Y-27754500D01*
X64227001Y-27754500D01*
X64372999Y-27754500D01*
X64373001Y-27754500D01*
X64514029Y-27716712D01*
X64640471Y-27643711D01*
X64743711Y-27540471D01*
X64816712Y-27414029D01*
X64854500Y-27273001D01*
X64854500Y-27126999D01*
X64816712Y-26985971D01*
X64743711Y-26859529D01*
X64640471Y-26756289D01*
X64514029Y-26683288D01*
X64373001Y-26645500D01*
X64372999Y-26645500D01*
X64287847Y-26645500D01*
X64229656Y-26626593D01*
X64217843Y-26616504D01*
X62582228Y-24980889D01*
X62557749Y-24932846D01*
X62556179Y-24933267D01*
X62554500Y-24927000D01*
X62554500Y-24926999D01*
X62516712Y-24785971D01*
X62443711Y-24659529D01*
X62340471Y-24556289D01*
X62214029Y-24483288D01*
X62073001Y-24445500D01*
X61926999Y-24445500D01*
X61785971Y-24483288D01*
X61659529Y-24556289D01*
X61556289Y-24659529D01*
X61483288Y-24785971D01*
X61445500Y-24926999D01*
X60639392Y-24926999D01*
X59747289Y-24034896D01*
X59719512Y-23980379D01*
X59718293Y-23964892D01*
X59718293Y-23750343D01*
X59737200Y-23692152D01*
X59747283Y-23680345D01*
X59807504Y-23620125D01*
X59880505Y-23493683D01*
X59918293Y-23352655D01*
X59918293Y-23206653D01*
X59880505Y-23065625D01*
X59807504Y-22939183D01*
X59704264Y-22835943D01*
X59577822Y-22762942D01*
X59436794Y-22725154D01*
X59290792Y-22725154D01*
X59149764Y-22762942D01*
X59023322Y-22835943D01*
X58920082Y-22939183D01*
X58847081Y-23065625D01*
X58809293Y-23206653D01*
X57000500Y-23206653D01*
X57000500Y-22172987D01*
X60691488Y-22172987D01*
X60691488Y-22318989D01*
X60729276Y-22460017D01*
X60802277Y-22586459D01*
X60905517Y-22689699D01*
X61031959Y-22762700D01*
X61172987Y-22800488D01*
X61172989Y-22800488D01*
X61318987Y-22800488D01*
X61318989Y-22800488D01*
X61460017Y-22762700D01*
X61586459Y-22689699D01*
X61616568Y-22659590D01*
X61646675Y-22629484D01*
X61701192Y-22601707D01*
X61716678Y-22600488D01*
X63300684Y-22600488D01*
X63300684Y-22600487D01*
X63390844Y-22576329D01*
X63471680Y-22529659D01*
X63917841Y-22083496D01*
X63972358Y-22055719D01*
X63987845Y-22054500D01*
X64072999Y-22054500D01*
X64073001Y-22054500D01*
X64214029Y-22016712D01*
X64340471Y-21943711D01*
X64443711Y-21840471D01*
X64516712Y-21714029D01*
X64554500Y-21573001D01*
X64554500Y-21426999D01*
X64516712Y-21285971D01*
X64443711Y-21159529D01*
X64340471Y-21056289D01*
X64214029Y-20983288D01*
X64073001Y-20945500D01*
X63926999Y-20945500D01*
X63785971Y-20983288D01*
X63659529Y-21056289D01*
X63556289Y-21159529D01*
X63483288Y-21285971D01*
X63445500Y-21427000D01*
X63445500Y-21512153D01*
X63426593Y-21570344D01*
X63416504Y-21582157D01*
X63136169Y-21862492D01*
X63081652Y-21890269D01*
X63066165Y-21891488D01*
X61716678Y-21891488D01*
X61658487Y-21872581D01*
X61646675Y-21862492D01*
X61586461Y-21802279D01*
X61586459Y-21802277D01*
X61460017Y-21729276D01*
X61318989Y-21691488D01*
X61172987Y-21691488D01*
X61031959Y-21729276D01*
X60905517Y-21802277D01*
X60802277Y-21905517D01*
X60729276Y-22031959D01*
X60691488Y-22172987D01*
X57000500Y-22172987D01*
X57000500Y-18827672D01*
X57675039Y-18827672D01*
X57675039Y-18973674D01*
X57712827Y-19114702D01*
X57785828Y-19241144D01*
X57889068Y-19344384D01*
X58015510Y-19417385D01*
X58156538Y-19455173D01*
X58156540Y-19455173D01*
X58302538Y-19455173D01*
X58302540Y-19455173D01*
X58443568Y-19417385D01*
X58570010Y-19344384D01*
X58600119Y-19314275D01*
X58630226Y-19284169D01*
X58684743Y-19256392D01*
X58700229Y-19255173D01*
X64712826Y-19255173D01*
X64771017Y-19274080D01*
X64782830Y-19284169D01*
X65590769Y-20092108D01*
X65618546Y-20146625D01*
X65619765Y-20162112D01*
X65619765Y-20247266D01*
X65657553Y-20388294D01*
X65730554Y-20514736D01*
X65833794Y-20617976D01*
X65960236Y-20690977D01*
X66101264Y-20728765D01*
X66101266Y-20728765D01*
X66247264Y-20728765D01*
X66247266Y-20728765D01*
X66388294Y-20690977D01*
X66514736Y-20617976D01*
X66617976Y-20514736D01*
X66690977Y-20388294D01*
X66728765Y-20247266D01*
X66728765Y-20101264D01*
X66690977Y-19960236D01*
X66617976Y-19833794D01*
X66514736Y-19730554D01*
X66388294Y-19657553D01*
X66247266Y-19619765D01*
X66247264Y-19619765D01*
X66162112Y-19619765D01*
X66103921Y-19600858D01*
X66092108Y-19590769D01*
X65616040Y-19114701D01*
X65118341Y-18617002D01*
X65037505Y-18570332D01*
X65037502Y-18570331D01*
X65037501Y-18570330D01*
X64947346Y-18546173D01*
X64947344Y-18546173D01*
X58700229Y-18546173D01*
X58642038Y-18527266D01*
X58630226Y-18517177D01*
X58570012Y-18456964D01*
X58570010Y-18456962D01*
X58443568Y-18383961D01*
X58302540Y-18346173D01*
X58156538Y-18346173D01*
X58015510Y-18383961D01*
X57889068Y-18456962D01*
X57785828Y-18560202D01*
X57712827Y-18686644D01*
X57675039Y-18827672D01*
X57000500Y-18827672D01*
X57000500Y-15748321D01*
X57019407Y-15690130D01*
X57029496Y-15678317D01*
X57250864Y-15456949D01*
X66745500Y-15456949D01*
X66745500Y-15602951D01*
X66783288Y-15743979D01*
X66856289Y-15870421D01*
X66916505Y-15930637D01*
X66944281Y-15985152D01*
X66945500Y-16000639D01*
X66945500Y-18946673D01*
X66969657Y-19036828D01*
X66969658Y-19036829D01*
X66969659Y-19036832D01*
X67016329Y-19117668D01*
X71016329Y-23117668D01*
X71016328Y-23117668D01*
X71082329Y-23183668D01*
X71082332Y-23183671D01*
X71163168Y-23230341D01*
X71163170Y-23230341D01*
X71163171Y-23230342D01*
X71200969Y-23240470D01*
X71253326Y-23254499D01*
X71253328Y-23254500D01*
X71253329Y-23254500D01*
X74329310Y-23254500D01*
X74387501Y-23273407D01*
X74399313Y-23283496D01*
X74459526Y-23343708D01*
X74459529Y-23343711D01*
X74585971Y-23416712D01*
X74726999Y-23454500D01*
X74727001Y-23454500D01*
X74872999Y-23454500D01*
X74873001Y-23454500D01*
X75014029Y-23416712D01*
X75140471Y-23343711D01*
X75243711Y-23240471D01*
X75316712Y-23114029D01*
X75354500Y-22973001D01*
X75354500Y-22826999D01*
X75316712Y-22685971D01*
X75243711Y-22559529D01*
X75140471Y-22456289D01*
X75014029Y-22383288D01*
X74873001Y-22345500D01*
X74726999Y-22345500D01*
X74585971Y-22383288D01*
X74459526Y-22456291D01*
X74399313Y-22516504D01*
X74344796Y-22544281D01*
X74329310Y-22545500D01*
X71487847Y-22545500D01*
X71429656Y-22526593D01*
X71417843Y-22516504D01*
X67683496Y-18782157D01*
X67655719Y-18727640D01*
X67654500Y-18712153D01*
X67654500Y-16000639D01*
X67673407Y-15942448D01*
X67683490Y-15930641D01*
X67743711Y-15870421D01*
X67816712Y-15743979D01*
X67854500Y-15602951D01*
X67854500Y-15456949D01*
X67816712Y-15315921D01*
X67743711Y-15189479D01*
X67640471Y-15086239D01*
X67514029Y-15013238D01*
X67373001Y-14975450D01*
X67226999Y-14975450D01*
X67085971Y-15013238D01*
X66959529Y-15086239D01*
X66856289Y-15189479D01*
X66783288Y-15315921D01*
X66745500Y-15456949D01*
X57250864Y-15456949D01*
X60678317Y-12029496D01*
X60732834Y-12001719D01*
X60748321Y-12000500D01*
X61076866Y-12000500D01*
X61135057Y-12019407D01*
G37*
G04 #@! TD.AperFunction*
G04 #@! TA.AperFunction,Conductor*
G36*
X73309869Y-12019407D02*
G01*
X73321682Y-12029496D01*
X76970504Y-15678317D01*
X76998281Y-15732834D01*
X76999500Y-15748321D01*
X76999500Y-17992726D01*
X76980593Y-18050917D01*
X76931093Y-18086881D01*
X76869907Y-18086881D01*
X76830498Y-18062731D01*
X70937268Y-12169501D01*
X70909493Y-12114987D01*
X70919064Y-12054555D01*
X70962329Y-12011290D01*
X71007274Y-12000500D01*
X73251678Y-12000500D01*
X73309869Y-12019407D01*
G37*
G04 #@! TD.AperFunction*
G04 #@! TD*
G04 #@! TA.AperFunction,NonConductor*
G36*
X62306958Y-12019407D02*
G01*
X62342922Y-12068907D01*
X62342922Y-12130093D01*
X62306958Y-12179593D01*
X62303768Y-12181816D01*
X62249034Y-12218387D01*
X62143948Y-12323472D01*
X62143940Y-12323481D01*
X62131050Y-12342774D01*
X62083000Y-12380653D01*
X62039032Y-12386295D01*
X62021317Y-12384550D01*
X61749679Y-12656188D01*
X61720064Y-12604893D01*
X61659554Y-12544383D01*
X61608257Y-12514766D01*
X61879895Y-12243129D01*
X61788133Y-12181816D01*
X61750253Y-12133766D01*
X61747851Y-12072628D01*
X61781843Y-12021754D01*
X61839247Y-12000576D01*
X61843134Y-12000500D01*
X62248767Y-12000500D01*
X62306958Y-12019407D01*
G37*
G04 #@! TD.AperFunction*
M02*
