G04 #@! TF.GenerationSoftware,KiCad,Pcbnew,9.0.3-9.0.3-0~ubuntu24.04.1*
G04 #@! TF.CreationDate,2025-07-13T16:36:45+02:00*
G04 #@! TF.ProjectId,PCBWatch,50434257-6174-4636-982e-6b696361645f,rev?*
G04 #@! TF.SameCoordinates,Original*
G04 #@! TF.FileFunction,Legend,Top*
G04 #@! TF.FilePolarity,Positive*
%FSLAX46Y46*%
G04 Gerber Fmt 4.6, Leading zero omitted, Abs format (unit mm)*
G04 Created by KiCad (PCBNEW 9.0.3-9.0.3-0~ubuntu24.04.1) date 2025-07-13 16:36:45*
%MOMM*%
%LPD*%
G01*
G04 APERTURE LIST*
G04 Aperture macros list*
%AMRoundRect*
0 Rectangle with rounded corners*
0 $1 Rounding radius*
0 $2 $3 $4 $5 $6 $7 $8 $9 X,Y pos of 4 corners*
0 Add a 4 corners polygon primitive as box body*
4,1,4,$2,$3,$4,$5,$6,$7,$8,$9,$2,$3,0*
0 Add four circle primitives for the rounded corners*
1,1,$1+$1,$2,$3*
1,1,$1+$1,$4,$5*
1,1,$1+$1,$6,$7*
1,1,$1+$1,$8,$9*
0 Add four rect primitives between the rounded corners*
20,1,$1+$1,$2,$3,$4,$5,0*
20,1,$1+$1,$4,$5,$6,$7,0*
20,1,$1+$1,$6,$7,$8,$9,0*
20,1,$1+$1,$8,$9,$2,$3,0*%
%AMRotRect*
0 Rectangle, with rotation*
0 The origin of the aperture is its center*
0 $1 length*
0 $2 width*
0 $3 Rotation angle, in degrees counterclockwise*
0 Add horizontal line*
21,1,$1,$2,0,0,$3*%
G04 Aperture macros list end*
%ADD10C,0.150000*%
%ADD11C,0.080000*%
%ADD12C,0.120000*%
%ADD13C,0.200000*%
%ADD14C,0.400000*%
%ADD15C,0.100000*%
%ADD16C,0.000000*%
%ADD17C,2.000000*%
%ADD18RoundRect,0.075000X0.415425X0.521491X-0.521491X-0.415425X-0.415425X-0.521491X0.521491X0.415425X0*%
%ADD19RoundRect,0.075000X-0.415425X0.521491X-0.521491X0.415425X0.415425X-0.521491X0.521491X-0.415425X0*%
%ADD20RoundRect,0.250000X0.132583X-0.503814X0.503814X-0.132583X-0.132583X0.503814X-0.503814X0.132583X0*%
%ADD21RoundRect,0.250000X0.503814X0.132583X0.132583X0.503814X-0.503814X-0.132583X-0.132583X-0.503814X0*%
%ADD22RoundRect,0.250000X-0.159099X0.512652X-0.512652X0.159099X0.159099X-0.512652X0.512652X-0.159099X0*%
%ADD23RoundRect,0.250000X-0.262500X-0.450000X0.262500X-0.450000X0.262500X0.450000X-0.262500X0.450000X0*%
%ADD24RoundRect,0.250000X-0.132583X0.503814X-0.503814X0.132583X0.132583X-0.503814X0.503814X-0.132583X0*%
%ADD25RotRect,1.000000X1.000000X315.000000*%
%ADD26C,1.000000*%
%ADD27RoundRect,0.250000X-0.450000X0.262500X-0.450000X-0.262500X0.450000X-0.262500X0.450000X0.262500X0*%
%ADD28RoundRect,0.330000X-0.318198X-0.629325X0.629325X0.318198X0.318198X0.629325X-0.629325X-0.318198X0*%
%ADD29RoundRect,0.250000X0.512652X0.159099X0.159099X0.512652X-0.512652X-0.159099X-0.159099X-0.512652X0*%
%ADD30RoundRect,0.250000X0.262500X0.450000X-0.262500X0.450000X-0.262500X-0.450000X0.262500X-0.450000X0*%
%ADD31RoundRect,0.250000X0.159099X-0.512652X0.512652X-0.159099X-0.159099X0.512652X-0.512652X0.159099X0*%
%ADD32RoundRect,0.250000X-0.250000X-0.475000X0.250000X-0.475000X0.250000X0.475000X-0.250000X0.475000X0*%
%ADD33RoundRect,0.102000X-1.166726X-0.459619X-0.459619X-1.166726X1.166726X0.459619X0.459619X1.166726X0*%
%ADD34R,1.000000X1.000000*%
%ADD35R,0.450000X1.750000*%
%ADD36RoundRect,0.250000X-0.512652X-0.159099X-0.159099X-0.512652X0.512652X0.159099X0.159099X0.512652X0*%
%ADD37RoundRect,0.090000X0.509117X-0.212132X-0.212132X0.509117X-0.509117X0.212132X0.212132X-0.509117X0*%
%ADD38RoundRect,0.190500X0.809500X0.444500X-0.809500X0.444500X-0.809500X-0.444500X0.809500X-0.444500X0*%
%ADD39RoundRect,0.102000X0.459619X-1.166726X1.166726X-0.459619X-0.459619X1.166726X-1.166726X0.459619X0*%
G04 APERTURE END LIST*
D10*
X51575750Y-14653246D02*
X52148170Y-15225666D01*
X52148170Y-15225666D02*
X52249185Y-15259338D01*
X52249185Y-15259338D02*
X52316529Y-15259338D01*
X52316529Y-15259338D02*
X52417544Y-15225666D01*
X52417544Y-15225666D02*
X52552231Y-15090979D01*
X52552231Y-15090979D02*
X52585903Y-14989964D01*
X52585903Y-14989964D02*
X52585903Y-14922620D01*
X52585903Y-14922620D02*
X52552231Y-14821605D01*
X52552231Y-14821605D02*
X51979811Y-14249185D01*
X53394025Y-14249185D02*
X52989964Y-14653246D01*
X53191994Y-14451216D02*
X52484888Y-13744109D01*
X52484888Y-13744109D02*
X52518559Y-13912468D01*
X52518559Y-13912468D02*
X52518559Y-14047155D01*
X52518559Y-14047155D02*
X52484888Y-14148170D01*
D11*
X60493890Y-21142005D02*
X60207680Y-21091497D01*
X60291860Y-21344035D02*
X59938306Y-20990482D01*
X59938306Y-20990482D02*
X60072993Y-20855795D01*
X60072993Y-20855795D02*
X60123501Y-20838959D01*
X60123501Y-20838959D02*
X60157173Y-20838959D01*
X60157173Y-20838959D02*
X60207680Y-20855795D01*
X60207680Y-20855795D02*
X60258188Y-20906303D01*
X60258188Y-20906303D02*
X60275024Y-20956810D01*
X60275024Y-20956810D02*
X60275024Y-20990482D01*
X60275024Y-20990482D02*
X60258188Y-21040990D01*
X60258188Y-21040990D02*
X60123501Y-21175677D01*
X60662249Y-20973646D02*
X60729592Y-20906303D01*
X60729592Y-20906303D02*
X60746428Y-20855795D01*
X60746428Y-20855795D02*
X60746428Y-20822123D01*
X60746428Y-20822123D02*
X60729592Y-20737944D01*
X60729592Y-20737944D02*
X60679085Y-20653764D01*
X60679085Y-20653764D02*
X60544398Y-20519077D01*
X60544398Y-20519077D02*
X60493890Y-20502242D01*
X60493890Y-20502242D02*
X60460218Y-20502242D01*
X60460218Y-20502242D02*
X60409711Y-20519077D01*
X60409711Y-20519077D02*
X60342367Y-20586421D01*
X60342367Y-20586421D02*
X60325531Y-20636929D01*
X60325531Y-20636929D02*
X60325531Y-20670600D01*
X60325531Y-20670600D02*
X60342367Y-20721108D01*
X60342367Y-20721108D02*
X60426547Y-20805287D01*
X60426547Y-20805287D02*
X60477054Y-20822123D01*
X60477054Y-20822123D02*
X60510726Y-20822123D01*
X60510726Y-20822123D02*
X60561234Y-20805287D01*
X60561234Y-20805287D02*
X60628577Y-20737944D01*
X60628577Y-20737944D02*
X60645413Y-20687436D01*
X60645413Y-20687436D02*
X60645413Y-20653764D01*
X60645413Y-20653764D02*
X60628577Y-20603257D01*
X55995106Y-20255168D02*
X56045613Y-19968959D01*
X55793075Y-20053138D02*
X56146628Y-19699585D01*
X56146628Y-19699585D02*
X56281315Y-19834272D01*
X56281315Y-19834272D02*
X56298151Y-19884779D01*
X56298151Y-19884779D02*
X56298151Y-19918451D01*
X56298151Y-19918451D02*
X56281315Y-19968959D01*
X56281315Y-19968959D02*
X56230808Y-20019466D01*
X56230808Y-20019466D02*
X56180300Y-20036302D01*
X56180300Y-20036302D02*
X56146628Y-20036302D01*
X56146628Y-20036302D02*
X56096121Y-20019466D01*
X56096121Y-20019466D02*
X55961434Y-19884779D01*
X56331823Y-20591886D02*
X56129793Y-20389855D01*
X56230808Y-20490871D02*
X56584361Y-20137317D01*
X56584361Y-20137317D02*
X56500182Y-20154153D01*
X56500182Y-20154153D02*
X56432838Y-20154153D01*
X56432838Y-20154153D02*
X56382331Y-20137317D01*
X56904242Y-20457199D02*
X56937914Y-20490870D01*
X56937914Y-20490870D02*
X56954750Y-20541378D01*
X56954750Y-20541378D02*
X56954750Y-20575050D01*
X56954750Y-20575050D02*
X56937914Y-20625557D01*
X56937914Y-20625557D02*
X56887407Y-20709737D01*
X56887407Y-20709737D02*
X56803227Y-20793916D01*
X56803227Y-20793916D02*
X56719048Y-20844424D01*
X56719048Y-20844424D02*
X56668540Y-20861260D01*
X56668540Y-20861260D02*
X56634868Y-20861260D01*
X56634868Y-20861260D02*
X56584361Y-20844424D01*
X56584361Y-20844424D02*
X56550689Y-20810752D01*
X56550689Y-20810752D02*
X56533853Y-20760244D01*
X56533853Y-20760244D02*
X56533853Y-20726573D01*
X56533853Y-20726573D02*
X56550689Y-20676065D01*
X56550689Y-20676065D02*
X56601197Y-20591886D01*
X56601197Y-20591886D02*
X56685376Y-20507706D01*
X56685376Y-20507706D02*
X56769555Y-20457199D01*
X56769555Y-20457199D02*
X56820063Y-20440363D01*
X56820063Y-20440363D02*
X56853735Y-20440363D01*
X56853735Y-20440363D02*
X56904242Y-20457199D01*
X60441248Y-18364418D02*
X60441248Y-18398090D01*
X60441248Y-18398090D02*
X60407577Y-18465433D01*
X60407577Y-18465433D02*
X60373905Y-18499105D01*
X60373905Y-18499105D02*
X60306561Y-18532777D01*
X60306561Y-18532777D02*
X60239218Y-18532777D01*
X60239218Y-18532777D02*
X60188710Y-18515941D01*
X60188710Y-18515941D02*
X60104531Y-18465433D01*
X60104531Y-18465433D02*
X60054023Y-18414926D01*
X60054023Y-18414926D02*
X60003516Y-18330746D01*
X60003516Y-18330746D02*
X59986680Y-18280239D01*
X59986680Y-18280239D02*
X59986680Y-18212895D01*
X59986680Y-18212895D02*
X60020351Y-18145552D01*
X60020351Y-18145552D02*
X60054023Y-18111880D01*
X60054023Y-18111880D02*
X60121367Y-18078208D01*
X60121367Y-18078208D02*
X60155038Y-18078208D01*
X60811638Y-18061372D02*
X60609607Y-18263403D01*
X60710622Y-18162388D02*
X60357069Y-17808834D01*
X60357069Y-17808834D02*
X60373905Y-17893014D01*
X60373905Y-17893014D02*
X60373905Y-17960357D01*
X60373905Y-17960357D02*
X60357069Y-18010865D01*
X27159278Y-20720074D02*
X26992612Y-20481979D01*
X26873564Y-20720074D02*
X26873564Y-20220074D01*
X26873564Y-20220074D02*
X27064040Y-20220074D01*
X27064040Y-20220074D02*
X27111659Y-20243884D01*
X27111659Y-20243884D02*
X27135469Y-20267693D01*
X27135469Y-20267693D02*
X27159278Y-20315312D01*
X27159278Y-20315312D02*
X27159278Y-20386741D01*
X27159278Y-20386741D02*
X27135469Y-20434360D01*
X27135469Y-20434360D02*
X27111659Y-20458169D01*
X27111659Y-20458169D02*
X27064040Y-20481979D01*
X27064040Y-20481979D02*
X26873564Y-20481979D01*
X27325945Y-20220074D02*
X27659278Y-20220074D01*
X27659278Y-20220074D02*
X27444993Y-20720074D01*
X45058700Y-10474670D02*
X44772490Y-10424162D01*
X44856670Y-10676700D02*
X44503116Y-10323147D01*
X44503116Y-10323147D02*
X44637803Y-10188460D01*
X44637803Y-10188460D02*
X44688311Y-10171624D01*
X44688311Y-10171624D02*
X44721983Y-10171624D01*
X44721983Y-10171624D02*
X44772490Y-10188460D01*
X44772490Y-10188460D02*
X44822998Y-10238968D01*
X44822998Y-10238968D02*
X44839834Y-10289475D01*
X44839834Y-10289475D02*
X44839834Y-10323147D01*
X44839834Y-10323147D02*
X44822998Y-10373655D01*
X44822998Y-10373655D02*
X44688311Y-10508342D01*
X44924013Y-9902250D02*
X44957685Y-9868578D01*
X44957685Y-9868578D02*
X45008192Y-9851742D01*
X45008192Y-9851742D02*
X45041864Y-9851742D01*
X45041864Y-9851742D02*
X45092372Y-9868578D01*
X45092372Y-9868578D02*
X45176551Y-9919086D01*
X45176551Y-9919086D02*
X45260731Y-10003265D01*
X45260731Y-10003265D02*
X45311238Y-10087445D01*
X45311238Y-10087445D02*
X45328074Y-10137952D01*
X45328074Y-10137952D02*
X45328074Y-10171624D01*
X45328074Y-10171624D02*
X45311238Y-10222132D01*
X45311238Y-10222132D02*
X45277566Y-10255803D01*
X45277566Y-10255803D02*
X45227059Y-10272639D01*
X45227059Y-10272639D02*
X45193387Y-10272639D01*
X45193387Y-10272639D02*
X45142879Y-10255803D01*
X45142879Y-10255803D02*
X45058700Y-10205296D01*
X45058700Y-10205296D02*
X44974521Y-10121116D01*
X44974521Y-10121116D02*
X44924013Y-10036937D01*
X44924013Y-10036937D02*
X44907177Y-9986429D01*
X44907177Y-9986429D02*
X44907177Y-9952758D01*
X44907177Y-9952758D02*
X44924013Y-9902250D01*
D10*
X28878796Y-23350202D02*
X29383872Y-23855278D01*
X29383872Y-23855278D02*
X29451216Y-23989965D01*
X29451216Y-23989965D02*
X29451216Y-24124652D01*
X29451216Y-24124652D02*
X29383872Y-24259339D01*
X29383872Y-24259339D02*
X29316529Y-24326683D01*
X29552231Y-22676767D02*
X29215514Y-23013484D01*
X29215514Y-23013484D02*
X29518559Y-23383873D01*
X29518559Y-23383873D02*
X29518559Y-23316530D01*
X29518559Y-23316530D02*
X29552231Y-23215515D01*
X29552231Y-23215515D02*
X29720590Y-23047156D01*
X29720590Y-23047156D02*
X29821605Y-23013484D01*
X29821605Y-23013484D02*
X29888949Y-23013484D01*
X29888949Y-23013484D02*
X29989964Y-23047156D01*
X29989964Y-23047156D02*
X30158323Y-23215515D01*
X30158323Y-23215515D02*
X30191994Y-23316530D01*
X30191994Y-23316530D02*
X30191994Y-23383873D01*
X30191994Y-23383873D02*
X30158323Y-23484889D01*
X30158323Y-23484889D02*
X29989964Y-23653247D01*
X29989964Y-23653247D02*
X29888949Y-23686919D01*
X29888949Y-23686919D02*
X29821605Y-23686919D01*
X24104819Y-24980357D02*
X23628628Y-25313690D01*
X24104819Y-25551785D02*
X23104819Y-25551785D01*
X23104819Y-25551785D02*
X23104819Y-25170833D01*
X23104819Y-25170833D02*
X23152438Y-25075595D01*
X23152438Y-25075595D02*
X23200057Y-25027976D01*
X23200057Y-25027976D02*
X23295295Y-24980357D01*
X23295295Y-24980357D02*
X23438152Y-24980357D01*
X23438152Y-24980357D02*
X23533390Y-25027976D01*
X23533390Y-25027976D02*
X23581009Y-25075595D01*
X23581009Y-25075595D02*
X23628628Y-25170833D01*
X23628628Y-25170833D02*
X23628628Y-25551785D01*
X24104819Y-24027976D02*
X24104819Y-24599404D01*
X24104819Y-24313690D02*
X23104819Y-24313690D01*
X23104819Y-24313690D02*
X23247676Y-24408928D01*
X23247676Y-24408928D02*
X23342914Y-24504166D01*
X23342914Y-24504166D02*
X23390533Y-24599404D01*
X23200057Y-23647023D02*
X23152438Y-23599404D01*
X23152438Y-23599404D02*
X23104819Y-23504166D01*
X23104819Y-23504166D02*
X23104819Y-23266071D01*
X23104819Y-23266071D02*
X23152438Y-23170833D01*
X23152438Y-23170833D02*
X23200057Y-23123214D01*
X23200057Y-23123214D02*
X23295295Y-23075595D01*
X23295295Y-23075595D02*
X23390533Y-23075595D01*
X23390533Y-23075595D02*
X23533390Y-23123214D01*
X23533390Y-23123214D02*
X24104819Y-23694642D01*
X24104819Y-23694642D02*
X24104819Y-23075595D01*
X44149798Y-13878796D02*
X43644722Y-14383872D01*
X43644722Y-14383872D02*
X43510035Y-14451216D01*
X43510035Y-14451216D02*
X43375348Y-14451216D01*
X43375348Y-14451216D02*
X43240661Y-14383872D01*
X43240661Y-14383872D02*
X43173317Y-14316529D01*
X44149798Y-15293010D02*
X43745737Y-14888949D01*
X43947768Y-15090979D02*
X44654875Y-14383872D01*
X44654875Y-14383872D02*
X44486516Y-14417544D01*
X44486516Y-14417544D02*
X44351829Y-14417544D01*
X44351829Y-14417544D02*
X44250814Y-14383872D01*
D11*
X49012486Y-7871304D02*
X49062993Y-7585095D01*
X48810455Y-7669274D02*
X49164008Y-7315721D01*
X49164008Y-7315721D02*
X49298695Y-7450408D01*
X49298695Y-7450408D02*
X49315531Y-7500915D01*
X49315531Y-7500915D02*
X49315531Y-7534587D01*
X49315531Y-7534587D02*
X49298695Y-7585095D01*
X49298695Y-7585095D02*
X49248188Y-7635602D01*
X49248188Y-7635602D02*
X49197680Y-7652438D01*
X49197680Y-7652438D02*
X49164008Y-7652438D01*
X49164008Y-7652438D02*
X49113501Y-7635602D01*
X49113501Y-7635602D02*
X48978814Y-7500915D01*
X49349203Y-8208022D02*
X49147173Y-8005991D01*
X49248188Y-8107007D02*
X49601741Y-7753453D01*
X49601741Y-7753453D02*
X49517562Y-7770289D01*
X49517562Y-7770289D02*
X49450218Y-7770289D01*
X49450218Y-7770289D02*
X49399711Y-7753453D01*
X49685920Y-8544739D02*
X49483890Y-8342709D01*
X49584905Y-8443724D02*
X49938458Y-8090171D01*
X49938458Y-8090171D02*
X49854279Y-8107006D01*
X49854279Y-8107006D02*
X49786935Y-8107006D01*
X49786935Y-8107006D02*
X49736428Y-8090171D01*
X47756797Y-9434410D02*
X47723125Y-9434410D01*
X47723125Y-9434410D02*
X47655782Y-9400739D01*
X47655782Y-9400739D02*
X47622110Y-9367067D01*
X47622110Y-9367067D02*
X47588438Y-9299723D01*
X47588438Y-9299723D02*
X47588438Y-9232380D01*
X47588438Y-9232380D02*
X47605274Y-9181872D01*
X47605274Y-9181872D02*
X47655782Y-9097693D01*
X47655782Y-9097693D02*
X47706289Y-9047185D01*
X47706289Y-9047185D02*
X47790469Y-8996678D01*
X47790469Y-8996678D02*
X47840976Y-8979842D01*
X47840976Y-8979842D02*
X47908320Y-8979842D01*
X47908320Y-8979842D02*
X47975663Y-9013513D01*
X47975663Y-9013513D02*
X48009335Y-9047185D01*
X48009335Y-9047185D02*
X48043007Y-9114529D01*
X48043007Y-9114529D02*
X48043007Y-9148200D01*
X48379724Y-9417574D02*
X48312381Y-9350231D01*
X48312381Y-9350231D02*
X48261873Y-9333395D01*
X48261873Y-9333395D02*
X48228201Y-9333395D01*
X48228201Y-9333395D02*
X48144022Y-9350231D01*
X48144022Y-9350231D02*
X48059843Y-9400739D01*
X48059843Y-9400739D02*
X47925156Y-9535426D01*
X47925156Y-9535426D02*
X47908320Y-9585933D01*
X47908320Y-9585933D02*
X47908320Y-9619605D01*
X47908320Y-9619605D02*
X47925156Y-9670113D01*
X47925156Y-9670113D02*
X47992499Y-9737456D01*
X47992499Y-9737456D02*
X48043007Y-9754292D01*
X48043007Y-9754292D02*
X48076679Y-9754292D01*
X48076679Y-9754292D02*
X48127186Y-9737456D01*
X48127186Y-9737456D02*
X48211366Y-9653277D01*
X48211366Y-9653277D02*
X48228201Y-9602769D01*
X48228201Y-9602769D02*
X48228201Y-9569097D01*
X48228201Y-9569097D02*
X48211366Y-9518590D01*
X48211366Y-9518590D02*
X48144022Y-9451246D01*
X48144022Y-9451246D02*
X48093514Y-9434410D01*
X48093514Y-9434410D02*
X48059843Y-9434410D01*
X48059843Y-9434410D02*
X48009335Y-9451246D01*
X56815829Y-10239771D02*
X56782157Y-10239771D01*
X56782157Y-10239771D02*
X56714814Y-10206100D01*
X56714814Y-10206100D02*
X56681142Y-10172428D01*
X56681142Y-10172428D02*
X56647470Y-10105084D01*
X56647470Y-10105084D02*
X56647470Y-10037741D01*
X56647470Y-10037741D02*
X56664306Y-9987233D01*
X56664306Y-9987233D02*
X56714814Y-9903054D01*
X56714814Y-9903054D02*
X56765321Y-9852546D01*
X56765321Y-9852546D02*
X56849501Y-9802039D01*
X56849501Y-9802039D02*
X56900008Y-9785203D01*
X56900008Y-9785203D02*
X56967352Y-9785203D01*
X56967352Y-9785203D02*
X57034695Y-9818874D01*
X57034695Y-9818874D02*
X57068367Y-9852546D01*
X57068367Y-9852546D02*
X57102039Y-9919890D01*
X57102039Y-9919890D02*
X57102039Y-9953561D01*
X57186218Y-10273443D02*
X57169382Y-10222935D01*
X57169382Y-10222935D02*
X57169382Y-10189264D01*
X57169382Y-10189264D02*
X57186218Y-10138756D01*
X57186218Y-10138756D02*
X57203054Y-10121920D01*
X57203054Y-10121920D02*
X57253562Y-10105084D01*
X57253562Y-10105084D02*
X57287233Y-10105084D01*
X57287233Y-10105084D02*
X57337741Y-10121920D01*
X57337741Y-10121920D02*
X57405085Y-10189264D01*
X57405085Y-10189264D02*
X57421920Y-10239771D01*
X57421920Y-10239771D02*
X57421920Y-10273443D01*
X57421920Y-10273443D02*
X57405085Y-10323951D01*
X57405085Y-10323951D02*
X57388249Y-10340787D01*
X57388249Y-10340787D02*
X57337741Y-10357622D01*
X57337741Y-10357622D02*
X57304069Y-10357622D01*
X57304069Y-10357622D02*
X57253562Y-10340787D01*
X57253562Y-10340787D02*
X57186218Y-10273443D01*
X57186218Y-10273443D02*
X57135711Y-10256607D01*
X57135711Y-10256607D02*
X57102039Y-10256607D01*
X57102039Y-10256607D02*
X57051531Y-10273443D01*
X57051531Y-10273443D02*
X56984188Y-10340787D01*
X56984188Y-10340787D02*
X56967352Y-10391294D01*
X56967352Y-10391294D02*
X56967352Y-10424966D01*
X56967352Y-10424966D02*
X56984188Y-10475474D01*
X56984188Y-10475474D02*
X57051531Y-10542817D01*
X57051531Y-10542817D02*
X57102039Y-10559653D01*
X57102039Y-10559653D02*
X57135711Y-10559653D01*
X57135711Y-10559653D02*
X57186218Y-10542817D01*
X57186218Y-10542817D02*
X57253562Y-10475474D01*
X57253562Y-10475474D02*
X57270398Y-10424966D01*
X57270398Y-10424966D02*
X57270398Y-10391294D01*
X57270398Y-10391294D02*
X57253562Y-10340787D01*
X12677038Y-21273762D02*
X12510372Y-21035667D01*
X12391324Y-21273762D02*
X12391324Y-20773762D01*
X12391324Y-20773762D02*
X12581800Y-20773762D01*
X12581800Y-20773762D02*
X12629419Y-20797572D01*
X12629419Y-20797572D02*
X12653229Y-20821381D01*
X12653229Y-20821381D02*
X12677038Y-20869000D01*
X12677038Y-20869000D02*
X12677038Y-20940429D01*
X12677038Y-20940429D02*
X12653229Y-20988048D01*
X12653229Y-20988048D02*
X12629419Y-21011857D01*
X12629419Y-21011857D02*
X12581800Y-21035667D01*
X12581800Y-21035667D02*
X12391324Y-21035667D01*
X12843705Y-20773762D02*
X13153229Y-20773762D01*
X13153229Y-20773762D02*
X12986562Y-20964238D01*
X12986562Y-20964238D02*
X13057991Y-20964238D01*
X13057991Y-20964238D02*
X13105610Y-20988048D01*
X13105610Y-20988048D02*
X13129419Y-21011857D01*
X13129419Y-21011857D02*
X13153229Y-21059476D01*
X13153229Y-21059476D02*
X13153229Y-21178524D01*
X13153229Y-21178524D02*
X13129419Y-21226143D01*
X13129419Y-21226143D02*
X13105610Y-21249953D01*
X13105610Y-21249953D02*
X13057991Y-21273762D01*
X13057991Y-21273762D02*
X12915134Y-21273762D01*
X12915134Y-21273762D02*
X12867515Y-21249953D01*
X12867515Y-21249953D02*
X12843705Y-21226143D01*
X46385396Y-11809134D02*
X46385396Y-11842806D01*
X46385396Y-11842806D02*
X46351725Y-11910149D01*
X46351725Y-11910149D02*
X46318053Y-11943821D01*
X46318053Y-11943821D02*
X46250709Y-11977493D01*
X46250709Y-11977493D02*
X46183366Y-11977493D01*
X46183366Y-11977493D02*
X46132858Y-11960657D01*
X46132858Y-11960657D02*
X46048679Y-11910149D01*
X46048679Y-11910149D02*
X45998171Y-11859642D01*
X45998171Y-11859642D02*
X45947664Y-11775462D01*
X45947664Y-11775462D02*
X45930828Y-11724955D01*
X45930828Y-11724955D02*
X45930828Y-11657611D01*
X45930828Y-11657611D02*
X45964499Y-11590268D01*
X45964499Y-11590268D02*
X45998171Y-11556596D01*
X45998171Y-11556596D02*
X46065515Y-11522924D01*
X46065515Y-11522924D02*
X46099186Y-11522924D01*
X46486412Y-11304058D02*
X46722114Y-11539760D01*
X46267545Y-11253550D02*
X46435904Y-11590268D01*
X46435904Y-11590268D02*
X46654770Y-11371401D01*
X59027035Y-16950204D02*
X59027035Y-16983876D01*
X59027035Y-16983876D02*
X58993364Y-17051219D01*
X58993364Y-17051219D02*
X58959692Y-17084891D01*
X58959692Y-17084891D02*
X58892348Y-17118563D01*
X58892348Y-17118563D02*
X58825005Y-17118563D01*
X58825005Y-17118563D02*
X58774497Y-17101727D01*
X58774497Y-17101727D02*
X58690318Y-17051219D01*
X58690318Y-17051219D02*
X58639810Y-17000712D01*
X58639810Y-17000712D02*
X58589303Y-16916532D01*
X58589303Y-16916532D02*
X58572467Y-16866025D01*
X58572467Y-16866025D02*
X58572467Y-16798681D01*
X58572467Y-16798681D02*
X58606138Y-16731338D01*
X58606138Y-16731338D02*
X58639810Y-16697666D01*
X58639810Y-16697666D02*
X58707154Y-16663994D01*
X58707154Y-16663994D02*
X58740825Y-16663994D01*
X58825005Y-16512471D02*
X59043871Y-16293605D01*
X59043871Y-16293605D02*
X59060707Y-16546143D01*
X59060707Y-16546143D02*
X59111215Y-16495635D01*
X59111215Y-16495635D02*
X59161722Y-16478800D01*
X59161722Y-16478800D02*
X59195394Y-16478800D01*
X59195394Y-16478800D02*
X59245902Y-16495635D01*
X59245902Y-16495635D02*
X59330081Y-16579815D01*
X59330081Y-16579815D02*
X59346917Y-16630322D01*
X59346917Y-16630322D02*
X59346917Y-16663994D01*
X59346917Y-16663994D02*
X59330081Y-16714502D01*
X59330081Y-16714502D02*
X59229066Y-16815517D01*
X59229066Y-16815517D02*
X59178558Y-16832353D01*
X59178558Y-16832353D02*
X59144886Y-16832353D01*
X27152540Y-16720074D02*
X26985874Y-16481979D01*
X26866826Y-16720074D02*
X26866826Y-16220074D01*
X26866826Y-16220074D02*
X27057302Y-16220074D01*
X27057302Y-16220074D02*
X27104921Y-16243884D01*
X27104921Y-16243884D02*
X27128731Y-16267693D01*
X27128731Y-16267693D02*
X27152540Y-16315312D01*
X27152540Y-16315312D02*
X27152540Y-16386741D01*
X27152540Y-16386741D02*
X27128731Y-16434360D01*
X27128731Y-16434360D02*
X27104921Y-16458169D01*
X27104921Y-16458169D02*
X27057302Y-16481979D01*
X27057302Y-16481979D02*
X26866826Y-16481979D01*
X27628731Y-16720074D02*
X27343017Y-16720074D01*
X27485874Y-16720074D02*
X27485874Y-16220074D01*
X27485874Y-16220074D02*
X27438255Y-16291503D01*
X27438255Y-16291503D02*
X27390636Y-16339122D01*
X27390636Y-16339122D02*
X27343017Y-16362931D01*
X12677038Y-19273762D02*
X12510372Y-19035667D01*
X12391324Y-19273762D02*
X12391324Y-18773762D01*
X12391324Y-18773762D02*
X12581800Y-18773762D01*
X12581800Y-18773762D02*
X12629419Y-18797572D01*
X12629419Y-18797572D02*
X12653229Y-18821381D01*
X12653229Y-18821381D02*
X12677038Y-18869000D01*
X12677038Y-18869000D02*
X12677038Y-18940429D01*
X12677038Y-18940429D02*
X12653229Y-18988048D01*
X12653229Y-18988048D02*
X12629419Y-19011857D01*
X12629419Y-19011857D02*
X12581800Y-19035667D01*
X12581800Y-19035667D02*
X12391324Y-19035667D01*
X12962753Y-18988048D02*
X12915134Y-18964238D01*
X12915134Y-18964238D02*
X12891324Y-18940429D01*
X12891324Y-18940429D02*
X12867515Y-18892810D01*
X12867515Y-18892810D02*
X12867515Y-18869000D01*
X12867515Y-18869000D02*
X12891324Y-18821381D01*
X12891324Y-18821381D02*
X12915134Y-18797572D01*
X12915134Y-18797572D02*
X12962753Y-18773762D01*
X12962753Y-18773762D02*
X13057991Y-18773762D01*
X13057991Y-18773762D02*
X13105610Y-18797572D01*
X13105610Y-18797572D02*
X13129419Y-18821381D01*
X13129419Y-18821381D02*
X13153229Y-18869000D01*
X13153229Y-18869000D02*
X13153229Y-18892810D01*
X13153229Y-18892810D02*
X13129419Y-18940429D01*
X13129419Y-18940429D02*
X13105610Y-18964238D01*
X13105610Y-18964238D02*
X13057991Y-18988048D01*
X13057991Y-18988048D02*
X12962753Y-18988048D01*
X12962753Y-18988048D02*
X12915134Y-19011857D01*
X12915134Y-19011857D02*
X12891324Y-19035667D01*
X12891324Y-19035667D02*
X12867515Y-19083286D01*
X12867515Y-19083286D02*
X12867515Y-19178524D01*
X12867515Y-19178524D02*
X12891324Y-19226143D01*
X12891324Y-19226143D02*
X12915134Y-19249953D01*
X12915134Y-19249953D02*
X12962753Y-19273762D01*
X12962753Y-19273762D02*
X13057991Y-19273762D01*
X13057991Y-19273762D02*
X13105610Y-19249953D01*
X13105610Y-19249953D02*
X13129419Y-19226143D01*
X13129419Y-19226143D02*
X13153229Y-19178524D01*
X13153229Y-19178524D02*
X13153229Y-19083286D01*
X13153229Y-19083286D02*
X13129419Y-19035667D01*
X13129419Y-19035667D02*
X13105610Y-19011857D01*
X13105610Y-19011857D02*
X13057991Y-18988048D01*
D10*
X19562295Y-16209523D02*
X20209914Y-16209523D01*
X20209914Y-16209523D02*
X20286104Y-16171428D01*
X20286104Y-16171428D02*
X20324200Y-16133333D01*
X20324200Y-16133333D02*
X20362295Y-16057142D01*
X20362295Y-16057142D02*
X20362295Y-15904761D01*
X20362295Y-15904761D02*
X20324200Y-15828571D01*
X20324200Y-15828571D02*
X20286104Y-15790476D01*
X20286104Y-15790476D02*
X20209914Y-15752380D01*
X20209914Y-15752380D02*
X19562295Y-15752380D01*
X19638485Y-15409524D02*
X19600390Y-15371428D01*
X19600390Y-15371428D02*
X19562295Y-15295238D01*
X19562295Y-15295238D02*
X19562295Y-15104762D01*
X19562295Y-15104762D02*
X19600390Y-15028571D01*
X19600390Y-15028571D02*
X19638485Y-14990476D01*
X19638485Y-14990476D02*
X19714676Y-14952381D01*
X19714676Y-14952381D02*
X19790866Y-14952381D01*
X19790866Y-14952381D02*
X19905152Y-14990476D01*
X19905152Y-14990476D02*
X20362295Y-15447619D01*
X20362295Y-15447619D02*
X20362295Y-14952381D01*
D11*
X59315829Y-12739771D02*
X59282157Y-12739771D01*
X59282157Y-12739771D02*
X59214814Y-12706100D01*
X59214814Y-12706100D02*
X59181142Y-12672428D01*
X59181142Y-12672428D02*
X59147470Y-12605084D01*
X59147470Y-12605084D02*
X59147470Y-12537741D01*
X59147470Y-12537741D02*
X59164306Y-12487233D01*
X59164306Y-12487233D02*
X59214814Y-12403054D01*
X59214814Y-12403054D02*
X59265321Y-12352546D01*
X59265321Y-12352546D02*
X59349501Y-12302039D01*
X59349501Y-12302039D02*
X59400008Y-12285203D01*
X59400008Y-12285203D02*
X59467352Y-12285203D01*
X59467352Y-12285203D02*
X59534695Y-12318874D01*
X59534695Y-12318874D02*
X59568367Y-12352546D01*
X59568367Y-12352546D02*
X59602039Y-12419890D01*
X59602039Y-12419890D02*
X59602039Y-12453561D01*
X59450516Y-12941802D02*
X59517859Y-13009145D01*
X59517859Y-13009145D02*
X59568367Y-13025981D01*
X59568367Y-13025981D02*
X59602039Y-13025981D01*
X59602039Y-13025981D02*
X59686218Y-13009145D01*
X59686218Y-13009145D02*
X59770398Y-12958638D01*
X59770398Y-12958638D02*
X59905085Y-12823951D01*
X59905085Y-12823951D02*
X59921920Y-12773443D01*
X59921920Y-12773443D02*
X59921920Y-12739771D01*
X59921920Y-12739771D02*
X59905085Y-12689264D01*
X59905085Y-12689264D02*
X59837741Y-12621920D01*
X59837741Y-12621920D02*
X59787233Y-12605084D01*
X59787233Y-12605084D02*
X59753562Y-12605084D01*
X59753562Y-12605084D02*
X59703054Y-12621920D01*
X59703054Y-12621920D02*
X59618875Y-12706100D01*
X59618875Y-12706100D02*
X59602039Y-12756607D01*
X59602039Y-12756607D02*
X59602039Y-12790279D01*
X59602039Y-12790279D02*
X59618875Y-12840787D01*
X59618875Y-12840787D02*
X59686218Y-12908130D01*
X59686218Y-12908130D02*
X59736726Y-12924966D01*
X59736726Y-12924966D02*
X59770398Y-12924966D01*
X59770398Y-12924966D02*
X59820905Y-12908130D01*
D10*
X9878796Y-16350201D02*
X10383872Y-16855277D01*
X10383872Y-16855277D02*
X10451216Y-16989964D01*
X10451216Y-16989964D02*
X10451216Y-17124651D01*
X10451216Y-17124651D02*
X10383872Y-17259338D01*
X10383872Y-17259338D02*
X10316529Y-17326682D01*
X10148170Y-16080827D02*
X10585903Y-15643094D01*
X10585903Y-15643094D02*
X10619575Y-16148170D01*
X10619575Y-16148170D02*
X10720590Y-16047155D01*
X10720590Y-16047155D02*
X10821605Y-16013483D01*
X10821605Y-16013483D02*
X10888949Y-16013483D01*
X10888949Y-16013483D02*
X10989964Y-16047155D01*
X10989964Y-16047155D02*
X11158323Y-16215514D01*
X11158323Y-16215514D02*
X11191994Y-16316529D01*
X11191994Y-16316529D02*
X11191994Y-16383872D01*
X11191994Y-16383872D02*
X11158323Y-16484888D01*
X11158323Y-16484888D02*
X10956292Y-16686918D01*
X10956292Y-16686918D02*
X10855277Y-16720590D01*
X10855277Y-16720590D02*
X10787933Y-16720590D01*
D11*
X12677038Y-25273762D02*
X12510372Y-25035667D01*
X12391324Y-25273762D02*
X12391324Y-24773762D01*
X12391324Y-24773762D02*
X12581800Y-24773762D01*
X12581800Y-24773762D02*
X12629419Y-24797572D01*
X12629419Y-24797572D02*
X12653229Y-24821381D01*
X12653229Y-24821381D02*
X12677038Y-24869000D01*
X12677038Y-24869000D02*
X12677038Y-24940429D01*
X12677038Y-24940429D02*
X12653229Y-24988048D01*
X12653229Y-24988048D02*
X12629419Y-25011857D01*
X12629419Y-25011857D02*
X12581800Y-25035667D01*
X12581800Y-25035667D02*
X12391324Y-25035667D01*
X13129419Y-24773762D02*
X12891324Y-24773762D01*
X12891324Y-24773762D02*
X12867515Y-25011857D01*
X12867515Y-25011857D02*
X12891324Y-24988048D01*
X12891324Y-24988048D02*
X12938943Y-24964238D01*
X12938943Y-24964238D02*
X13057991Y-24964238D01*
X13057991Y-24964238D02*
X13105610Y-24988048D01*
X13105610Y-24988048D02*
X13129419Y-25011857D01*
X13129419Y-25011857D02*
X13153229Y-25059476D01*
X13153229Y-25059476D02*
X13153229Y-25178524D01*
X13153229Y-25178524D02*
X13129419Y-25226143D01*
X13129419Y-25226143D02*
X13105610Y-25249953D01*
X13105610Y-25249953D02*
X13057991Y-25273762D01*
X13057991Y-25273762D02*
X12938943Y-25273762D01*
X12938943Y-25273762D02*
X12891324Y-25249953D01*
X12891324Y-25249953D02*
X12867515Y-25226143D01*
X54034099Y-21899114D02*
X54034099Y-21932786D01*
X54034099Y-21932786D02*
X54000428Y-22000129D01*
X54000428Y-22000129D02*
X53966756Y-22033801D01*
X53966756Y-22033801D02*
X53899412Y-22067473D01*
X53899412Y-22067473D02*
X53832069Y-22067473D01*
X53832069Y-22067473D02*
X53781561Y-22050637D01*
X53781561Y-22050637D02*
X53697382Y-22000129D01*
X53697382Y-22000129D02*
X53646874Y-21949622D01*
X53646874Y-21949622D02*
X53596367Y-21865442D01*
X53596367Y-21865442D02*
X53579531Y-21814935D01*
X53579531Y-21814935D02*
X53579531Y-21747591D01*
X53579531Y-21747591D02*
X53613202Y-21680248D01*
X53613202Y-21680248D02*
X53646874Y-21646576D01*
X53646874Y-21646576D02*
X53714218Y-21612904D01*
X53714218Y-21612904D02*
X53747889Y-21612904D01*
X53882576Y-21478217D02*
X53882576Y-21444545D01*
X53882576Y-21444545D02*
X53899412Y-21394038D01*
X53899412Y-21394038D02*
X53983592Y-21309858D01*
X53983592Y-21309858D02*
X54034099Y-21293023D01*
X54034099Y-21293023D02*
X54067771Y-21293023D01*
X54067771Y-21293023D02*
X54118279Y-21309858D01*
X54118279Y-21309858D02*
X54151950Y-21343530D01*
X54151950Y-21343530D02*
X54185622Y-21410874D01*
X54185622Y-21410874D02*
X54185622Y-21814935D01*
X54185622Y-21814935D02*
X54404489Y-21596068D01*
X12677038Y-23273762D02*
X12510372Y-23035667D01*
X12391324Y-23273762D02*
X12391324Y-22773762D01*
X12391324Y-22773762D02*
X12581800Y-22773762D01*
X12581800Y-22773762D02*
X12629419Y-22797572D01*
X12629419Y-22797572D02*
X12653229Y-22821381D01*
X12653229Y-22821381D02*
X12677038Y-22869000D01*
X12677038Y-22869000D02*
X12677038Y-22940429D01*
X12677038Y-22940429D02*
X12653229Y-22988048D01*
X12653229Y-22988048D02*
X12629419Y-23011857D01*
X12629419Y-23011857D02*
X12581800Y-23035667D01*
X12581800Y-23035667D02*
X12391324Y-23035667D01*
X13105610Y-22940429D02*
X13105610Y-23273762D01*
X12986562Y-22749953D02*
X12867515Y-23107095D01*
X12867515Y-23107095D02*
X13177038Y-23107095D01*
X54315829Y-7739771D02*
X54282157Y-7739771D01*
X54282157Y-7739771D02*
X54214814Y-7706100D01*
X54214814Y-7706100D02*
X54181142Y-7672428D01*
X54181142Y-7672428D02*
X54147470Y-7605084D01*
X54147470Y-7605084D02*
X54147470Y-7537741D01*
X54147470Y-7537741D02*
X54164306Y-7487233D01*
X54164306Y-7487233D02*
X54214814Y-7403054D01*
X54214814Y-7403054D02*
X54265321Y-7352546D01*
X54265321Y-7352546D02*
X54349501Y-7302039D01*
X54349501Y-7302039D02*
X54400008Y-7285203D01*
X54400008Y-7285203D02*
X54467352Y-7285203D01*
X54467352Y-7285203D02*
X54534695Y-7318874D01*
X54534695Y-7318874D02*
X54568367Y-7352546D01*
X54568367Y-7352546D02*
X54602039Y-7419890D01*
X54602039Y-7419890D02*
X54602039Y-7453561D01*
X54955592Y-7739771D02*
X54787233Y-7571413D01*
X54787233Y-7571413D02*
X54602039Y-7722935D01*
X54602039Y-7722935D02*
X54635711Y-7722935D01*
X54635711Y-7722935D02*
X54686218Y-7739771D01*
X54686218Y-7739771D02*
X54770398Y-7823951D01*
X54770398Y-7823951D02*
X54787233Y-7874458D01*
X54787233Y-7874458D02*
X54787233Y-7908130D01*
X54787233Y-7908130D02*
X54770398Y-7958638D01*
X54770398Y-7958638D02*
X54686218Y-8042817D01*
X54686218Y-8042817D02*
X54635711Y-8059653D01*
X54635711Y-8059653D02*
X54602039Y-8059653D01*
X54602039Y-8059653D02*
X54551531Y-8042817D01*
X54551531Y-8042817D02*
X54467352Y-7958638D01*
X54467352Y-7958638D02*
X54450516Y-7908130D01*
X54450516Y-7908130D02*
X54450516Y-7874458D01*
X27159278Y-18720074D02*
X26992612Y-18481979D01*
X26873564Y-18720074D02*
X26873564Y-18220074D01*
X26873564Y-18220074D02*
X27064040Y-18220074D01*
X27064040Y-18220074D02*
X27111659Y-18243884D01*
X27111659Y-18243884D02*
X27135469Y-18267693D01*
X27135469Y-18267693D02*
X27159278Y-18315312D01*
X27159278Y-18315312D02*
X27159278Y-18386741D01*
X27159278Y-18386741D02*
X27135469Y-18434360D01*
X27135469Y-18434360D02*
X27111659Y-18458169D01*
X27111659Y-18458169D02*
X27064040Y-18481979D01*
X27064040Y-18481979D02*
X26873564Y-18481979D01*
X27587850Y-18220074D02*
X27492612Y-18220074D01*
X27492612Y-18220074D02*
X27444993Y-18243884D01*
X27444993Y-18243884D02*
X27421183Y-18267693D01*
X27421183Y-18267693D02*
X27373564Y-18339122D01*
X27373564Y-18339122D02*
X27349755Y-18434360D01*
X27349755Y-18434360D02*
X27349755Y-18624836D01*
X27349755Y-18624836D02*
X27373564Y-18672455D01*
X27373564Y-18672455D02*
X27397374Y-18696265D01*
X27397374Y-18696265D02*
X27444993Y-18720074D01*
X27444993Y-18720074D02*
X27540231Y-18720074D01*
X27540231Y-18720074D02*
X27587850Y-18696265D01*
X27587850Y-18696265D02*
X27611659Y-18672455D01*
X27611659Y-18672455D02*
X27635469Y-18624836D01*
X27635469Y-18624836D02*
X27635469Y-18505788D01*
X27635469Y-18505788D02*
X27611659Y-18458169D01*
X27611659Y-18458169D02*
X27587850Y-18434360D01*
X27587850Y-18434360D02*
X27540231Y-18410550D01*
X27540231Y-18410550D02*
X27444993Y-18410550D01*
X27444993Y-18410550D02*
X27397374Y-18434360D01*
X27397374Y-18434360D02*
X27373564Y-18458169D01*
X27373564Y-18458169D02*
X27349755Y-18505788D01*
X27152540Y-14720074D02*
X26985874Y-14481979D01*
X26866826Y-14720074D02*
X26866826Y-14220074D01*
X26866826Y-14220074D02*
X27057302Y-14220074D01*
X27057302Y-14220074D02*
X27104921Y-14243884D01*
X27104921Y-14243884D02*
X27128731Y-14267693D01*
X27128731Y-14267693D02*
X27152540Y-14315312D01*
X27152540Y-14315312D02*
X27152540Y-14386741D01*
X27152540Y-14386741D02*
X27128731Y-14434360D01*
X27128731Y-14434360D02*
X27104921Y-14458169D01*
X27104921Y-14458169D02*
X27057302Y-14481979D01*
X27057302Y-14481979D02*
X26866826Y-14481979D01*
X27343017Y-14267693D02*
X27366826Y-14243884D01*
X27366826Y-14243884D02*
X27414445Y-14220074D01*
X27414445Y-14220074D02*
X27533493Y-14220074D01*
X27533493Y-14220074D02*
X27581112Y-14243884D01*
X27581112Y-14243884D02*
X27604921Y-14267693D01*
X27604921Y-14267693D02*
X27628731Y-14315312D01*
X27628731Y-14315312D02*
X27628731Y-14362931D01*
X27628731Y-14362931D02*
X27604921Y-14434360D01*
X27604921Y-14434360D02*
X27319207Y-14720074D01*
X27319207Y-14720074D02*
X27628731Y-14720074D01*
D12*
G04 #@! TO.C,U1*
X47394689Y-14500000D02*
X47712887Y-14818198D01*
X47712887Y-14181802D02*
X47394689Y-14500000D01*
X52181802Y-9712887D02*
X52500000Y-9394689D01*
X52500000Y-9394689D02*
X52818198Y-9712887D01*
X52500000Y-19605311D02*
X52181802Y-19287113D01*
X52818198Y-19287113D02*
X52500000Y-19605311D01*
X57287113Y-14818198D02*
X57605311Y-14500000D01*
X57605311Y-14500000D02*
X57287113Y-14181802D01*
X58277062Y-13856533D02*
X57796230Y-14337365D01*
X57704306Y-13764609D01*
X58277062Y-13856533D01*
G36*
X58277062Y-13856533D02*
G01*
X57796230Y-14337365D01*
X57704306Y-13764609D01*
X58277062Y-13856533D01*
G37*
G04 #@! TO.C,R9*
X59711915Y-20563296D02*
X60033032Y-20242179D01*
X60751362Y-21602743D02*
X61072479Y-21281626D01*
G04 #@! TO.C,R10*
X56023844Y-21002116D02*
X55702727Y-20680999D01*
X57063291Y-19962669D02*
X56742174Y-19641552D01*
G04 #@! TO.C,C1*
X60038237Y-17474089D02*
X59668770Y-17843556D01*
X61077684Y-18513536D02*
X60708217Y-18883003D01*
G04 #@! TO.C,R7*
X27015548Y-19757925D02*
X27469676Y-19757925D01*
X27015548Y-21227925D02*
X27469676Y-21227925D01*
G04 #@! TO.C,R0*
X44597842Y-9574844D02*
X44276725Y-9895961D01*
X45637289Y-10614291D02*
X45316172Y-10935408D01*
G04 #@! TO.C,J5*
X27254936Y-24104577D02*
X27850375Y-24700015D01*
X28299986Y-25149626D02*
X28895424Y-25745065D01*
X29005026Y-22354488D02*
X27254936Y-24104577D01*
X29005026Y-22354488D02*
X29353836Y-22703298D01*
X29577782Y-21781731D02*
X30150539Y-21208975D01*
X30150539Y-21208975D02*
X30970782Y-22029219D01*
X30296703Y-23646165D02*
X30645513Y-23994975D01*
X30645513Y-23994975D02*
X28895424Y-25745065D01*
G04 #@! TO.C,R12*
X21265000Y-24110436D02*
X21265000Y-24564564D01*
X22735000Y-24110436D02*
X22735000Y-24564564D01*
G04 #@! TO.C,R11*
X49041224Y-8618252D02*
X48720107Y-8297135D01*
X50080671Y-7578805D02*
X49759554Y-7257688D01*
G04 #@! TO.C,C6*
X47607680Y-10070846D02*
X47238213Y-9701379D01*
X48647127Y-9031399D02*
X48277660Y-8661932D01*
G04 #@! TO.C,C8*
X56666712Y-10876207D02*
X56297245Y-10506740D01*
X57706159Y-9836760D02*
X57336692Y-9467293D01*
G04 #@! TO.C,R3*
X12987436Y-20311613D02*
X12533308Y-20311613D01*
X12987436Y-21781613D02*
X12533308Y-21781613D01*
G04 #@! TO.C,C4*
X45612918Y-11288272D02*
X45982385Y-10918805D01*
X46652365Y-12327719D02*
X47021832Y-11958252D01*
G04 #@! TO.C,C11*
X20738748Y-20765000D02*
X21261252Y-20765000D01*
X20738748Y-22235000D02*
X21261252Y-22235000D01*
G04 #@! TO.C,C3*
X58624024Y-16059875D02*
X58254557Y-16429342D01*
X59663471Y-17099322D02*
X59294004Y-17468789D01*
G04 #@! TO.C,R1*
X27008810Y-15757925D02*
X27462938Y-15757925D01*
X27008810Y-17227925D02*
X27462938Y-17227925D01*
G04 #@! TO.C,R8*
X12987436Y-18311613D02*
X12533308Y-18311613D01*
X12987436Y-19781613D02*
X12533308Y-19781613D01*
D13*
G04 #@! TO.C,D1*
X9606066Y-4090633D02*
X4090633Y-9606066D01*
X14909367Y-9393934D02*
X9393934Y-14909367D01*
D14*
X1992535Y-10702082D02*
G75*
G02*
X1592537Y-10702082I-199999J0D01*
G01*
X1592537Y-10702082D02*
G75*
G02*
X1992535Y-10702082I199999J0D01*
G01*
D15*
X9667157Y-14025483D02*
G75*
G02*
X8767157Y-14025483I-450000J0D01*
G01*
X8767157Y-14025483D02*
G75*
G02*
X9667157Y-14025483I450000J0D01*
G01*
D10*
G04 #@! TO.C,U2*
X14675000Y-12725000D02*
X15250000Y-12725000D01*
X14675000Y-18475000D02*
X14675000Y-12725000D01*
X14675000Y-18475000D02*
X15250000Y-18475000D01*
X24750000Y-12725000D02*
X25325000Y-12725000D01*
X24750000Y-18475000D02*
X25325000Y-18475000D01*
X25325000Y-18475000D02*
X25325000Y-12725000D01*
D12*
X15250000Y-18975000D02*
X14920000Y-19215000D01*
X14920000Y-18735000D01*
X15250000Y-18975000D01*
G36*
X15250000Y-18975000D02*
G01*
X14920000Y-19215000D01*
X14920000Y-18735000D01*
X15250000Y-18975000D01*
G37*
G04 #@! TO.C,C9*
X58797245Y-13006740D02*
X59166712Y-13376207D01*
X59836692Y-11967293D02*
X60206159Y-12336760D01*
G04 #@! TO.C,J3*
X8254936Y-17104576D02*
X8850375Y-17700014D01*
X9299986Y-18149625D02*
X9895424Y-18745064D01*
X10005026Y-15354487D02*
X8254936Y-17104576D01*
X10005026Y-15354487D02*
X10353836Y-15703297D01*
X10577782Y-14781730D02*
X11150539Y-14208974D01*
X11150539Y-14208974D02*
X11970782Y-15029218D01*
X11296703Y-16646164D02*
X11645513Y-16994974D01*
X11645513Y-16994974D02*
X9895424Y-18745064D01*
D15*
G04 #@! TO.C,Y1*
X55035177Y-6378680D02*
X56378680Y-5035177D01*
X55883706Y-7227208D02*
X55035177Y-6378680D01*
X56378680Y-5035177D02*
X57156498Y-5812995D01*
X59772793Y-11116296D02*
X60621321Y-11964824D01*
X60621321Y-11964824D02*
X61964824Y-10621321D01*
X61964824Y-10621321D02*
X61116296Y-9772793D01*
G04 #@! TO.C,SW1*
X16750000Y-35000000D02*
X16750000Y-35750000D01*
X16750000Y-39000000D02*
X16750000Y-38250000D01*
D10*
X18250000Y-37000000D02*
X19250000Y-37000000D01*
X20750000Y-37000000D02*
X19750000Y-36250000D01*
X21750000Y-37000000D02*
X20750000Y-37000000D01*
D15*
X23250000Y-35000000D02*
X16750000Y-35000000D01*
X23250000Y-35750000D02*
X23250000Y-35000000D01*
X23250000Y-38250000D02*
X23250000Y-39000000D01*
X23250000Y-39000000D02*
X16750000Y-39000000D01*
D12*
X19350000Y-37000000D02*
G75*
G02*
X19150000Y-37000000I-100000J0D01*
G01*
X19150000Y-37000000D02*
G75*
G02*
X19350000Y-37000000I100000J0D01*
G01*
X20850000Y-37000000D02*
G75*
G02*
X20650000Y-37000000I-100000J0D01*
G01*
X20650000Y-37000000D02*
G75*
G02*
X20850000Y-37000000I100000J0D01*
G01*
D13*
G04 #@! TO.C,D3*
X4090633Y-30393934D02*
X9606066Y-35909367D01*
X9393934Y-25090633D02*
X14909367Y-30606066D01*
D14*
X10902081Y-38207464D02*
G75*
G02*
X10502083Y-38207464I-199999J0D01*
G01*
X10502083Y-38207464D02*
G75*
G02*
X10902081Y-38207464I199999J0D01*
G01*
D15*
X14475483Y-30782843D02*
G75*
G02*
X13575483Y-30782843I-450000J0D01*
G01*
X13575483Y-30782843D02*
G75*
G02*
X14475483Y-30782843I450000J0D01*
G01*
D13*
G04 #@! TO.C,D4*
X30606066Y-25090633D02*
X25090633Y-30606066D01*
X35909367Y-30393934D02*
X30393934Y-35909367D01*
D14*
X22992535Y-31702082D02*
G75*
G02*
X22592537Y-31702082I-199999J0D01*
G01*
X22592537Y-31702082D02*
G75*
G02*
X22992535Y-31702082I199999J0D01*
G01*
D15*
X30667157Y-35025483D02*
G75*
G02*
X29767157Y-35025483I-450000J0D01*
G01*
X29767157Y-35025483D02*
G75*
G02*
X30667157Y-35025483I450000J0D01*
G01*
D12*
G04 #@! TO.C,R5*
X12987436Y-24311613D02*
X12533308Y-24311613D01*
X12987436Y-25781613D02*
X12533308Y-25781613D01*
G04 #@! TO.C,C2*
X53631088Y-21008785D02*
X53261621Y-21378252D01*
X54670535Y-22048232D02*
X54301068Y-22417699D01*
G04 #@! TO.C,R4*
X12987436Y-22311613D02*
X12533308Y-22311613D01*
X12987436Y-23781613D02*
X12533308Y-23781613D01*
G04 #@! TO.C,C5*
X53797245Y-8006740D02*
X54166712Y-8376207D01*
X54836692Y-6967293D02*
X55206159Y-7336760D01*
G04 #@! TO.C,R6*
X27015548Y-17757925D02*
X27469676Y-17757925D01*
X27015548Y-19227925D02*
X27469676Y-19227925D01*
D13*
G04 #@! TO.C,D2*
X25090633Y-9393934D02*
X30606066Y-14909367D01*
X30393934Y-4090633D02*
X35909367Y-9606066D01*
D14*
X31902081Y-17207464D02*
G75*
G02*
X31502083Y-17207464I-199999J0D01*
G01*
X31502083Y-17207464D02*
G75*
G02*
X31902081Y-17207464I199999J0D01*
G01*
D15*
X35475483Y-9782843D02*
G75*
G02*
X34575483Y-9782843I-450000J0D01*
G01*
X34575483Y-9782843D02*
G75*
G02*
X35475483Y-9782843I450000J0D01*
G01*
D12*
G04 #@! TO.C,R2*
X27008810Y-13757925D02*
X27462938Y-13757925D01*
X27008810Y-15227925D02*
X27462938Y-15227925D01*
G04 #@! TD*
%LPC*%
D16*
G36*
X16750000Y-40000000D02*
G01*
X13750000Y-40000000D01*
X13750000Y-38000000D01*
X14750000Y-38000000D01*
X16750000Y-40000000D01*
G37*
D17*
X33000000Y-1000000D02*
X7000000Y-1000000D01*
X26000000Y-39000000D02*
X33000000Y-39000000D01*
X33000000Y-1000000D02*
G75*
G02*
X39000000Y-7000000I0J-6000000D01*
G01*
X39000000Y-33000000D02*
G75*
G02*
X33000000Y-39000000I-6000000J0D01*
G01*
X1000001Y-7000001D02*
X1000000Y-33000000D01*
X7000000Y-39000000D02*
G75*
G02*
X1000000Y-33000000I0J6000000D01*
G01*
X1000001Y-7000001D02*
G75*
G02*
X7000001Y-1000001I5999999J1D01*
G01*
X39000000Y-33000000D02*
X39000000Y-7000000D01*
D16*
G36*
X26250000Y-40000000D02*
G01*
X23250000Y-40000000D01*
X25250000Y-38000000D01*
X26250000Y-38000000D01*
X26250000Y-40000000D01*
G37*
D17*
X7000000Y-39000000D02*
X14000000Y-39000000D01*
D18*
G04 #@! TO.C,U1*
X57387876Y-13501212D03*
X57034322Y-13147658D03*
X56680769Y-12794105D03*
X56327215Y-12440551D03*
X55973662Y-12086998D03*
X55620109Y-11733445D03*
X55266555Y-11379891D03*
X54913002Y-11026338D03*
X54559449Y-10672785D03*
X54205895Y-10319231D03*
X53852342Y-9965678D03*
X53498788Y-9612124D03*
D19*
X51501212Y-9612124D03*
X51147658Y-9965678D03*
X50794105Y-10319231D03*
X50440551Y-10672785D03*
X50086998Y-11026338D03*
X49733445Y-11379891D03*
X49379891Y-11733445D03*
X49026338Y-12086998D03*
X48672785Y-12440551D03*
X48319231Y-12794105D03*
X47965678Y-13147658D03*
X47612124Y-13501212D03*
D18*
X47612124Y-15498788D03*
X47965678Y-15852342D03*
X48319231Y-16205895D03*
X48672785Y-16559449D03*
X49026338Y-16913002D03*
X49379891Y-17266555D03*
X49733445Y-17620109D03*
X50086998Y-17973662D03*
X50440551Y-18327215D03*
X50794105Y-18680769D03*
X51147658Y-19034322D03*
X51501212Y-19387876D03*
D19*
X53498788Y-19387876D03*
X53852342Y-19034322D03*
X54205895Y-18680769D03*
X54559449Y-18327215D03*
X54913002Y-17973662D03*
X55266555Y-17620109D03*
X55620109Y-17266555D03*
X55973662Y-16913002D03*
X56327215Y-16559449D03*
X56680769Y-16205895D03*
X57034322Y-15852342D03*
X57387876Y-15498788D03*
G04 #@! TD*
D20*
G04 #@! TO.C,R9*
X59746962Y-21567696D03*
X61037432Y-20277226D03*
G04 #@! TD*
D21*
G04 #@! TO.C,R10*
X57028244Y-20967069D03*
X55737774Y-19676599D03*
G04 #@! TD*
D22*
G04 #@! TO.C,C1*
X61044978Y-17506795D03*
X59701476Y-18850297D03*
G04 #@! TD*
D23*
G04 #@! TO.C,R7*
X26330112Y-20492925D03*
X28155112Y-20492925D03*
G04 #@! TD*
D24*
G04 #@! TO.C,R0*
X45602242Y-9609891D03*
X44311772Y-10900361D03*
G04 #@! TD*
D25*
G04 #@! TO.C,J5*
X30398026Y-22601975D03*
D26*
X29500000Y-23500001D03*
X28601975Y-24398026D03*
G04 #@! TD*
D27*
G04 #@! TO.C,R12*
X22000000Y-23425000D03*
X22000000Y-25250000D03*
G04 #@! TD*
D28*
G04 #@! TO.C,J1*
X43818019Y-16818019D03*
X44878680Y-17878680D03*
X45939340Y-18939340D03*
X47000000Y-20000000D03*
X48060660Y-21060660D03*
X49121320Y-22121320D03*
X50181981Y-23181981D03*
G04 #@! TD*
D21*
G04 #@! TO.C,R11*
X50045624Y-8583205D03*
X48755154Y-7292735D03*
G04 #@! TD*
D29*
G04 #@! TO.C,C6*
X48614421Y-10038140D03*
X47270919Y-8694638D03*
G04 #@! TD*
G04 #@! TO.C,C8*
X57673453Y-10843501D03*
X56329951Y-9499999D03*
G04 #@! TD*
D30*
G04 #@! TO.C,R3*
X13672872Y-21046613D03*
X11847872Y-21046613D03*
G04 #@! TD*
D31*
G04 #@! TO.C,C4*
X45645624Y-12295013D03*
X46989126Y-10951511D03*
G04 #@! TD*
D32*
G04 #@! TO.C,C11*
X20050000Y-21500000D03*
X21950000Y-21500000D03*
G04 #@! TD*
D22*
G04 #@! TO.C,C3*
X59630765Y-16092581D03*
X58287263Y-17436083D03*
G04 #@! TD*
D23*
G04 #@! TO.C,R1*
X26323374Y-16492925D03*
X28148374Y-16492925D03*
G04 #@! TD*
D30*
G04 #@! TO.C,R8*
X13672872Y-19046613D03*
X11847872Y-19046613D03*
G04 #@! TD*
D33*
G04 #@! TO.C,D1*
X3524948Y-11232412D03*
X4585608Y-12293072D03*
X5646268Y-13353732D03*
X6706928Y-14414392D03*
X7767588Y-15475052D03*
X15475052Y-7767588D03*
X14414392Y-6706928D03*
X13353732Y-5646268D03*
X12293072Y-4585608D03*
X11232412Y-3524948D03*
G04 #@! TD*
D34*
G04 #@! TO.C,J4*
X49500000Y-5301589D03*
D26*
X48230000Y-5301589D03*
X46960000Y-5301589D03*
G04 #@! TD*
D35*
G04 #@! TO.C,U2*
X15775000Y-19200000D03*
X16425000Y-19200000D03*
X17075000Y-19200000D03*
X17725000Y-19200000D03*
X18375000Y-19200000D03*
X19025000Y-19200000D03*
X19675000Y-19200000D03*
X20325000Y-19200000D03*
X20975000Y-19200000D03*
X21625000Y-19200000D03*
X22275000Y-19200000D03*
X22925000Y-19200000D03*
X23575000Y-19200000D03*
X24225000Y-19200000D03*
X24225000Y-12000000D03*
X23575000Y-12000000D03*
X22925000Y-12000000D03*
X22275000Y-12000000D03*
X21625000Y-12000000D03*
X20975000Y-12000000D03*
X20325000Y-12000000D03*
X19675000Y-12000000D03*
X19025000Y-12000000D03*
X18375000Y-12000000D03*
X17725000Y-12000000D03*
X17075000Y-12000000D03*
X16425000Y-12000000D03*
X15775000Y-12000000D03*
G04 #@! TD*
D36*
G04 #@! TO.C,C9*
X58829951Y-11999999D03*
X60173453Y-13343501D03*
G04 #@! TD*
D34*
G04 #@! TO.C,J6*
X58000000Y-23693359D03*
D26*
X56730000Y-23693359D03*
X55460000Y-23693359D03*
G04 #@! TD*
D25*
G04 #@! TO.C,J3*
X11398026Y-15601974D03*
D26*
X10500000Y-16500000D03*
X9601975Y-17398025D03*
G04 #@! TD*
D37*
G04 #@! TO.C,Y1*
X61045585Y-10409189D03*
X56590812Y-5954416D03*
X55954416Y-6590812D03*
X60409189Y-11045585D03*
G04 #@! TD*
D38*
G04 #@! TO.C,SW1*
X23000000Y-37000000D03*
X17000000Y-37000000D03*
G04 #@! TD*
D39*
G04 #@! TO.C,D3*
X11232412Y-36475052D03*
X12293072Y-35414392D03*
X13353732Y-34353732D03*
X14414392Y-33293072D03*
X15475052Y-32232412D03*
X7767588Y-24524948D03*
X6706928Y-25585608D03*
X5646268Y-26646268D03*
X4585608Y-27706928D03*
X3524948Y-28767588D03*
G04 #@! TD*
D33*
G04 #@! TO.C,D4*
X24524948Y-32232412D03*
X25585608Y-33293072D03*
X26646268Y-34353732D03*
X27706928Y-35414392D03*
X28767588Y-36475052D03*
X36475052Y-28767588D03*
X35414392Y-27706928D03*
X34353732Y-26646268D03*
X33293072Y-25585608D03*
X32232412Y-24524948D03*
G04 #@! TD*
D30*
G04 #@! TO.C,R5*
X13672872Y-25046613D03*
X11847872Y-25046613D03*
G04 #@! TD*
D22*
G04 #@! TO.C,C2*
X54637829Y-21041491D03*
X53294327Y-22384993D03*
G04 #@! TD*
D30*
G04 #@! TO.C,R4*
X13672872Y-23046613D03*
X11847872Y-23046613D03*
G04 #@! TD*
D36*
G04 #@! TO.C,C5*
X53829951Y-6999999D03*
X55173453Y-8343501D03*
G04 #@! TD*
D23*
G04 #@! TO.C,R6*
X26330112Y-18492925D03*
X28155112Y-18492925D03*
G04 #@! TD*
D39*
G04 #@! TO.C,D2*
X32232412Y-15475052D03*
X33293072Y-14414392D03*
X34353732Y-13353732D03*
X35414392Y-12293072D03*
X36475052Y-11232412D03*
X28767588Y-3524948D03*
X27706928Y-4585608D03*
X26646268Y-5646268D03*
X25585608Y-6706928D03*
X24524948Y-7767588D03*
G04 #@! TD*
D23*
G04 #@! TO.C,R2*
X26323374Y-14492925D03*
X28148374Y-14492925D03*
G04 #@! TD*
%LPD*%
M02*
