M48
; DRILL file {KiCad 9.0.3-9.0.3-0~ubuntu24.04.1} date 2025-07-13T11:29:56+0200
; FORMAT={-:-/ absolute / metric / decimal}
; #@! TF.CreationDate,2025-07-13T11:29:56+02:00
; #@! TF.GenerationSoftware,Kicad,Pcbnew,9.0.3-9.0.3-0~ubuntu24.04.1
; #@! TF.FileFunction,Plated,1,2,PTH
FMAT,2
METRIC
; #@! TA.AperFunction,Plated,PTH,ViaDrill
T1C0.300
; #@! TA.AperFunction,Plated,PTH,ComponentDrill
T2C0.650
%
G90
G05
T1
X7.0Y-27.75
X10.5Y-24.25
X10.698Y-21.045
X11.16Y-26.16
X12.89Y-13.91
X13.0Y-37.5
X14.0Y-36.5
X14.725Y-27.779
X14.75Y-10.75
X15.5Y-30.0
X16.0Y-34.5
X16.75Y-33.5
X22.25Y-10.25
X23.0Y-29.0
X23.25Y-33.5
X23.75Y-8.75
X24.0Y-34.5
X26.0Y-36.5
X27.0Y-12.5
X27.0Y-37.5
X28.25Y-7.25
X28.25Y-11.493
X28.5Y-26.5
X29.15Y-15.75
X29.25Y-17.75
X29.5Y-30.0
X30.0Y-34.75
X30.25Y-30.75
X30.5Y-28.5
X30.576Y-27.576
X31.5Y-10.0
X31.5Y-13.5
X31.75Y-8.0
X32.5Y-12.25
X32.75Y-9.5
X33.0Y-28.0
X58.23Y-18.901
X59.364Y-23.28
X61.024Y-15.024
X61.246Y-22.246
X62.0Y-25.0
X64.0Y-21.5
X64.3Y-27.2
X66.174Y-20.174
X66.601Y-29.399
X67.3Y-15.53
X67.655Y-28.541
X69.037Y-15.207
X72.101Y-25.899
X72.87Y-26.648
X73.5Y-22.0
X73.6Y-27.378
X74.8Y-22.9
T2
X9.602Y-17.398
X10.5Y-16.5
X11.398Y-15.602
X28.602Y-24.398
X29.5Y-23.5
X30.398Y-22.602
X61.46Y-12.804
X62.73Y-12.804
X64.0Y-12.804
X69.96Y-31.193
X71.23Y-31.193
X72.5Y-31.193
M30
