G04 #@! TF.GenerationSoftware,KiCad,Pcbnew,9.0.3-9.0.3-0~ubuntu24.04.1*
G04 #@! TF.CreationDate,2025-07-13T16:36:45+02:00*
G04 #@! TF.ProjectId,PCBWatch,50434257-6174-4636-982e-6b696361645f,rev?*
G04 #@! TF.SameCoordinates,Original*
G04 #@! TF.FileFunction,Profile,NP*
%FSLAX46Y46*%
G04 Gerber Fmt 4.6, Leading zero omitted, Abs format (unit mm)*
G04 Created by KiCad (PCBNEW 9.0.3-9.0.3-0~ubuntu24.04.1) date 2025-07-13 16:36:45*
%MOMM*%
%LPD*%
G01*
G04 APERTURE LIST*
G04 #@! TA.AperFunction,Profile*
%ADD10C,0.050000*%
G04 #@! TD*
G04 APERTURE END LIST*
D10*
X33000000Y0D02*
X7000000Y0D01*
X0Y-7000000D02*
G75*
G02*
X7000000Y0I7000000J0D01*
G01*
X49500000Y-25000000D02*
X42000000Y-17500000D01*
X59000000Y-4000000D02*
X46000000Y-4000000D01*
X46000000Y-4000000D02*
X42000000Y-8000000D01*
X40000000Y-16500000D02*
G75*
G02*
X42000000Y-16500000I1000000J0D01*
G01*
X40000000Y-33000000D02*
G75*
G02*
X33000000Y-40000000I-7000000J0D01*
G01*
X33000000Y0D02*
G75*
G02*
X40000000Y-7000000I0J-7000000D01*
G01*
X7000000Y-40000000D02*
X33000000Y-40000000D01*
X0Y-7000000D02*
X0Y-33000000D01*
X40000000Y-7000000D02*
X40000000Y-9000000D01*
X42000000Y-16500000D02*
X42000000Y-17500000D01*
X42000000Y-9000000D02*
G75*
G02*
X40000000Y-9000000I-1000000J0D01*
G01*
X42000000Y-9000000D02*
X42000000Y-8000000D01*
X59000000Y-25000000D02*
X63000000Y-21000000D01*
X40000000Y-16500000D02*
X40000000Y-33000000D01*
X7000000Y-40000000D02*
G75*
G02*
X0Y-33000000I0J7000000D01*
G01*
X63000000Y-8000000D02*
X59000000Y-4000000D01*
X63000000Y-21000000D02*
X63000000Y-8000000D01*
X49500000Y-25000000D02*
X59000000Y-25000000D01*
M02*
