G04 #@! TF.GenerationSoftware,KiCad,Pcbnew,9.0.3-9.0.3-0~ubuntu24.04.1*
G04 #@! TF.CreationDate,2025-07-13T16:36:45+02:00*
G04 #@! TF.ProjectId,PCBWatch,50434257-6174-4636-982e-6b696361645f,rev?*
G04 #@! TF.SameCoordinates,Original*
G04 #@! TF.FileFunction,Legend,Bot*
G04 #@! TF.FilePolarity,Positive*
%FSLAX46Y46*%
G04 Gerber Fmt 4.6, Leading zero omitted, Abs format (unit mm)*
G04 Created by KiCad (PCBNEW 9.0.3-9.0.3-0~ubuntu24.04.1) date 2025-07-13 16:36:45*
%MOMM*%
%LPD*%
G01*
G04 APERTURE LIST*
G04 Aperture macros list*
%AMRotRect*
0 Rectangle, with rotation*
0 The origin of the aperture is its center*
0 $1 length*
0 $2 width*
0 $3 Rotation angle, in degrees counterclockwise*
0 Add horizontal line*
21,1,$1,$2,0,0,$3*%
G04 Aperture macros list end*
%ADD10C,0.080000*%
%ADD11C,0.150000*%
%ADD12C,0.120000*%
%ADD13C,0.180000*%
%ADD14C,0.152400*%
%ADD15RotRect,1.000000X1.000000X315.000000*%
%ADD16C,1.000000*%
%ADD17R,1.000000X1.000000*%
%ADD18R,5.105400X2.489200*%
%ADD19C,17.200000*%
G04 APERTURE END LIST*
D10*
X20678571Y-21679530D02*
X20654762Y-21703340D01*
X20654762Y-21703340D02*
X20583333Y-21727149D01*
X20583333Y-21727149D02*
X20535714Y-21727149D01*
X20535714Y-21727149D02*
X20464286Y-21703340D01*
X20464286Y-21703340D02*
X20416667Y-21655720D01*
X20416667Y-21655720D02*
X20392857Y-21608101D01*
X20392857Y-21608101D02*
X20369048Y-21512863D01*
X20369048Y-21512863D02*
X20369048Y-21441435D01*
X20369048Y-21441435D02*
X20392857Y-21346197D01*
X20392857Y-21346197D02*
X20416667Y-21298578D01*
X20416667Y-21298578D02*
X20464286Y-21250959D01*
X20464286Y-21250959D02*
X20535714Y-21227149D01*
X20535714Y-21227149D02*
X20583333Y-21227149D01*
X20583333Y-21227149D02*
X20654762Y-21250959D01*
X20654762Y-21250959D02*
X20678571Y-21274768D01*
X21154762Y-21727149D02*
X20869048Y-21727149D01*
X21011905Y-21727149D02*
X21011905Y-21227149D01*
X21011905Y-21227149D02*
X20964286Y-21298578D01*
X20964286Y-21298578D02*
X20916667Y-21346197D01*
X20916667Y-21346197D02*
X20869048Y-21370006D01*
X21630952Y-21727149D02*
X21345238Y-21727149D01*
X21488095Y-21727149D02*
X21488095Y-21227149D01*
X21488095Y-21227149D02*
X21440476Y-21298578D01*
X21440476Y-21298578D02*
X21392857Y-21346197D01*
X21392857Y-21346197D02*
X21345238Y-21370006D01*
D11*
X29068990Y-28904761D02*
X29021371Y-28761904D01*
X29021371Y-28761904D02*
X28973752Y-28714285D01*
X28973752Y-28714285D02*
X28878514Y-28666666D01*
X28878514Y-28666666D02*
X28735657Y-28666666D01*
X28735657Y-28666666D02*
X28640419Y-28714285D01*
X28640419Y-28714285D02*
X28592800Y-28761904D01*
X28592800Y-28761904D02*
X28545180Y-28857142D01*
X28545180Y-28857142D02*
X28545180Y-29238094D01*
X28545180Y-29238094D02*
X29545180Y-29238094D01*
X29545180Y-29238094D02*
X29545180Y-28904761D01*
X29545180Y-28904761D02*
X29497561Y-28809523D01*
X29497561Y-28809523D02*
X29449942Y-28761904D01*
X29449942Y-28761904D02*
X29354704Y-28714285D01*
X29354704Y-28714285D02*
X29259466Y-28714285D01*
X29259466Y-28714285D02*
X29164228Y-28761904D01*
X29164228Y-28761904D02*
X29116609Y-28809523D01*
X29116609Y-28809523D02*
X29068990Y-28904761D01*
X29068990Y-28904761D02*
X29068990Y-29238094D01*
X28545180Y-27714285D02*
X28545180Y-28285713D01*
X28545180Y-27999999D02*
X29545180Y-27999999D01*
X29545180Y-27999999D02*
X29402323Y-28095237D01*
X29402323Y-28095237D02*
X29307085Y-28190475D01*
X29307085Y-28190475D02*
X29259466Y-28285713D01*
D12*
G36*
X13050584Y-12922593D02*
G01*
X13078716Y-12950726D01*
X13109934Y-13013160D01*
X13109934Y-13274234D01*
X12768981Y-13274234D01*
X12768981Y-13013160D01*
X12800197Y-12950727D01*
X12828331Y-12922593D01*
X12890764Y-12891377D01*
X12988150Y-12891377D01*
X13050584Y-12922593D01*
G37*
G36*
X12981372Y-11253702D02*
G01*
X13050584Y-11288308D01*
X13078717Y-11316441D01*
X13109934Y-11378873D01*
X13109934Y-11434356D01*
X13078717Y-11496788D01*
X13050584Y-11524921D01*
X12981372Y-11559527D01*
X12827308Y-11598043D01*
X12632556Y-11598043D01*
X12478493Y-11559527D01*
X12409284Y-11524922D01*
X12381151Y-11496788D01*
X12349934Y-11434354D01*
X12349934Y-11378875D01*
X12381151Y-11316441D01*
X12409284Y-11288307D01*
X12478493Y-11253702D01*
X12632556Y-11215186D01*
X12827308Y-11215186D01*
X12981372Y-11253702D01*
G37*
G36*
X13327712Y-14413916D02*
G01*
X12132156Y-14413916D01*
X12132156Y-13878996D01*
X12229934Y-13878996D01*
X12229934Y-13962805D01*
X12231810Y-13972238D01*
X12233013Y-13981779D01*
X12274918Y-14107493D01*
X12276406Y-14110103D01*
X12276406Y-14111480D01*
X12281751Y-14119479D01*
X12286512Y-14127831D01*
X12287742Y-14128446D01*
X12289412Y-14130945D01*
X12373222Y-14214755D01*
X12381213Y-14220094D01*
X12388815Y-14225995D01*
X12472625Y-14267899D01*
X12478960Y-14269634D01*
X12484906Y-14272443D01*
X12652526Y-14314347D01*
X12659869Y-14314704D01*
X12667077Y-14316138D01*
X12792791Y-14316138D01*
X12799998Y-14314704D01*
X12807343Y-14314347D01*
X12974962Y-14272442D01*
X12980900Y-14269636D01*
X12987243Y-14267900D01*
X13071052Y-14225994D01*
X13078651Y-14220096D01*
X13086645Y-14214755D01*
X13170455Y-14130946D01*
X13172125Y-14128446D01*
X13173356Y-14127831D01*
X13178117Y-14119478D01*
X13183462Y-14111480D01*
X13183462Y-14110103D01*
X13184950Y-14107493D01*
X13226855Y-13981779D01*
X13228057Y-13972238D01*
X13229934Y-13962805D01*
X13229934Y-13878996D01*
X13228057Y-13869562D01*
X13226855Y-13860022D01*
X13184950Y-13734307D01*
X13183462Y-13731696D01*
X13183462Y-13730319D01*
X13178115Y-13722317D01*
X13173356Y-13713969D01*
X13172125Y-13713353D01*
X13170455Y-13710854D01*
X13128550Y-13668950D01*
X13109085Y-13655944D01*
X13063162Y-13655944D01*
X13030691Y-13688416D01*
X13030691Y-13734339D01*
X13043698Y-13753804D01*
X13075587Y-13785692D01*
X13109934Y-13888732D01*
X13109934Y-13953067D01*
X13075586Y-14056108D01*
X13008679Y-14123016D01*
X12939467Y-14157622D01*
X12785403Y-14196138D01*
X12674461Y-14196138D01*
X12520398Y-14157622D01*
X12451189Y-14123017D01*
X12384281Y-14056108D01*
X12349934Y-13953067D01*
X12349934Y-13888733D01*
X12384281Y-13785690D01*
X12416169Y-13753804D01*
X12429176Y-13734338D01*
X12429176Y-13688416D01*
X12396704Y-13655944D01*
X12350782Y-13655944D01*
X12331316Y-13668951D01*
X12289413Y-13710855D01*
X12287744Y-13713352D01*
X12286511Y-13713969D01*
X12281746Y-13722327D01*
X12276406Y-13730320D01*
X12276406Y-13731697D01*
X12274918Y-13734308D01*
X12233013Y-13860022D01*
X12231810Y-13869562D01*
X12229934Y-13878996D01*
X12132156Y-13878996D01*
X12132156Y-12818399D01*
X12231354Y-12818399D01*
X12239335Y-12863622D01*
X12255526Y-12880531D01*
X12648981Y-13155949D01*
X12648981Y-13274234D01*
X12289934Y-13274234D01*
X12266973Y-13278801D01*
X12234501Y-13311273D01*
X12234501Y-13357195D01*
X12266973Y-13389667D01*
X12289934Y-13394234D01*
X13169934Y-13394234D01*
X13192895Y-13389667D01*
X13225367Y-13357195D01*
X13229934Y-13334234D01*
X13229934Y-12998996D01*
X13229347Y-12996048D01*
X13229783Y-12994742D01*
X13227243Y-12985471D01*
X13225367Y-12976035D01*
X13224392Y-12975060D01*
X13223599Y-12972163D01*
X13181695Y-12888353D01*
X13175799Y-12880756D01*
X13170456Y-12872760D01*
X13128550Y-12830855D01*
X13120558Y-12825514D01*
X13112956Y-12819615D01*
X13029148Y-12777711D01*
X13026249Y-12776917D01*
X13025276Y-12775944D01*
X13015843Y-12774067D01*
X13006568Y-12771528D01*
X13005262Y-12771963D01*
X13002315Y-12771377D01*
X12876600Y-12771377D01*
X12873652Y-12771963D01*
X12872347Y-12771528D01*
X12863071Y-12774067D01*
X12853639Y-12775944D01*
X12852665Y-12776917D01*
X12849767Y-12777711D01*
X12765958Y-12819615D01*
X12758357Y-12825513D01*
X12750365Y-12830854D01*
X12708460Y-12872760D01*
X12703119Y-12880751D01*
X12697220Y-12888354D01*
X12655315Y-12972163D01*
X12654521Y-12975061D01*
X12653548Y-12976035D01*
X12651671Y-12985467D01*
X12649132Y-12994743D01*
X12649567Y-12996048D01*
X12648981Y-12998996D01*
X12648981Y-13009470D01*
X12324342Y-12782223D01*
X12302912Y-12772797D01*
X12257689Y-12780778D01*
X12231354Y-12818399D01*
X12132156Y-12818399D01*
X12132156Y-11993281D01*
X12229934Y-11993281D01*
X12229934Y-12538043D01*
X12234501Y-12561004D01*
X12266973Y-12593476D01*
X12312895Y-12593476D01*
X12332360Y-12580469D01*
X12825202Y-12087627D01*
X12928242Y-12053281D01*
X12988150Y-12053281D01*
X13050584Y-12084498D01*
X13078717Y-12112631D01*
X13109934Y-12175063D01*
X13109934Y-12356259D01*
X13078717Y-12418692D01*
X13043698Y-12453711D01*
X13030691Y-12473176D01*
X13030691Y-12519099D01*
X13063162Y-12551571D01*
X13109085Y-12551571D01*
X13128550Y-12538565D01*
X13170455Y-12496661D01*
X13175799Y-12488662D01*
X13181695Y-12481067D01*
X13223599Y-12397257D01*
X13224392Y-12394359D01*
X13225367Y-12393385D01*
X13227243Y-12383948D01*
X13229783Y-12374678D01*
X13229347Y-12373371D01*
X13229934Y-12370424D01*
X13229934Y-12160900D01*
X13229347Y-12157952D01*
X13229783Y-12156647D01*
X13227243Y-12147371D01*
X13225367Y-12137939D01*
X13224393Y-12136965D01*
X13223600Y-12134067D01*
X13181695Y-12050258D01*
X13175797Y-12042658D01*
X13170456Y-12034665D01*
X13128550Y-11992760D01*
X13120556Y-11987418D01*
X13112957Y-11981521D01*
X13029148Y-11939615D01*
X13026249Y-11938821D01*
X13025276Y-11937848D01*
X13015845Y-11935972D01*
X13006569Y-11933432D01*
X13005262Y-11933867D01*
X13002315Y-11933281D01*
X12918505Y-11933281D01*
X12909071Y-11935157D01*
X12899531Y-11936360D01*
X12773817Y-11978265D01*
X12771207Y-11979753D01*
X12769830Y-11979753D01*
X12761831Y-11985097D01*
X12753479Y-11989859D01*
X12752863Y-11991089D01*
X12750364Y-11992760D01*
X12349934Y-12393190D01*
X12349934Y-11993281D01*
X12345367Y-11970320D01*
X12312895Y-11937848D01*
X12266973Y-11937848D01*
X12234501Y-11970320D01*
X12229934Y-11993281D01*
X12132156Y-11993281D01*
X12132156Y-11364710D01*
X12229934Y-11364710D01*
X12229934Y-11448520D01*
X12230520Y-11451467D01*
X12230085Y-11452774D01*
X12232625Y-11462050D01*
X12234501Y-11471481D01*
X12235474Y-11472454D01*
X12236268Y-11475353D01*
X12278174Y-11559162D01*
X12284067Y-11566755D01*
X12289412Y-11574755D01*
X12331316Y-11616660D01*
X12339314Y-11622004D01*
X12346910Y-11627900D01*
X12430720Y-11669804D01*
X12437055Y-11671539D01*
X12443001Y-11674348D01*
X12610621Y-11716252D01*
X12617964Y-11716609D01*
X12625172Y-11718043D01*
X12834696Y-11718043D01*
X12841903Y-11716609D01*
X12849248Y-11716252D01*
X13016867Y-11674347D01*
X13022805Y-11671541D01*
X13029148Y-11669805D01*
X13112957Y-11627899D01*
X13120556Y-11622001D01*
X13128550Y-11616660D01*
X13170456Y-11574755D01*
X13175797Y-11566761D01*
X13181695Y-11559162D01*
X13223600Y-11475353D01*
X13224393Y-11472454D01*
X13225367Y-11471481D01*
X13227243Y-11462048D01*
X13229783Y-11452773D01*
X13229347Y-11451467D01*
X13229934Y-11448520D01*
X13229934Y-11364710D01*
X13229347Y-11361762D01*
X13229783Y-11360457D01*
X13227243Y-11351181D01*
X13225367Y-11341749D01*
X13224393Y-11340775D01*
X13223600Y-11337877D01*
X13181695Y-11254068D01*
X13175797Y-11246468D01*
X13170456Y-11238475D01*
X13128550Y-11196570D01*
X13120556Y-11191228D01*
X13112957Y-11185331D01*
X13029148Y-11143425D01*
X13022805Y-11141688D01*
X13016867Y-11138883D01*
X12849248Y-11096977D01*
X12841903Y-11096619D01*
X12834696Y-11095186D01*
X12625172Y-11095186D01*
X12617964Y-11096619D01*
X12610620Y-11096977D01*
X12443001Y-11138882D01*
X12437055Y-11141690D01*
X12430720Y-11143426D01*
X12346910Y-11185330D01*
X12339314Y-11191225D01*
X12331316Y-11196570D01*
X12289412Y-11238475D01*
X12284067Y-11246474D01*
X12278174Y-11254068D01*
X12236268Y-11337877D01*
X12235474Y-11340775D01*
X12234501Y-11341749D01*
X12232625Y-11351179D01*
X12230085Y-11360456D01*
X12230520Y-11361762D01*
X12229934Y-11364710D01*
X12132156Y-11364710D01*
X12132156Y-10484710D01*
X12229934Y-10484710D01*
X12229934Y-10736139D01*
X12230520Y-10739086D01*
X12230085Y-10740393D01*
X12232625Y-10749669D01*
X12234501Y-10759100D01*
X12235474Y-10760073D01*
X12236268Y-10762972D01*
X12278174Y-10846781D01*
X12284067Y-10854374D01*
X12289412Y-10862374D01*
X12331316Y-10904279D01*
X12350781Y-10917286D01*
X12396704Y-10917286D01*
X12429176Y-10884815D01*
X12429176Y-10838893D01*
X12416170Y-10819427D01*
X12381151Y-10784407D01*
X12349934Y-10721973D01*
X12349934Y-10498875D01*
X12381151Y-10436441D01*
X12409284Y-10408307D01*
X12471717Y-10377091D01*
X12652912Y-10377091D01*
X12715346Y-10408308D01*
X12743479Y-10436441D01*
X12774696Y-10498873D01*
X12774696Y-10610425D01*
X12778024Y-10627160D01*
X12777859Y-10629648D01*
X12778713Y-10630624D01*
X12779263Y-10633386D01*
X12794192Y-10648315D01*
X12808098Y-10664208D01*
X12810226Y-10664349D01*
X12811735Y-10665858D01*
X12832854Y-10665858D01*
X12853919Y-10667262D01*
X12856357Y-10665858D01*
X12857657Y-10665858D01*
X12859421Y-10664093D01*
X12874206Y-10655580D01*
X13109934Y-10449317D01*
X13109934Y-10861853D01*
X13114501Y-10884814D01*
X13146973Y-10917286D01*
X13192895Y-10917286D01*
X13225367Y-10884814D01*
X13229934Y-10861853D01*
X13229934Y-10317091D01*
X13226605Y-10300355D01*
X13226771Y-10297868D01*
X13225916Y-10296891D01*
X13225367Y-10294130D01*
X13210437Y-10279200D01*
X13196532Y-10263308D01*
X13194403Y-10263166D01*
X13192895Y-10261658D01*
X13171776Y-10261658D01*
X13150711Y-10260254D01*
X13148273Y-10261658D01*
X13146973Y-10261658D01*
X13145207Y-10263423D01*
X13130424Y-10271937D01*
X12894075Y-10478741D01*
X12892005Y-10471181D01*
X12890129Y-10461749D01*
X12889155Y-10460775D01*
X12888362Y-10457877D01*
X12846457Y-10374068D01*
X12840559Y-10366468D01*
X12835218Y-10358475D01*
X12793312Y-10316570D01*
X12785318Y-10311228D01*
X12777719Y-10305331D01*
X12693910Y-10263425D01*
X12691011Y-10262631D01*
X12690038Y-10261658D01*
X12680607Y-10259782D01*
X12671331Y-10257242D01*
X12670024Y-10257677D01*
X12667077Y-10257091D01*
X12457553Y-10257091D01*
X12454605Y-10257677D01*
X12453299Y-10257242D01*
X12444028Y-10259781D01*
X12434592Y-10261658D01*
X12433617Y-10262632D01*
X12430720Y-10263426D01*
X12346910Y-10305330D01*
X12339314Y-10311225D01*
X12331316Y-10316570D01*
X12289412Y-10358475D01*
X12284067Y-10366474D01*
X12278174Y-10374068D01*
X12236268Y-10457877D01*
X12235474Y-10460775D01*
X12234501Y-10461749D01*
X12232625Y-10471179D01*
X12230085Y-10480456D01*
X12230520Y-10481762D01*
X12229934Y-10484710D01*
X12132156Y-10484710D01*
X12132156Y-9478996D01*
X12229934Y-9478996D01*
X12229934Y-10023758D01*
X12234501Y-10046719D01*
X12266973Y-10079191D01*
X12312895Y-10079191D01*
X12332360Y-10066184D01*
X12825202Y-9573342D01*
X12928242Y-9538996D01*
X12988150Y-9538996D01*
X13050584Y-9570213D01*
X13078717Y-9598346D01*
X13109934Y-9660778D01*
X13109934Y-9841974D01*
X13078717Y-9904407D01*
X13043698Y-9939426D01*
X13030691Y-9958891D01*
X13030691Y-10004814D01*
X13063162Y-10037286D01*
X13109085Y-10037286D01*
X13128550Y-10024280D01*
X13170455Y-9982376D01*
X13175799Y-9974377D01*
X13181695Y-9966782D01*
X13223599Y-9882972D01*
X13224392Y-9880074D01*
X13225367Y-9879100D01*
X13227243Y-9869663D01*
X13229783Y-9860393D01*
X13229347Y-9859086D01*
X13229934Y-9856139D01*
X13229934Y-9646615D01*
X13229347Y-9643667D01*
X13229783Y-9642362D01*
X13227243Y-9633086D01*
X13225367Y-9623654D01*
X13224393Y-9622680D01*
X13223600Y-9619782D01*
X13181695Y-9535973D01*
X13175797Y-9528373D01*
X13170456Y-9520380D01*
X13128550Y-9478475D01*
X13120556Y-9473133D01*
X13112957Y-9467236D01*
X13029148Y-9425330D01*
X13026249Y-9424536D01*
X13025276Y-9423563D01*
X13015845Y-9421687D01*
X13006569Y-9419147D01*
X13005262Y-9419582D01*
X13002315Y-9418996D01*
X12918505Y-9418996D01*
X12909071Y-9420872D01*
X12899531Y-9422075D01*
X12773817Y-9463980D01*
X12771207Y-9465468D01*
X12769830Y-9465468D01*
X12761831Y-9470812D01*
X12753479Y-9475574D01*
X12752863Y-9476804D01*
X12750364Y-9478475D01*
X12349934Y-9878905D01*
X12349934Y-9478996D01*
X12345367Y-9456035D01*
X12312895Y-9423563D01*
X12266973Y-9423563D01*
X12234501Y-9456035D01*
X12229934Y-9478996D01*
X12132156Y-9478996D01*
X12132156Y-9321218D01*
X13327712Y-9321218D01*
X13327712Y-14413916D01*
G37*
D13*
G36*
X13829550Y-30612454D02*
G01*
X12182884Y-30612454D01*
X12182884Y-29876564D01*
X12316217Y-29876564D01*
X12316217Y-30219421D01*
X12317946Y-30236979D01*
X12319183Y-30239967D01*
X12319413Y-30243193D01*
X12325719Y-30259670D01*
X12382862Y-30373957D01*
X12387617Y-30381512D01*
X12388527Y-30383708D01*
X12390554Y-30386178D01*
X12392260Y-30388888D01*
X12394058Y-30390447D01*
X12399720Y-30397346D01*
X12456862Y-30454489D01*
X12470500Y-30465682D01*
X12502943Y-30479120D01*
X12538060Y-30479121D01*
X12570503Y-30465683D01*
X12595334Y-30440853D01*
X12608772Y-30408409D01*
X12608773Y-30373293D01*
X12595335Y-30340849D01*
X12584142Y-30327211D01*
X12537327Y-30280396D01*
X12496217Y-30198175D01*
X12496217Y-29897810D01*
X12537326Y-29815591D01*
X12573815Y-29779101D01*
X12656034Y-29737993D01*
X12899257Y-29737993D01*
X12981475Y-29779102D01*
X13017964Y-29815591D01*
X13059074Y-29897810D01*
X13059074Y-30047993D01*
X13059988Y-30057279D01*
X13059831Y-30059641D01*
X13060381Y-30061267D01*
X13060803Y-30065551D01*
X13066396Y-30079053D01*
X13071081Y-30092906D01*
X13073081Y-30095192D01*
X13074242Y-30097994D01*
X13084567Y-30108319D01*
X13094205Y-30119334D01*
X13096929Y-30120681D01*
X13099073Y-30122825D01*
X13112574Y-30128417D01*
X13125683Y-30134900D01*
X13128710Y-30135101D01*
X13131516Y-30136264D01*
X13146142Y-30136264D01*
X13160722Y-30137236D01*
X13163596Y-30136264D01*
X13166632Y-30136264D01*
X13180134Y-30130670D01*
X13193987Y-30125986D01*
X13197489Y-30123481D01*
X13199075Y-30122825D01*
X13200747Y-30121152D01*
X13208339Y-30115725D01*
X13516217Y-29846331D01*
X13516217Y-30390850D01*
X13517946Y-30408408D01*
X13531385Y-30440851D01*
X13556216Y-30465682D01*
X13588659Y-30479121D01*
X13623775Y-30479121D01*
X13656218Y-30465682D01*
X13681049Y-30440851D01*
X13694488Y-30408408D01*
X13696217Y-30390850D01*
X13696217Y-29647993D01*
X13695302Y-29638706D01*
X13695460Y-29636345D01*
X13694909Y-29634718D01*
X13694488Y-29630435D01*
X13688894Y-29616932D01*
X13684210Y-29603080D01*
X13682209Y-29600793D01*
X13681049Y-29597992D01*
X13670723Y-29587666D01*
X13661086Y-29576652D01*
X13658361Y-29575304D01*
X13656218Y-29573161D01*
X13642716Y-29567568D01*
X13629608Y-29561086D01*
X13626580Y-29560884D01*
X13623775Y-29559722D01*
X13609149Y-29559722D01*
X13594569Y-29558750D01*
X13591695Y-29559722D01*
X13588659Y-29559722D01*
X13575156Y-29565315D01*
X13561304Y-29570000D01*
X13557801Y-29572504D01*
X13556216Y-29573161D01*
X13554543Y-29574833D01*
X13546952Y-29580261D01*
X13235780Y-29852536D01*
X13229572Y-29836315D01*
X13172429Y-29722029D01*
X13167671Y-29714470D01*
X13166763Y-29712277D01*
X13164737Y-29709808D01*
X13163031Y-29707098D01*
X13161232Y-29705538D01*
X13155570Y-29698639D01*
X13098428Y-29641496D01*
X13091527Y-29635833D01*
X13089969Y-29634036D01*
X13087259Y-29632330D01*
X13084790Y-29630304D01*
X13082596Y-29629395D01*
X13075038Y-29624638D01*
X12960751Y-29567495D01*
X12944274Y-29561189D01*
X12941048Y-29560959D01*
X12938060Y-29559722D01*
X12920502Y-29557993D01*
X12634788Y-29557993D01*
X12617230Y-29559722D01*
X12614241Y-29560959D01*
X12611017Y-29561189D01*
X12594539Y-29567494D01*
X12480253Y-29624638D01*
X12472696Y-29629394D01*
X12470500Y-29630304D01*
X12468028Y-29632332D01*
X12465322Y-29634036D01*
X12463764Y-29635832D01*
X12456862Y-29641497D01*
X12399720Y-29698640D01*
X12394056Y-29705541D01*
X12392261Y-29707098D01*
X12390557Y-29709803D01*
X12388527Y-29712278D01*
X12387616Y-29714475D01*
X12382862Y-29722029D01*
X12325719Y-29836314D01*
X12319413Y-29852792D01*
X12319183Y-29856017D01*
X12317946Y-29859006D01*
X12316217Y-29876564D01*
X12182884Y-29876564D01*
X12182884Y-28893879D01*
X12316923Y-28893879D01*
X12317723Y-28905136D01*
X12316923Y-28916393D01*
X12318957Y-28922495D01*
X12319413Y-28928907D01*
X12324457Y-28938995D01*
X12328028Y-28949707D01*
X12332243Y-28954567D01*
X12335118Y-28960316D01*
X12343642Y-28967710D01*
X12351037Y-28976235D01*
X12356785Y-28979109D01*
X12361646Y-28983325D01*
X12377757Y-28990517D01*
X13577756Y-29390517D01*
X13594960Y-29394430D01*
X13629988Y-29391940D01*
X13661397Y-29376235D01*
X13684406Y-29349707D01*
X13695510Y-29316393D01*
X13693021Y-29281365D01*
X13677316Y-29249956D01*
X13650788Y-29226947D01*
X13634677Y-29219754D01*
X12690820Y-28905136D01*
X13634677Y-28590518D01*
X13650788Y-28583325D01*
X13677316Y-28560316D01*
X13693021Y-28528907D01*
X13695510Y-28493879D01*
X13684406Y-28460565D01*
X13661397Y-28434037D01*
X13629988Y-28418332D01*
X13594960Y-28415842D01*
X13577756Y-28419755D01*
X12377757Y-28819755D01*
X12361646Y-28826947D01*
X12356785Y-28831162D01*
X12351037Y-28834037D01*
X12343642Y-28842561D01*
X12335118Y-28849956D01*
X12332243Y-28855704D01*
X12328028Y-28860565D01*
X12324457Y-28871276D01*
X12319413Y-28881365D01*
X12318957Y-28887776D01*
X12316923Y-28893879D01*
X12182884Y-28893879D01*
X12182884Y-28282509D01*
X13829550Y-28282509D01*
X13829550Y-30612454D01*
G37*
D14*
G04 #@! TO.C,B1*
X12126000Y-9319300D02*
X17114560Y-9319300D01*
X12126000Y-15173668D02*
X12126000Y-9319300D01*
X12126000Y-30680700D02*
X12126000Y-24826332D01*
X17114560Y-30680700D02*
X12126000Y-30680700D01*
X22885440Y-9319300D02*
X27874000Y-9319300D01*
X27874000Y-9319300D02*
X27874000Y-15173668D01*
X27874000Y-24826332D02*
X27874000Y-30680700D01*
X27874000Y-30680700D02*
X22885440Y-30680700D01*
G04 #@! TD*
%LPC*%
G36*
X30500000Y-5000000D02*
G01*
X33500000Y-5000000D01*
X33500000Y-9000000D01*
X30500000Y-9000000D01*
X30500000Y-5000000D01*
G37*
G36*
X30500000Y-31000000D02*
G01*
X33500000Y-31000000D01*
X33500000Y-35000000D01*
X30500000Y-35000000D01*
X30500000Y-31000000D01*
G37*
G36*
X6500000Y-31000000D02*
G01*
X9500000Y-31000000D01*
X9500000Y-35000000D01*
X6500000Y-35000000D01*
X6500000Y-31000000D01*
G37*
G36*
X6500000Y-5000000D02*
G01*
X9500000Y-5000000D01*
X9500000Y-9000000D01*
X6500000Y-9000000D01*
X6500000Y-5000000D01*
G37*
D15*
G04 #@! TO.C,J5*
X30398026Y-22601975D03*
D16*
X29500000Y-23500001D03*
X28601975Y-24398026D03*
G04 #@! TD*
D17*
G04 #@! TO.C,J4*
X49500000Y-5301589D03*
D16*
X48230000Y-5301589D03*
X46960000Y-5301589D03*
G04 #@! TD*
D17*
G04 #@! TO.C,J6*
X58000000Y-23693359D03*
D16*
X56730000Y-23693359D03*
X55460000Y-23693359D03*
G04 #@! TD*
D15*
G04 #@! TO.C,J3*
X11398026Y-15601974D03*
D16*
X10500000Y-16500000D03*
X9601975Y-17398025D03*
G04 #@! TD*
D18*
G04 #@! TO.C,B1*
X20000000Y-31450000D03*
X20000000Y-8550000D03*
D19*
X20000000Y-20000000D03*
G04 #@! TD*
%LPD*%
M02*
