G04 #@! TF.GenerationSoftware,KiCad,Pcbnew,9.0.3-9.0.3-0~ubuntu24.04.1*
G04 #@! TF.CreationDate,2025-07-13T16:36:45+02:00*
G04 #@! TF.ProjectId,PCBWatch,50434257-6174-4636-982e-6b696361645f,rev?*
G04 #@! TF.SameCoordinates,Original*
G04 #@! TF.FileFunction,Copper,L2,Bot*
G04 #@! TF.FilePolarity,Positive*
%FSLAX46Y46*%
G04 Gerber Fmt 4.6, Leading zero omitted, Abs format (unit mm)*
G04 Created by KiCad (PCBNEW 9.0.3-9.0.3-0~ubuntu24.04.1) date 2025-07-13 16:36:45*
%MOMM*%
%LPD*%
G01*
G04 APERTURE LIST*
G04 Aperture macros list*
%AMRotRect*
0 Rectangle, with rotation*
0 The origin of the aperture is its center*
0 $1 length*
0 $2 width*
0 $3 Rotation angle, in degrees counterclockwise*
0 Add horizontal line*
21,1,$1,$2,0,0,$3*%
G04 Aperture macros list end*
G04 #@! TA.AperFunction,ComponentPad*
%ADD10RotRect,1.000000X1.000000X315.000000*%
G04 #@! TD*
G04 #@! TA.AperFunction,ComponentPad*
%ADD11C,1.000000*%
G04 #@! TD*
G04 #@! TA.AperFunction,ComponentPad*
%ADD12R,1.000000X1.000000*%
G04 #@! TD*
G04 #@! TA.AperFunction,SMDPad,CuDef*
%ADD13R,5.105400X2.489200*%
G04 #@! TD*
G04 #@! TA.AperFunction,SMDPad,CuDef*
%ADD14C,17.200000*%
G04 #@! TD*
G04 #@! TA.AperFunction,ViaPad*
%ADD15C,0.600000*%
G04 #@! TD*
G04 #@! TA.AperFunction,Conductor*
%ADD16C,0.200000*%
G04 #@! TD*
G04 APERTURE END LIST*
D10*
G04 #@! TO.P,J5,1,Pin_1*
G04 #@! TO.N,/sda-A*
X30398026Y-22601975D03*
D11*
G04 #@! TO.P,J5,2,Pin_2*
G04 #@! TO.N,/sck-A*
X29500000Y-23500001D03*
G04 #@! TO.P,J5,3,Pin_3*
G04 #@! TO.N,/touch-A*
X28601975Y-24398026D03*
G04 #@! TD*
D12*
G04 #@! TO.P,J4,1,Pin_1*
G04 #@! TO.N,GND-B*
X49500000Y-5301589D03*
D11*
G04 #@! TO.P,J4,2,Pin_2*
G04 #@! TO.N,unconnected-(J4-Pin_2-Pad2)*
X48230000Y-5301589D03*
G04 #@! TO.P,J4,3,Pin_3*
G04 #@! TO.N,+3V0-B*
X46960000Y-5301589D03*
G04 #@! TD*
D12*
G04 #@! TO.P,J6,1,Pin_1*
G04 #@! TO.N,/sda-B*
X58000000Y-23693359D03*
D11*
G04 #@! TO.P,J6,2,Pin_2*
G04 #@! TO.N,/sck-B*
X56730000Y-23693359D03*
G04 #@! TO.P,J6,3,Pin_3*
G04 #@! TO.N,/touch-B*
X55460000Y-23693359D03*
G04 #@! TD*
D10*
G04 #@! TO.P,J3,1,Pin_1*
G04 #@! TO.N,GND-A*
X11398026Y-15601974D03*
D11*
G04 #@! TO.P,J3,2,Pin_2*
G04 #@! TO.N,unconnected-(J3-Pin_2-Pad2)*
X10500000Y-16500000D03*
G04 #@! TO.P,J3,3,Pin_3*
G04 #@! TO.N,+3V0-A*
X9601975Y-17398025D03*
G04 #@! TD*
D13*
G04 #@! TO.P,B1,1,1*
G04 #@! TO.N,+3V0-A*
X20000000Y-31450000D03*
X20000000Y-8550000D03*
D14*
G04 #@! TO.P,B1,2,2*
G04 #@! TO.N,GND-A*
X20000000Y-20000000D03*
G04 #@! TD*
D15*
G04 #@! TO.N,*
X41467698Y-14691680D03*
X40656189Y-11208415D03*
X41468234Y-10787535D03*
X41472189Y-12707388D03*
X41472189Y-13707388D03*
X40656189Y-14208415D03*
X40656189Y-13208415D03*
X41472189Y-11707388D03*
X40656189Y-12208415D03*
G04 #@! TO.N,/NRST*
X49500000Y-14000000D03*
X46745988Y-14745988D03*
G04 #@! TO.N,Net-(U1-BOOT0)*
X43375163Y-11783878D03*
X51674265Y-12674265D03*
G04 #@! TO.N,/SWDIO*
X49800000Y-19700000D03*
X47500000Y-17500000D03*
G04 #@! TO.N,/row7*
X29637293Y-34720421D03*
X13000000Y-37500000D03*
X27000000Y-37500000D03*
X26000000Y-29000000D03*
G04 #@! TO.N,/row5*
X11159580Y-26159580D03*
X31200000Y-14100000D03*
G04 #@! TO.N,/row2*
X16000000Y-34500000D03*
X28198452Y-12849922D03*
X29349532Y-30000000D03*
X24000000Y-34500000D03*
G04 #@! TO.N,/row3*
X10697823Y-21045191D03*
X31700000Y-11200000D03*
G04 #@! TO.N,/row8*
X14250000Y-11750000D03*
X31100000Y-11900000D03*
G04 #@! TO.N,/row4*
X32500000Y-12250000D03*
X10500000Y-24250000D03*
G04 #@! TO.N,/row1*
X16750000Y-33500000D03*
X29150000Y-16500000D03*
X29000000Y-28000000D03*
X23250000Y-33500000D03*
G04 #@! TO.N,/row6*
X14000000Y-36500000D03*
X30000000Y-26000000D03*
X26000000Y-36500000D03*
X29400000Y-18500000D03*
G04 #@! TO.N,/column2*
X31200000Y-13200000D03*
X27100000Y-7800000D03*
X23750000Y-8750000D03*
G04 #@! TO.N,/column3*
X7000000Y-27750000D03*
X14724696Y-27778957D03*
G04 #@! TO.N,/column4*
X31500000Y-26750000D03*
X25250000Y-10750000D03*
X29000000Y-31000000D03*
G04 #@! TO.N,/touch-B*
X57601042Y-18398958D03*
G04 #@! TO.N,+3V0-A*
X15000000Y-11000000D03*
X15500000Y-30000000D03*
X22250000Y-10250000D03*
G04 #@! TO.N,GND-A*
X38750000Y-27500000D03*
X32000000Y-38750000D03*
X38702513Y-33714509D03*
X14250000Y-38750000D03*
X17500000Y-29000000D03*
X11250000Y-1250000D03*
X30000000Y-1250000D03*
X38750000Y-21250000D03*
X1250000Y-8750000D03*
X8500000Y-20000000D03*
X7000000Y-30750000D03*
X21850000Y-17500000D03*
X38750000Y-15000000D03*
X1250000Y-25000000D03*
X8500000Y-31750000D03*
X3580467Y-37695417D03*
X38750000Y-30000000D03*
X5300000Y-9100000D03*
X38750000Y-16250000D03*
X6750000Y-38750000D03*
X38750000Y-31250000D03*
X1250000Y-31250000D03*
X4790714Y-1683174D03*
X13000000Y-38750000D03*
X10500000Y-13500000D03*
X1250000Y-26250000D03*
X6087270Y-1325959D03*
X1250000Y-21250000D03*
X27215383Y-25492309D03*
X16750000Y-10250000D03*
X8000000Y-38750000D03*
X13750000Y-1250000D03*
X3613230Y-2278531D03*
X1713427Y-35333039D03*
X1250000Y-18750000D03*
X30750000Y-20500000D03*
X20000000Y-6500000D03*
X1250000Y-15000000D03*
X38750000Y-18750000D03*
X23000000Y-17500000D03*
X10500000Y-38750000D03*
X4800000Y-8100000D03*
X23200000Y-22000000D03*
X1250000Y-11250000D03*
X2726809Y-3059110D03*
X9250000Y-32250000D03*
X17500000Y-1250000D03*
X26250000Y-1250000D03*
X5800000Y-10100000D03*
X1250000Y-28750000D03*
X28750000Y-1250000D03*
X6250000Y-20000000D03*
X38750000Y-17500000D03*
X26500000Y-13000000D03*
X38750000Y-10000000D03*
X16500000Y-29000000D03*
X2494536Y-36628537D03*
X27500000Y-1250000D03*
X21250000Y-1250000D03*
X23750000Y-1250000D03*
X23582213Y-10226439D03*
X1250000Y-10000000D03*
X38674738Y-6158064D03*
X22500000Y-1250000D03*
X27215383Y-26492309D03*
X34600000Y-38600000D03*
X38750000Y-23750000D03*
X38400000Y-35000000D03*
X38750000Y-28750000D03*
X34785070Y-1514277D03*
X15000000Y-1250000D03*
X11750000Y-38750000D03*
X1509634Y-5215627D03*
X9250000Y-38750000D03*
X10000000Y-1250000D03*
X35800000Y-38000000D03*
X7500000Y-1250000D03*
X1972690Y-4117523D03*
X38750000Y-20000000D03*
X1250000Y-7500000D03*
X32000000Y-19500000D03*
X18750000Y-1250000D03*
X38750000Y-8750000D03*
X1250000Y-12500000D03*
X38750000Y-25000000D03*
X15250000Y-17250000D03*
X38750000Y-12500000D03*
X7750000Y-31250000D03*
X1250000Y-20000000D03*
X38750000Y-22500000D03*
X6300000Y-11100000D03*
X25000000Y-1250000D03*
X27000000Y-38750000D03*
X36862206Y-2757912D03*
X16250000Y-1250000D03*
X29500000Y-38750000D03*
X38750000Y-7500000D03*
X20000000Y-1250000D03*
X37000000Y-37200000D03*
X35883174Y-2003793D03*
X1250000Y-16250000D03*
X13500000Y-27000000D03*
X25500000Y-12000000D03*
X30750000Y-38750000D03*
X1250000Y-23750000D03*
X33634046Y-1302594D03*
X8750000Y-1250000D03*
X25750000Y-38750000D03*
X37708936Y-3670793D03*
X32500000Y-1250000D03*
X33250000Y-38750000D03*
X1250000Y-13750000D03*
X28250000Y-38750000D03*
X38750000Y-13750000D03*
X1250000Y-22500000D03*
X1275244Y-33904182D03*
X5085531Y-38419371D03*
X38304293Y-4848277D03*
X38750000Y-11250000D03*
X25500000Y-13000000D03*
X1284721Y-6313730D03*
X31250000Y-1250000D03*
X12500000Y-27000000D03*
X1250000Y-27500000D03*
X38750000Y-26250000D03*
X12500000Y-1250000D03*
X26215383Y-26492309D03*
X1250000Y-30000000D03*
X38750000Y-32500000D03*
X1250000Y-32500000D03*
X1250000Y-17500000D03*
X37800000Y-36200000D03*
G04 #@! TO.N,GND-B*
X59099584Y-19877652D03*
X54537058Y-7707107D03*
X58369655Y-19147723D03*
X59000000Y-14500000D03*
X53500000Y-13500000D03*
X52000000Y-15000000D03*
X58000000Y-22000000D03*
X43353482Y-9191005D03*
X52101158Y-21898842D03*
X52250000Y-5500000D03*
X45913679Y-8163679D03*
X54500000Y-14500000D03*
X51000000Y-14000000D03*
X53000000Y-16000000D03*
G04 #@! TO.N,+3V0-B*
X53154827Y-21041491D03*
X60300000Y-15400000D03*
X52800000Y-8029950D03*
X44863793Y-15779654D03*
G04 #@! TD*
D16*
G04 #@! TO.N,/NRST*
X46745988Y-14745988D02*
X48754012Y-14745988D01*
X48754012Y-14745988D02*
X49500000Y-14000000D01*
G04 #@! TO.N,Net-(U1-BOOT0)*
X50400673Y-11400673D02*
X43758368Y-11400673D01*
X43758368Y-11400673D02*
X43375163Y-11783878D01*
X51674265Y-12674265D02*
X50400673Y-11400673D01*
G04 #@! TO.N,/SWDIO*
X49800000Y-19700000D02*
X47600000Y-17500000D01*
X47600000Y-17500000D02*
X47500000Y-17500000D01*
G04 #@! TO.N,/row7*
X29637293Y-32637293D02*
X26000000Y-29000000D01*
X29637293Y-34720421D02*
X29637293Y-32637293D01*
X13000000Y-37500000D02*
X27000000Y-37500000D01*
G04 #@! TO.N,/row5*
X29900000Y-9279847D02*
X29900000Y-5700000D01*
X27700000Y-3500000D02*
X17250000Y-3500000D01*
X29900000Y-5700000D02*
X27700000Y-3500000D01*
X7000000Y-22000000D02*
X11159580Y-26159580D01*
X32114592Y-9714592D02*
X30334745Y-9714592D01*
X7000000Y-13750000D02*
X7000000Y-22000000D01*
X33200000Y-12399943D02*
X33200000Y-10800000D01*
X33200000Y-10800000D02*
X32114592Y-9714592D01*
X31800000Y-13500000D02*
X32099943Y-13500000D01*
X30334745Y-9714592D02*
X29900000Y-9279847D01*
X32099943Y-13500000D02*
X33200000Y-12399943D01*
X31200000Y-14100000D02*
X31800000Y-13500000D01*
X17250000Y-3500000D02*
X7000000Y-13750000D01*
G04 #@! TO.N,/row2*
X29500000Y-30000000D02*
X34750000Y-24750000D01*
X28549922Y-12849922D02*
X28198452Y-12849922D01*
X16000000Y-34500000D02*
X24000000Y-34500000D01*
X29349532Y-30000000D02*
X29500000Y-30000000D01*
X34750000Y-24750000D02*
X34750000Y-19050000D01*
X34750000Y-19050000D02*
X28549922Y-12849922D01*
G04 #@! TO.N,/row3*
X18000000Y-5000000D02*
X8500000Y-14500000D01*
X28500000Y-9800000D02*
X28500000Y-6400000D01*
X28500000Y-6400000D02*
X27100000Y-5000000D01*
X27100000Y-5000000D02*
X18000000Y-5000000D01*
X31700000Y-11200000D02*
X29900000Y-11200000D01*
X8500000Y-18847368D02*
X10697823Y-21045191D01*
X8500000Y-14500000D02*
X8500000Y-18847368D01*
X29900000Y-11200000D02*
X28500000Y-9800000D01*
G04 #@! TO.N,/row8*
X31100000Y-11900000D02*
X29600000Y-11900000D01*
X18400700Y-5750000D02*
X14250000Y-9900700D01*
X26850000Y-5750000D02*
X18400700Y-5750000D01*
X29600000Y-11900000D02*
X27800000Y-10100000D01*
X14250000Y-9900700D02*
X14250000Y-11750000D01*
X27800000Y-6700000D02*
X26850000Y-5750000D01*
X27800000Y-10100000D02*
X27800000Y-6700000D01*
G04 #@! TO.N,/row4*
X17723071Y-4250000D02*
X7750000Y-14223071D01*
X29200000Y-9500000D02*
X29200000Y-6100000D01*
X29200000Y-6100000D02*
X27350000Y-4250000D01*
X31819537Y-10400000D02*
X30100000Y-10400000D01*
X32500000Y-12250000D02*
X32500000Y-11080463D01*
X30100000Y-10400000D02*
X29200000Y-9500000D01*
X7750000Y-21500000D02*
X10500000Y-24250000D01*
X7750000Y-14223071D02*
X7750000Y-21500000D01*
X27350000Y-4250000D02*
X17723071Y-4250000D01*
X32500000Y-11080463D02*
X31819537Y-10400000D01*
G04 #@! TO.N,/row1*
X33250000Y-19850000D02*
X29900000Y-16500000D01*
X29900000Y-16500000D02*
X29150000Y-16500000D01*
X16750000Y-33500000D02*
X23250000Y-33500000D01*
X33250000Y-23750000D02*
X33250000Y-19850000D01*
X29000000Y-28000000D02*
X33250000Y-23750000D01*
G04 #@! TO.N,/row6*
X32500000Y-21000000D02*
X30000000Y-18500000D01*
X32500000Y-23500000D02*
X32500000Y-21000000D01*
X14000000Y-36500000D02*
X26000000Y-36500000D01*
X30000000Y-18500000D02*
X29400000Y-18500000D01*
X30000000Y-26000000D02*
X32500000Y-23500000D01*
G04 #@! TO.N,/column2*
X26750000Y-8750000D02*
X23750000Y-8750000D01*
X27100000Y-8400000D02*
X26750000Y-8750000D01*
X27100000Y-8400000D02*
X27100000Y-10300000D01*
X27100000Y-7800000D02*
X27100000Y-8400000D01*
X27100000Y-10300000D02*
X30000000Y-13200000D01*
X30000000Y-13200000D02*
X31200000Y-13200000D01*
G04 #@! TO.N,/column3*
X14724696Y-27778957D02*
X14695739Y-27750000D01*
X14695739Y-27750000D02*
X7000000Y-27750000D01*
G04 #@! TO.N,/column4*
X29000000Y-31000000D02*
X28500000Y-30500000D01*
X31500000Y-26750000D02*
X34000000Y-24250000D01*
X28500000Y-30500000D02*
X28500000Y-29750000D01*
X34000000Y-19500000D02*
X25250000Y-10750000D01*
X28500000Y-29750000D02*
X31500000Y-26750000D01*
X34000000Y-24250000D02*
X34000000Y-19500000D01*
G04 #@! TO.N,/touch-B*
X55460000Y-20540000D02*
X55460000Y-23693359D01*
X57601042Y-18398958D02*
X55460000Y-20540000D01*
G04 #@! TO.N,+3V0-A*
X15000000Y-11000000D02*
X15000000Y-10500000D01*
X21050000Y-31450000D02*
X20000000Y-31450000D01*
X16950000Y-31450000D02*
X20000000Y-31450000D01*
X15500000Y-30000000D02*
X16950000Y-31450000D01*
X16950000Y-8550000D02*
X20000000Y-8550000D01*
X15000000Y-10500000D02*
X16950000Y-8550000D01*
X22250000Y-10250000D02*
X21700000Y-10250000D01*
X21700000Y-10250000D02*
X20000000Y-8550000D01*
G04 #@! TO.N,+3V0-B*
X56800000Y-15400000D02*
X60300000Y-15400000D01*
X52800000Y-8029950D02*
X52800000Y-11400000D01*
X49252545Y-21041491D02*
X44863793Y-16652739D01*
X44863793Y-16652739D02*
X44863793Y-15779654D01*
X52800000Y-11400000D02*
X56800000Y-15400000D01*
X53154827Y-21041491D02*
X49252545Y-21041491D01*
G04 #@! TD*
G04 #@! TA.AperFunction,Conductor*
G04 #@! TO.N,GND-B*
G36*
X46532681Y-4519407D02*
G01*
X46568645Y-4568907D01*
X46568645Y-4630093D01*
X46532681Y-4679593D01*
X46529491Y-4681816D01*
X46479037Y-4715527D01*
X46373938Y-4820626D01*
X46291370Y-4944199D01*
X46234494Y-5081510D01*
X46205500Y-5227274D01*
X46205500Y-5375903D01*
X46234494Y-5521667D01*
X46291370Y-5658978D01*
X46291371Y-5658979D01*
X46373941Y-5782555D01*
X46479034Y-5887648D01*
X46602610Y-5970218D01*
X46739920Y-6027094D01*
X46885688Y-6056089D01*
X46885689Y-6056089D01*
X47034311Y-6056089D01*
X47034312Y-6056089D01*
X47180080Y-6027094D01*
X47317390Y-5970218D01*
X47440966Y-5887648D01*
X47524998Y-5803615D01*
X47579513Y-5775840D01*
X47639945Y-5785411D01*
X47665000Y-5803614D01*
X47749034Y-5887648D01*
X47872610Y-5970218D01*
X48009920Y-6027094D01*
X48155688Y-6056089D01*
X48155689Y-6056089D01*
X48304311Y-6056089D01*
X48304312Y-6056089D01*
X48450080Y-6027094D01*
X48587390Y-5970218D01*
X48701932Y-5893683D01*
X48760820Y-5877076D01*
X48818224Y-5898254D01*
X48839248Y-5920998D01*
X48855805Y-5945777D01*
X48855810Y-5945782D01*
X48921963Y-5989985D01*
X48980299Y-6001588D01*
X48980303Y-6001589D01*
X49399999Y-6001589D01*
X49400000Y-6001588D01*
X49400000Y-5611258D01*
X49457213Y-5626589D01*
X49542787Y-5626589D01*
X49600000Y-5611258D01*
X49600000Y-6001588D01*
X49600001Y-6001589D01*
X50019697Y-6001589D01*
X50019700Y-6001588D01*
X50078036Y-5989985D01*
X50144189Y-5945782D01*
X50144193Y-5945778D01*
X50188396Y-5879625D01*
X50199999Y-5821289D01*
X50200000Y-5821286D01*
X50200000Y-5401590D01*
X50199999Y-5401589D01*
X49809669Y-5401589D01*
X49825000Y-5344376D01*
X49825000Y-5258802D01*
X49809669Y-5201589D01*
X50199999Y-5201589D01*
X50200000Y-5201588D01*
X50200000Y-4781891D01*
X50199999Y-4781888D01*
X50188396Y-4723552D01*
X50188395Y-4723549D01*
X50142258Y-4654501D01*
X50125649Y-4595613D01*
X50146827Y-4538210D01*
X50197700Y-4504217D01*
X50224573Y-4500500D01*
X56250086Y-4500500D01*
X56308277Y-4519407D01*
X56344241Y-4568907D01*
X56344241Y-4630093D01*
X56320091Y-4669501D01*
X54610913Y-6378680D01*
X60621321Y-12389088D01*
X62330498Y-10679910D01*
X62385013Y-10652135D01*
X62445445Y-10661706D01*
X62488710Y-10704971D01*
X62499500Y-10749916D01*
X62499500Y-20751678D01*
X62480593Y-20809869D01*
X62470504Y-20821682D01*
X58905997Y-24386188D01*
X58851480Y-24413965D01*
X58791048Y-24404394D01*
X58747783Y-24361129D01*
X58738212Y-24300697D01*
X58738896Y-24296868D01*
X58739732Y-24292661D01*
X58739734Y-24292660D01*
X58754500Y-24218426D01*
X58754499Y-23168293D01*
X58739734Y-23094058D01*
X58711762Y-23052196D01*
X58683486Y-23009878D01*
X58683484Y-23009875D01*
X58599301Y-22953625D01*
X58525067Y-22938859D01*
X58525066Y-22938859D01*
X57474936Y-22938859D01*
X57474929Y-22938860D01*
X57400699Y-22953624D01*
X57400697Y-22953625D01*
X57316519Y-23009872D01*
X57316512Y-23009879D01*
X57293932Y-23043672D01*
X57245882Y-23081551D01*
X57184743Y-23083951D01*
X57156617Y-23070985D01*
X57087389Y-23024729D01*
X56950078Y-22967853D01*
X56804314Y-22938859D01*
X56804312Y-22938859D01*
X56655688Y-22938859D01*
X56655685Y-22938859D01*
X56509921Y-22967853D01*
X56372610Y-23024729D01*
X56249037Y-23107297D01*
X56249034Y-23107299D01*
X56249034Y-23107300D01*
X56165001Y-23191332D01*
X56110487Y-23219108D01*
X56050055Y-23209537D01*
X56024999Y-23191333D01*
X55940966Y-23107300D01*
X55940962Y-23107297D01*
X55940961Y-23107296D01*
X55858498Y-23052196D01*
X55820619Y-23004146D01*
X55814500Y-22969881D01*
X55814500Y-20727847D01*
X55833407Y-20669656D01*
X55843496Y-20657843D01*
X57518885Y-18982454D01*
X57573402Y-18954677D01*
X57588889Y-18953458D01*
X57674041Y-18953458D01*
X57674043Y-18953458D01*
X57815071Y-18915670D01*
X57941513Y-18842669D01*
X58044753Y-18739429D01*
X58117754Y-18612987D01*
X58155542Y-18471959D01*
X58155542Y-18325957D01*
X58117754Y-18184929D01*
X58044753Y-18058487D01*
X57941513Y-17955247D01*
X57815071Y-17882246D01*
X57674043Y-17844458D01*
X57528041Y-17844458D01*
X57387013Y-17882246D01*
X57260571Y-17955247D01*
X57157331Y-18058487D01*
X57084330Y-18184929D01*
X57046542Y-18325958D01*
X57046542Y-18411111D01*
X57027635Y-18469302D01*
X57017546Y-18481115D01*
X55242332Y-20256329D01*
X55242331Y-20256328D01*
X55176331Y-20322329D01*
X55129658Y-20403170D01*
X55129657Y-20403171D01*
X55105500Y-20493326D01*
X55105500Y-22969881D01*
X55086593Y-23028072D01*
X55061502Y-23052196D01*
X54979038Y-23107296D01*
X54873938Y-23212396D01*
X54791370Y-23335969D01*
X54734494Y-23473280D01*
X54705500Y-23619044D01*
X54705500Y-23767673D01*
X54734494Y-23913437D01*
X54791370Y-24050748D01*
X54791371Y-24050749D01*
X54873941Y-24174325D01*
X54979034Y-24279418D01*
X54979037Y-24279420D01*
X55037052Y-24318184D01*
X55074932Y-24366234D01*
X55077334Y-24427372D01*
X55043342Y-24478246D01*
X54985938Y-24499424D01*
X54982051Y-24499500D01*
X49748322Y-24499500D01*
X49690131Y-24480593D01*
X49678318Y-24470504D01*
X42529496Y-17321682D01*
X42501719Y-17267165D01*
X42500500Y-17251678D01*
X42500500Y-16381903D01*
X42500305Y-16379424D01*
X42500000Y-16371661D01*
X42500000Y-15706653D01*
X44309293Y-15706653D01*
X44309293Y-15852655D01*
X44347081Y-15993683D01*
X44420082Y-16120125D01*
X44480298Y-16180341D01*
X44508074Y-16234856D01*
X44509293Y-16250343D01*
X44509293Y-16699412D01*
X44533450Y-16789567D01*
X44533451Y-16789568D01*
X44533452Y-16789571D01*
X44580122Y-16870407D01*
X48968874Y-21259159D01*
X48968873Y-21259159D01*
X49017029Y-21307314D01*
X49034877Y-21325162D01*
X49115713Y-21371832D01*
X49115715Y-21371832D01*
X49115716Y-21371833D01*
X49153514Y-21381961D01*
X49205871Y-21395990D01*
X49205873Y-21395991D01*
X49205874Y-21395991D01*
X52684137Y-21395991D01*
X52742328Y-21414898D01*
X52754140Y-21424987D01*
X52814353Y-21485199D01*
X52814356Y-21485202D01*
X52940798Y-21558203D01*
X53081826Y-21595991D01*
X53081828Y-21595991D01*
X53227826Y-21595991D01*
X53227828Y-21595991D01*
X53368856Y-21558203D01*
X53495298Y-21485202D01*
X53598538Y-21381962D01*
X53671539Y-21255520D01*
X53709327Y-21114492D01*
X53709327Y-20968490D01*
X53671539Y-20827462D01*
X53598538Y-20701020D01*
X53495298Y-20597780D01*
X53368856Y-20524779D01*
X53227828Y-20486991D01*
X53081826Y-20486991D01*
X52940798Y-20524779D01*
X52814353Y-20597782D01*
X52754140Y-20657995D01*
X52699623Y-20685772D01*
X52684137Y-20686991D01*
X49440392Y-20686991D01*
X49382201Y-20668084D01*
X49370388Y-20657995D01*
X46139392Y-17426999D01*
X46945500Y-17426999D01*
X46945500Y-17573001D01*
X46983288Y-17714029D01*
X47056289Y-17840471D01*
X47159529Y-17943711D01*
X47285971Y-18016712D01*
X47426999Y-18054500D01*
X47427001Y-18054500D01*
X47573001Y-18054500D01*
X47581005Y-18052355D01*
X47642107Y-18055554D01*
X47676637Y-18077976D01*
X49216504Y-19617843D01*
X49244281Y-19672360D01*
X49245500Y-19687847D01*
X49245500Y-19773001D01*
X49283288Y-19914029D01*
X49356289Y-20040471D01*
X49459529Y-20143711D01*
X49585971Y-20216712D01*
X49726999Y-20254500D01*
X49727001Y-20254500D01*
X49872999Y-20254500D01*
X49873001Y-20254500D01*
X50014029Y-20216712D01*
X50140471Y-20143711D01*
X50243711Y-20040471D01*
X50316712Y-19914029D01*
X50354500Y-19773001D01*
X50354500Y-19626999D01*
X50316712Y-19485971D01*
X50243711Y-19359529D01*
X50140471Y-19256289D01*
X50014029Y-19183288D01*
X49873001Y-19145500D01*
X49872999Y-19145500D01*
X49787847Y-19145500D01*
X49729656Y-19126593D01*
X49717843Y-19116504D01*
X48082228Y-17480889D01*
X48057749Y-17432846D01*
X48056179Y-17433267D01*
X48054500Y-17427000D01*
X48054500Y-17426999D01*
X48016712Y-17285971D01*
X47943711Y-17159529D01*
X47840471Y-17056289D01*
X47714029Y-16983288D01*
X47573001Y-16945500D01*
X47426999Y-16945500D01*
X47285971Y-16983288D01*
X47159529Y-17056289D01*
X47056289Y-17159529D01*
X46983288Y-17285971D01*
X46945500Y-17426999D01*
X46139392Y-17426999D01*
X45247289Y-16534896D01*
X45219512Y-16480379D01*
X45218293Y-16464892D01*
X45218293Y-16250343D01*
X45237200Y-16192152D01*
X45247283Y-16180345D01*
X45307504Y-16120125D01*
X45380505Y-15993683D01*
X45418293Y-15852655D01*
X45418293Y-15706653D01*
X45380505Y-15565625D01*
X45307504Y-15439183D01*
X45204264Y-15335943D01*
X45077822Y-15262942D01*
X44936794Y-15225154D01*
X44790792Y-15225154D01*
X44649764Y-15262942D01*
X44523322Y-15335943D01*
X44420082Y-15439183D01*
X44347081Y-15565625D01*
X44309293Y-15706653D01*
X42500000Y-15706653D01*
X42500000Y-14672987D01*
X46191488Y-14672987D01*
X46191488Y-14818989D01*
X46229276Y-14960017D01*
X46302277Y-15086459D01*
X46405517Y-15189699D01*
X46531959Y-15262700D01*
X46672987Y-15300488D01*
X46672989Y-15300488D01*
X46818987Y-15300488D01*
X46818989Y-15300488D01*
X46960017Y-15262700D01*
X47086459Y-15189699D01*
X47116568Y-15159590D01*
X47146675Y-15129484D01*
X47201192Y-15101707D01*
X47216678Y-15100488D01*
X48800684Y-15100488D01*
X48800684Y-15100487D01*
X48890844Y-15076329D01*
X48971680Y-15029659D01*
X49417841Y-14583496D01*
X49472358Y-14555719D01*
X49487845Y-14554500D01*
X49572999Y-14554500D01*
X49573001Y-14554500D01*
X49714029Y-14516712D01*
X49840471Y-14443711D01*
X49943711Y-14340471D01*
X50016712Y-14214029D01*
X50054500Y-14073001D01*
X50054500Y-13926999D01*
X50016712Y-13785971D01*
X49943711Y-13659529D01*
X49840471Y-13556289D01*
X49714029Y-13483288D01*
X49573001Y-13445500D01*
X49426999Y-13445500D01*
X49285971Y-13483288D01*
X49159529Y-13556289D01*
X49056289Y-13659529D01*
X48983288Y-13785971D01*
X48945500Y-13927000D01*
X48945500Y-14012153D01*
X48926593Y-14070344D01*
X48916504Y-14082157D01*
X48636169Y-14362492D01*
X48581652Y-14390269D01*
X48566165Y-14391488D01*
X47216678Y-14391488D01*
X47158487Y-14372581D01*
X47146675Y-14362492D01*
X47086461Y-14302279D01*
X47086459Y-14302277D01*
X46960017Y-14229276D01*
X46818989Y-14191488D01*
X46672987Y-14191488D01*
X46531959Y-14229276D01*
X46405517Y-14302277D01*
X46302277Y-14405517D01*
X46229276Y-14531959D01*
X46191488Y-14672987D01*
X42500000Y-14672987D01*
X42500000Y-11710877D01*
X42820663Y-11710877D01*
X42820663Y-11856879D01*
X42858451Y-11997907D01*
X42931452Y-12124349D01*
X43034692Y-12227589D01*
X43161134Y-12300590D01*
X43302162Y-12338378D01*
X43302164Y-12338378D01*
X43448162Y-12338378D01*
X43448164Y-12338378D01*
X43589192Y-12300590D01*
X43715634Y-12227589D01*
X43818874Y-12124349D01*
X43891875Y-11997907D01*
X43929663Y-11856879D01*
X43929663Y-11854173D01*
X43930261Y-11852330D01*
X43930510Y-11850445D01*
X43930859Y-11850490D01*
X43948570Y-11795982D01*
X43998070Y-11760018D01*
X44028663Y-11755173D01*
X50212826Y-11755173D01*
X50271017Y-11774080D01*
X50282830Y-11784169D01*
X51090769Y-12592108D01*
X51118546Y-12646625D01*
X51119765Y-12662112D01*
X51119765Y-12747266D01*
X51157553Y-12888294D01*
X51230554Y-13014736D01*
X51333794Y-13117976D01*
X51460236Y-13190977D01*
X51601264Y-13228765D01*
X51601266Y-13228765D01*
X51747264Y-13228765D01*
X51747266Y-13228765D01*
X51888294Y-13190977D01*
X52014736Y-13117976D01*
X52117976Y-13014736D01*
X52190977Y-12888294D01*
X52228765Y-12747266D01*
X52228765Y-12601264D01*
X52190977Y-12460236D01*
X52117976Y-12333794D01*
X52014736Y-12230554D01*
X51888294Y-12157553D01*
X51747266Y-12119765D01*
X51747264Y-12119765D01*
X51662112Y-12119765D01*
X51603921Y-12100858D01*
X51592108Y-12090769D01*
X51119006Y-11617667D01*
X50618341Y-11117002D01*
X50537505Y-11070332D01*
X50537502Y-11070331D01*
X50537501Y-11070330D01*
X50447346Y-11046173D01*
X50447344Y-11046173D01*
X43711697Y-11046173D01*
X43711694Y-11046173D01*
X43621539Y-11070330D01*
X43621535Y-11070332D01*
X43550725Y-11111213D01*
X43550726Y-11111214D01*
X43540702Y-11117001D01*
X43540695Y-11117005D01*
X43457319Y-11200382D01*
X43402802Y-11228159D01*
X43387316Y-11229378D01*
X43302162Y-11229378D01*
X43161134Y-11267166D01*
X43034692Y-11340167D01*
X42931452Y-11443407D01*
X42858451Y-11569849D01*
X42820663Y-11710877D01*
X42500000Y-11710877D01*
X42500000Y-9128330D01*
X42500306Y-9120555D01*
X42500500Y-9118092D01*
X42500500Y-8248321D01*
X42519407Y-8190130D01*
X42529496Y-8178317D01*
X42750864Y-7956949D01*
X52245500Y-7956949D01*
X52245500Y-8102951D01*
X52283288Y-8243979D01*
X52356289Y-8370421D01*
X52416505Y-8430637D01*
X52444281Y-8485152D01*
X52445500Y-8500639D01*
X52445500Y-11446673D01*
X52469657Y-11536828D01*
X52469658Y-11536829D01*
X52469659Y-11536832D01*
X52516329Y-11617668D01*
X56582332Y-15683671D01*
X56663168Y-15730341D01*
X56663170Y-15730341D01*
X56663171Y-15730342D01*
X56700969Y-15740470D01*
X56753326Y-15754499D01*
X56753328Y-15754500D01*
X56753329Y-15754500D01*
X56846671Y-15754500D01*
X59829310Y-15754500D01*
X59887501Y-15773407D01*
X59899313Y-15783496D01*
X59959526Y-15843708D01*
X59959529Y-15843711D01*
X60085971Y-15916712D01*
X60226999Y-15954500D01*
X60227001Y-15954500D01*
X60372999Y-15954500D01*
X60373001Y-15954500D01*
X60514029Y-15916712D01*
X60640471Y-15843711D01*
X60743711Y-15740471D01*
X60816712Y-15614029D01*
X60854500Y-15473001D01*
X60854500Y-15326999D01*
X60816712Y-15185971D01*
X60743711Y-15059529D01*
X60640471Y-14956289D01*
X60514029Y-14883288D01*
X60373001Y-14845500D01*
X60226999Y-14845500D01*
X60085971Y-14883288D01*
X59959526Y-14956291D01*
X59899313Y-15016504D01*
X59844796Y-15044281D01*
X59829310Y-15045500D01*
X56987847Y-15045500D01*
X56929656Y-15026593D01*
X56917843Y-15016504D01*
X53183496Y-11282157D01*
X53155719Y-11227640D01*
X53154500Y-11212153D01*
X53154500Y-8500639D01*
X53173407Y-8442448D01*
X53183490Y-8430641D01*
X53243711Y-8370421D01*
X53316712Y-8243979D01*
X53354500Y-8102951D01*
X53354500Y-7956949D01*
X53316712Y-7815921D01*
X53243711Y-7689479D01*
X53140471Y-7586239D01*
X53014029Y-7513238D01*
X52873001Y-7475450D01*
X52726999Y-7475450D01*
X52585971Y-7513238D01*
X52459529Y-7586239D01*
X52356289Y-7689479D01*
X52283288Y-7815921D01*
X52245500Y-7956949D01*
X42750864Y-7956949D01*
X46178317Y-4529496D01*
X46232834Y-4501719D01*
X46248321Y-4500500D01*
X46474490Y-4500500D01*
X46532681Y-4519407D01*
G37*
G04 #@! TD.AperFunction*
G04 #@! TD*
G04 #@! TA.AperFunction,Conductor*
G04 #@! TO.N,GND-A*
G36*
X33001844Y-500569D02*
G01*
X33482012Y-518535D01*
X33489375Y-519087D01*
X33965026Y-572680D01*
X33972346Y-573784D01*
X34207487Y-618275D01*
X34442632Y-662766D01*
X34449844Y-664412D01*
X34912193Y-788299D01*
X34919264Y-790481D01*
X35371030Y-948560D01*
X35377918Y-951262D01*
X35816635Y-1142673D01*
X35823306Y-1145886D01*
X36246471Y-1369535D01*
X36252882Y-1373236D01*
X36658167Y-1627893D01*
X36664283Y-1632063D01*
X37049399Y-1916292D01*
X37055181Y-1920903D01*
X37417964Y-2233103D01*
X37423392Y-2238138D01*
X37761861Y-2576607D01*
X37766896Y-2582035D01*
X38079096Y-2944818D01*
X38083712Y-2950606D01*
X38367935Y-3335715D01*
X38372106Y-3341832D01*
X38626763Y-3747117D01*
X38630464Y-3753528D01*
X38854113Y-4176693D01*
X38857326Y-4183364D01*
X39048735Y-4622077D01*
X39051439Y-4628969D01*
X39209518Y-5080735D01*
X39211701Y-5087809D01*
X39335586Y-5550152D01*
X39337233Y-5557370D01*
X39426215Y-6027653D01*
X39427319Y-6034973D01*
X39480911Y-6510613D01*
X39481464Y-6517996D01*
X39499431Y-6998155D01*
X39499500Y-7001857D01*
X39499500Y-9118092D01*
X39499694Y-9120555D01*
X39500000Y-9128330D01*
X39500000Y-16371661D01*
X39499695Y-16379424D01*
X39499500Y-16381903D01*
X39499500Y-32998142D01*
X39499431Y-33001844D01*
X39481464Y-33482003D01*
X39480911Y-33489386D01*
X39427319Y-33965026D01*
X39426215Y-33972346D01*
X39337233Y-34442629D01*
X39335586Y-34449847D01*
X39211701Y-34912190D01*
X39209518Y-34919264D01*
X39051439Y-35371030D01*
X39048735Y-35377922D01*
X38857326Y-35816635D01*
X38854113Y-35823306D01*
X38630464Y-36246471D01*
X38626763Y-36252882D01*
X38372106Y-36658167D01*
X38367935Y-36664284D01*
X38083712Y-37049393D01*
X38079096Y-37055181D01*
X37766896Y-37417964D01*
X37761861Y-37423392D01*
X37423392Y-37761861D01*
X37417964Y-37766896D01*
X37055181Y-38079096D01*
X37049393Y-38083712D01*
X36664284Y-38367935D01*
X36658167Y-38372106D01*
X36252882Y-38626763D01*
X36246471Y-38630464D01*
X35823306Y-38854113D01*
X35816635Y-38857326D01*
X35377922Y-39048735D01*
X35371030Y-39051439D01*
X34919264Y-39209518D01*
X34912190Y-39211701D01*
X34449847Y-39335586D01*
X34442629Y-39337233D01*
X33972346Y-39426215D01*
X33965026Y-39427319D01*
X33489386Y-39480911D01*
X33482003Y-39481464D01*
X33001844Y-39499431D01*
X32998142Y-39499500D01*
X7001858Y-39499500D01*
X6998156Y-39499431D01*
X6517996Y-39481464D01*
X6510613Y-39480911D01*
X6034973Y-39427319D01*
X6027653Y-39426215D01*
X5557370Y-39337233D01*
X5550152Y-39335586D01*
X5087809Y-39211701D01*
X5080735Y-39209518D01*
X4628969Y-39051439D01*
X4622077Y-39048735D01*
X4183364Y-38857326D01*
X4176693Y-38854113D01*
X3753528Y-38630464D01*
X3747117Y-38626763D01*
X3341832Y-38372106D01*
X3335715Y-38367935D01*
X2950606Y-38083712D01*
X2944818Y-38079096D01*
X2872326Y-38016712D01*
X2582035Y-37766896D01*
X2576607Y-37761861D01*
X2241745Y-37426999D01*
X12445500Y-37426999D01*
X12445500Y-37573001D01*
X12483288Y-37714029D01*
X12556289Y-37840471D01*
X12659529Y-37943711D01*
X12785971Y-38016712D01*
X12926999Y-38054500D01*
X12927001Y-38054500D01*
X13072999Y-38054500D01*
X13073001Y-38054500D01*
X13214029Y-38016712D01*
X13340471Y-37943711D01*
X13370580Y-37913602D01*
X13400687Y-37883496D01*
X13455204Y-37855719D01*
X13470690Y-37854500D01*
X26529310Y-37854500D01*
X26587501Y-37873407D01*
X26599313Y-37883496D01*
X26648049Y-37932231D01*
X26659529Y-37943711D01*
X26785971Y-38016712D01*
X26926999Y-38054500D01*
X26927001Y-38054500D01*
X27072999Y-38054500D01*
X27073001Y-38054500D01*
X27214029Y-38016712D01*
X27340471Y-37943711D01*
X27443711Y-37840471D01*
X27516712Y-37714029D01*
X27554500Y-37573001D01*
X27554500Y-37426999D01*
X27516712Y-37285971D01*
X27443711Y-37159529D01*
X27340471Y-37056289D01*
X27214029Y-36983288D01*
X27073001Y-36945500D01*
X26926999Y-36945500D01*
X26785971Y-36983288D01*
X26661449Y-37055181D01*
X26659526Y-37056291D01*
X26599313Y-37116504D01*
X26592196Y-37120129D01*
X26587501Y-37126593D01*
X26565449Y-37133757D01*
X26544796Y-37144281D01*
X26529310Y-37145500D01*
X26360434Y-37145500D01*
X26302243Y-37126593D01*
X26266279Y-37077093D01*
X26266279Y-37015907D01*
X26302243Y-36966407D01*
X26310927Y-36960767D01*
X26340471Y-36943711D01*
X26443711Y-36840471D01*
X26516712Y-36714029D01*
X26554500Y-36573001D01*
X26554500Y-36426999D01*
X26516712Y-36285971D01*
X26443711Y-36159529D01*
X26340471Y-36056289D01*
X26214029Y-35983288D01*
X26073001Y-35945500D01*
X25926999Y-35945500D01*
X25785971Y-35983288D01*
X25659526Y-36056291D01*
X25599313Y-36116504D01*
X25544796Y-36144281D01*
X25529310Y-36145500D01*
X14470690Y-36145500D01*
X14412499Y-36126593D01*
X14400687Y-36116504D01*
X14340473Y-36056291D01*
X14340471Y-36056289D01*
X14214029Y-35983288D01*
X14073001Y-35945500D01*
X13926999Y-35945500D01*
X13785971Y-35983288D01*
X13659529Y-36056289D01*
X13556289Y-36159529D01*
X13483288Y-36285971D01*
X13445500Y-36426999D01*
X13445500Y-36573001D01*
X13483288Y-36714029D01*
X13556289Y-36840471D01*
X13659529Y-36943711D01*
X13689066Y-36960764D01*
X13692654Y-36964749D01*
X13697757Y-36966407D01*
X13712839Y-36987166D01*
X13730007Y-37006232D01*
X13730567Y-37011566D01*
X13733721Y-37015907D01*
X13733721Y-37041566D01*
X13736403Y-37067083D01*
X13733721Y-37071728D01*
X13733721Y-37077093D01*
X13718636Y-37097854D01*
X13705810Y-37120071D01*
X13700910Y-37122252D01*
X13697757Y-37126593D01*
X13673354Y-37134521D01*
X13649915Y-37144958D01*
X13639566Y-37145500D01*
X13470690Y-37145500D01*
X13412499Y-37126593D01*
X13400687Y-37116504D01*
X13340473Y-37056291D01*
X13340471Y-37056289D01*
X13214029Y-36983288D01*
X13073001Y-36945500D01*
X12926999Y-36945500D01*
X12785971Y-36983288D01*
X12659529Y-37056289D01*
X12556289Y-37159529D01*
X12483288Y-37285971D01*
X12445500Y-37426999D01*
X2241745Y-37426999D01*
X2238138Y-37423392D01*
X2233103Y-37417964D01*
X1998629Y-37145500D01*
X1920898Y-37055175D01*
X1916287Y-37049393D01*
X1910510Y-37041566D01*
X1632063Y-36664283D01*
X1627893Y-36658167D01*
X1574378Y-36572999D01*
X1373236Y-36252882D01*
X1369535Y-36246471D01*
X1145886Y-35823306D01*
X1142673Y-35816635D01*
X951264Y-35377922D01*
X948560Y-35371030D01*
X790481Y-34919264D01*
X788298Y-34912190D01*
X780609Y-34883496D01*
X664412Y-34449844D01*
X662766Y-34442629D01*
X573784Y-33972346D01*
X572680Y-33965026D01*
X544400Y-33714031D01*
X519087Y-33489375D01*
X518535Y-33482003D01*
X500569Y-33001844D01*
X500500Y-32998142D01*
X500500Y-29926999D01*
X14945500Y-29926999D01*
X14945500Y-30073001D01*
X14983288Y-30214029D01*
X15056289Y-30340471D01*
X15159529Y-30443711D01*
X15285971Y-30516712D01*
X15426999Y-30554500D01*
X15512153Y-30554500D01*
X15570344Y-30573407D01*
X15582157Y-30583496D01*
X16666329Y-31667668D01*
X16666328Y-31667668D01*
X16732329Y-31733668D01*
X16732332Y-31733671D01*
X16813168Y-31780341D01*
X16813170Y-31780341D01*
X16813171Y-31780342D01*
X16858248Y-31792420D01*
X16903326Y-31804499D01*
X16903328Y-31804500D01*
X16903329Y-31804500D01*
X16996671Y-31804500D01*
X17093801Y-31804500D01*
X17151992Y-31823407D01*
X17187956Y-31872907D01*
X17192801Y-31903500D01*
X17192801Y-32719670D01*
X17207565Y-32793900D01*
X17207566Y-32793902D01*
X17218091Y-32809653D01*
X17263816Y-32878084D01*
X17347999Y-32934334D01*
X17422233Y-32949100D01*
X17423751Y-32949402D01*
X17477135Y-32979300D01*
X17502750Y-33034865D01*
X17490813Y-33094874D01*
X17445882Y-33136407D01*
X17404436Y-33145500D01*
X17220690Y-33145500D01*
X17162499Y-33126593D01*
X17150687Y-33116504D01*
X17090473Y-33056291D01*
X17090471Y-33056289D01*
X16964029Y-32983288D01*
X16823001Y-32945500D01*
X16676999Y-32945500D01*
X16535971Y-32983288D01*
X16409529Y-33056289D01*
X16306289Y-33159529D01*
X16233288Y-33285971D01*
X16195500Y-33426999D01*
X16195500Y-33573001D01*
X16233288Y-33714029D01*
X16233289Y-33714031D01*
X16233289Y-33714032D01*
X16301216Y-33831684D01*
X16313938Y-33891532D01*
X16289051Y-33947428D01*
X16236063Y-33978021D01*
X16189858Y-33976811D01*
X16080196Y-33947428D01*
X16073001Y-33945500D01*
X15926999Y-33945500D01*
X15785971Y-33983288D01*
X15659529Y-34056289D01*
X15556289Y-34159529D01*
X15483288Y-34285971D01*
X15445500Y-34426999D01*
X15445500Y-34573001D01*
X15483288Y-34714029D01*
X15556289Y-34840471D01*
X15659529Y-34943711D01*
X15785971Y-35016712D01*
X15926999Y-35054500D01*
X15927001Y-35054500D01*
X16072999Y-35054500D01*
X16073001Y-35054500D01*
X16214029Y-35016712D01*
X16340471Y-34943711D01*
X16371992Y-34912190D01*
X16400687Y-34883496D01*
X16455204Y-34855719D01*
X16470690Y-34854500D01*
X23529310Y-34854500D01*
X23587501Y-34873407D01*
X23599313Y-34883496D01*
X23631579Y-34915761D01*
X23659529Y-34943711D01*
X23785971Y-35016712D01*
X23926999Y-35054500D01*
X23927001Y-35054500D01*
X24072999Y-35054500D01*
X24073001Y-35054500D01*
X24214029Y-35016712D01*
X24340471Y-34943711D01*
X24443711Y-34840471D01*
X24516712Y-34714029D01*
X24554500Y-34573001D01*
X24554500Y-34426999D01*
X24516712Y-34285971D01*
X24443711Y-34159529D01*
X24340471Y-34056289D01*
X24214029Y-33983288D01*
X24073001Y-33945500D01*
X23926999Y-33945500D01*
X23919804Y-33947428D01*
X23810141Y-33976811D01*
X23749040Y-33973608D01*
X23701490Y-33935102D01*
X23685655Y-33876002D01*
X23698781Y-33831689D01*
X23766712Y-33714029D01*
X23804500Y-33573001D01*
X23804500Y-33426999D01*
X23766712Y-33285971D01*
X23693711Y-33159529D01*
X23590471Y-33056289D01*
X23464029Y-32983288D01*
X23323001Y-32945500D01*
X23176999Y-32945500D01*
X23050855Y-32979300D01*
X23035971Y-32983288D01*
X22909526Y-33056291D01*
X22849313Y-33116504D01*
X22794796Y-33144281D01*
X22779310Y-33145500D01*
X22595557Y-33145500D01*
X22537366Y-33126593D01*
X22501402Y-33077093D01*
X22501402Y-33015907D01*
X22537366Y-32966407D01*
X22576244Y-32949402D01*
X22620615Y-32940576D01*
X22652001Y-32934334D01*
X22736184Y-32878084D01*
X22792434Y-32793901D01*
X22807200Y-32719667D01*
X22807199Y-30180334D01*
X22792434Y-30106099D01*
X22792433Y-30106097D01*
X22736186Y-30021919D01*
X22736185Y-30021918D01*
X22736184Y-30021916D01*
X22652001Y-29965666D01*
X22577767Y-29950900D01*
X22577766Y-29950900D01*
X17422236Y-29950900D01*
X17422229Y-29950901D01*
X17347999Y-29965665D01*
X17347997Y-29965666D01*
X17263819Y-30021913D01*
X17263814Y-30021918D01*
X17259991Y-30027640D01*
X17207566Y-30106099D01*
X17195737Y-30165566D01*
X17192800Y-30180332D01*
X17192800Y-30952453D01*
X17173893Y-31010644D01*
X17124393Y-31046608D01*
X17063207Y-31046608D01*
X17023796Y-31022457D01*
X16083496Y-30082157D01*
X16055719Y-30027640D01*
X16054500Y-30012153D01*
X16054500Y-29927000D01*
X16054500Y-29926999D01*
X16016712Y-29785971D01*
X15943711Y-29659529D01*
X15840471Y-29556289D01*
X15714029Y-29483288D01*
X15573001Y-29445500D01*
X15426999Y-29445500D01*
X15285971Y-29483288D01*
X15159529Y-29556289D01*
X15056289Y-29659529D01*
X14983288Y-29785971D01*
X14945500Y-29926999D01*
X500500Y-29926999D01*
X500500Y-27676999D01*
X6445500Y-27676999D01*
X6445500Y-27823001D01*
X6483288Y-27964029D01*
X6556289Y-28090471D01*
X6659529Y-28193711D01*
X6785971Y-28266712D01*
X6926999Y-28304500D01*
X6927001Y-28304500D01*
X7072999Y-28304500D01*
X7073001Y-28304500D01*
X7214029Y-28266712D01*
X7340471Y-28193711D01*
X7370580Y-28163602D01*
X7400687Y-28133496D01*
X7455204Y-28105719D01*
X7470690Y-28104500D01*
X14225049Y-28104500D01*
X14283240Y-28123407D01*
X14295052Y-28133496D01*
X14355265Y-28193708D01*
X14384225Y-28222668D01*
X14510667Y-28295669D01*
X14651695Y-28333457D01*
X14651697Y-28333457D01*
X14797695Y-28333457D01*
X14797697Y-28333457D01*
X14938725Y-28295669D01*
X15065167Y-28222668D01*
X15168407Y-28119428D01*
X15241408Y-27992986D01*
X15279196Y-27851958D01*
X15279196Y-27705956D01*
X15241408Y-27564928D01*
X15168407Y-27438486D01*
X15065167Y-27335246D01*
X14938725Y-27262245D01*
X14797697Y-27224457D01*
X14651695Y-27224457D01*
X14510667Y-27262245D01*
X14384224Y-27335246D01*
X14352966Y-27366505D01*
X14298449Y-27394281D01*
X14282963Y-27395500D01*
X7470690Y-27395500D01*
X7412499Y-27376593D01*
X7400687Y-27366504D01*
X7340473Y-27306291D01*
X7340471Y-27306289D01*
X7214029Y-27233288D01*
X7073001Y-27195500D01*
X6926999Y-27195500D01*
X6785971Y-27233288D01*
X6659529Y-27306289D01*
X6556289Y-27409529D01*
X6483288Y-27535971D01*
X6445500Y-27676999D01*
X500500Y-27676999D01*
X500500Y-13703326D01*
X6645500Y-13703326D01*
X6645500Y-22046673D01*
X6669657Y-22136828D01*
X6669658Y-22136829D01*
X6669659Y-22136832D01*
X6716329Y-22217668D01*
X8667292Y-24168630D01*
X10576084Y-26077422D01*
X10603861Y-26131939D01*
X10605080Y-26147426D01*
X10605080Y-26232581D01*
X10642868Y-26373609D01*
X10715869Y-26500051D01*
X10819109Y-26603291D01*
X10945551Y-26676292D01*
X11086579Y-26714080D01*
X11086581Y-26714080D01*
X11232579Y-26714080D01*
X11232581Y-26714080D01*
X11373609Y-26676292D01*
X11500051Y-26603291D01*
X11603291Y-26500051D01*
X11676292Y-26373609D01*
X11714080Y-26232581D01*
X11714080Y-26086579D01*
X11676292Y-25945551D01*
X11603291Y-25819109D01*
X11500051Y-25715869D01*
X11373609Y-25642868D01*
X11232581Y-25605080D01*
X11232579Y-25605080D01*
X11147426Y-25605080D01*
X11089235Y-25586173D01*
X11077422Y-25576084D01*
X10474842Y-24973504D01*
X10447065Y-24918987D01*
X10456636Y-24858555D01*
X10499901Y-24815290D01*
X10544846Y-24804500D01*
X10572999Y-24804500D01*
X10573001Y-24804500D01*
X10714029Y-24766712D01*
X10840471Y-24693711D01*
X10943711Y-24590471D01*
X11016712Y-24464029D01*
X11054310Y-24323711D01*
X27847475Y-24323711D01*
X27847475Y-24472340D01*
X27876469Y-24618104D01*
X27933345Y-24755415D01*
X28015913Y-24878988D01*
X28015916Y-24878992D01*
X28121009Y-24984085D01*
X28244585Y-25066655D01*
X28381895Y-25123531D01*
X28527663Y-25152526D01*
X28527664Y-25152526D01*
X28676286Y-25152526D01*
X28676287Y-25152526D01*
X28822055Y-25123531D01*
X28959365Y-25066655D01*
X29082941Y-24984085D01*
X29188034Y-24878992D01*
X29270604Y-24755416D01*
X29327480Y-24618106D01*
X29356475Y-24472338D01*
X29356475Y-24353501D01*
X29375382Y-24295310D01*
X29424882Y-24259346D01*
X29455475Y-24254501D01*
X29574311Y-24254501D01*
X29574312Y-24254501D01*
X29720080Y-24225506D01*
X29857390Y-24168630D01*
X29980966Y-24086060D01*
X30086059Y-23980967D01*
X30168629Y-23857391D01*
X30225505Y-23720081D01*
X30241748Y-23638420D01*
X30271645Y-23585037D01*
X30327210Y-23559421D01*
X30358156Y-23560636D01*
X30398026Y-23568567D01*
X30497327Y-23548816D01*
X30560260Y-23506766D01*
X31302815Y-22764209D01*
X31344867Y-22701276D01*
X31364618Y-22601975D01*
X31344867Y-22502674D01*
X31302817Y-22439741D01*
X30560260Y-21697186D01*
X30497327Y-21655134D01*
X30497324Y-21655133D01*
X30398026Y-21635383D01*
X30298726Y-21655133D01*
X30235792Y-21697183D01*
X29493238Y-22439739D01*
X29451184Y-22502676D01*
X29431434Y-22601975D01*
X29431434Y-22601976D01*
X29439363Y-22641842D01*
X29432170Y-22702603D01*
X29390637Y-22747532D01*
X29361580Y-22758251D01*
X29279928Y-22774493D01*
X29279922Y-22774495D01*
X29142610Y-22831371D01*
X29019037Y-22913939D01*
X28913938Y-23019038D01*
X28831370Y-23142611D01*
X28774494Y-23279922D01*
X28745500Y-23425686D01*
X28745500Y-23544526D01*
X28726593Y-23602717D01*
X28677093Y-23638681D01*
X28646500Y-23643526D01*
X28527660Y-23643526D01*
X28381896Y-23672520D01*
X28244585Y-23729396D01*
X28121012Y-23811964D01*
X28015913Y-23917063D01*
X27933345Y-24040636D01*
X27876469Y-24177947D01*
X27847475Y-24323711D01*
X11054310Y-24323711D01*
X11054500Y-24323001D01*
X11054500Y-24176999D01*
X11016712Y-24035971D01*
X10943711Y-23909529D01*
X10840471Y-23806289D01*
X10714029Y-23733288D01*
X10573001Y-23695500D01*
X10572999Y-23695500D01*
X10487847Y-23695500D01*
X10429656Y-23676593D01*
X10417843Y-23666504D01*
X8133496Y-21382157D01*
X8105719Y-21327640D01*
X8104500Y-21312153D01*
X8104500Y-19192214D01*
X8123407Y-19134023D01*
X8172907Y-19098059D01*
X8234093Y-19098059D01*
X8273501Y-19122208D01*
X10114328Y-20963035D01*
X10142104Y-21017550D01*
X10143323Y-21033037D01*
X10143323Y-21118192D01*
X10181111Y-21259220D01*
X10254112Y-21385662D01*
X10357352Y-21488902D01*
X10483794Y-21561903D01*
X10624822Y-21599691D01*
X10624824Y-21599691D01*
X10770822Y-21599691D01*
X10770824Y-21599691D01*
X10911852Y-21561903D01*
X11038294Y-21488902D01*
X11141534Y-21385662D01*
X11214535Y-21259220D01*
X11252323Y-21118192D01*
X11252323Y-20972190D01*
X11214535Y-20831162D01*
X11141534Y-20704720D01*
X11038294Y-20601480D01*
X10911852Y-20528479D01*
X10770824Y-20490691D01*
X10770822Y-20490691D01*
X10685670Y-20490691D01*
X10627479Y-20471784D01*
X10615666Y-20461695D01*
X8883496Y-18729525D01*
X8855719Y-18675008D01*
X8854500Y-18659521D01*
X8854500Y-17956582D01*
X8873407Y-17898391D01*
X8922907Y-17862427D01*
X8984093Y-17862427D01*
X9023501Y-17886576D01*
X9121009Y-17984084D01*
X9244585Y-18066654D01*
X9381895Y-18123530D01*
X9527663Y-18152525D01*
X9527664Y-18152525D01*
X9676286Y-18152525D01*
X9676287Y-18152525D01*
X9822055Y-18123530D01*
X9959365Y-18066654D01*
X10082941Y-17984084D01*
X10188034Y-17878991D01*
X10270604Y-17755415D01*
X10327480Y-17618105D01*
X10356475Y-17472337D01*
X10356475Y-17353500D01*
X10375382Y-17295309D01*
X10424882Y-17259345D01*
X10455475Y-17254500D01*
X10574311Y-17254500D01*
X10574312Y-17254500D01*
X10720080Y-17225505D01*
X10857390Y-17168629D01*
X10980966Y-17086059D01*
X11086059Y-16980966D01*
X11168629Y-16857390D01*
X11225505Y-16720080D01*
X11252380Y-16584966D01*
X11282277Y-16531584D01*
X11337842Y-16505968D01*
X11368791Y-16507184D01*
X11398025Y-16512998D01*
X11476061Y-16497477D01*
X11525515Y-16464433D01*
X11822289Y-16167659D01*
X11546283Y-15891653D01*
X11597580Y-15862038D01*
X11658090Y-15801528D01*
X11687706Y-15750231D01*
X11963712Y-16026237D01*
X12260485Y-15729463D01*
X12293529Y-15680009D01*
X12309050Y-15601974D01*
X12293529Y-15523938D01*
X12260485Y-15474484D01*
X11963712Y-15177711D01*
X11687706Y-15453716D01*
X11658090Y-15402420D01*
X11597580Y-15341910D01*
X11546283Y-15312293D01*
X11822289Y-15036288D01*
X11525515Y-14739514D01*
X11476061Y-14706470D01*
X11398026Y-14690949D01*
X11319990Y-14706470D01*
X11270536Y-14739514D01*
X10973763Y-15036288D01*
X11249768Y-15312293D01*
X11198472Y-15341910D01*
X11137962Y-15402420D01*
X11108346Y-15453715D01*
X10832340Y-15177710D01*
X10535566Y-15474484D01*
X10502522Y-15523938D01*
X10487001Y-15601974D01*
X10487001Y-15601976D01*
X10492815Y-15631210D01*
X10485622Y-15691971D01*
X10444088Y-15736900D01*
X10415032Y-15747619D01*
X10279920Y-15774495D01*
X10142610Y-15831370D01*
X10019037Y-15913938D01*
X9913938Y-16019037D01*
X9831370Y-16142610D01*
X9774494Y-16279921D01*
X9745500Y-16425685D01*
X9745500Y-16544525D01*
X9726593Y-16602716D01*
X9677093Y-16638680D01*
X9646500Y-16643525D01*
X9527660Y-16643525D01*
X9381896Y-16672519D01*
X9244585Y-16729395D01*
X9121012Y-16811963D01*
X9121009Y-16811965D01*
X9121009Y-16811966D01*
X9023501Y-16909473D01*
X8968987Y-16937249D01*
X8908555Y-16927678D01*
X8865290Y-16884413D01*
X8854500Y-16839468D01*
X8854500Y-14687847D01*
X8873407Y-14629656D01*
X8883496Y-14617843D01*
X11294567Y-12206772D01*
X13726906Y-9774432D01*
X13781421Y-9746657D01*
X13841853Y-9756228D01*
X13885118Y-9799493D01*
X13893377Y-9847540D01*
X13895500Y-9847540D01*
X13895500Y-11279310D01*
X13876593Y-11337501D01*
X13866504Y-11349313D01*
X13806291Y-11409526D01*
X13806289Y-11409528D01*
X13806289Y-11409529D01*
X13733288Y-11535971D01*
X13695500Y-11676999D01*
X13695500Y-11823001D01*
X13733288Y-11964029D01*
X13806289Y-12090471D01*
X13909529Y-12193711D01*
X14035971Y-12266712D01*
X14176999Y-12304500D01*
X14177001Y-12304500D01*
X14322999Y-12304500D01*
X14323001Y-12304500D01*
X14464029Y-12266712D01*
X14590471Y-12193711D01*
X14693711Y-12090471D01*
X14766712Y-11964029D01*
X14804500Y-11823001D01*
X14804500Y-11676999D01*
X14804043Y-11675293D01*
X14804109Y-11674031D01*
X14803653Y-11670567D01*
X14804295Y-11670482D01*
X14807244Y-11614192D01*
X14845749Y-11566641D01*
X14904849Y-11550805D01*
X14925294Y-11554043D01*
X14926999Y-11554500D01*
X14927000Y-11554500D01*
X15072999Y-11554500D01*
X15073001Y-11554500D01*
X15214029Y-11516712D01*
X15340471Y-11443711D01*
X15443711Y-11340471D01*
X15516712Y-11214029D01*
X15554500Y-11073001D01*
X15554500Y-10926999D01*
X15516712Y-10785971D01*
X15505592Y-10766711D01*
X15444395Y-10660714D01*
X15431673Y-10600866D01*
X15456560Y-10544970D01*
X15460108Y-10541229D01*
X17023797Y-8977541D01*
X17078314Y-8949764D01*
X17138746Y-8959335D01*
X17182011Y-9002600D01*
X17192801Y-9047545D01*
X17192801Y-9819670D01*
X17207565Y-9893900D01*
X17207566Y-9893902D01*
X17263813Y-9978080D01*
X17263816Y-9978084D01*
X17347999Y-10034334D01*
X17422233Y-10049100D01*
X20956752Y-10049099D01*
X21014943Y-10068006D01*
X21026755Y-10078095D01*
X21254950Y-10306289D01*
X21482332Y-10533671D01*
X21563168Y-10580341D01*
X21563170Y-10580341D01*
X21563171Y-10580342D01*
X21570587Y-10582329D01*
X21653326Y-10604499D01*
X21653328Y-10604500D01*
X21653329Y-10604500D01*
X21746671Y-10604500D01*
X21779310Y-10604500D01*
X21837501Y-10623407D01*
X21849313Y-10633496D01*
X21892817Y-10676999D01*
X21909529Y-10693711D01*
X22035971Y-10766712D01*
X22176999Y-10804500D01*
X22177001Y-10804500D01*
X22322999Y-10804500D01*
X22323001Y-10804500D01*
X22464029Y-10766712D01*
X22590471Y-10693711D01*
X22693711Y-10590471D01*
X22766712Y-10464029D01*
X22804500Y-10323001D01*
X22804500Y-10176999D01*
X22766712Y-10035971D01*
X22765413Y-10033722D01*
X22765027Y-10031904D01*
X22764229Y-10029977D01*
X22764586Y-10029829D01*
X22752691Y-9973875D01*
X22768832Y-9929222D01*
X22792434Y-9893901D01*
X22807200Y-9819667D01*
X22807199Y-7280334D01*
X22792434Y-7206099D01*
X22736184Y-7121916D01*
X22652001Y-7065666D01*
X22577767Y-7050900D01*
X17840146Y-7050900D01*
X17781955Y-7031993D01*
X17745991Y-6982493D01*
X17745991Y-6921307D01*
X17770142Y-6881896D01*
X18088871Y-6563168D01*
X18518543Y-6133496D01*
X18573060Y-6105719D01*
X18588547Y-6104500D01*
X26662153Y-6104500D01*
X26720344Y-6123407D01*
X26732157Y-6133496D01*
X27416504Y-6817843D01*
X27444281Y-6872360D01*
X27445500Y-6887847D01*
X27445500Y-7189581D01*
X27426593Y-7247772D01*
X27377093Y-7283736D01*
X27320627Y-7283736D01*
X27320297Y-7284968D01*
X27314030Y-7283288D01*
X27314029Y-7283288D01*
X27173001Y-7245500D01*
X27026999Y-7245500D01*
X26885971Y-7283288D01*
X26759529Y-7356289D01*
X26656289Y-7459529D01*
X26583288Y-7585971D01*
X26545500Y-7726999D01*
X26545500Y-7873001D01*
X26583288Y-8014029D01*
X26656289Y-8140471D01*
X26687236Y-8171418D01*
X26694354Y-8185389D01*
X26705440Y-8196475D01*
X26707893Y-8211962D01*
X26715012Y-8225935D01*
X26712559Y-8241421D01*
X26715012Y-8256907D01*
X26707893Y-8270878D01*
X26705440Y-8286367D01*
X26687235Y-8311424D01*
X26632157Y-8366503D01*
X26577641Y-8394281D01*
X26562153Y-8395500D01*
X24220690Y-8395500D01*
X24162499Y-8376593D01*
X24150687Y-8366504D01*
X24090473Y-8306291D01*
X24090471Y-8306289D01*
X23964029Y-8233288D01*
X23823001Y-8195500D01*
X23676999Y-8195500D01*
X23535971Y-8233288D01*
X23409529Y-8306289D01*
X23306289Y-8409529D01*
X23233288Y-8535971D01*
X23195500Y-8676999D01*
X23195500Y-8823001D01*
X23233288Y-8964029D01*
X23306289Y-9090471D01*
X23409529Y-9193711D01*
X23535971Y-9266712D01*
X23676999Y-9304500D01*
X23677001Y-9304500D01*
X23822999Y-9304500D01*
X23823001Y-9304500D01*
X23964029Y-9266712D01*
X24090471Y-9193711D01*
X24122178Y-9162004D01*
X24150687Y-9133496D01*
X24205204Y-9105719D01*
X24220690Y-9104500D01*
X26646500Y-9104500D01*
X26704691Y-9123407D01*
X26740655Y-9172907D01*
X26745500Y-9203500D01*
X26745500Y-10346673D01*
X26769657Y-10436828D01*
X26769658Y-10436829D01*
X26769659Y-10436832D01*
X26816329Y-10517668D01*
X27636162Y-11337501D01*
X28450916Y-12152255D01*
X28478693Y-12206772D01*
X28469122Y-12267204D01*
X28425857Y-12310469D01*
X28365425Y-12320040D01*
X28355296Y-12317887D01*
X28271453Y-12295422D01*
X28125451Y-12295422D01*
X28022524Y-12323001D01*
X27984423Y-12333210D01*
X27857981Y-12406211D01*
X27754740Y-12509452D01*
X27729958Y-12552376D01*
X27684488Y-12593316D01*
X27623638Y-12599711D01*
X27574218Y-12572879D01*
X25833496Y-10832157D01*
X25805719Y-10777640D01*
X25804500Y-10762153D01*
X25804500Y-10677000D01*
X25804500Y-10676999D01*
X25766712Y-10535971D01*
X25693711Y-10409529D01*
X25590471Y-10306289D01*
X25464029Y-10233288D01*
X25323001Y-10195500D01*
X25176999Y-10195500D01*
X25035971Y-10233288D01*
X24909529Y-10306289D01*
X24806289Y-10409529D01*
X24733288Y-10535971D01*
X24695500Y-10676999D01*
X24695500Y-10823001D01*
X24733288Y-10964029D01*
X24806289Y-11090471D01*
X24909529Y-11193711D01*
X25035971Y-11266712D01*
X25176999Y-11304500D01*
X25262153Y-11304500D01*
X25320344Y-11323407D01*
X25332157Y-11333496D01*
X29975157Y-15976496D01*
X30002934Y-16031013D01*
X29993363Y-16091445D01*
X29950098Y-16134710D01*
X29905153Y-16145500D01*
X29620690Y-16145500D01*
X29562499Y-16126593D01*
X29550687Y-16116504D01*
X29490473Y-16056291D01*
X29490471Y-16056289D01*
X29364029Y-15983288D01*
X29223001Y-15945500D01*
X29076999Y-15945500D01*
X28935971Y-15983288D01*
X28809529Y-16056289D01*
X28706289Y-16159529D01*
X28633288Y-16285971D01*
X28595500Y-16426999D01*
X28595500Y-16573001D01*
X28633288Y-16714029D01*
X28706289Y-16840471D01*
X28809529Y-16943711D01*
X28935971Y-17016712D01*
X29076999Y-17054500D01*
X29077001Y-17054500D01*
X29222999Y-17054500D01*
X29223001Y-17054500D01*
X29364029Y-17016712D01*
X29490471Y-16943711D01*
X29524710Y-16909472D01*
X29550687Y-16883496D01*
X29557803Y-16879870D01*
X29562499Y-16873407D01*
X29584550Y-16866242D01*
X29605204Y-16855719D01*
X29620690Y-16854500D01*
X29712153Y-16854500D01*
X29770344Y-16873407D01*
X29782157Y-16883496D01*
X32866504Y-19967842D01*
X32894281Y-20022359D01*
X32895500Y-20037846D01*
X32895500Y-20655153D01*
X32876593Y-20713344D01*
X32827093Y-20749308D01*
X32765907Y-20749308D01*
X32726496Y-20725157D01*
X32717668Y-20716329D01*
X31567666Y-19566327D01*
X30217668Y-18216329D01*
X30136832Y-18169659D01*
X30136829Y-18169658D01*
X30136828Y-18169657D01*
X30046673Y-18145500D01*
X30046671Y-18145500D01*
X29870690Y-18145500D01*
X29812499Y-18126593D01*
X29800687Y-18116504D01*
X29740473Y-18056291D01*
X29740471Y-18056289D01*
X29614029Y-17983288D01*
X29473001Y-17945500D01*
X29326999Y-17945500D01*
X29185971Y-17983288D01*
X29059529Y-18056289D01*
X28956289Y-18159529D01*
X28883288Y-18285971D01*
X28845500Y-18426999D01*
X28845500Y-18573001D01*
X28883288Y-18714029D01*
X28956289Y-18840471D01*
X29059529Y-18943711D01*
X29185971Y-19016712D01*
X29326999Y-19054500D01*
X29327001Y-19054500D01*
X29472999Y-19054500D01*
X29473001Y-19054500D01*
X29614029Y-19016712D01*
X29740471Y-18943711D01*
X29771419Y-18912762D01*
X29825934Y-18884987D01*
X29886366Y-18894558D01*
X29911425Y-18912764D01*
X32116504Y-21117843D01*
X32144281Y-21172360D01*
X32145500Y-21187847D01*
X32145500Y-23312153D01*
X32126593Y-23370344D01*
X32116504Y-23382157D01*
X30082157Y-25416504D01*
X30027640Y-25444281D01*
X30012153Y-25445500D01*
X29926999Y-25445500D01*
X29785971Y-25483288D01*
X29659529Y-25556289D01*
X29556289Y-25659529D01*
X29483288Y-25785971D01*
X29445500Y-25926999D01*
X29445500Y-26073001D01*
X29483288Y-26214029D01*
X29556289Y-26340471D01*
X29659529Y-26443711D01*
X29785971Y-26516712D01*
X29785973Y-26516712D01*
X29785974Y-26516713D01*
X29787659Y-26517411D01*
X29788652Y-26518259D01*
X29791591Y-26519956D01*
X29791276Y-26520500D01*
X29834186Y-26557146D01*
X29848471Y-26616641D01*
X29825058Y-26673169D01*
X29819780Y-26678880D01*
X29082157Y-27416504D01*
X29027640Y-27444281D01*
X29012153Y-27445500D01*
X28926999Y-27445500D01*
X28785971Y-27483288D01*
X28659529Y-27556289D01*
X28556289Y-27659529D01*
X28483288Y-27785971D01*
X28445500Y-27926999D01*
X28445500Y-28073001D01*
X28483288Y-28214029D01*
X28556289Y-28340471D01*
X28659529Y-28443711D01*
X28785971Y-28516712D01*
X28926999Y-28554500D01*
X28927001Y-28554500D01*
X28955152Y-28554500D01*
X29013343Y-28573407D01*
X29049307Y-28622907D01*
X29049307Y-28684093D01*
X29025156Y-28723504D01*
X28282332Y-29466329D01*
X28282331Y-29466328D01*
X28216331Y-29532329D01*
X28216329Y-29532331D01*
X28216329Y-29532332D01*
X28202498Y-29556289D01*
X28169658Y-29613170D01*
X28169657Y-29613171D01*
X28145500Y-29703326D01*
X28145500Y-30405153D01*
X28126593Y-30463344D01*
X28077093Y-30499308D01*
X28015907Y-30499308D01*
X27976496Y-30475157D01*
X26583496Y-29082157D01*
X26555719Y-29027640D01*
X26554500Y-29012153D01*
X26554500Y-28927000D01*
X26554500Y-28926999D01*
X26516712Y-28785971D01*
X26443711Y-28659529D01*
X26340471Y-28556289D01*
X26214029Y-28483288D01*
X26073001Y-28445500D01*
X25926999Y-28445500D01*
X25785971Y-28483288D01*
X25659529Y-28556289D01*
X25556289Y-28659529D01*
X25483288Y-28785971D01*
X25445500Y-28926999D01*
X25445500Y-29073001D01*
X25483288Y-29214029D01*
X25556289Y-29340471D01*
X25659529Y-29443711D01*
X25785971Y-29516712D01*
X25926999Y-29554500D01*
X26012153Y-29554500D01*
X26070344Y-29573407D01*
X26082157Y-29583496D01*
X29253797Y-32755136D01*
X29281574Y-32809653D01*
X29282793Y-32825140D01*
X29282793Y-34249731D01*
X29263886Y-34307922D01*
X29253797Y-34319734D01*
X29193584Y-34379947D01*
X29193582Y-34379949D01*
X29193582Y-34379950D01*
X29120581Y-34506392D01*
X29082793Y-34647420D01*
X29082793Y-34793422D01*
X29120581Y-34934450D01*
X29193582Y-35060892D01*
X29296822Y-35164132D01*
X29423264Y-35237133D01*
X29564292Y-35274921D01*
X29564294Y-35274921D01*
X29710292Y-35274921D01*
X29710294Y-35274921D01*
X29851322Y-35237133D01*
X29977764Y-35164132D01*
X30081004Y-35060892D01*
X30154005Y-34934450D01*
X30191793Y-34793422D01*
X30191793Y-34647420D01*
X30154005Y-34506392D01*
X30081004Y-34379950D01*
X30081001Y-34379947D01*
X30020789Y-34319734D01*
X29993012Y-34265217D01*
X29991793Y-34249731D01*
X29991793Y-32590621D01*
X29991792Y-32590619D01*
X29967635Y-32500464D01*
X29967634Y-32500463D01*
X29967634Y-32500461D01*
X29920964Y-32419625D01*
X29920961Y-32419622D01*
X29854961Y-32353621D01*
X29854961Y-32353622D01*
X29180219Y-31678880D01*
X29152442Y-31624363D01*
X29162013Y-31563931D01*
X29205278Y-31520666D01*
X29212344Y-31517409D01*
X29214015Y-31516715D01*
X29214029Y-31516712D01*
X29340471Y-31443711D01*
X29443711Y-31340471D01*
X29516712Y-31214029D01*
X29554500Y-31073001D01*
X29554500Y-30926999D01*
X29516712Y-30785971D01*
X29452867Y-30675389D01*
X29440147Y-30615541D01*
X29465034Y-30559646D01*
X29512981Y-30530264D01*
X29563561Y-30516712D01*
X29690003Y-30443711D01*
X29793243Y-30340471D01*
X29866244Y-30214029D01*
X29888269Y-30131824D01*
X29913889Y-30087448D01*
X35033671Y-24967668D01*
X35080341Y-24886832D01*
X35104500Y-24796671D01*
X35104500Y-24703329D01*
X35104500Y-19003329D01*
X35080341Y-18913168D01*
X35033671Y-18832332D01*
X34967668Y-18766329D01*
X34967665Y-18766327D01*
X31017842Y-14816503D01*
X30990066Y-14761988D01*
X30999637Y-14701556D01*
X31042902Y-14658291D01*
X31103334Y-14648720D01*
X31113463Y-14650873D01*
X31126999Y-14654500D01*
X31127000Y-14654500D01*
X31272999Y-14654500D01*
X31273001Y-14654500D01*
X31414029Y-14616712D01*
X31540471Y-14543711D01*
X31643711Y-14440471D01*
X31716712Y-14314029D01*
X31754500Y-14173001D01*
X31754500Y-14087847D01*
X31756968Y-14080249D01*
X31755719Y-14072360D01*
X31766243Y-14051704D01*
X31773407Y-14029656D01*
X31783496Y-14017843D01*
X31917843Y-13883496D01*
X31972360Y-13855719D01*
X31987847Y-13854500D01*
X32146615Y-13854500D01*
X32146615Y-13854499D01*
X32236775Y-13830341D01*
X32317611Y-13783671D01*
X33483671Y-12617611D01*
X33530342Y-12536774D01*
X33554501Y-12446614D01*
X33554501Y-12353271D01*
X33554501Y-12347209D01*
X33554500Y-12347191D01*
X33554500Y-10753328D01*
X33554499Y-10753326D01*
X33530342Y-10663171D01*
X33530341Y-10663170D01*
X33530341Y-10663168D01*
X33483671Y-10582332D01*
X33471657Y-10570318D01*
X33417668Y-10516328D01*
X33417668Y-10516329D01*
X32332260Y-9430921D01*
X32251424Y-9384251D01*
X32251421Y-9384250D01*
X32251420Y-9384249D01*
X32161265Y-9360092D01*
X32161263Y-9360092D01*
X30522592Y-9360092D01*
X30464401Y-9341185D01*
X30452588Y-9331096D01*
X30283496Y-9162004D01*
X30255719Y-9107487D01*
X30254500Y-9092000D01*
X30254500Y-5653328D01*
X30254499Y-5653326D01*
X30230342Y-5563171D01*
X30230341Y-5563170D01*
X30230341Y-5563168D01*
X30183671Y-5482332D01*
X30164009Y-5462670D01*
X30117668Y-5416328D01*
X30117668Y-5416329D01*
X27917668Y-3216329D01*
X27836832Y-3169659D01*
X27836829Y-3169658D01*
X27836828Y-3169657D01*
X27746673Y-3145500D01*
X27746671Y-3145500D01*
X17296671Y-3145500D01*
X17203329Y-3145500D01*
X17203326Y-3145500D01*
X17113171Y-3169657D01*
X17113170Y-3169658D01*
X17032332Y-3216329D01*
X6782332Y-13466329D01*
X6782331Y-13466328D01*
X6716331Y-13532329D01*
X6716329Y-13532331D01*
X6716329Y-13532332D01*
X6697301Y-13565290D01*
X6669658Y-13613170D01*
X6669657Y-13613171D01*
X6645500Y-13703326D01*
X500500Y-13703326D01*
X500500Y-7001857D01*
X500569Y-6998155D01*
X501155Y-6982493D01*
X518535Y-6517985D01*
X519086Y-6510626D01*
X572680Y-6034968D01*
X573784Y-6027653D01*
X613769Y-5816329D01*
X662767Y-5557361D01*
X664413Y-5550152D01*
X788301Y-5087798D01*
X790481Y-5080735D01*
X948560Y-4628969D01*
X951258Y-4622090D01*
X1142678Y-4183352D01*
X1145880Y-4176704D01*
X1369541Y-3753517D01*
X1373229Y-3747128D01*
X1627901Y-3341819D01*
X1632054Y-3335728D01*
X1916302Y-2950586D01*
X1920887Y-2944837D01*
X2233115Y-2582021D01*
X2238125Y-2576620D01*
X2576620Y-2238125D01*
X2582021Y-2233115D01*
X2944837Y-1920887D01*
X2950586Y-1916302D01*
X3335728Y-1632054D01*
X3341819Y-1627901D01*
X3747128Y-1373229D01*
X3753517Y-1369541D01*
X4176704Y-1145880D01*
X4183352Y-1142678D01*
X4622090Y-951258D01*
X4628963Y-948562D01*
X5080737Y-790480D01*
X5087798Y-788301D01*
X5550161Y-664410D01*
X5557361Y-662767D01*
X6027654Y-573783D01*
X6034968Y-572680D01*
X6510626Y-519086D01*
X6517985Y-518535D01*
X6998156Y-500569D01*
X7001858Y-500500D01*
X7065892Y-500500D01*
X32934108Y-500500D01*
X32998142Y-500500D01*
X33001844Y-500569D01*
G37*
G04 #@! TD.AperFunction*
G04 #@! TD*
M02*
