%TF.GenerationSoftware,KiCad,Pcbnew,9.0.3-9.0.3-0~ubuntu24.04.1*%
%TF.CreationDate,2025-07-13T16:36:45+02:00*%
%TF.ProjectId,PCBWatch,50434257-6174-4636-982e-6b696361645f,rev?*%
%TF.SameCoordinates,Original*%
%TF.FileFunction,Drillmap*%
%TF.FilePolarity,Positive*%
%FSLAX45Y45*%
G04 Gerber Fmt 4.5, Leading zero omitted, Abs format (unit mm)*
G04 Created by KiCad (PCBNEW 9.0.3-9.0.3-0~ubuntu24.04.1) date 2025-07-13 16:36:45*
%MOMM*%
%LPD*%
G01*
G04 APERTURE LIST*
%ADD10C,0.050000*%
%ADD11C,0.200000*%
%ADD12C,0.100000*%
G04 APERTURE END LIST*
D10*
X3300000Y0D02*
X700000Y0D01*
X0Y-700000D02*
G75*
G02*
X700000Y0I700000J0D01*
G01*
X4950000Y-2500000D02*
X4200000Y-1750000D01*
X5900000Y-400000D02*
X4600000Y-400000D01*
X4600000Y-400000D02*
X4200000Y-800000D01*
X4000000Y-1650000D02*
G75*
G02*
X4200000Y-1650000I100000J0D01*
G01*
X4000000Y-3300000D02*
G75*
G02*
X3300000Y-4000000I-700000J0D01*
G01*
X3300000Y0D02*
G75*
G02*
X4000000Y-700000I0J-700000D01*
G01*
X700000Y-4000000D02*
X3300000Y-4000000D01*
X0Y-700000D02*
X0Y-3300000D01*
X4000000Y-700000D02*
X4000000Y-900000D01*
X4200000Y-1650000D02*
X4200000Y-1750000D01*
X4200000Y-900000D02*
G75*
G02*
X4000000Y-900000I-100000J0D01*
G01*
X4200000Y-900000D02*
X4200000Y-800000D01*
X5900000Y-2500000D02*
X6300000Y-2100000D01*
X4000000Y-1650000D02*
X4000000Y-3300000D01*
X700000Y-4000000D02*
G75*
G02*
X0Y-3300000I0J700000D01*
G01*
X6300000Y-800000D02*
X5900000Y-400000D01*
X6300000Y-2100000D02*
X6300000Y-800000D01*
X4950000Y-2500000D02*
X5900000Y-2500000D01*
D11*
D12*
X110000Y-735000D02*
X140000Y-765000D01*
X140000Y-735000D02*
X110000Y-765000D01*
X110000Y-860000D02*
X140000Y-890000D01*
X140000Y-860000D02*
X110000Y-890000D01*
X110000Y-985000D02*
X140000Y-1015000D01*
X140000Y-985000D02*
X110000Y-1015000D01*
X110000Y-1110000D02*
X140000Y-1140000D01*
X140000Y-1110000D02*
X110000Y-1140000D01*
X110000Y-1235000D02*
X140000Y-1265000D01*
X140000Y-1235000D02*
X110000Y-1265000D01*
X110000Y-1360000D02*
X140000Y-1390000D01*
X140000Y-1360000D02*
X110000Y-1390000D01*
X110000Y-1485000D02*
X140000Y-1515000D01*
X140000Y-1485000D02*
X110000Y-1515000D01*
X110000Y-1610000D02*
X140000Y-1640000D01*
X140000Y-1610000D02*
X110000Y-1640000D01*
X110000Y-1735000D02*
X140000Y-1765000D01*
X140000Y-1735000D02*
X110000Y-1765000D01*
X110000Y-1860000D02*
X140000Y-1890000D01*
X140000Y-1860000D02*
X110000Y-1890000D01*
X110000Y-1985000D02*
X140000Y-2015000D01*
X140000Y-1985000D02*
X110000Y-2015000D01*
X110000Y-2110000D02*
X140000Y-2140000D01*
X140000Y-2110000D02*
X110000Y-2140000D01*
X110000Y-2235000D02*
X140000Y-2265000D01*
X140000Y-2235000D02*
X110000Y-2265000D01*
X110000Y-2360000D02*
X140000Y-2390000D01*
X140000Y-2360000D02*
X110000Y-2390000D01*
X110000Y-2485000D02*
X140000Y-2515000D01*
X140000Y-2485000D02*
X110000Y-2515000D01*
X110000Y-2610000D02*
X140000Y-2640000D01*
X140000Y-2610000D02*
X110000Y-2640000D01*
X110000Y-2735000D02*
X140000Y-2765000D01*
X140000Y-2735000D02*
X110000Y-2765000D01*
X110000Y-2860000D02*
X140000Y-2890000D01*
X140000Y-2860000D02*
X110000Y-2890000D01*
X110000Y-2985000D02*
X140000Y-3015000D01*
X140000Y-2985000D02*
X110000Y-3015000D01*
X110000Y-3110000D02*
X140000Y-3140000D01*
X140000Y-3110000D02*
X110000Y-3140000D01*
X110000Y-3235000D02*
X140000Y-3265000D01*
X140000Y-3235000D02*
X110000Y-3265000D01*
X112524Y-3375418D02*
X142524Y-3405418D01*
X142524Y-3375418D02*
X112524Y-3405418D01*
X113472Y-616373D02*
X143472Y-646373D01*
X143472Y-616373D02*
X113472Y-646373D01*
X135963Y-506563D02*
X165963Y-536563D01*
X165963Y-506563D02*
X135963Y-536563D01*
X156343Y-3518304D02*
X186343Y-3548304D01*
X186343Y-3518304D02*
X156343Y-3548304D01*
X182269Y-396752D02*
X212269Y-426752D01*
X212269Y-396752D02*
X182269Y-426752D01*
X234454Y-3647854D02*
X264454Y-3677854D01*
X264454Y-3647854D02*
X234454Y-3677854D01*
X257681Y-290911D02*
X287681Y-320911D01*
X287681Y-290911D02*
X257681Y-320911D01*
X343047Y-3754542D02*
X373047Y-3784542D01*
X373047Y-3754542D02*
X343047Y-3784542D01*
X346323Y-212853D02*
X376323Y-242853D01*
X376323Y-212853D02*
X346323Y-242853D01*
X464071Y-153317D02*
X494071Y-183317D01*
X494071Y-153317D02*
X464071Y-183317D01*
X465000Y-795000D02*
X495000Y-825000D01*
X495000Y-795000D02*
X465000Y-825000D01*
X493553Y-3826937D02*
X523553Y-3856937D01*
X523553Y-3826937D02*
X493553Y-3856937D01*
X515000Y-895000D02*
X545000Y-925000D01*
X545000Y-895000D02*
X515000Y-925000D01*
X565000Y-995000D02*
X595000Y-1025000D01*
X595000Y-995000D02*
X565000Y-1025000D01*
X593727Y-117596D02*
X623727Y-147596D01*
X623727Y-117596D02*
X593727Y-147596D01*
X610000Y-1985000D02*
X640000Y-2015000D01*
X640000Y-1985000D02*
X610000Y-2015000D01*
X615000Y-1095000D02*
X645000Y-1125000D01*
X645000Y-1095000D02*
X615000Y-1125000D01*
X660000Y-3860000D02*
X690000Y-3890000D01*
X690000Y-3860000D02*
X660000Y-3890000D01*
X685000Y-2760000D02*
X715000Y-2790000D01*
X715000Y-2760000D02*
X685000Y-2790000D01*
X685000Y-3060000D02*
X715000Y-3090000D01*
X715000Y-3060000D02*
X685000Y-3090000D01*
X735000Y-110000D02*
X765000Y-140000D01*
X765000Y-110000D02*
X735000Y-140000D01*
X760000Y-3110000D02*
X790000Y-3140000D01*
X790000Y-3110000D02*
X760000Y-3140000D01*
X785000Y-3860000D02*
X815000Y-3890000D01*
X815000Y-3860000D02*
X785000Y-3890000D01*
X835000Y-1985000D02*
X865000Y-2015000D01*
X865000Y-1985000D02*
X835000Y-2015000D01*
X835000Y-3160000D02*
X865000Y-3190000D01*
X865000Y-3160000D02*
X835000Y-3190000D01*
X860000Y-110000D02*
X890000Y-140000D01*
X890000Y-110000D02*
X860000Y-140000D01*
X910000Y-3210000D02*
X940000Y-3240000D01*
X940000Y-3210000D02*
X910000Y-3240000D01*
X910000Y-3860000D02*
X940000Y-3890000D01*
X940000Y-3860000D02*
X910000Y-3890000D01*
X985000Y-110000D02*
X1015000Y-140000D01*
X1015000Y-110000D02*
X985000Y-140000D01*
X1035000Y-1335000D02*
X1065000Y-1365000D01*
X1065000Y-1335000D02*
X1035000Y-1365000D01*
X1035000Y-2410000D02*
X1065000Y-2440000D01*
X1065000Y-2410000D02*
X1035000Y-2440000D01*
X1035000Y-3860000D02*
X1065000Y-3890000D01*
X1065000Y-3860000D02*
X1035000Y-3890000D01*
X1054782Y-2089519D02*
X1084782Y-2119519D01*
X1084782Y-2089519D02*
X1054782Y-2119519D01*
X1100958Y-2600958D02*
X1130958Y-2630958D01*
X1130958Y-2600958D02*
X1100958Y-2630958D01*
X1110000Y-110000D02*
X1140000Y-140000D01*
X1140000Y-110000D02*
X1110000Y-140000D01*
X1160000Y-3860000D02*
X1190000Y-3890000D01*
X1190000Y-3860000D02*
X1160000Y-3890000D01*
X1235000Y-110000D02*
X1265000Y-140000D01*
X1265000Y-110000D02*
X1235000Y-140000D01*
X1235000Y-2685000D02*
X1265000Y-2715000D01*
X1265000Y-2685000D02*
X1235000Y-2715000D01*
X1285000Y-3735000D02*
X1315000Y-3765000D01*
X1315000Y-3735000D02*
X1285000Y-3765000D01*
X1285000Y-3860000D02*
X1315000Y-3890000D01*
X1315000Y-3860000D02*
X1285000Y-3890000D01*
X1335000Y-2685000D02*
X1365000Y-2715000D01*
X1365000Y-2685000D02*
X1335000Y-2715000D01*
X1360000Y-110000D02*
X1390000Y-140000D01*
X1390000Y-110000D02*
X1360000Y-140000D01*
X1385000Y-3635000D02*
X1415000Y-3665000D01*
X1415000Y-3635000D02*
X1385000Y-3665000D01*
X1410000Y-1160000D02*
X1440000Y-1190000D01*
X1440000Y-1160000D02*
X1410000Y-1190000D01*
X1410000Y-3860000D02*
X1440000Y-3890000D01*
X1440000Y-3860000D02*
X1410000Y-3890000D01*
X1457470Y-2762896D02*
X1487470Y-2792896D01*
X1487470Y-2762896D02*
X1457470Y-2792896D01*
X1485000Y-110000D02*
X1515000Y-140000D01*
X1515000Y-110000D02*
X1485000Y-140000D01*
X1485000Y-1085000D02*
X1515000Y-1115000D01*
X1515000Y-1085000D02*
X1485000Y-1115000D01*
X1510000Y-1710000D02*
X1540000Y-1740000D01*
X1540000Y-1710000D02*
X1510000Y-1740000D01*
X1535000Y-2985000D02*
X1565000Y-3015000D01*
X1565000Y-2985000D02*
X1535000Y-3015000D01*
X1585000Y-3435000D02*
X1615000Y-3465000D01*
X1615000Y-3435000D02*
X1585000Y-3465000D01*
X1610000Y-110000D02*
X1640000Y-140000D01*
X1640000Y-110000D02*
X1610000Y-140000D01*
X1635000Y-2885000D02*
X1665000Y-2915000D01*
X1665000Y-2885000D02*
X1635000Y-2915000D01*
X1660000Y-1010000D02*
X1690000Y-1040000D01*
X1690000Y-1010000D02*
X1660000Y-1040000D01*
X1660000Y-3335000D02*
X1690000Y-3365000D01*
X1690000Y-3335000D02*
X1660000Y-3365000D01*
X1735000Y-110000D02*
X1765000Y-140000D01*
X1765000Y-110000D02*
X1735000Y-140000D01*
X1735000Y-2885000D02*
X1765000Y-2915000D01*
X1765000Y-2885000D02*
X1735000Y-2915000D01*
X1860000Y-110000D02*
X1890000Y-140000D01*
X1890000Y-110000D02*
X1860000Y-140000D01*
X1985000Y-110000D02*
X2015000Y-140000D01*
X2015000Y-110000D02*
X1985000Y-140000D01*
X1985000Y-635000D02*
X2015000Y-665000D01*
X2015000Y-635000D02*
X1985000Y-665000D01*
X2110000Y-110000D02*
X2140000Y-140000D01*
X2140000Y-110000D02*
X2110000Y-140000D01*
X2170000Y-1735000D02*
X2200000Y-1765000D01*
X2200000Y-1735000D02*
X2170000Y-1765000D01*
X2210000Y-1010000D02*
X2240000Y-1040000D01*
X2240000Y-1010000D02*
X2210000Y-1040000D01*
X2235000Y-110000D02*
X2265000Y-140000D01*
X2265000Y-110000D02*
X2235000Y-140000D01*
X2285000Y-1735000D02*
X2315000Y-1765000D01*
X2315000Y-1735000D02*
X2285000Y-1765000D01*
X2305000Y-2185000D02*
X2335000Y-2215000D01*
X2335000Y-2185000D02*
X2305000Y-2215000D01*
X2310000Y-3335000D02*
X2340000Y-3365000D01*
X2340000Y-3335000D02*
X2310000Y-3365000D01*
X2343221Y-1007644D02*
X2373221Y-1037644D01*
X2373221Y-1007644D02*
X2343221Y-1037644D01*
X2360000Y-110000D02*
X2390000Y-140000D01*
X2390000Y-110000D02*
X2360000Y-140000D01*
X2360000Y-860000D02*
X2390000Y-890000D01*
X2390000Y-860000D02*
X2360000Y-890000D01*
X2385000Y-3435000D02*
X2415000Y-3465000D01*
X2415000Y-3435000D02*
X2385000Y-3465000D01*
X2485000Y-110000D02*
X2515000Y-140000D01*
X2515000Y-110000D02*
X2485000Y-140000D01*
X2510000Y-1060000D02*
X2540000Y-1090000D01*
X2540000Y-1060000D02*
X2510000Y-1090000D01*
X2535000Y-1185000D02*
X2565000Y-1215000D01*
X2565000Y-1185000D02*
X2535000Y-1215000D01*
X2535000Y-1285000D02*
X2565000Y-1315000D01*
X2565000Y-1285000D02*
X2535000Y-1315000D01*
X2560000Y-3860000D02*
X2590000Y-3890000D01*
X2590000Y-3860000D02*
X2560000Y-3890000D01*
X2585000Y-2885000D02*
X2615000Y-2915000D01*
X2615000Y-2885000D02*
X2585000Y-2915000D01*
X2585000Y-3635000D02*
X2615000Y-3665000D01*
X2615000Y-3635000D02*
X2585000Y-3665000D01*
X2606538Y-2634231D02*
X2636538Y-2664231D01*
X2636538Y-2634231D02*
X2606538Y-2664231D01*
X2610000Y-110000D02*
X2640000Y-140000D01*
X2640000Y-110000D02*
X2610000Y-140000D01*
X2635000Y-1285000D02*
X2665000Y-1315000D01*
X2665000Y-1285000D02*
X2635000Y-1315000D01*
X2685000Y-3735000D02*
X2715000Y-3765000D01*
X2715000Y-3735000D02*
X2685000Y-3765000D01*
X2685000Y-3860000D02*
X2715000Y-3890000D01*
X2715000Y-3860000D02*
X2685000Y-3890000D01*
X2695000Y-765000D02*
X2725000Y-795000D01*
X2725000Y-765000D02*
X2695000Y-795000D01*
X2706538Y-2534231D02*
X2736538Y-2564231D01*
X2736538Y-2534231D02*
X2706538Y-2564231D01*
X2706538Y-2634231D02*
X2736538Y-2664231D01*
X2736538Y-2634231D02*
X2706538Y-2664231D01*
X2735000Y-110000D02*
X2765000Y-140000D01*
X2765000Y-110000D02*
X2735000Y-140000D01*
X2804845Y-1269992D02*
X2834845Y-1299992D01*
X2834845Y-1269992D02*
X2804845Y-1299992D01*
X2810000Y-3860000D02*
X2840000Y-3890000D01*
X2840000Y-3860000D02*
X2810000Y-3890000D01*
X2860000Y-110000D02*
X2890000Y-140000D01*
X2890000Y-110000D02*
X2860000Y-140000D01*
X2885000Y-2785000D02*
X2915000Y-2815000D01*
X2915000Y-2785000D02*
X2885000Y-2815000D01*
X2885000Y-3085000D02*
X2915000Y-3115000D01*
X2915000Y-3085000D02*
X2885000Y-3115000D01*
X2900000Y-1635000D02*
X2930000Y-1665000D01*
X2930000Y-1635000D02*
X2900000Y-1665000D01*
X2919953Y-2985000D02*
X2949953Y-3015000D01*
X2949953Y-2985000D02*
X2919953Y-3015000D01*
X2925000Y-1835000D02*
X2955000Y-1865000D01*
X2955000Y-1835000D02*
X2925000Y-1865000D01*
X2935000Y-3860000D02*
X2965000Y-3890000D01*
X2965000Y-3860000D02*
X2935000Y-3890000D01*
X2948729Y-3457042D02*
X2978729Y-3487042D01*
X2978729Y-3457042D02*
X2948729Y-3487042D01*
X2985000Y-110000D02*
X3015000Y-140000D01*
X3015000Y-110000D02*
X2985000Y-140000D01*
X2985000Y-2585000D02*
X3015000Y-2615000D01*
X3015000Y-2585000D02*
X2985000Y-2615000D01*
X3060000Y-2035000D02*
X3090000Y-2065000D01*
X3090000Y-2035000D02*
X3060000Y-2065000D01*
X3060000Y-3860000D02*
X3090000Y-3890000D01*
X3090000Y-3860000D02*
X3060000Y-3890000D01*
X3095000Y-1175000D02*
X3125000Y-1205000D01*
X3125000Y-1175000D02*
X3095000Y-1205000D01*
X3105000Y-1305000D02*
X3135000Y-1335000D01*
X3135000Y-1305000D02*
X3105000Y-1335000D01*
X3105000Y-1395000D02*
X3135000Y-1425000D01*
X3135000Y-1395000D02*
X3105000Y-1425000D01*
X3110000Y-110000D02*
X3140000Y-140000D01*
X3140000Y-110000D02*
X3110000Y-140000D01*
X3135000Y-2660000D02*
X3165000Y-2690000D01*
X3165000Y-2660000D02*
X3135000Y-2690000D01*
X3155000Y-1105000D02*
X3185000Y-1135000D01*
X3185000Y-1105000D02*
X3155000Y-1135000D01*
X3185000Y-1935000D02*
X3215000Y-1965000D01*
X3215000Y-1935000D02*
X3185000Y-1965000D01*
X3185000Y-3860000D02*
X3215000Y-3890000D01*
X3215000Y-3860000D02*
X3185000Y-3890000D01*
X3235000Y-110000D02*
X3265000Y-140000D01*
X3265000Y-110000D02*
X3235000Y-140000D01*
X3235000Y-1210000D02*
X3265000Y-1240000D01*
X3265000Y-1210000D02*
X3235000Y-1240000D01*
X3310000Y-3860000D02*
X3340000Y-3890000D01*
X3340000Y-3860000D02*
X3310000Y-3890000D01*
X3348405Y-115259D02*
X3378405Y-145259D01*
X3378405Y-115259D02*
X3348405Y-145259D01*
X3445000Y-3845000D02*
X3475000Y-3875000D01*
X3475000Y-3845000D02*
X3445000Y-3875000D01*
X3463507Y-136428D02*
X3493507Y-166428D01*
X3493507Y-136428D02*
X3463507Y-166428D01*
X3565000Y-3785000D02*
X3595000Y-3815000D01*
X3595000Y-3785000D02*
X3565000Y-3815000D01*
X3573317Y-185379D02*
X3603317Y-215379D01*
X3603317Y-185379D02*
X3573317Y-215379D01*
X3671221Y-260791D02*
X3701221Y-290791D01*
X3701221Y-260791D02*
X3671221Y-290791D01*
X3685000Y-3705000D02*
X3715000Y-3735000D01*
X3715000Y-3705000D02*
X3685000Y-3735000D01*
X3755894Y-352079D02*
X3785894Y-382079D01*
X3785894Y-352079D02*
X3755894Y-382079D01*
X3765000Y-3605000D02*
X3795000Y-3635000D01*
X3795000Y-3605000D02*
X3765000Y-3635000D01*
X3815429Y-469828D02*
X3845429Y-499828D01*
X3845429Y-469828D02*
X3815429Y-499828D01*
X3825000Y-3485000D02*
X3855000Y-3515000D01*
X3855000Y-3485000D02*
X3825000Y-3515000D01*
X3852474Y-600806D02*
X3882474Y-630806D01*
X3882474Y-600806D02*
X3852474Y-630806D01*
X3855251Y-3356451D02*
X3885251Y-3386451D01*
X3885251Y-3356451D02*
X3855251Y-3386451D01*
X3860000Y-735000D02*
X3890000Y-765000D01*
X3890000Y-735000D02*
X3860000Y-765000D01*
X3860000Y-860000D02*
X3890000Y-890000D01*
X3890000Y-860000D02*
X3860000Y-890000D01*
X3860000Y-985000D02*
X3890000Y-1015000D01*
X3890000Y-985000D02*
X3860000Y-1015000D01*
X3860000Y-1110000D02*
X3890000Y-1140000D01*
X3890000Y-1110000D02*
X3860000Y-1140000D01*
X3860000Y-1235000D02*
X3890000Y-1265000D01*
X3890000Y-1235000D02*
X3860000Y-1265000D01*
X3860000Y-1360000D02*
X3890000Y-1390000D01*
X3890000Y-1360000D02*
X3860000Y-1390000D01*
X3860000Y-1485000D02*
X3890000Y-1515000D01*
X3890000Y-1485000D02*
X3860000Y-1515000D01*
X3860000Y-1610000D02*
X3890000Y-1640000D01*
X3890000Y-1610000D02*
X3860000Y-1640000D01*
X3860000Y-1735000D02*
X3890000Y-1765000D01*
X3890000Y-1735000D02*
X3860000Y-1765000D01*
X3860000Y-1860000D02*
X3890000Y-1890000D01*
X3890000Y-1860000D02*
X3860000Y-1890000D01*
X3860000Y-1985000D02*
X3890000Y-2015000D01*
X3890000Y-1985000D02*
X3860000Y-2015000D01*
X3860000Y-2110000D02*
X3890000Y-2140000D01*
X3890000Y-2110000D02*
X3860000Y-2140000D01*
X3860000Y-2235000D02*
X3890000Y-2265000D01*
X3890000Y-2235000D02*
X3860000Y-2265000D01*
X3860000Y-2360000D02*
X3890000Y-2390000D01*
X3890000Y-2360000D02*
X3860000Y-2390000D01*
X3860000Y-2485000D02*
X3890000Y-2515000D01*
X3890000Y-2485000D02*
X3860000Y-2515000D01*
X3860000Y-2610000D02*
X3890000Y-2640000D01*
X3890000Y-2610000D02*
X3860000Y-2640000D01*
X3860000Y-2735000D02*
X3890000Y-2765000D01*
X3890000Y-2735000D02*
X3860000Y-2765000D01*
X3860000Y-2860000D02*
X3890000Y-2890000D01*
X3890000Y-2860000D02*
X3860000Y-2890000D01*
X3860000Y-2985000D02*
X3890000Y-3015000D01*
X3890000Y-2985000D02*
X3860000Y-3015000D01*
X3860000Y-3110000D02*
X3890000Y-3140000D01*
X3890000Y-3110000D02*
X3860000Y-3140000D01*
X3860000Y-3235000D02*
X3890000Y-3265000D01*
X3890000Y-3235000D02*
X3860000Y-3265000D01*
X4050619Y-1105842D02*
X4080619Y-1135842D01*
X4080619Y-1105842D02*
X4050619Y-1135842D01*
X4050619Y-1205842D02*
X4080619Y-1235842D01*
X4080619Y-1205842D02*
X4050619Y-1235842D01*
X4050619Y-1305842D02*
X4080619Y-1335842D01*
X4080619Y-1305842D02*
X4050619Y-1335842D01*
X4050619Y-1405841D02*
X4080619Y-1435841D01*
X4080619Y-1405841D02*
X4050619Y-1435841D01*
X4131770Y-1454168D02*
X4161770Y-1484168D01*
X4161770Y-1454168D02*
X4131770Y-1484168D01*
X4131823Y-1063754D02*
X4161823Y-1093754D01*
X4161823Y-1063754D02*
X4131823Y-1093754D01*
X4132219Y-1155739D02*
X4162219Y-1185739D01*
X4162219Y-1155739D02*
X4132219Y-1185739D01*
X4132219Y-1255739D02*
X4162219Y-1285739D01*
X4162219Y-1255739D02*
X4132219Y-1285739D01*
X4132219Y-1355739D02*
X4162219Y-1385739D01*
X4162219Y-1355739D02*
X4132219Y-1385739D01*
X4320348Y-904100D02*
X4350348Y-934100D01*
X4350348Y-904100D02*
X4320348Y-934100D01*
X4322516Y-1163388D02*
X4352516Y-1193388D01*
X4352516Y-1163388D02*
X4322516Y-1193388D01*
X4471379Y-1562965D02*
X4501379Y-1592965D01*
X4501379Y-1562965D02*
X4471379Y-1592965D01*
X4576368Y-801368D02*
X4606368Y-831368D01*
X4606368Y-801368D02*
X4576368Y-831368D01*
X4659599Y-1459599D02*
X4689599Y-1489599D01*
X4689599Y-1459599D02*
X4659599Y-1489599D01*
X4735000Y-1735000D02*
X4765000Y-1765000D01*
X4765000Y-1735000D02*
X4735000Y-1765000D01*
X4935000Y-1385000D02*
X4965000Y-1415000D01*
X4965000Y-1385000D02*
X4935000Y-1415000D01*
X4965000Y-1955000D02*
X4995000Y-1985000D01*
X4995000Y-1955000D02*
X4965000Y-1985000D01*
X5085000Y-1385000D02*
X5115000Y-1415000D01*
X5115000Y-1385000D02*
X5085000Y-1415000D01*
X5152427Y-1252427D02*
X5182427Y-1282427D01*
X5182427Y-1252427D02*
X5152427Y-1282427D01*
X5185000Y-1485000D02*
X5215000Y-1515000D01*
X5215000Y-1485000D02*
X5185000Y-1515000D01*
X5195116Y-2174884D02*
X5225116Y-2204884D01*
X5225116Y-2174884D02*
X5195116Y-2204884D01*
X5210000Y-535000D02*
X5240000Y-565000D01*
X5240000Y-535000D02*
X5210000Y-565000D01*
X5265000Y-787995D02*
X5295000Y-817995D01*
X5295000Y-787995D02*
X5265000Y-817995D01*
X5285000Y-1585000D02*
X5315000Y-1615000D01*
X5315000Y-1585000D02*
X5285000Y-1615000D01*
X5300483Y-2089149D02*
X5330483Y-2119149D01*
X5330483Y-2089149D02*
X5300483Y-2119149D01*
X5335000Y-1335000D02*
X5365000Y-1365000D01*
X5365000Y-1335000D02*
X5335000Y-1365000D01*
X5435000Y-1435000D02*
X5465000Y-1465000D01*
X5465000Y-1435000D02*
X5435000Y-1465000D01*
X5438706Y-755711D02*
X5468706Y-785711D01*
X5468706Y-755711D02*
X5438706Y-785711D01*
X5745104Y-1824896D02*
X5775104Y-1854896D01*
X5775104Y-1824896D02*
X5745104Y-1854896D01*
X5785000Y-2185000D02*
X5815000Y-2215000D01*
X5815000Y-2185000D02*
X5785000Y-2215000D01*
X5821965Y-1899772D02*
X5851965Y-1929772D01*
X5851965Y-1899772D02*
X5821965Y-1929772D01*
X5885000Y-1435000D02*
X5915000Y-1465000D01*
X5915000Y-1435000D02*
X5885000Y-1465000D01*
X5894958Y-1972765D02*
X5924958Y-2002765D01*
X5924958Y-1972765D02*
X5894958Y-2002765D01*
X6015000Y-1525000D02*
X6045000Y-1555000D01*
X6045000Y-1525000D02*
X6015000Y-1555000D01*
X992697Y-1739802D02*
G75*
G02*
X927697Y-1739802I-32500J0D01*
G01*
X927697Y-1739802D02*
G75*
G02*
X992697Y-1739802I32500J0D01*
G01*
X1082500Y-1650000D02*
G75*
G02*
X1017500Y-1650000I-32500J0D01*
G01*
X1017500Y-1650000D02*
G75*
G02*
X1082500Y-1650000I32500J0D01*
G01*
X1172303Y-1560197D02*
G75*
G02*
X1107303Y-1560197I-32500J0D01*
G01*
X1107303Y-1560197D02*
G75*
G02*
X1172303Y-1560197I32500J0D01*
G01*
X2892697Y-2439803D02*
G75*
G02*
X2827697Y-2439803I-32500J0D01*
G01*
X2827697Y-2439803D02*
G75*
G02*
X2892697Y-2439803I32500J0D01*
G01*
X2982500Y-2350000D02*
G75*
G02*
X2917500Y-2350000I-32500J0D01*
G01*
X2917500Y-2350000D02*
G75*
G02*
X2982500Y-2350000I32500J0D01*
G01*
X3072303Y-2260198D02*
G75*
G02*
X3007303Y-2260198I-32500J0D01*
G01*
X3007303Y-2260198D02*
G75*
G02*
X3072303Y-2260198I32500J0D01*
G01*
X4728500Y-530159D02*
G75*
G02*
X4663500Y-530159I-32500J0D01*
G01*
X4663500Y-530159D02*
G75*
G02*
X4728500Y-530159I32500J0D01*
G01*
X4855500Y-530159D02*
G75*
G02*
X4790500Y-530159I-32500J0D01*
G01*
X4790500Y-530159D02*
G75*
G02*
X4855500Y-530159I32500J0D01*
G01*
X4982500Y-530159D02*
G75*
G02*
X4917500Y-530159I-32500J0D01*
G01*
X4917500Y-530159D02*
G75*
G02*
X4982500Y-530159I32500J0D01*
G01*
X5578500Y-2369336D02*
G75*
G02*
X5513500Y-2369336I-32500J0D01*
G01*
X5513500Y-2369336D02*
G75*
G02*
X5578500Y-2369336I32500J0D01*
G01*
X5705500Y-2369336D02*
G75*
G02*
X5640500Y-2369336I-32500J0D01*
G01*
X5640500Y-2369336D02*
G75*
G02*
X5705500Y-2369336I32500J0D01*
G01*
X5832500Y-2369336D02*
G75*
G02*
X5767500Y-2369336I-32500J0D01*
G01*
X5767500Y-2369336D02*
G75*
G02*
X5832500Y-2369336I32500J0D01*
G01*
D11*
X258277Y-4313984D02*
X258277Y-4113984D01*
X258277Y-4113984D02*
X305896Y-4113984D01*
X305896Y-4113984D02*
X334467Y-4123508D01*
X334467Y-4123508D02*
X353515Y-4142555D01*
X353515Y-4142555D02*
X363039Y-4161603D01*
X363039Y-4161603D02*
X372562Y-4199698D01*
X372562Y-4199698D02*
X372562Y-4228270D01*
X372562Y-4228270D02*
X363039Y-4266365D01*
X363039Y-4266365D02*
X353515Y-4285412D01*
X353515Y-4285412D02*
X334467Y-4304460D01*
X334467Y-4304460D02*
X305896Y-4313984D01*
X305896Y-4313984D02*
X258277Y-4313984D01*
X458277Y-4313984D02*
X458277Y-4180650D01*
X458277Y-4218746D02*
X467801Y-4199698D01*
X467801Y-4199698D02*
X477324Y-4190174D01*
X477324Y-4190174D02*
X496372Y-4180650D01*
X496372Y-4180650D02*
X515420Y-4180650D01*
X582086Y-4313984D02*
X582086Y-4180650D01*
X582086Y-4113984D02*
X572563Y-4123508D01*
X572563Y-4123508D02*
X582086Y-4133031D01*
X582086Y-4133031D02*
X591610Y-4123508D01*
X591610Y-4123508D02*
X582086Y-4113984D01*
X582086Y-4113984D02*
X582086Y-4133031D01*
X705896Y-4313984D02*
X686848Y-4304460D01*
X686848Y-4304460D02*
X677324Y-4285412D01*
X677324Y-4285412D02*
X677324Y-4113984D01*
X810658Y-4313984D02*
X791610Y-4304460D01*
X791610Y-4304460D02*
X782086Y-4285412D01*
X782086Y-4285412D02*
X782086Y-4113984D01*
X1039229Y-4313984D02*
X1039229Y-4113984D01*
X1039229Y-4113984D02*
X1105896Y-4256841D01*
X1105896Y-4256841D02*
X1172563Y-4113984D01*
X1172563Y-4113984D02*
X1172563Y-4313984D01*
X1353515Y-4313984D02*
X1353515Y-4209222D01*
X1353515Y-4209222D02*
X1343991Y-4190174D01*
X1343991Y-4190174D02*
X1324944Y-4180650D01*
X1324944Y-4180650D02*
X1286848Y-4180650D01*
X1286848Y-4180650D02*
X1267801Y-4190174D01*
X1353515Y-4304460D02*
X1334467Y-4313984D01*
X1334467Y-4313984D02*
X1286848Y-4313984D01*
X1286848Y-4313984D02*
X1267801Y-4304460D01*
X1267801Y-4304460D02*
X1258277Y-4285412D01*
X1258277Y-4285412D02*
X1258277Y-4266365D01*
X1258277Y-4266365D02*
X1267801Y-4247317D01*
X1267801Y-4247317D02*
X1286848Y-4237793D01*
X1286848Y-4237793D02*
X1334467Y-4237793D01*
X1334467Y-4237793D02*
X1353515Y-4228270D01*
X1448753Y-4180650D02*
X1448753Y-4380650D01*
X1448753Y-4190174D02*
X1467801Y-4180650D01*
X1467801Y-4180650D02*
X1505896Y-4180650D01*
X1505896Y-4180650D02*
X1524943Y-4190174D01*
X1524943Y-4190174D02*
X1534467Y-4199698D01*
X1534467Y-4199698D02*
X1543991Y-4218746D01*
X1543991Y-4218746D02*
X1543991Y-4275889D01*
X1543991Y-4275889D02*
X1534467Y-4294936D01*
X1534467Y-4294936D02*
X1524943Y-4304460D01*
X1524943Y-4304460D02*
X1505896Y-4313984D01*
X1505896Y-4313984D02*
X1467801Y-4313984D01*
X1467801Y-4313984D02*
X1448753Y-4304460D01*
X1629705Y-4294936D02*
X1639229Y-4304460D01*
X1639229Y-4304460D02*
X1629705Y-4313984D01*
X1629705Y-4313984D02*
X1620182Y-4304460D01*
X1620182Y-4304460D02*
X1629705Y-4294936D01*
X1629705Y-4294936D02*
X1629705Y-4313984D01*
X1629705Y-4190174D02*
X1639229Y-4199698D01*
X1639229Y-4199698D02*
X1629705Y-4209222D01*
X1629705Y-4209222D02*
X1620182Y-4199698D01*
X1620182Y-4199698D02*
X1629705Y-4190174D01*
X1629705Y-4190174D02*
X1629705Y-4209222D01*
D12*
X-32500Y-4627500D02*
X-2500Y-4657500D01*
X-2500Y-4627500D02*
X-32500Y-4657500D01*
D11*
X296372Y-4533984D02*
X315420Y-4533984D01*
X315420Y-4533984D02*
X334467Y-4543508D01*
X334467Y-4543508D02*
X343991Y-4553031D01*
X343991Y-4553031D02*
X353515Y-4572079D01*
X353515Y-4572079D02*
X363039Y-4610174D01*
X363039Y-4610174D02*
X363039Y-4657793D01*
X363039Y-4657793D02*
X353515Y-4695889D01*
X353515Y-4695889D02*
X343991Y-4714936D01*
X343991Y-4714936D02*
X334467Y-4724460D01*
X334467Y-4724460D02*
X315420Y-4733984D01*
X315420Y-4733984D02*
X296372Y-4733984D01*
X296372Y-4733984D02*
X277324Y-4724460D01*
X277324Y-4724460D02*
X267801Y-4714936D01*
X267801Y-4714936D02*
X258277Y-4695889D01*
X258277Y-4695889D02*
X248753Y-4657793D01*
X248753Y-4657793D02*
X248753Y-4610174D01*
X248753Y-4610174D02*
X258277Y-4572079D01*
X258277Y-4572079D02*
X267801Y-4553031D01*
X267801Y-4553031D02*
X277324Y-4543508D01*
X277324Y-4543508D02*
X296372Y-4533984D01*
X448753Y-4714936D02*
X458277Y-4724460D01*
X458277Y-4724460D02*
X448753Y-4733984D01*
X448753Y-4733984D02*
X439229Y-4724460D01*
X439229Y-4724460D02*
X448753Y-4714936D01*
X448753Y-4714936D02*
X448753Y-4733984D01*
X524944Y-4533984D02*
X648753Y-4533984D01*
X648753Y-4533984D02*
X582086Y-4610174D01*
X582086Y-4610174D02*
X610658Y-4610174D01*
X610658Y-4610174D02*
X629705Y-4619698D01*
X629705Y-4619698D02*
X639229Y-4629222D01*
X639229Y-4629222D02*
X648753Y-4648270D01*
X648753Y-4648270D02*
X648753Y-4695889D01*
X648753Y-4695889D02*
X639229Y-4714936D01*
X639229Y-4714936D02*
X629705Y-4724460D01*
X629705Y-4724460D02*
X610658Y-4733984D01*
X610658Y-4733984D02*
X553515Y-4733984D01*
X553515Y-4733984D02*
X534467Y-4724460D01*
X534467Y-4724460D02*
X524944Y-4714936D01*
X772562Y-4533984D02*
X791610Y-4533984D01*
X791610Y-4533984D02*
X810658Y-4543508D01*
X810658Y-4543508D02*
X820182Y-4553031D01*
X820182Y-4553031D02*
X829705Y-4572079D01*
X829705Y-4572079D02*
X839229Y-4610174D01*
X839229Y-4610174D02*
X839229Y-4657793D01*
X839229Y-4657793D02*
X829705Y-4695889D01*
X829705Y-4695889D02*
X820182Y-4714936D01*
X820182Y-4714936D02*
X810658Y-4724460D01*
X810658Y-4724460D02*
X791610Y-4733984D01*
X791610Y-4733984D02*
X772562Y-4733984D01*
X772562Y-4733984D02*
X753515Y-4724460D01*
X753515Y-4724460D02*
X743991Y-4714936D01*
X743991Y-4714936D02*
X734467Y-4695889D01*
X734467Y-4695889D02*
X724943Y-4657793D01*
X724943Y-4657793D02*
X724943Y-4610174D01*
X724943Y-4610174D02*
X734467Y-4572079D01*
X734467Y-4572079D02*
X743991Y-4553031D01*
X743991Y-4553031D02*
X753515Y-4543508D01*
X753515Y-4543508D02*
X772562Y-4533984D01*
X963039Y-4533984D02*
X982086Y-4533984D01*
X982086Y-4533984D02*
X1001134Y-4543508D01*
X1001134Y-4543508D02*
X1010658Y-4553031D01*
X1010658Y-4553031D02*
X1020182Y-4572079D01*
X1020182Y-4572079D02*
X1029705Y-4610174D01*
X1029705Y-4610174D02*
X1029705Y-4657793D01*
X1029705Y-4657793D02*
X1020182Y-4695889D01*
X1020182Y-4695889D02*
X1010658Y-4714936D01*
X1010658Y-4714936D02*
X1001134Y-4724460D01*
X1001134Y-4724460D02*
X982086Y-4733984D01*
X982086Y-4733984D02*
X963039Y-4733984D01*
X963039Y-4733984D02*
X943991Y-4724460D01*
X943991Y-4724460D02*
X934467Y-4714936D01*
X934467Y-4714936D02*
X924943Y-4695889D01*
X924943Y-4695889D02*
X915420Y-4657793D01*
X915420Y-4657793D02*
X915420Y-4610174D01*
X915420Y-4610174D02*
X924943Y-4572079D01*
X924943Y-4572079D02*
X934467Y-4553031D01*
X934467Y-4553031D02*
X943991Y-4543508D01*
X943991Y-4543508D02*
X963039Y-4533984D01*
X1115420Y-4733984D02*
X1115420Y-4600650D01*
X1115420Y-4619698D02*
X1124944Y-4610174D01*
X1124944Y-4610174D02*
X1143991Y-4600650D01*
X1143991Y-4600650D02*
X1172563Y-4600650D01*
X1172563Y-4600650D02*
X1191610Y-4610174D01*
X1191610Y-4610174D02*
X1201134Y-4629222D01*
X1201134Y-4629222D02*
X1201134Y-4733984D01*
X1201134Y-4629222D02*
X1210658Y-4610174D01*
X1210658Y-4610174D02*
X1229705Y-4600650D01*
X1229705Y-4600650D02*
X1258277Y-4600650D01*
X1258277Y-4600650D02*
X1277325Y-4610174D01*
X1277325Y-4610174D02*
X1286848Y-4629222D01*
X1286848Y-4629222D02*
X1286848Y-4733984D01*
X1382086Y-4733984D02*
X1382086Y-4600650D01*
X1382086Y-4619698D02*
X1391610Y-4610174D01*
X1391610Y-4610174D02*
X1410658Y-4600650D01*
X1410658Y-4600650D02*
X1439229Y-4600650D01*
X1439229Y-4600650D02*
X1458277Y-4610174D01*
X1458277Y-4610174D02*
X1467801Y-4629222D01*
X1467801Y-4629222D02*
X1467801Y-4733984D01*
X1467801Y-4629222D02*
X1477324Y-4610174D01*
X1477324Y-4610174D02*
X1496372Y-4600650D01*
X1496372Y-4600650D02*
X1524943Y-4600650D01*
X1524943Y-4600650D02*
X1543991Y-4610174D01*
X1543991Y-4610174D02*
X1553515Y-4629222D01*
X1553515Y-4629222D02*
X1553515Y-4733984D01*
X1943991Y-4524460D02*
X1772563Y-4781603D01*
X2201134Y-4533984D02*
X2220182Y-4533984D01*
X2220182Y-4533984D02*
X2239229Y-4543508D01*
X2239229Y-4543508D02*
X2248753Y-4553031D01*
X2248753Y-4553031D02*
X2258277Y-4572079D01*
X2258277Y-4572079D02*
X2267801Y-4610174D01*
X2267801Y-4610174D02*
X2267801Y-4657793D01*
X2267801Y-4657793D02*
X2258277Y-4695889D01*
X2258277Y-4695889D02*
X2248753Y-4714936D01*
X2248753Y-4714936D02*
X2239229Y-4724460D01*
X2239229Y-4724460D02*
X2220182Y-4733984D01*
X2220182Y-4733984D02*
X2201134Y-4733984D01*
X2201134Y-4733984D02*
X2182087Y-4724460D01*
X2182087Y-4724460D02*
X2172563Y-4714936D01*
X2172563Y-4714936D02*
X2163039Y-4695889D01*
X2163039Y-4695889D02*
X2153515Y-4657793D01*
X2153515Y-4657793D02*
X2153515Y-4610174D01*
X2153515Y-4610174D02*
X2163039Y-4572079D01*
X2163039Y-4572079D02*
X2172563Y-4553031D01*
X2172563Y-4553031D02*
X2182087Y-4543508D01*
X2182087Y-4543508D02*
X2201134Y-4533984D01*
X2353515Y-4714936D02*
X2363039Y-4724460D01*
X2363039Y-4724460D02*
X2353515Y-4733984D01*
X2353515Y-4733984D02*
X2343991Y-4724460D01*
X2343991Y-4724460D02*
X2353515Y-4714936D01*
X2353515Y-4714936D02*
X2353515Y-4733984D01*
X2486848Y-4533984D02*
X2505896Y-4533984D01*
X2505896Y-4533984D02*
X2524944Y-4543508D01*
X2524944Y-4543508D02*
X2534468Y-4553031D01*
X2534468Y-4553031D02*
X2543991Y-4572079D01*
X2543991Y-4572079D02*
X2553515Y-4610174D01*
X2553515Y-4610174D02*
X2553515Y-4657793D01*
X2553515Y-4657793D02*
X2543991Y-4695889D01*
X2543991Y-4695889D02*
X2534468Y-4714936D01*
X2534468Y-4714936D02*
X2524944Y-4724460D01*
X2524944Y-4724460D02*
X2505896Y-4733984D01*
X2505896Y-4733984D02*
X2486848Y-4733984D01*
X2486848Y-4733984D02*
X2467801Y-4724460D01*
X2467801Y-4724460D02*
X2458277Y-4714936D01*
X2458277Y-4714936D02*
X2448753Y-4695889D01*
X2448753Y-4695889D02*
X2439229Y-4657793D01*
X2439229Y-4657793D02*
X2439229Y-4610174D01*
X2439229Y-4610174D02*
X2448753Y-4572079D01*
X2448753Y-4572079D02*
X2458277Y-4553031D01*
X2458277Y-4553031D02*
X2467801Y-4543508D01*
X2467801Y-4543508D02*
X2486848Y-4533984D01*
X2743991Y-4733984D02*
X2629706Y-4733984D01*
X2686848Y-4733984D02*
X2686848Y-4533984D01*
X2686848Y-4533984D02*
X2667801Y-4562555D01*
X2667801Y-4562555D02*
X2648753Y-4581603D01*
X2648753Y-4581603D02*
X2629706Y-4591127D01*
X2934467Y-4733984D02*
X2820182Y-4733984D01*
X2877325Y-4733984D02*
X2877325Y-4533984D01*
X2877325Y-4533984D02*
X2858277Y-4562555D01*
X2858277Y-4562555D02*
X2839229Y-4581603D01*
X2839229Y-4581603D02*
X2820182Y-4591127D01*
X3048753Y-4619698D02*
X3029706Y-4610174D01*
X3029706Y-4610174D02*
X3020182Y-4600650D01*
X3020182Y-4600650D02*
X3010658Y-4581603D01*
X3010658Y-4581603D02*
X3010658Y-4572079D01*
X3010658Y-4572079D02*
X3020182Y-4553031D01*
X3020182Y-4553031D02*
X3029706Y-4543508D01*
X3029706Y-4543508D02*
X3048753Y-4533984D01*
X3048753Y-4533984D02*
X3086848Y-4533984D01*
X3086848Y-4533984D02*
X3105896Y-4543508D01*
X3105896Y-4543508D02*
X3115420Y-4553031D01*
X3115420Y-4553031D02*
X3124944Y-4572079D01*
X3124944Y-4572079D02*
X3124944Y-4581603D01*
X3124944Y-4581603D02*
X3115420Y-4600650D01*
X3115420Y-4600650D02*
X3105896Y-4610174D01*
X3105896Y-4610174D02*
X3086848Y-4619698D01*
X3086848Y-4619698D02*
X3048753Y-4619698D01*
X3048753Y-4619698D02*
X3029706Y-4629222D01*
X3029706Y-4629222D02*
X3020182Y-4638746D01*
X3020182Y-4638746D02*
X3010658Y-4657793D01*
X3010658Y-4657793D02*
X3010658Y-4695889D01*
X3010658Y-4695889D02*
X3020182Y-4714936D01*
X3020182Y-4714936D02*
X3029706Y-4724460D01*
X3029706Y-4724460D02*
X3048753Y-4733984D01*
X3048753Y-4733984D02*
X3086848Y-4733984D01*
X3086848Y-4733984D02*
X3105896Y-4724460D01*
X3105896Y-4724460D02*
X3115420Y-4714936D01*
X3115420Y-4714936D02*
X3124944Y-4695889D01*
X3124944Y-4695889D02*
X3124944Y-4657793D01*
X3124944Y-4657793D02*
X3115420Y-4638746D01*
X3115420Y-4638746D02*
X3105896Y-4629222D01*
X3105896Y-4629222D02*
X3086848Y-4619698D01*
X3201134Y-4533984D02*
X3201134Y-4572079D01*
X3277325Y-4533984D02*
X3277325Y-4572079D01*
X3572563Y-4810174D02*
X3563039Y-4800650D01*
X3563039Y-4800650D02*
X3543991Y-4772079D01*
X3543991Y-4772079D02*
X3534468Y-4753031D01*
X3534468Y-4753031D02*
X3524944Y-4724460D01*
X3524944Y-4724460D02*
X3515420Y-4676841D01*
X3515420Y-4676841D02*
X3515420Y-4638746D01*
X3515420Y-4638746D02*
X3524944Y-4591127D01*
X3524944Y-4591127D02*
X3534468Y-4562555D01*
X3534468Y-4562555D02*
X3543991Y-4543508D01*
X3543991Y-4543508D02*
X3563039Y-4514936D01*
X3563039Y-4514936D02*
X3572563Y-4505412D01*
X3639229Y-4553031D02*
X3648753Y-4543508D01*
X3648753Y-4543508D02*
X3667801Y-4533984D01*
X3667801Y-4533984D02*
X3715420Y-4533984D01*
X3715420Y-4533984D02*
X3734468Y-4543508D01*
X3734468Y-4543508D02*
X3743991Y-4553031D01*
X3743991Y-4553031D02*
X3753515Y-4572079D01*
X3753515Y-4572079D02*
X3753515Y-4591127D01*
X3753515Y-4591127D02*
X3743991Y-4619698D01*
X3743991Y-4619698D02*
X3629706Y-4733984D01*
X3629706Y-4733984D02*
X3753515Y-4733984D01*
X3877325Y-4533984D02*
X3896372Y-4533984D01*
X3896372Y-4533984D02*
X3915420Y-4543508D01*
X3915420Y-4543508D02*
X3924944Y-4553031D01*
X3924944Y-4553031D02*
X3934468Y-4572079D01*
X3934468Y-4572079D02*
X3943991Y-4610174D01*
X3943991Y-4610174D02*
X3943991Y-4657793D01*
X3943991Y-4657793D02*
X3934468Y-4695889D01*
X3934468Y-4695889D02*
X3924944Y-4714936D01*
X3924944Y-4714936D02*
X3915420Y-4724460D01*
X3915420Y-4724460D02*
X3896372Y-4733984D01*
X3896372Y-4733984D02*
X3877325Y-4733984D01*
X3877325Y-4733984D02*
X3858277Y-4724460D01*
X3858277Y-4724460D02*
X3848753Y-4714936D01*
X3848753Y-4714936D02*
X3839229Y-4695889D01*
X3839229Y-4695889D02*
X3829706Y-4657793D01*
X3829706Y-4657793D02*
X3829706Y-4610174D01*
X3829706Y-4610174D02*
X3839229Y-4572079D01*
X3839229Y-4572079D02*
X3848753Y-4553031D01*
X3848753Y-4553031D02*
X3858277Y-4543508D01*
X3858277Y-4543508D02*
X3877325Y-4533984D01*
X4134468Y-4733984D02*
X4020182Y-4733984D01*
X4077325Y-4733984D02*
X4077325Y-4533984D01*
X4077325Y-4533984D02*
X4058277Y-4562555D01*
X4058277Y-4562555D02*
X4039229Y-4581603D01*
X4039229Y-4581603D02*
X4020182Y-4591127D01*
X4372563Y-4733984D02*
X4372563Y-4533984D01*
X4458277Y-4733984D02*
X4458277Y-4629222D01*
X4458277Y-4629222D02*
X4448753Y-4610174D01*
X4448753Y-4610174D02*
X4429706Y-4600650D01*
X4429706Y-4600650D02*
X4401134Y-4600650D01*
X4401134Y-4600650D02*
X4382087Y-4610174D01*
X4382087Y-4610174D02*
X4372563Y-4619698D01*
X4582087Y-4733984D02*
X4563039Y-4724460D01*
X4563039Y-4724460D02*
X4553515Y-4714936D01*
X4553515Y-4714936D02*
X4543992Y-4695889D01*
X4543992Y-4695889D02*
X4543992Y-4638746D01*
X4543992Y-4638746D02*
X4553515Y-4619698D01*
X4553515Y-4619698D02*
X4563039Y-4610174D01*
X4563039Y-4610174D02*
X4582087Y-4600650D01*
X4582087Y-4600650D02*
X4610658Y-4600650D01*
X4610658Y-4600650D02*
X4629706Y-4610174D01*
X4629706Y-4610174D02*
X4639230Y-4619698D01*
X4639230Y-4619698D02*
X4648753Y-4638746D01*
X4648753Y-4638746D02*
X4648753Y-4695889D01*
X4648753Y-4695889D02*
X4639230Y-4714936D01*
X4639230Y-4714936D02*
X4629706Y-4724460D01*
X4629706Y-4724460D02*
X4610658Y-4733984D01*
X4610658Y-4733984D02*
X4582087Y-4733984D01*
X4763039Y-4733984D02*
X4743992Y-4724460D01*
X4743992Y-4724460D02*
X4734468Y-4705412D01*
X4734468Y-4705412D02*
X4734468Y-4533984D01*
X4915420Y-4724460D02*
X4896373Y-4733984D01*
X4896373Y-4733984D02*
X4858277Y-4733984D01*
X4858277Y-4733984D02*
X4839230Y-4724460D01*
X4839230Y-4724460D02*
X4829706Y-4705412D01*
X4829706Y-4705412D02*
X4829706Y-4629222D01*
X4829706Y-4629222D02*
X4839230Y-4610174D01*
X4839230Y-4610174D02*
X4858277Y-4600650D01*
X4858277Y-4600650D02*
X4896373Y-4600650D01*
X4896373Y-4600650D02*
X4915420Y-4610174D01*
X4915420Y-4610174D02*
X4924944Y-4629222D01*
X4924944Y-4629222D02*
X4924944Y-4648270D01*
X4924944Y-4648270D02*
X4829706Y-4667317D01*
X5001134Y-4724460D02*
X5020182Y-4733984D01*
X5020182Y-4733984D02*
X5058277Y-4733984D01*
X5058277Y-4733984D02*
X5077325Y-4724460D01*
X5077325Y-4724460D02*
X5086849Y-4705412D01*
X5086849Y-4705412D02*
X5086849Y-4695889D01*
X5086849Y-4695889D02*
X5077325Y-4676841D01*
X5077325Y-4676841D02*
X5058277Y-4667317D01*
X5058277Y-4667317D02*
X5029706Y-4667317D01*
X5029706Y-4667317D02*
X5010658Y-4657793D01*
X5010658Y-4657793D02*
X5001134Y-4638746D01*
X5001134Y-4638746D02*
X5001134Y-4629222D01*
X5001134Y-4629222D02*
X5010658Y-4610174D01*
X5010658Y-4610174D02*
X5029706Y-4600650D01*
X5029706Y-4600650D02*
X5058277Y-4600650D01*
X5058277Y-4600650D02*
X5077325Y-4610174D01*
X5153515Y-4810174D02*
X5163039Y-4800650D01*
X5163039Y-4800650D02*
X5182087Y-4772079D01*
X5182087Y-4772079D02*
X5191611Y-4753031D01*
X5191611Y-4753031D02*
X5201134Y-4724460D01*
X5201134Y-4724460D02*
X5210658Y-4676841D01*
X5210658Y-4676841D02*
X5210658Y-4638746D01*
X5210658Y-4638746D02*
X5201134Y-4591127D01*
X5201134Y-4591127D02*
X5191611Y-4562555D01*
X5191611Y-4562555D02*
X5182087Y-4543508D01*
X5182087Y-4543508D02*
X5163039Y-4514936D01*
X5163039Y-4514936D02*
X5153515Y-4505412D01*
D12*
X-2500Y-4906500D02*
G75*
G02*
X-67500Y-4906500I-32500J0D01*
G01*
X-67500Y-4906500D02*
G75*
G02*
X-2500Y-4906500I32500J0D01*
G01*
D11*
X296372Y-4797984D02*
X315420Y-4797984D01*
X315420Y-4797984D02*
X334467Y-4807508D01*
X334467Y-4807508D02*
X343991Y-4817031D01*
X343991Y-4817031D02*
X353515Y-4836079D01*
X353515Y-4836079D02*
X363039Y-4874174D01*
X363039Y-4874174D02*
X363039Y-4921793D01*
X363039Y-4921793D02*
X353515Y-4959889D01*
X353515Y-4959889D02*
X343991Y-4978936D01*
X343991Y-4978936D02*
X334467Y-4988460D01*
X334467Y-4988460D02*
X315420Y-4997984D01*
X315420Y-4997984D02*
X296372Y-4997984D01*
X296372Y-4997984D02*
X277324Y-4988460D01*
X277324Y-4988460D02*
X267801Y-4978936D01*
X267801Y-4978936D02*
X258277Y-4959889D01*
X258277Y-4959889D02*
X248753Y-4921793D01*
X248753Y-4921793D02*
X248753Y-4874174D01*
X248753Y-4874174D02*
X258277Y-4836079D01*
X258277Y-4836079D02*
X267801Y-4817031D01*
X267801Y-4817031D02*
X277324Y-4807508D01*
X277324Y-4807508D02*
X296372Y-4797984D01*
X448753Y-4978936D02*
X458277Y-4988460D01*
X458277Y-4988460D02*
X448753Y-4997984D01*
X448753Y-4997984D02*
X439229Y-4988460D01*
X439229Y-4988460D02*
X448753Y-4978936D01*
X448753Y-4978936D02*
X448753Y-4997984D01*
X629705Y-4797984D02*
X591610Y-4797984D01*
X591610Y-4797984D02*
X572563Y-4807508D01*
X572563Y-4807508D02*
X563039Y-4817031D01*
X563039Y-4817031D02*
X543991Y-4845603D01*
X543991Y-4845603D02*
X534467Y-4883698D01*
X534467Y-4883698D02*
X534467Y-4959889D01*
X534467Y-4959889D02*
X543991Y-4978936D01*
X543991Y-4978936D02*
X553515Y-4988460D01*
X553515Y-4988460D02*
X572563Y-4997984D01*
X572563Y-4997984D02*
X610658Y-4997984D01*
X610658Y-4997984D02*
X629705Y-4988460D01*
X629705Y-4988460D02*
X639229Y-4978936D01*
X639229Y-4978936D02*
X648753Y-4959889D01*
X648753Y-4959889D02*
X648753Y-4912270D01*
X648753Y-4912270D02*
X639229Y-4893222D01*
X639229Y-4893222D02*
X629705Y-4883698D01*
X629705Y-4883698D02*
X610658Y-4874174D01*
X610658Y-4874174D02*
X572563Y-4874174D01*
X572563Y-4874174D02*
X553515Y-4883698D01*
X553515Y-4883698D02*
X543991Y-4893222D01*
X543991Y-4893222D02*
X534467Y-4912270D01*
X829705Y-4797984D02*
X734467Y-4797984D01*
X734467Y-4797984D02*
X724943Y-4893222D01*
X724943Y-4893222D02*
X734467Y-4883698D01*
X734467Y-4883698D02*
X753515Y-4874174D01*
X753515Y-4874174D02*
X801134Y-4874174D01*
X801134Y-4874174D02*
X820182Y-4883698D01*
X820182Y-4883698D02*
X829705Y-4893222D01*
X829705Y-4893222D02*
X839229Y-4912270D01*
X839229Y-4912270D02*
X839229Y-4959889D01*
X839229Y-4959889D02*
X829705Y-4978936D01*
X829705Y-4978936D02*
X820182Y-4988460D01*
X820182Y-4988460D02*
X801134Y-4997984D01*
X801134Y-4997984D02*
X753515Y-4997984D01*
X753515Y-4997984D02*
X734467Y-4988460D01*
X734467Y-4988460D02*
X724943Y-4978936D01*
X963039Y-4797984D02*
X982086Y-4797984D01*
X982086Y-4797984D02*
X1001134Y-4807508D01*
X1001134Y-4807508D02*
X1010658Y-4817031D01*
X1010658Y-4817031D02*
X1020182Y-4836079D01*
X1020182Y-4836079D02*
X1029705Y-4874174D01*
X1029705Y-4874174D02*
X1029705Y-4921793D01*
X1029705Y-4921793D02*
X1020182Y-4959889D01*
X1020182Y-4959889D02*
X1010658Y-4978936D01*
X1010658Y-4978936D02*
X1001134Y-4988460D01*
X1001134Y-4988460D02*
X982086Y-4997984D01*
X982086Y-4997984D02*
X963039Y-4997984D01*
X963039Y-4997984D02*
X943991Y-4988460D01*
X943991Y-4988460D02*
X934467Y-4978936D01*
X934467Y-4978936D02*
X924943Y-4959889D01*
X924943Y-4959889D02*
X915420Y-4921793D01*
X915420Y-4921793D02*
X915420Y-4874174D01*
X915420Y-4874174D02*
X924943Y-4836079D01*
X924943Y-4836079D02*
X934467Y-4817031D01*
X934467Y-4817031D02*
X943991Y-4807508D01*
X943991Y-4807508D02*
X963039Y-4797984D01*
X1115420Y-4997984D02*
X1115420Y-4864650D01*
X1115420Y-4883698D02*
X1124944Y-4874174D01*
X1124944Y-4874174D02*
X1143991Y-4864650D01*
X1143991Y-4864650D02*
X1172563Y-4864650D01*
X1172563Y-4864650D02*
X1191610Y-4874174D01*
X1191610Y-4874174D02*
X1201134Y-4893222D01*
X1201134Y-4893222D02*
X1201134Y-4997984D01*
X1201134Y-4893222D02*
X1210658Y-4874174D01*
X1210658Y-4874174D02*
X1229705Y-4864650D01*
X1229705Y-4864650D02*
X1258277Y-4864650D01*
X1258277Y-4864650D02*
X1277325Y-4874174D01*
X1277325Y-4874174D02*
X1286848Y-4893222D01*
X1286848Y-4893222D02*
X1286848Y-4997984D01*
X1382086Y-4997984D02*
X1382086Y-4864650D01*
X1382086Y-4883698D02*
X1391610Y-4874174D01*
X1391610Y-4874174D02*
X1410658Y-4864650D01*
X1410658Y-4864650D02*
X1439229Y-4864650D01*
X1439229Y-4864650D02*
X1458277Y-4874174D01*
X1458277Y-4874174D02*
X1467801Y-4893222D01*
X1467801Y-4893222D02*
X1467801Y-4997984D01*
X1467801Y-4893222D02*
X1477324Y-4874174D01*
X1477324Y-4874174D02*
X1496372Y-4864650D01*
X1496372Y-4864650D02*
X1524943Y-4864650D01*
X1524943Y-4864650D02*
X1543991Y-4874174D01*
X1543991Y-4874174D02*
X1553515Y-4893222D01*
X1553515Y-4893222D02*
X1553515Y-4997984D01*
X1943991Y-4788460D02*
X1772563Y-5045603D01*
X2201134Y-4797984D02*
X2220182Y-4797984D01*
X2220182Y-4797984D02*
X2239229Y-4807508D01*
X2239229Y-4807508D02*
X2248753Y-4817031D01*
X2248753Y-4817031D02*
X2258277Y-4836079D01*
X2258277Y-4836079D02*
X2267801Y-4874174D01*
X2267801Y-4874174D02*
X2267801Y-4921793D01*
X2267801Y-4921793D02*
X2258277Y-4959889D01*
X2258277Y-4959889D02*
X2248753Y-4978936D01*
X2248753Y-4978936D02*
X2239229Y-4988460D01*
X2239229Y-4988460D02*
X2220182Y-4997984D01*
X2220182Y-4997984D02*
X2201134Y-4997984D01*
X2201134Y-4997984D02*
X2182087Y-4988460D01*
X2182087Y-4988460D02*
X2172563Y-4978936D01*
X2172563Y-4978936D02*
X2163039Y-4959889D01*
X2163039Y-4959889D02*
X2153515Y-4921793D01*
X2153515Y-4921793D02*
X2153515Y-4874174D01*
X2153515Y-4874174D02*
X2163039Y-4836079D01*
X2163039Y-4836079D02*
X2172563Y-4817031D01*
X2172563Y-4817031D02*
X2182087Y-4807508D01*
X2182087Y-4807508D02*
X2201134Y-4797984D01*
X2353515Y-4978936D02*
X2363039Y-4988460D01*
X2363039Y-4988460D02*
X2353515Y-4997984D01*
X2353515Y-4997984D02*
X2343991Y-4988460D01*
X2343991Y-4988460D02*
X2353515Y-4978936D01*
X2353515Y-4978936D02*
X2353515Y-4997984D01*
X2486848Y-4797984D02*
X2505896Y-4797984D01*
X2505896Y-4797984D02*
X2524944Y-4807508D01*
X2524944Y-4807508D02*
X2534468Y-4817031D01*
X2534468Y-4817031D02*
X2543991Y-4836079D01*
X2543991Y-4836079D02*
X2553515Y-4874174D01*
X2553515Y-4874174D02*
X2553515Y-4921793D01*
X2553515Y-4921793D02*
X2543991Y-4959889D01*
X2543991Y-4959889D02*
X2534468Y-4978936D01*
X2534468Y-4978936D02*
X2524944Y-4988460D01*
X2524944Y-4988460D02*
X2505896Y-4997984D01*
X2505896Y-4997984D02*
X2486848Y-4997984D01*
X2486848Y-4997984D02*
X2467801Y-4988460D01*
X2467801Y-4988460D02*
X2458277Y-4978936D01*
X2458277Y-4978936D02*
X2448753Y-4959889D01*
X2448753Y-4959889D02*
X2439229Y-4921793D01*
X2439229Y-4921793D02*
X2439229Y-4874174D01*
X2439229Y-4874174D02*
X2448753Y-4836079D01*
X2448753Y-4836079D02*
X2458277Y-4817031D01*
X2458277Y-4817031D02*
X2467801Y-4807508D01*
X2467801Y-4807508D02*
X2486848Y-4797984D01*
X2629706Y-4817031D02*
X2639229Y-4807508D01*
X2639229Y-4807508D02*
X2658277Y-4797984D01*
X2658277Y-4797984D02*
X2705896Y-4797984D01*
X2705896Y-4797984D02*
X2724944Y-4807508D01*
X2724944Y-4807508D02*
X2734468Y-4817031D01*
X2734468Y-4817031D02*
X2743991Y-4836079D01*
X2743991Y-4836079D02*
X2743991Y-4855127D01*
X2743991Y-4855127D02*
X2734468Y-4883698D01*
X2734468Y-4883698D02*
X2620182Y-4997984D01*
X2620182Y-4997984D02*
X2743991Y-4997984D01*
X2924944Y-4797984D02*
X2829706Y-4797984D01*
X2829706Y-4797984D02*
X2820182Y-4893222D01*
X2820182Y-4893222D02*
X2829706Y-4883698D01*
X2829706Y-4883698D02*
X2848753Y-4874174D01*
X2848753Y-4874174D02*
X2896372Y-4874174D01*
X2896372Y-4874174D02*
X2915420Y-4883698D01*
X2915420Y-4883698D02*
X2924944Y-4893222D01*
X2924944Y-4893222D02*
X2934467Y-4912270D01*
X2934467Y-4912270D02*
X2934467Y-4959889D01*
X2934467Y-4959889D02*
X2924944Y-4978936D01*
X2924944Y-4978936D02*
X2915420Y-4988460D01*
X2915420Y-4988460D02*
X2896372Y-4997984D01*
X2896372Y-4997984D02*
X2848753Y-4997984D01*
X2848753Y-4997984D02*
X2829706Y-4988460D01*
X2829706Y-4988460D02*
X2820182Y-4978936D01*
X3105896Y-4797984D02*
X3067801Y-4797984D01*
X3067801Y-4797984D02*
X3048753Y-4807508D01*
X3048753Y-4807508D02*
X3039229Y-4817031D01*
X3039229Y-4817031D02*
X3020182Y-4845603D01*
X3020182Y-4845603D02*
X3010658Y-4883698D01*
X3010658Y-4883698D02*
X3010658Y-4959889D01*
X3010658Y-4959889D02*
X3020182Y-4978936D01*
X3020182Y-4978936D02*
X3029706Y-4988460D01*
X3029706Y-4988460D02*
X3048753Y-4997984D01*
X3048753Y-4997984D02*
X3086848Y-4997984D01*
X3086848Y-4997984D02*
X3105896Y-4988460D01*
X3105896Y-4988460D02*
X3115420Y-4978936D01*
X3115420Y-4978936D02*
X3124944Y-4959889D01*
X3124944Y-4959889D02*
X3124944Y-4912270D01*
X3124944Y-4912270D02*
X3115420Y-4893222D01*
X3115420Y-4893222D02*
X3105896Y-4883698D01*
X3105896Y-4883698D02*
X3086848Y-4874174D01*
X3086848Y-4874174D02*
X3048753Y-4874174D01*
X3048753Y-4874174D02*
X3029706Y-4883698D01*
X3029706Y-4883698D02*
X3020182Y-4893222D01*
X3020182Y-4893222D02*
X3010658Y-4912270D01*
X3201134Y-4797984D02*
X3201134Y-4836079D01*
X3277325Y-4797984D02*
X3277325Y-4836079D01*
X3572563Y-5074174D02*
X3563039Y-5064650D01*
X3563039Y-5064650D02*
X3543991Y-5036079D01*
X3543991Y-5036079D02*
X3534468Y-5017031D01*
X3534468Y-5017031D02*
X3524944Y-4988460D01*
X3524944Y-4988460D02*
X3515420Y-4940841D01*
X3515420Y-4940841D02*
X3515420Y-4902746D01*
X3515420Y-4902746D02*
X3524944Y-4855127D01*
X3524944Y-4855127D02*
X3534468Y-4826555D01*
X3534468Y-4826555D02*
X3543991Y-4807508D01*
X3543991Y-4807508D02*
X3563039Y-4778936D01*
X3563039Y-4778936D02*
X3572563Y-4769412D01*
X3753515Y-4997984D02*
X3639229Y-4997984D01*
X3696372Y-4997984D02*
X3696372Y-4797984D01*
X3696372Y-4797984D02*
X3677325Y-4826555D01*
X3677325Y-4826555D02*
X3658277Y-4845603D01*
X3658277Y-4845603D02*
X3639229Y-4855127D01*
X3829706Y-4817031D02*
X3839229Y-4807508D01*
X3839229Y-4807508D02*
X3858277Y-4797984D01*
X3858277Y-4797984D02*
X3905896Y-4797984D01*
X3905896Y-4797984D02*
X3924944Y-4807508D01*
X3924944Y-4807508D02*
X3934468Y-4817031D01*
X3934468Y-4817031D02*
X3943991Y-4836079D01*
X3943991Y-4836079D02*
X3943991Y-4855127D01*
X3943991Y-4855127D02*
X3934468Y-4883698D01*
X3934468Y-4883698D02*
X3820182Y-4997984D01*
X3820182Y-4997984D02*
X3943991Y-4997984D01*
X4182087Y-4997984D02*
X4182087Y-4797984D01*
X4267801Y-4997984D02*
X4267801Y-4893222D01*
X4267801Y-4893222D02*
X4258277Y-4874174D01*
X4258277Y-4874174D02*
X4239230Y-4864650D01*
X4239230Y-4864650D02*
X4210658Y-4864650D01*
X4210658Y-4864650D02*
X4191610Y-4874174D01*
X4191610Y-4874174D02*
X4182087Y-4883698D01*
X4391611Y-4997984D02*
X4372563Y-4988460D01*
X4372563Y-4988460D02*
X4363039Y-4978936D01*
X4363039Y-4978936D02*
X4353515Y-4959889D01*
X4353515Y-4959889D02*
X4353515Y-4902746D01*
X4353515Y-4902746D02*
X4363039Y-4883698D01*
X4363039Y-4883698D02*
X4372563Y-4874174D01*
X4372563Y-4874174D02*
X4391611Y-4864650D01*
X4391611Y-4864650D02*
X4420182Y-4864650D01*
X4420182Y-4864650D02*
X4439230Y-4874174D01*
X4439230Y-4874174D02*
X4448753Y-4883698D01*
X4448753Y-4883698D02*
X4458277Y-4902746D01*
X4458277Y-4902746D02*
X4458277Y-4959889D01*
X4458277Y-4959889D02*
X4448753Y-4978936D01*
X4448753Y-4978936D02*
X4439230Y-4988460D01*
X4439230Y-4988460D02*
X4420182Y-4997984D01*
X4420182Y-4997984D02*
X4391611Y-4997984D01*
X4572563Y-4997984D02*
X4553515Y-4988460D01*
X4553515Y-4988460D02*
X4543992Y-4969412D01*
X4543992Y-4969412D02*
X4543992Y-4797984D01*
X4724944Y-4988460D02*
X4705896Y-4997984D01*
X4705896Y-4997984D02*
X4667801Y-4997984D01*
X4667801Y-4997984D02*
X4648753Y-4988460D01*
X4648753Y-4988460D02*
X4639230Y-4969412D01*
X4639230Y-4969412D02*
X4639230Y-4893222D01*
X4639230Y-4893222D02*
X4648753Y-4874174D01*
X4648753Y-4874174D02*
X4667801Y-4864650D01*
X4667801Y-4864650D02*
X4705896Y-4864650D01*
X4705896Y-4864650D02*
X4724944Y-4874174D01*
X4724944Y-4874174D02*
X4734468Y-4893222D01*
X4734468Y-4893222D02*
X4734468Y-4912270D01*
X4734468Y-4912270D02*
X4639230Y-4931317D01*
X4810658Y-4988460D02*
X4829706Y-4997984D01*
X4829706Y-4997984D02*
X4867801Y-4997984D01*
X4867801Y-4997984D02*
X4886849Y-4988460D01*
X4886849Y-4988460D02*
X4896373Y-4969412D01*
X4896373Y-4969412D02*
X4896373Y-4959889D01*
X4896373Y-4959889D02*
X4886849Y-4940841D01*
X4886849Y-4940841D02*
X4867801Y-4931317D01*
X4867801Y-4931317D02*
X4839230Y-4931317D01*
X4839230Y-4931317D02*
X4820182Y-4921793D01*
X4820182Y-4921793D02*
X4810658Y-4902746D01*
X4810658Y-4902746D02*
X4810658Y-4893222D01*
X4810658Y-4893222D02*
X4820182Y-4874174D01*
X4820182Y-4874174D02*
X4839230Y-4864650D01*
X4839230Y-4864650D02*
X4867801Y-4864650D01*
X4867801Y-4864650D02*
X4886849Y-4874174D01*
X4963039Y-5074174D02*
X4972563Y-5064650D01*
X4972563Y-5064650D02*
X4991611Y-5036079D01*
X4991611Y-5036079D02*
X5001134Y-5017031D01*
X5001134Y-5017031D02*
X5010658Y-4988460D01*
X5010658Y-4988460D02*
X5020182Y-4940841D01*
X5020182Y-4940841D02*
X5020182Y-4902746D01*
X5020182Y-4902746D02*
X5010658Y-4855127D01*
X5010658Y-4855127D02*
X5001134Y-4826555D01*
X5001134Y-4826555D02*
X4991611Y-4807508D01*
X4991611Y-4807508D02*
X4972563Y-4778936D01*
X4972563Y-4778936D02*
X4963039Y-4769412D01*
M02*
